<?xml version="1.0" encoding="utf-8" standalone="no"?>
<!DOCTYPE svg PUBLIC "-//W3C//DTD SVG 1.1//EN"
  "http://www.w3.org/Graphics/SVG/1.1/DTD/svg11.dtd">
<svg xmlns:xlink="http://www.w3.org/1999/xlink" width="396pt" height="288pt" viewBox="0 0 396 288" xmlns="http://www.w3.org/2000/svg" version="1.1">
 <metadata>
  <rdf:RDF xmlns:dc="http://purl.org/dc/elements/1.1/" xmlns:cc="http://creativecommons.org/ns#" xmlns:rdf="http://www.w3.org/1999/02/22-rdf-syntax-ns#">
   <cc:Work>
    <dc:type rdf:resource="http://purl.org/dc/dcmitype/StillImage"/>
    <dc:date>2026-01-05T10:20:44.558199</dc:date>
    <dc:format>image/svg+xml</dc:format>
    <dc:creator>
     <cc:Agent>
      <dc:title>Matplotlib v3.10.3, https://matplotlib.org/</dc:title>
     </cc:Agent>
    </dc:creator>
   </cc:Work>
  </rdf:RDF>
 </metadata>
 <defs>
  <style type="text/css">*{stroke-linejoin: round; stroke-linecap: butt}</style>
 </defs>
 <g id="figure_1">
  <g id="patch_1">
   <path d="M 0 288 
L 396 288 
L 396 0 
L 0 0 
z
" style="fill: #ffffff"/>
  </g>
  <g id="axes_1">
   <g id="patch_2">
    <path d="M 53.26 245.54 
L 385.2 245.54 
L 385.2 10.8 
L 53.26 10.8 
z
" style="fill: #ffffff"/>
   </g>
   <g id="patch_3">
    <path d="M 79.125455 245.54 
L 84.514091 245.54 
L 84.514091 10.8 
L 79.125455 10.8 
z
" clip-path="url(#p2269b5786f)" style="opacity: 0.2; stroke: #000000; stroke-linejoin: miter"/>
   </g>
   <g id="matplotlib.axis_1">
    <g id="xtick_1">
     <g id="line2d_1">
      <path d="M 81.819773 245.54 
L 81.819773 10.8 
" clip-path="url(#p2269b5786f)" style="fill: none; stroke: #b0b0b0; stroke-opacity: 0.3; stroke-width: 0.8; stroke-linecap: square"/>
     </g>
     <g id="line2d_2">
      <defs>
       <path id="mb55c87381a" d="M 0 0 
L 0 4 
" style="stroke: #000000; stroke-width: 0.8"/>
      </defs>
      <g>
       <use xlink:href="#mb55c87381a" x="81.819773" y="245.54" style="stroke: #000000; stroke-width: 0.8"/>
      </g>
     </g>
     <g id="text_1">
      <!-- 13 -->
      <g transform="translate(76.093523 259.878594) scale(0.09 -0.09)">
       <defs>
        <path id="DejaVuSans-31" d="M 794 531 
L 1825 531 
L 1825 4091 
L 703 3866 
L 703 4441 
L 1819 4666 
L 2450 4666 
L 2450 531 
L 3481 531 
L 3481 0 
L 794 0 
L 794 531 
z
" transform="scale(0.015625)"/>
        <path id="DejaVuSans-33" d="M 2597 2516 
Q 3050 2419 3304 2112 
Q 3559 1806 3559 1356 
Q 3559 666 3084 287 
Q 2609 -91 1734 -91 
Q 1441 -91 1130 -33 
Q 819 25 488 141 
L 488 750 
Q 750 597 1062 519 
Q 1375 441 1716 441 
Q 2309 441 2620 675 
Q 2931 909 2931 1356 
Q 2931 1769 2642 2001 
Q 2353 2234 1838 2234 
L 1294 2234 
L 1294 2753 
L 1863 2753 
Q 2328 2753 2575 2939 
Q 2822 3125 2822 3475 
Q 2822 3834 2567 4026 
Q 2313 4219 1838 4219 
Q 1578 4219 1281 4162 
Q 984 4106 628 3988 
L 628 4550 
Q 988 4650 1302 4700 
Q 1616 4750 1894 4750 
Q 2613 4750 3031 4423 
Q 3450 4097 3450 3541 
Q 3450 3153 3228 2886 
Q 3006 2619 2597 2516 
z
" transform="scale(0.015625)"/>
       </defs>
       <use xlink:href="#DejaVuSans-31"/>
       <use xlink:href="#DejaVuSans-33" transform="translate(63.623047 0)"/>
      </g>
     </g>
    </g>
    <g id="xtick_2">
     <g id="line2d_3">
      <path d="M 100.68 245.54 
L 100.68 10.8 
" clip-path="url(#p2269b5786f)" style="fill: none; stroke: #b0b0b0; stroke-opacity: 0.3; stroke-width: 0.8; stroke-linecap: square"/>
     </g>
     <g id="line2d_4">
      <g>
       <use xlink:href="#mb55c87381a" x="100.68" y="245.54" style="stroke: #000000; stroke-width: 0.8"/>
      </g>
     </g>
     <g id="text_2">
      <!-- 20 -->
      <g transform="translate(94.95375 259.878594) scale(0.09 -0.09)">
       <defs>
        <path id="DejaVuSans-32" d="M 1228 531 
L 3431 531 
L 3431 0 
L 469 0 
L 469 531 
Q 828 903 1448 1529 
Q 2069 2156 2228 2338 
Q 2531 2678 2651 2914 
Q 2772 3150 2772 3378 
Q 2772 3750 2511 3984 
Q 2250 4219 1831 4219 
Q 1534 4219 1204 4116 
Q 875 4013 500 3803 
L 500 4441 
Q 881 4594 1212 4672 
Q 1544 4750 1819 4750 
Q 2544 4750 2975 4387 
Q 3406 4025 3406 3419 
Q 3406 3131 3298 2873 
Q 3191 2616 2906 2266 
Q 2828 2175 2409 1742 
Q 1991 1309 1228 531 
z
" transform="scale(0.015625)"/>
        <path id="DejaVuSans-30" d="M 2034 4250 
Q 1547 4250 1301 3770 
Q 1056 3291 1056 2328 
Q 1056 1369 1301 889 
Q 1547 409 2034 409 
Q 2525 409 2770 889 
Q 3016 1369 3016 2328 
Q 3016 3291 2770 3770 
Q 2525 4250 2034 4250 
z
M 2034 4750 
Q 2819 4750 3233 4129 
Q 3647 3509 3647 2328 
Q 3647 1150 3233 529 
Q 2819 -91 2034 -91 
Q 1250 -91 836 529 
Q 422 1150 422 2328 
Q 422 3509 836 4129 
Q 1250 4750 2034 4750 
z
" transform="scale(0.015625)"/>
       </defs>
       <use xlink:href="#DejaVuSans-32"/>
       <use xlink:href="#DejaVuSans-30" transform="translate(63.623047 0)"/>
      </g>
     </g>
    </g>
    <g id="xtick_3">
     <g id="line2d_5">
      <path d="M 154.566364 245.54 
L 154.566364 10.8 
" clip-path="url(#p2269b5786f)" style="fill: none; stroke: #b0b0b0; stroke-opacity: 0.3; stroke-width: 0.8; stroke-linecap: square"/>
     </g>
     <g id="line2d_6">
      <g>
       <use xlink:href="#mb55c87381a" x="154.566364" y="245.54" style="stroke: #000000; stroke-width: 0.8"/>
      </g>
     </g>
     <g id="text_3">
      <!-- 40 -->
      <g transform="translate(148.840114 259.878594) scale(0.09 -0.09)">
       <defs>
        <path id="DejaVuSans-34" d="M 2419 4116 
L 825 1625 
L 2419 1625 
L 2419 4116 
z
M 2253 4666 
L 3047 4666 
L 3047 1625 
L 3713 1625 
L 3713 1100 
L 3047 1100 
L 3047 0 
L 2419 0 
L 2419 1100 
L 313 1100 
L 313 1709 
L 2253 4666 
z
" transform="scale(0.015625)"/>
       </defs>
       <use xlink:href="#DejaVuSans-34"/>
       <use xlink:href="#DejaVuSans-30" transform="translate(63.623047 0)"/>
      </g>
     </g>
    </g>
    <g id="xtick_4">
     <g id="line2d_7">
      <path d="M 208.452727 245.54 
L 208.452727 10.8 
" clip-path="url(#p2269b5786f)" style="fill: none; stroke: #b0b0b0; stroke-opacity: 0.3; stroke-width: 0.8; stroke-linecap: square"/>
     </g>
     <g id="line2d_8">
      <g>
       <use xlink:href="#mb55c87381a" x="208.452727" y="245.54" style="stroke: #000000; stroke-width: 0.8"/>
      </g>
     </g>
     <g id="text_4">
      <!-- 60 -->
      <g transform="translate(202.726477 259.878594) scale(0.09 -0.09)">
       <defs>
        <path id="DejaVuSans-36" d="M 2113 2584 
Q 1688 2584 1439 2293 
Q 1191 2003 1191 1497 
Q 1191 994 1439 701 
Q 1688 409 2113 409 
Q 2538 409 2786 701 
Q 3034 994 3034 1497 
Q 3034 2003 2786 2293 
Q 2538 2584 2113 2584 
z
M 3366 4563 
L 3366 3988 
Q 3128 4100 2886 4159 
Q 2644 4219 2406 4219 
Q 1781 4219 1451 3797 
Q 1122 3375 1075 2522 
Q 1259 2794 1537 2939 
Q 1816 3084 2150 3084 
Q 2853 3084 3261 2657 
Q 3669 2231 3669 1497 
Q 3669 778 3244 343 
Q 2819 -91 2113 -91 
Q 1303 -91 875 529 
Q 447 1150 447 2328 
Q 447 3434 972 4092 
Q 1497 4750 2381 4750 
Q 2619 4750 2861 4703 
Q 3103 4656 3366 4563 
z
" transform="scale(0.015625)"/>
       </defs>
       <use xlink:href="#DejaVuSans-36"/>
       <use xlink:href="#DejaVuSans-30" transform="translate(63.623047 0)"/>
      </g>
     </g>
    </g>
    <g id="xtick_5">
     <g id="line2d_9">
      <path d="M 262.339091 245.54 
L 262.339091 10.8 
" clip-path="url(#p2269b5786f)" style="fill: none; stroke: #b0b0b0; stroke-opacity: 0.3; stroke-width: 0.8; stroke-linecap: square"/>
     </g>
     <g id="line2d_10">
      <g>
       <use xlink:href="#mb55c87381a" x="262.339091" y="245.54" style="stroke: #000000; stroke-width: 0.8"/>
      </g>
     </g>
     <g id="text_5">
      <!-- 80 -->
      <g transform="translate(256.612841 259.878594) scale(0.09 -0.09)">
       <defs>
        <path id="DejaVuSans-38" d="M 2034 2216 
Q 1584 2216 1326 1975 
Q 1069 1734 1069 1313 
Q 1069 891 1326 650 
Q 1584 409 2034 409 
Q 2484 409 2743 651 
Q 3003 894 3003 1313 
Q 3003 1734 2745 1975 
Q 2488 2216 2034 2216 
z
M 1403 2484 
Q 997 2584 770 2862 
Q 544 3141 544 3541 
Q 544 4100 942 4425 
Q 1341 4750 2034 4750 
Q 2731 4750 3128 4425 
Q 3525 4100 3525 3541 
Q 3525 3141 3298 2862 
Q 3072 2584 2669 2484 
Q 3125 2378 3379 2068 
Q 3634 1759 3634 1313 
Q 3634 634 3220 271 
Q 2806 -91 2034 -91 
Q 1263 -91 848 271 
Q 434 634 434 1313 
Q 434 1759 690 2068 
Q 947 2378 1403 2484 
z
M 1172 3481 
Q 1172 3119 1398 2916 
Q 1625 2713 2034 2713 
Q 2441 2713 2670 2916 
Q 2900 3119 2900 3481 
Q 2900 3844 2670 4047 
Q 2441 4250 2034 4250 
Q 1625 4250 1398 4047 
Q 1172 3844 1172 3481 
z
" transform="scale(0.015625)"/>
       </defs>
       <use xlink:href="#DejaVuSans-38"/>
       <use xlink:href="#DejaVuSans-30" transform="translate(63.623047 0)"/>
      </g>
     </g>
    </g>
    <g id="xtick_6">
     <g id="line2d_11">
      <path d="M 316.225455 245.54 
L 316.225455 10.8 
" clip-path="url(#p2269b5786f)" style="fill: none; stroke: #b0b0b0; stroke-opacity: 0.3; stroke-width: 0.8; stroke-linecap: square"/>
     </g>
     <g id="line2d_12">
      <g>
       <use xlink:href="#mb55c87381a" x="316.225455" y="245.54" style="stroke: #000000; stroke-width: 0.8"/>
      </g>
     </g>
     <g id="text_6">
      <!-- 100 -->
      <g transform="translate(307.63608 259.878594) scale(0.09 -0.09)">
       <use xlink:href="#DejaVuSans-31"/>
       <use xlink:href="#DejaVuSans-30" transform="translate(63.623047 0)"/>
       <use xlink:href="#DejaVuSans-30" transform="translate(127.246094 0)"/>
      </g>
     </g>
    </g>
    <g id="xtick_7">
     <g id="line2d_13">
      <path d="M 370.111818 245.54 
L 370.111818 10.8 
" clip-path="url(#p2269b5786f)" style="fill: none; stroke: #b0b0b0; stroke-opacity: 0.3; stroke-width: 0.8; stroke-linecap: square"/>
     </g>
     <g id="line2d_14">
      <g>
       <use xlink:href="#mb55c87381a" x="370.111818" y="245.54" style="stroke: #000000; stroke-width: 0.8"/>
      </g>
     </g>
     <g id="text_7">
      <!-- 120 -->
      <g transform="translate(361.522443 259.878594) scale(0.09 -0.09)">
       <use xlink:href="#DejaVuSans-31"/>
       <use xlink:href="#DejaVuSans-32" transform="translate(63.623047 0)"/>
       <use xlink:href="#DejaVuSans-30" transform="translate(127.246094 0)"/>
      </g>
     </g>
    </g>
    <g id="text_8">
     <!-- Segment length (s) -->
     <g transform="translate(166.295078 274.108594) scale(0.11 -0.11)">
      <defs>
       <path id="DejaVuSans-53" d="M 3425 4513 
L 3425 3897 
Q 3066 4069 2747 4153 
Q 2428 4238 2131 4238 
Q 1616 4238 1336 4038 
Q 1056 3838 1056 3469 
Q 1056 3159 1242 3001 
Q 1428 2844 1947 2747 
L 2328 2669 
Q 3034 2534 3370 2195 
Q 3706 1856 3706 1288 
Q 3706 609 3251 259 
Q 2797 -91 1919 -91 
Q 1588 -91 1214 -16 
Q 841 59 441 206 
L 441 856 
Q 825 641 1194 531 
Q 1563 422 1919 422 
Q 2459 422 2753 634 
Q 3047 847 3047 1241 
Q 3047 1584 2836 1778 
Q 2625 1972 2144 2069 
L 1759 2144 
Q 1053 2284 737 2584 
Q 422 2884 422 3419 
Q 422 4038 858 4394 
Q 1294 4750 2059 4750 
Q 2388 4750 2728 4690 
Q 3069 4631 3425 4513 
z
" transform="scale(0.015625)"/>
       <path id="DejaVuSans-65" d="M 3597 1894 
L 3597 1613 
L 953 1613 
Q 991 1019 1311 708 
Q 1631 397 2203 397 
Q 2534 397 2845 478 
Q 3156 559 3463 722 
L 3463 178 
Q 3153 47 2828 -22 
Q 2503 -91 2169 -91 
Q 1331 -91 842 396 
Q 353 884 353 1716 
Q 353 2575 817 3079 
Q 1281 3584 2069 3584 
Q 2775 3584 3186 3129 
Q 3597 2675 3597 1894 
z
M 3022 2063 
Q 3016 2534 2758 2815 
Q 2500 3097 2075 3097 
Q 1594 3097 1305 2825 
Q 1016 2553 972 2059 
L 3022 2063 
z
" transform="scale(0.015625)"/>
       <path id="DejaVuSans-67" d="M 2906 1791 
Q 2906 2416 2648 2759 
Q 2391 3103 1925 3103 
Q 1463 3103 1205 2759 
Q 947 2416 947 1791 
Q 947 1169 1205 825 
Q 1463 481 1925 481 
Q 2391 481 2648 825 
Q 2906 1169 2906 1791 
z
M 3481 434 
Q 3481 -459 3084 -895 
Q 2688 -1331 1869 -1331 
Q 1566 -1331 1297 -1286 
Q 1028 -1241 775 -1147 
L 775 -588 
Q 1028 -725 1275 -790 
Q 1522 -856 1778 -856 
Q 2344 -856 2625 -561 
Q 2906 -266 2906 331 
L 2906 616 
Q 2728 306 2450 153 
Q 2172 0 1784 0 
Q 1141 0 747 490 
Q 353 981 353 1791 
Q 353 2603 747 3093 
Q 1141 3584 1784 3584 
Q 2172 3584 2450 3431 
Q 2728 3278 2906 2969 
L 2906 3500 
L 3481 3500 
L 3481 434 
z
" transform="scale(0.015625)"/>
       <path id="DejaVuSans-6d" d="M 3328 2828 
Q 3544 3216 3844 3400 
Q 4144 3584 4550 3584 
Q 5097 3584 5394 3201 
Q 5691 2819 5691 2113 
L 5691 0 
L 5113 0 
L 5113 2094 
Q 5113 2597 4934 2840 
Q 4756 3084 4391 3084 
Q 3944 3084 3684 2787 
Q 3425 2491 3425 1978 
L 3425 0 
L 2847 0 
L 2847 2094 
Q 2847 2600 2669 2842 
Q 2491 3084 2119 3084 
Q 1678 3084 1418 2786 
Q 1159 2488 1159 1978 
L 1159 0 
L 581 0 
L 581 3500 
L 1159 3500 
L 1159 2956 
Q 1356 3278 1631 3431 
Q 1906 3584 2284 3584 
Q 2666 3584 2933 3390 
Q 3200 3197 3328 2828 
z
" transform="scale(0.015625)"/>
       <path id="DejaVuSans-6e" d="M 3513 2113 
L 3513 0 
L 2938 0 
L 2938 2094 
Q 2938 2591 2744 2837 
Q 2550 3084 2163 3084 
Q 1697 3084 1428 2787 
Q 1159 2491 1159 1978 
L 1159 0 
L 581 0 
L 581 3500 
L 1159 3500 
L 1159 2956 
Q 1366 3272 1645 3428 
Q 1925 3584 2291 3584 
Q 2894 3584 3203 3211 
Q 3513 2838 3513 2113 
z
" transform="scale(0.015625)"/>
       <path id="DejaVuSans-74" d="M 1172 4494 
L 1172 3500 
L 2356 3500 
L 2356 3053 
L 1172 3053 
L 1172 1153 
Q 1172 725 1289 603 
Q 1406 481 1766 481 
L 2356 481 
L 2356 0 
L 1766 0 
Q 1100 0 847 248 
Q 594 497 594 1153 
L 594 3053 
L 172 3053 
L 172 3500 
L 594 3500 
L 594 4494 
L 1172 4494 
z
" transform="scale(0.015625)"/>
       <path id="DejaVuSans-20" transform="scale(0.015625)"/>
       <path id="DejaVuSans-6c" d="M 603 4863 
L 1178 4863 
L 1178 0 
L 603 0 
L 603 4863 
z
" transform="scale(0.015625)"/>
       <path id="DejaVuSans-68" d="M 3513 2113 
L 3513 0 
L 2938 0 
L 2938 2094 
Q 2938 2591 2744 2837 
Q 2550 3084 2163 3084 
Q 1697 3084 1428 2787 
Q 1159 2491 1159 1978 
L 1159 0 
L 581 0 
L 581 4863 
L 1159 4863 
L 1159 2956 
Q 1366 3272 1645 3428 
Q 1925 3584 2291 3584 
Q 2894 3584 3203 3211 
Q 3513 2838 3513 2113 
z
" transform="scale(0.015625)"/>
       <path id="DejaVuSans-28" d="M 1984 4856 
Q 1566 4138 1362 3434 
Q 1159 2731 1159 2009 
Q 1159 1288 1364 580 
Q 1569 -128 1984 -844 
L 1484 -844 
Q 1016 -109 783 600 
Q 550 1309 550 2009 
Q 550 2706 781 3412 
Q 1013 4119 1484 4856 
L 1984 4856 
z
" transform="scale(0.015625)"/>
       <path id="DejaVuSans-73" d="M 2834 3397 
L 2834 2853 
Q 2591 2978 2328 3040 
Q 2066 3103 1784 3103 
Q 1356 3103 1142 2972 
Q 928 2841 928 2578 
Q 928 2378 1081 2264 
Q 1234 2150 1697 2047 
L 1894 2003 
Q 2506 1872 2764 1633 
Q 3022 1394 3022 966 
Q 3022 478 2636 193 
Q 2250 -91 1575 -91 
Q 1294 -91 989 -36 
Q 684 19 347 128 
L 347 722 
Q 666 556 975 473 
Q 1284 391 1588 391 
Q 1994 391 2212 530 
Q 2431 669 2431 922 
Q 2431 1156 2273 1281 
Q 2116 1406 1581 1522 
L 1381 1569 
Q 847 1681 609 1914 
Q 372 2147 372 2553 
Q 372 3047 722 3315 
Q 1072 3584 1716 3584 
Q 2034 3584 2315 3537 
Q 2597 3491 2834 3397 
z
" transform="scale(0.015625)"/>
       <path id="DejaVuSans-29" d="M 513 4856 
L 1013 4856 
Q 1481 4119 1714 3412 
Q 1947 2706 1947 2009 
Q 1947 1309 1714 600 
Q 1481 -109 1013 -844 
L 513 -844 
Q 928 -128 1133 580 
Q 1338 1288 1338 2009 
Q 1338 2731 1133 3434 
Q 928 4138 513 4856 
z
" transform="scale(0.015625)"/>
      </defs>
      <use xlink:href="#DejaVuSans-53"/>
      <use xlink:href="#DejaVuSans-65" transform="translate(63.476562 0)"/>
      <use xlink:href="#DejaVuSans-67" transform="translate(125 0)"/>
      <use xlink:href="#DejaVuSans-6d" transform="translate(188.476562 0)"/>
      <use xlink:href="#DejaVuSans-65" transform="translate(285.888672 0)"/>
      <use xlink:href="#DejaVuSans-6e" transform="translate(347.412109 0)"/>
      <use xlink:href="#DejaVuSans-74" transform="translate(410.791016 0)"/>
      <use xlink:href="#DejaVuSans-20" transform="translate(450 0)"/>
      <use xlink:href="#DejaVuSans-6c" transform="translate(481.787109 0)"/>
      <use xlink:href="#DejaVuSans-65" transform="translate(509.570312 0)"/>
      <use xlink:href="#DejaVuSans-6e" transform="translate(571.09375 0)"/>
      <use xlink:href="#DejaVuSans-67" transform="translate(634.472656 0)"/>
      <use xlink:href="#DejaVuSans-74" transform="translate(697.949219 0)"/>
      <use xlink:href="#DejaVuSans-68" transform="translate(737.158203 0)"/>
      <use xlink:href="#DejaVuSans-20" transform="translate(800.537109 0)"/>
      <use xlink:href="#DejaVuSans-28" transform="translate(832.324219 0)"/>
      <use xlink:href="#DejaVuSans-73" transform="translate(871.337891 0)"/>
      <use xlink:href="#DejaVuSans-29" transform="translate(923.4375 0)"/>
     </g>
    </g>
   </g>
   <g id="matplotlib.axis_2">
    <g id="ytick_1">
     <g id="line2d_15">
      <path d="M 53.26 215.566655 
L 385.2 215.566655 
" clip-path="url(#p2269b5786f)" style="fill: none; stroke: #b0b0b0; stroke-opacity: 0.3; stroke-width: 0.8; stroke-linecap: square"/>
     </g>
     <g id="line2d_16">
      <defs>
       <path id="mba5cf2c1e2" d="M 0 0 
L -4 0 
" style="stroke: #000000; stroke-width: 0.8"/>
      </defs>
      <g>
       <use xlink:href="#mba5cf2c1e2" x="53.26" y="215.566655" style="stroke: #000000; stroke-width: 0.8"/>
      </g>
     </g>
     <g id="text_9">
      <!-- 0.15 -->
      <g transform="translate(25.720938 218.985952) scale(0.09 -0.09)">
       <defs>
        <path id="DejaVuSans-2e" d="M 684 794 
L 1344 794 
L 1344 0 
L 684 0 
L 684 794 
z
" transform="scale(0.015625)"/>
        <path id="DejaVuSans-35" d="M 691 4666 
L 3169 4666 
L 3169 4134 
L 1269 4134 
L 1269 2991 
Q 1406 3038 1543 3061 
Q 1681 3084 1819 3084 
Q 2600 3084 3056 2656 
Q 3513 2228 3513 1497 
Q 3513 744 3044 326 
Q 2575 -91 1722 -91 
Q 1428 -91 1123 -41 
Q 819 9 494 109 
L 494 744 
Q 775 591 1075 516 
Q 1375 441 1709 441 
Q 2250 441 2565 725 
Q 2881 1009 2881 1497 
Q 2881 1984 2565 2268 
Q 2250 2553 1709 2553 
Q 1456 2553 1204 2497 
Q 953 2441 691 2322 
L 691 4666 
z
" transform="scale(0.015625)"/>
       </defs>
       <use xlink:href="#DejaVuSans-30"/>
       <use xlink:href="#DejaVuSans-2e" transform="translate(63.623047 0)"/>
       <use xlink:href="#DejaVuSans-31" transform="translate(95.410156 0)"/>
       <use xlink:href="#DejaVuSans-35" transform="translate(159.033203 0)"/>
      </g>
     </g>
    </g>
    <g id="ytick_2">
     <g id="line2d_17">
      <path d="M 53.26 179.053677 
L 385.2 179.053677 
" clip-path="url(#p2269b5786f)" style="fill: none; stroke: #b0b0b0; stroke-opacity: 0.3; stroke-width: 0.8; stroke-linecap: square"/>
     </g>
     <g id="line2d_18">
      <g>
       <use xlink:href="#mba5cf2c1e2" x="53.26" y="179.053677" style="stroke: #000000; stroke-width: 0.8"/>
      </g>
     </g>
     <g id="text_10">
      <!-- 0.30 -->
      <g transform="translate(25.720938 182.472974) scale(0.09 -0.09)">
       <use xlink:href="#DejaVuSans-30"/>
       <use xlink:href="#DejaVuSans-2e" transform="translate(63.623047 0)"/>
       <use xlink:href="#DejaVuSans-33" transform="translate(95.410156 0)"/>
       <use xlink:href="#DejaVuSans-30" transform="translate(159.033203 0)"/>
      </g>
     </g>
    </g>
    <g id="ytick_3">
     <g id="line2d_19">
      <path d="M 53.26 142.540698 
L 385.2 142.540698 
" clip-path="url(#p2269b5786f)" style="fill: none; stroke: #b0b0b0; stroke-opacity: 0.3; stroke-width: 0.8; stroke-linecap: square"/>
     </g>
     <g id="line2d_20">
      <g>
       <use xlink:href="#mba5cf2c1e2" x="53.26" y="142.540698" style="stroke: #000000; stroke-width: 0.8"/>
      </g>
     </g>
     <g id="text_11">
      <!-- 0.45 -->
      <g transform="translate(25.720938 145.959995) scale(0.09 -0.09)">
       <use xlink:href="#DejaVuSans-30"/>
       <use xlink:href="#DejaVuSans-2e" transform="translate(63.623047 0)"/>
       <use xlink:href="#DejaVuSans-34" transform="translate(95.410156 0)"/>
       <use xlink:href="#DejaVuSans-35" transform="translate(159.033203 0)"/>
      </g>
     </g>
    </g>
    <g id="ytick_4">
     <g id="line2d_21">
      <path d="M 53.26 106.02772 
L 385.2 106.02772 
" clip-path="url(#p2269b5786f)" style="fill: none; stroke: #b0b0b0; stroke-opacity: 0.3; stroke-width: 0.8; stroke-linecap: square"/>
     </g>
     <g id="line2d_22">
      <g>
       <use xlink:href="#mba5cf2c1e2" x="53.26" y="106.02772" style="stroke: #000000; stroke-width: 0.8"/>
      </g>
     </g>
     <g id="text_12">
      <!-- 0.60 -->
      <g transform="translate(25.720938 109.447017) scale(0.09 -0.09)">
       <use xlink:href="#DejaVuSans-30"/>
       <use xlink:href="#DejaVuSans-2e" transform="translate(63.623047 0)"/>
       <use xlink:href="#DejaVuSans-36" transform="translate(95.410156 0)"/>
       <use xlink:href="#DejaVuSans-30" transform="translate(159.033203 0)"/>
      </g>
     </g>
    </g>
    <g id="ytick_5">
     <g id="line2d_23">
      <path d="M 53.26 69.514742 
L 385.2 69.514742 
" clip-path="url(#p2269b5786f)" style="fill: none; stroke: #b0b0b0; stroke-opacity: 0.3; stroke-width: 0.8; stroke-linecap: square"/>
     </g>
     <g id="line2d_24">
      <g>
       <use xlink:href="#mba5cf2c1e2" x="53.26" y="69.514742" style="stroke: #000000; stroke-width: 0.8"/>
      </g>
     </g>
     <g id="text_13">
      <!-- 0.75 -->
      <g transform="translate(25.720938 72.934039) scale(0.09 -0.09)">
       <defs>
        <path id="DejaVuSans-37" d="M 525 4666 
L 3525 4666 
L 3525 4397 
L 1831 0 
L 1172 0 
L 2766 4134 
L 525 4134 
L 525 4666 
z
" transform="scale(0.015625)"/>
       </defs>
       <use xlink:href="#DejaVuSans-30"/>
       <use xlink:href="#DejaVuSans-2e" transform="translate(63.623047 0)"/>
       <use xlink:href="#DejaVuSans-37" transform="translate(95.410156 0)"/>
       <use xlink:href="#DejaVuSans-35" transform="translate(159.033203 0)"/>
      </g>
     </g>
    </g>
    <g id="ytick_6">
     <g id="line2d_25">
      <path d="M 53.26 33.001763 
L 385.2 33.001763 
" clip-path="url(#p2269b5786f)" style="fill: none; stroke: #b0b0b0; stroke-opacity: 0.3; stroke-width: 0.8; stroke-linecap: square"/>
     </g>
     <g id="line2d_26">
      <g>
       <use xlink:href="#mba5cf2c1e2" x="53.26" y="33.001763" style="stroke: #000000; stroke-width: 0.8"/>
      </g>
     </g>
     <g id="text_14">
      <!-- 0.90 -->
      <g transform="translate(25.720938 36.42106) scale(0.09 -0.09)">
       <defs>
        <path id="DejaVuSans-39" d="M 703 97 
L 703 672 
Q 941 559 1184 500 
Q 1428 441 1663 441 
Q 2288 441 2617 861 
Q 2947 1281 2994 2138 
Q 2813 1869 2534 1725 
Q 2256 1581 1919 1581 
Q 1219 1581 811 2004 
Q 403 2428 403 3163 
Q 403 3881 828 4315 
Q 1253 4750 1959 4750 
Q 2769 4750 3195 4129 
Q 3622 3509 3622 2328 
Q 3622 1225 3098 567 
Q 2575 -91 1691 -91 
Q 1453 -91 1209 -44 
Q 966 3 703 97 
z
M 1959 2075 
Q 2384 2075 2632 2365 
Q 2881 2656 2881 3163 
Q 2881 3666 2632 3958 
Q 2384 4250 1959 4250 
Q 1534 4250 1286 3958 
Q 1038 3666 1038 3163 
Q 1038 2656 1286 2365 
Q 1534 2075 1959 2075 
z
" transform="scale(0.015625)"/>
       </defs>
       <use xlink:href="#DejaVuSans-30"/>
       <use xlink:href="#DejaVuSans-2e" transform="translate(63.623047 0)"/>
       <use xlink:href="#DejaVuSans-39" transform="translate(95.410156 0)"/>
       <use xlink:href="#DejaVuSans-30" transform="translate(159.033203 0)"/>
      </g>
     </g>
    </g>
    <g id="text_15">
     <!-- Differentiation accuracy -->
     <g transform="translate(19.433281 194.349609) rotate(-90) scale(0.11 -0.11)">
      <defs>
       <path id="DejaVuSans-44" d="M 1259 4147 
L 1259 519 
L 2022 519 
Q 2988 519 3436 956 
Q 3884 1394 3884 2338 
Q 3884 3275 3436 3711 
Q 2988 4147 2022 4147 
L 1259 4147 
z
M 628 4666 
L 1925 4666 
Q 3281 4666 3915 4102 
Q 4550 3538 4550 2338 
Q 4550 1131 3912 565 
Q 3275 0 1925 0 
L 628 0 
L 628 4666 
z
" transform="scale(0.015625)"/>
       <path id="DejaVuSans-69" d="M 603 3500 
L 1178 3500 
L 1178 0 
L 603 0 
L 603 3500 
z
M 603 4863 
L 1178 4863 
L 1178 4134 
L 603 4134 
L 603 4863 
z
" transform="scale(0.015625)"/>
       <path id="DejaVuSans-66" d="M 2375 4863 
L 2375 4384 
L 1825 4384 
Q 1516 4384 1395 4259 
Q 1275 4134 1275 3809 
L 1275 3500 
L 2222 3500 
L 2222 3053 
L 1275 3053 
L 1275 0 
L 697 0 
L 697 3053 
L 147 3053 
L 147 3500 
L 697 3500 
L 697 3744 
Q 697 4328 969 4595 
Q 1241 4863 1831 4863 
L 2375 4863 
z
" transform="scale(0.015625)"/>
       <path id="DejaVuSans-72" d="M 2631 2963 
Q 2534 3019 2420 3045 
Q 2306 3072 2169 3072 
Q 1681 3072 1420 2755 
Q 1159 2438 1159 1844 
L 1159 0 
L 581 0 
L 581 3500 
L 1159 3500 
L 1159 2956 
Q 1341 3275 1631 3429 
Q 1922 3584 2338 3584 
Q 2397 3584 2469 3576 
Q 2541 3569 2628 3553 
L 2631 2963 
z
" transform="scale(0.015625)"/>
       <path id="DejaVuSans-61" d="M 2194 1759 
Q 1497 1759 1228 1600 
Q 959 1441 959 1056 
Q 959 750 1161 570 
Q 1363 391 1709 391 
Q 2188 391 2477 730 
Q 2766 1069 2766 1631 
L 2766 1759 
L 2194 1759 
z
M 3341 1997 
L 3341 0 
L 2766 0 
L 2766 531 
Q 2569 213 2275 61 
Q 1981 -91 1556 -91 
Q 1019 -91 701 211 
Q 384 513 384 1019 
Q 384 1609 779 1909 
Q 1175 2209 1959 2209 
L 2766 2209 
L 2766 2266 
Q 2766 2663 2505 2880 
Q 2244 3097 1772 3097 
Q 1472 3097 1187 3025 
Q 903 2953 641 2809 
L 641 3341 
Q 956 3463 1253 3523 
Q 1550 3584 1831 3584 
Q 2591 3584 2966 3190 
Q 3341 2797 3341 1997 
z
" transform="scale(0.015625)"/>
       <path id="DejaVuSans-6f" d="M 1959 3097 
Q 1497 3097 1228 2736 
Q 959 2375 959 1747 
Q 959 1119 1226 758 
Q 1494 397 1959 397 
Q 2419 397 2687 759 
Q 2956 1122 2956 1747 
Q 2956 2369 2687 2733 
Q 2419 3097 1959 3097 
z
M 1959 3584 
Q 2709 3584 3137 3096 
Q 3566 2609 3566 1747 
Q 3566 888 3137 398 
Q 2709 -91 1959 -91 
Q 1206 -91 779 398 
Q 353 888 353 1747 
Q 353 2609 779 3096 
Q 1206 3584 1959 3584 
z
" transform="scale(0.015625)"/>
       <path id="DejaVuSans-63" d="M 3122 3366 
L 3122 2828 
Q 2878 2963 2633 3030 
Q 2388 3097 2138 3097 
Q 1578 3097 1268 2742 
Q 959 2388 959 1747 
Q 959 1106 1268 751 
Q 1578 397 2138 397 
Q 2388 397 2633 464 
Q 2878 531 3122 666 
L 3122 134 
Q 2881 22 2623 -34 
Q 2366 -91 2075 -91 
Q 1284 -91 818 406 
Q 353 903 353 1747 
Q 353 2603 823 3093 
Q 1294 3584 2113 3584 
Q 2378 3584 2631 3529 
Q 2884 3475 3122 3366 
z
" transform="scale(0.015625)"/>
       <path id="DejaVuSans-75" d="M 544 1381 
L 544 3500 
L 1119 3500 
L 1119 1403 
Q 1119 906 1312 657 
Q 1506 409 1894 409 
Q 2359 409 2629 706 
Q 2900 1003 2900 1516 
L 2900 3500 
L 3475 3500 
L 3475 0 
L 2900 0 
L 2900 538 
Q 2691 219 2414 64 
Q 2138 -91 1772 -91 
Q 1169 -91 856 284 
Q 544 659 544 1381 
z
M 1991 3584 
L 1991 3584 
z
" transform="scale(0.015625)"/>
       <path id="DejaVuSans-79" d="M 2059 -325 
Q 1816 -950 1584 -1140 
Q 1353 -1331 966 -1331 
L 506 -1331 
L 506 -850 
L 844 -850 
Q 1081 -850 1212 -737 
Q 1344 -625 1503 -206 
L 1606 56 
L 191 3500 
L 800 3500 
L 1894 763 
L 2988 3500 
L 3597 3500 
L 2059 -325 
z
" transform="scale(0.015625)"/>
      </defs>
      <use xlink:href="#DejaVuSans-44"/>
      <use xlink:href="#DejaVuSans-69" transform="translate(77.001953 0)"/>
      <use xlink:href="#DejaVuSans-66" transform="translate(104.785156 0)"/>
      <use xlink:href="#DejaVuSans-66" transform="translate(139.990234 0)"/>
      <use xlink:href="#DejaVuSans-65" transform="translate(175.195312 0)"/>
      <use xlink:href="#DejaVuSans-72" transform="translate(236.71875 0)"/>
      <use xlink:href="#DejaVuSans-65" transform="translate(275.582031 0)"/>
      <use xlink:href="#DejaVuSans-6e" transform="translate(337.105469 0)"/>
      <use xlink:href="#DejaVuSans-74" transform="translate(400.484375 0)"/>
      <use xlink:href="#DejaVuSans-69" transform="translate(439.693359 0)"/>
      <use xlink:href="#DejaVuSans-61" transform="translate(467.476562 0)"/>
      <use xlink:href="#DejaVuSans-74" transform="translate(528.755859 0)"/>
      <use xlink:href="#DejaVuSans-69" transform="translate(567.964844 0)"/>
      <use xlink:href="#DejaVuSans-6f" transform="translate(595.748047 0)"/>
      <use xlink:href="#DejaVuSans-6e" transform="translate(656.929688 0)"/>
      <use xlink:href="#DejaVuSans-20" transform="translate(720.308594 0)"/>
      <use xlink:href="#DejaVuSans-61" transform="translate(752.095703 0)"/>
      <use xlink:href="#DejaVuSans-63" transform="translate(813.375 0)"/>
      <use xlink:href="#DejaVuSans-63" transform="translate(868.355469 0)"/>
      <use xlink:href="#DejaVuSans-75" transform="translate(923.335938 0)"/>
      <use xlink:href="#DejaVuSans-72" transform="translate(986.714844 0)"/>
      <use xlink:href="#DejaVuSans-61" transform="translate(1027.828125 0)"/>
      <use xlink:href="#DejaVuSans-63" transform="translate(1089.107422 0)"/>
      <use xlink:href="#DejaVuSans-79" transform="translate(1144.087891 0)"/>
     </g>
    </g>
   </g>
   <g id="FillBetweenPolyCollection_1">
    <defs>
     <path id="m5b5b05f35b" d="M 68.348182 -60.470762 
L 68.348182 -53.13 
L 71.0425 -55.83649 
L 73.736818 -59.627254 
L 76.431136 -62.071441 
L 79.125455 -68.671675 
L 81.819773 -82.139278 
L 84.514091 -72.878091 
L 87.208409 -72.592954 
L 89.902727 -76.172636 
L 92.597045 -83.55567 
L 95.291364 -87.992079 
L 97.985682 -103.03318 
L 100.68 -105.364589 
L 103.374318 -112.780981 
L 106.068636 -117.82323 
L 108.762955 -124.158402 
L 111.457273 -121.782631 
L 114.151591 -121.351185 
L 116.845909 -126.235581 
L 119.540227 -133.599123 
L 122.234545 -136.951655 
L 124.928864 -141.45235 
L 127.623182 -150.20364 
L 130.3175 -147.504913 
L 133.011818 -152.186478 
L 135.706136 -154.966557 
L 138.400455 -159.535871 
L 141.094773 -162.906724 
L 143.789091 -169.135699 
L 146.483409 -167.159984 
L 149.177727 -170.056682 
L 151.872045 -175.003021 
L 154.566364 -172.679898 
L 157.260682 -175.059637 
L 159.955 -169.743705 
L 162.649318 -169.000865 
L 165.343636 -167.261144 
L 168.037955 -169.272665 
L 170.732273 -179.502962 
L 173.426591 -176.901403 
L 176.120909 -181.525099 
L 178.815227 -182.127007 
L 181.509545 -183.037233 
L 184.203864 -182.054231 
L 186.898182 -185.114169 
L 189.5925 -186.263013 
L 192.286818 -189.42228 
L 194.981136 -187.997287 
L 197.675455 -188.419799 
L 200.369773 -187.339076 
L 203.064091 -187.886024 
L 205.758409 -184.648784 
L 208.452727 -184.303004 
L 211.147045 -192.252782 
L 213.841364 -197.153612 
L 216.535682 -199.243693 
L 219.23 -199.762825 
L 221.924318 -199.736574 
L 224.618636 -199.330948 
L 227.312955 -195.971544 
L 230.007273 -197.199276 
L 232.701591 -199.544655 
L 235.395909 -201.199681 
L 238.090227 -202.944609 
L 240.784545 -200.741805 
L 243.478864 -200.870449 
L 246.173182 -201.123092 
L 248.8675 -200.578137 
L 251.561818 -200.896168 
L 254.256136 -204.113722 
L 256.950455 -203.811435 
L 259.644773 -200.501417 
L 262.339091 -201.044887 
L 265.033409 -201.971511 
L 267.727727 -200.764147 
L 270.422045 -203.939642 
L 273.116364 -204.16879 
L 275.810682 -207.443844 
L 278.505 -210.081527 
L 281.199318 -207.517258 
L 283.893636 -208.143564 
L 286.587955 -208.304554 
L 289.282273 -208.14579 
L 291.976591 -207.833356 
L 294.670909 -205.5708 
L 297.365227 -205.938133 
L 300.059545 -206.009715 
L 302.753864 -208.766425 
L 305.448182 -210.421143 
L 308.1425 -208.140225 
L 310.836818 -208.760775 
L 313.531136 -211.273094 
L 316.225455 -213.599654 
L 318.919773 -212.755043 
L 321.614091 -213.227818 
L 324.308409 -216.049426 
L 327.002727 -214.9271 
L 329.697045 -218.154648 
L 332.391364 -218.229766 
L 335.085682 -218.405834 
L 337.78 -216.382853 
L 340.474318 -216.351832 
L 343.168636 -216.032788 
L 345.862955 -218.759216 
L 348.557273 -217.559495 
L 351.251591 -218.210131 
L 353.945909 -220.697263 
L 356.640227 -223.500417 
L 359.334545 -225.151527 
L 362.028864 -225.170418 
L 364.723182 -225.22446 
L 367.4175 -225.485738 
L 370.111818 -223.532974 
L 370.111818 -231.071958 
L 370.111818 -231.071958 
L 367.4175 -232.959819 
L 364.723182 -231.760578 
L 362.028864 -232.896486 
L 359.334545 -232.915377 
L 356.640227 -229.643997 
L 353.945909 -227.741033 
L 351.251591 -226.062981 
L 348.557273 -225.144911 
L 345.862955 -225.459802 
L 343.168636 -222.776901 
L 340.474318 -223.756096 
L 337.78 -223.454608 
L 335.085682 -225.650905 
L 332.391364 -226.421999 
L 329.697045 -225.415251 
L 327.002727 -223.449842 
L 324.308409 -224.112595 
L 321.614091 -221.687153 
L 318.919773 -221.510809 
L 316.225455 -220.503918 
L 313.531136 -219.530786 
L 310.836818 -217.661548 
L 308.1425 -215.793806 
L 305.448182 -218.759938 
L 302.753864 -218.034551 
L 300.059545 -213.813225 
L 297.365227 -214.642113 
L 294.670909 -213.062087 
L 291.976591 -215.343369 
L 289.282273 -216.761921 
L 286.587955 -216.440877 
L 283.893636 -216.00684 
L 281.199318 -215.984026 
L 278.505 -217.693129 
L 275.810682 -215.246041 
L 273.116364 -212.083992 
L 270.422045 -212.475421 
L 267.727727 -209.592465 
L 265.033409 -209.737433 
L 262.339091 -209.257632 
L 259.644773 -208.881516 
L 256.950455 -212.279067 
L 254.256136 -212.13906 
L 251.561818 -209.081791 
L 248.8675 -209.075263 
L 246.173182 -210.964506 
L 243.478864 -209.43207 
L 240.784545 -209.344341 
L 238.090227 -211.901747 
L 235.395909 -210.45517 
L 232.701591 -208.756412 
L 230.007273 -205.367901 
L 227.312955 -205.2433 
L 224.618636 -208.753746 
L 221.924318 -208.348119 
L 219.23 -207.618655 
L 216.535682 -206.893641 
L 213.841364 -204.764445 
L 211.147045 -200.685787 
L 208.452727 -195.166334 
L 205.758409 -194.495994 
L 203.064091 -196.776271 
L 200.369773 -196.187259 
L 197.675455 -196.134308 
L 194.981136 -196.124074 
L 192.286818 -197.403746 
L 189.5925 -195.261869 
L 186.898182 -192.624182 
L 184.203864 -190.166604 
L 181.509545 -192.050547 
L 178.815227 -190.851134 
L 176.120909 -190.154803 
L 173.426591 -185.312172 
L 170.732273 -188.119942 
L 168.037955 -178.173438 
L 165.343636 -177.047548 
L 162.649318 -178.986171 
L 159.955 -179.812037 
L 157.260682 -183.205126 
L 154.566364 -180.067348 
L 151.872045 -182.828996 
L 149.177727 -179.390873 
L 146.483409 -175.201349 
L 143.789091 -177.769471 
L 141.094773 -170.745588 
L 138.400455 -168.436644 
L 135.706136 -163.647816 
L 133.011818 -160.748099 
L 130.3175 -155.909243 
L 127.623182 -159.160779 
L 124.928864 -150.494026 
L 122.234545 -145.257927 
L 119.540227 -142.660195 
L 116.845909 -135.418546 
L 114.151591 -128.943349 
L 111.457273 -131.703408 
L 108.762955 -132.410955 
L 106.068636 -126.953788 
L 103.374318 -121.123283 
L 100.68 -114.096763 
L 97.985682 -112.100708 
L 95.291364 -95.713601 
L 92.597045 -91.278709 
L 89.902727 -84.705672 
L 87.208409 -81.36141 
L 84.514091 -81.400833 
L 81.819773 -88.854477 
L 79.125455 -77.709628 
L 76.431136 -69.54239 
L 73.736818 -65.874035 
L 71.0425 -62.254016 
L 68.348182 -60.470762 
z
" style="stroke: #ff7f0e; stroke-opacity: 0.2"/>
    </defs>
    <g clip-path="url(#p2269b5786f)">
     <use xlink:href="#m5b5b05f35b" x="0" y="288" style="fill: #ff7f0e; fill-opacity: 0.2; stroke: #ff7f0e; stroke-opacity: 0.2"/>
    </g>
   </g>
   <g id="FillBetweenPolyCollection_2">
    <defs>
     <path id="ma0bba6976c" d="M 68.348182 -176.081242 
L 68.348182 -167.524236 
L 71.0425 -178.785213 
L 73.736818 -185.844174 
L 76.431136 -196.595544 
L 79.125455 -193.730086 
L 81.819773 -203.004496 
L 84.514091 -196.275934 
L 87.208409 -201.27884 
L 89.902727 -201.283385 
L 92.597045 -200.714095 
L 95.291364 -202.458262 
L 97.985682 -205.261719 
L 100.68 -199.512614 
L 103.374318 -193.93984 
L 106.068636 -197.873472 
L 108.762955 -203.726676 
L 111.457273 -205.267732 
L 114.151591 -203.002608 
L 116.845909 -199.399556 
L 119.540227 -201.895767 
L 122.234545 -199.05458 
L 124.928864 -203.447002 
L 127.623182 -205.614174 
L 130.3175 -205.481111 
L 133.011818 -210.916245 
L 135.706136 -210.49262 
L 138.400455 -213.65756 
L 141.094773 -213.346395 
L 143.789091 -214.871422 
L 146.483409 -215.494004 
L 149.177727 -216.057565 
L 151.872045 -215.086665 
L 154.566364 -212.370552 
L 157.260682 -213.114008 
L 159.955 -210.439657 
L 162.649318 -210.201964 
L 165.343636 -214.428972 
L 168.037955 -217.244259 
L 170.732273 -220.568433 
L 173.426591 -218.130615 
L 176.120909 -219.871013 
L 178.815227 -217.538298 
L 181.509545 -222.780512 
L 184.203864 -222.814863 
L 186.898182 -219.520767 
L 189.5925 -213.269868 
L 192.286818 -217.611988 
L 194.981136 -217.820182 
L 197.675455 -217.072765 
L 200.369773 -217.976323 
L 203.064091 -217.407258 
L 205.758409 -217.927291 
L 208.452727 -217.258529 
L 211.147045 -217.107109 
L 213.841364 -217.538327 
L 216.535682 -220.665092 
L 219.23 -223.788391 
L 221.924318 -227.274644 
L 224.618636 -225.997094 
L 227.312955 -225.613825 
L 230.007273 -227.547218 
L 232.701591 -227.422695 
L 235.395909 -229.983306 
L 238.090227 -229.731172 
L 240.784545 -230.89358 
L 243.478864 -230.622389 
L 246.173182 -229.831465 
L 248.8675 -230.543774 
L 251.561818 -232.642713 
L 254.256136 -232.771207 
L 256.950455 -233.101193 
L 259.644773 -233.236933 
L 262.339091 -232.795496 
L 265.033409 -235.690585 
L 267.727727 -235.226365 
L 270.422045 -240.024592 
L 273.116364 -236.938127 
L 275.810682 -236.893248 
L 278.505 -237.886383 
L 281.199318 -239.71607 
L 283.893636 -240.298527 
L 286.587955 -238.14395 
L 289.282273 -239.975835 
L 291.976591 -239.477854 
L 294.670909 -240.14124 
L 297.365227 -239.5958 
L 300.059545 -240.274346 
L 302.753864 -240.190642 
L 305.448182 -240.055534 
L 308.1425 -239.857913 
L 310.836818 -240.307223 
L 313.531136 -240.013791 
L 316.225455 -239.262841 
L 318.919773 -239.698721 
L 321.614091 -237.982047 
L 324.308409 -237.806071 
L 327.002727 -235.001386 
L 329.697045 -234.630869 
L 332.391364 -237.621241 
L 335.085682 -237.561596 
L 337.78 -238.072643 
L 340.474318 -240.062368 
L 343.168636 -239.861461 
L 345.862955 -239.914955 
L 348.557273 -242.694952 
L 351.251591 -242.688632 
L 353.945909 -243.093298 
L 356.640227 -243.104082 
L 359.334545 -243.294117 
L 362.028864 -245.115555 
L 364.723182 -245.081017 
L 367.4175 -242.889362 
L 370.111818 -244.98932 
L 370.111818 -250.293775 
L 370.111818 -250.293775 
L 367.4175 -248.715389 
L 364.723182 -250.743012 
L 362.028864 -250.275727 
L 359.334545 -249.176126 
L 356.640227 -248.608856 
L 353.945909 -248.403266 
L 351.251591 -248.537466 
L 348.557273 -248.909799 
L 345.862955 -246.929586 
L 343.168636 -245.955306 
L 340.474318 -245.808493 
L 337.78 -244.06578 
L 335.085682 -243.873614 
L 332.391364 -244.138529 
L 329.697045 -241.124544 
L 327.002727 -240.862214 
L 324.308409 -243.953698 
L 321.614091 -244.643215 
L 318.919773 -246.767166 
L 316.225455 -246.12118 
L 313.531136 -244.88339 
L 310.836818 -245.780011 
L 308.1425 -245.904761 
L 305.448182 -245.490767 
L 302.753864 -245.517939 
L 300.059545 -245.434235 
L 297.365227 -245.680034 
L 294.670909 -245.296874 
L 291.976591 -245.79798 
L 289.282273 -245.516373 
L 286.587955 -244.210846 
L 283.893636 -246.600106 
L 281.199318 -246.046604 
L 278.505 -242.683334 
L 275.810682 -243.622376 
L 273.116364 -243.361123 
L 270.422045 -245.03487 
L 267.727727 -241.881381 
L 265.033409 -241.687627 
L 262.339091 -238.794733 
L 259.644773 -239.272882 
L 256.950455 -239.354529 
L 254.256136 -238.819022 
L 251.561818 -239.00161 
L 248.8675 -237.368111 
L 246.173182 -236.511714 
L 243.478864 -236.53219 
L 240.784545 -237.505145 
L 238.090227 -236.395634 
L 235.395909 -235.65666 
L 232.701591 -234.214367 
L 230.007273 -234.68487 
L 227.312955 -232.723545 
L 224.618636 -232.773023 
L 221.924318 -233.875578 
L 219.23 -231.141101 
L 216.535682 -227.827298 
L 213.841364 -224.895613 
L 211.147045 -224.839992 
L 208.452727 -223.877171 
L 205.758409 -225.588515 
L 203.064091 -224.593935 
L 200.369773 -224.619897 
L 197.675455 -225.036615 
L 194.981136 -225.262878 
L 192.286818 -224.767859 
L 189.5925 -220.400957 
L 186.898182 -226.321051 
L 184.203864 -230.32955 
L 181.509545 -229.444315 
L 178.815227 -224.246522 
L 176.120909 -227.323138 
L 173.426591 -225.601564 
L 170.732273 -226.84209 
L 168.037955 -224.216002 
L 165.343636 -222.649731 
L 162.649318 -218.546371 
L 159.955 -218.200491 
L 157.260682 -219.799511 
L 154.566364 -220.488874 
L 151.872045 -222.641158 
L 149.177727 -223.02259 
L 146.483409 -223.586152 
L 143.789091 -223.289147 
L 141.094773 -221.46039 
L 138.400455 -220.770572 
L 135.706136 -218.255715 
L 133.011818 -217.777997 
L 130.3175 -213.909083 
L 127.623182 -214.046486 
L 124.928864 -212.6435 
L 122.234545 -207.569594 
L 119.540227 -210.408204 
L 116.845909 -208.739231 
L 114.151591 -211.573282 
L 111.457273 -214.176555 
L 108.762955 -210.79512 
L 106.068636 -206.370598 
L 103.374318 -202.406608 
L 100.68 -207.382027 
L 97.985682 -212.018836 
L 95.291364 -211.035761 
L 92.597045 -207.965625 
L 89.902727 -208.478201 
L 87.208409 -209.294146 
L 84.514091 -203.370204 
L 81.819773 -210.273154 
L 79.125455 -202.237708 
L 76.431136 -204.348834 
L 73.736818 -194.328377 
L 71.0425 -188.999971 
L 68.348182 -176.081242 
z
" style="stroke: #2ca02c; stroke-opacity: 0.2"/>
    </defs>
    <g clip-path="url(#p2269b5786f)">
     <use xlink:href="#ma0bba6976c" x="0" y="288" style="fill: #2ca02c; fill-opacity: 0.2; stroke: #2ca02c; stroke-opacity: 0.2"/>
    </g>
   </g>
   <g id="FillBetweenPolyCollection_3">
    <defs>
     <path id="m44960ebf25" d="M 68.348182 -108.907486 
L 68.348182 -101.412098 
L 71.0425 -101.415413 
L 73.736818 -101.943059 
L 76.431136 -101.692415 
L 79.125455 -123.551515 
L 81.819773 -119.010365 
L 84.514091 -118.816613 
L 87.208409 -125.516727 
L 89.902727 -133.705012 
L 92.597045 -135.101118 
L 95.291364 -138.70045 
L 97.985682 -139.326222 
L 100.68 -141.130695 
L 103.374318 -150.026671 
L 106.068636 -154.224435 
L 108.762955 -151.207397 
L 111.457273 -152.122447 
L 114.151591 -152.186665 
L 116.845909 -159.237685 
L 119.540227 -157.227632 
L 122.234545 -156.990961 
L 124.928864 -160.696347 
L 127.623182 -172.172891 
L 130.3175 -168.36826 
L 133.011818 -169.785998 
L 135.706136 -171.415081 
L 138.400455 -177.377847 
L 141.094773 -181.200181 
L 143.789091 -179.138634 
L 146.483409 -178.769869 
L 149.177727 -179.477837 
L 151.872045 -179.118972 
L 154.566364 -178.776178 
L 157.260682 -177.291122 
L 159.955 -176.534611 
L 162.649318 -176.646671 
L 165.343636 -175.831525 
L 168.037955 -179.377284 
L 170.732273 -181.639889 
L 173.426591 -182.127023 
L 176.120909 -183.505904 
L 178.815227 -188.90407 
L 181.509545 -187.052005 
L 184.203864 -188.819062 
L 186.898182 -188.844559 
L 189.5925 -184.78185 
L 192.286818 -185.758159 
L 194.981136 -191.43021 
L 197.675455 -191.855311 
L 200.369773 -191.430431 
L 203.064091 -187.143757 
L 205.758409 -194.427408 
L 208.452727 -196.197676 
L 211.147045 -196.74174 
L 213.841364 -196.373413 
L 216.535682 -195.808541 
L 219.23 -193.781709 
L 221.924318 -200.796749 
L 224.618636 -202.788679 
L 227.312955 -205.407323 
L 230.007273 -205.321586 
L 232.701591 -205.007755 
L 235.395909 -204.706974 
L 238.090227 -205.473997 
L 240.784545 -205.495119 
L 243.478864 -203.04542 
L 246.173182 -203.604195 
L 248.8675 -203.750383 
L 251.561818 -204.567761 
L 254.256136 -203.267055 
L 256.950455 -200.879977 
L 259.644773 -203.29114 
L 262.339091 -203.777851 
L 265.033409 -201.632875 
L 267.727727 -201.753685 
L 270.422045 -202.190244 
L 273.116364 -203.770921 
L 275.810682 -203.850965 
L 278.505 -201.427101 
L 281.199318 -202.872304 
L 283.893636 -203.078844 
L 286.587955 -204.480133 
L 289.282273 -203.056327 
L 291.976591 -202.776446 
L 294.670909 -202.418589 
L 297.365227 -202.407807 
L 300.059545 -203.636737 
L 302.753864 -204.005963 
L 305.448182 -203.731776 
L 308.1425 -201.231925 
L 310.836818 -205.599889 
L 313.531136 -203.649819 
L 316.225455 -203.145499 
L 318.919773 -203.701232 
L 321.614091 -205.175062 
L 324.308409 -210.675735 
L 327.002727 -212.681737 
L 329.697045 -210.78994 
L 332.391364 -212.986722 
L 335.085682 -208.628651 
L 337.78 -206.293822 
L 340.474318 -208.65822 
L 343.168636 -209.229153 
L 345.862955 -208.934207 
L 348.557273 -207.644843 
L 351.251591 -213.6546 
L 353.945909 -215.989189 
L 356.640227 -215.165074 
L 359.334545 -216.46768 
L 362.028864 -216.845084 
L 364.723182 -216.095874 
L 367.4175 -221.041281 
L 370.111818 -222.768688 
L 370.111818 -230.321632 
L 370.111818 -230.321632 
L 367.4175 -229.073908 
L 364.723182 -223.200654 
L 362.028864 -224.777457 
L 359.334545 -224.830301 
L 356.640227 -223.752801 
L 353.945909 -223.14506 
L 351.251591 -220.827625 
L 348.557273 -216.072815 
L 345.862955 -216.08169 
L 343.168636 -217.084983 
L 340.474318 -215.979024 
L 337.78 -215.260103 
L 335.085682 -216.819992 
L 332.391364 -220.521823 
L 329.697045 -217.146996 
L 327.002727 -219.853129 
L 324.308409 -218.343067 
L 321.614091 -213.295546 
L 318.919773 -211.848337 
L 316.225455 -211.809044 
L 313.531136 -211.467003 
L 310.836818 -213.736212 
L 308.1425 -210.260646 
L 305.448182 -211.980073 
L 302.753864 -212.08454 
L 300.059545 -211.750552 
L 297.365227 -209.896164 
L 294.670909 -210.047662 
L 291.976591 -211.204418 
L 289.282273 -211.249096 
L 286.587955 -212.313582 
L 283.893636 -211.551139 
L 281.199318 -210.675813 
L 278.505 -208.929512 
L 275.810682 -210.616738 
L 273.116364 -211.399995 
L 270.422045 -209.897354 
L 267.727727 -209.197953 
L 265.033409 -208.886018 
L 262.339091 -211.122598 
L 259.644773 -210.96019 
L 256.950455 -208.232489 
L 254.256136 -210.443342 
L 251.561818 -210.711341 
L 248.8675 -211.258253 
L 246.173182 -210.376668 
L 243.478864 -210.935443 
L 240.784545 -213.245955 
L 238.090227 -213.104797 
L 235.395909 -213.276794 
L 232.701591 -212.976013 
L 230.007273 -213.040835 
L 227.312955 -212.684631 
L 224.618636 -210.326692 
L 221.924318 -207.071572 
L 219.23 -202.240179 
L 216.535682 -204.378531 
L 213.841364 -203.489099 
L 211.147045 -204.094451 
L 208.452727 -203.88121 
L 205.758409 -200.728987 
L 203.064091 -195.679365 
L 200.369773 -199.668966 
L 197.675455 -199.62274 
L 194.981136 -199.452814 
L 192.286818 -194.738951 
L 189.5925 -194.146555 
L 186.898182 -197.873281 
L 184.203864 -197.087378 
L 181.509545 -195.176091 
L 178.815227 -196.35325 
L 176.120909 -191.79825 
L 173.426591 -190.093812 
L 170.732273 -189.120427 
L 168.037955 -187.271941 
L 165.343636 -185.24609 
L 162.649318 -184.863691 
L 159.955 -185.029843 
L 157.260682 -185.355198 
L 154.566364 -186.737088 
L 151.872045 -187.1516 
L 149.177727 -187.333667 
L 146.483409 -187.500702 
L 143.789091 -187.672871 
L 141.094773 -189.127388 
L 138.400455 -185.322567 
L 135.706136 -179.547087 
L 133.011818 -178.796065 
L 130.3175 -176.589552 
L 127.623182 -179.925236 
L 124.928864 -170.034926 
L 122.234545 -165.950876 
L 119.540227 -165.173273 
L 116.845909 -168.843016 
L 114.151591 -161.775685 
L 111.457273 -161.190782 
L 108.762955 -160.050287 
L 106.068636 -161.4689 
L 103.374318 -158.147695 
L 100.68 -148.814229 
L 97.985682 -149.320463 
L 95.291364 -147.025196 
L 92.597045 -144.728358 
L 89.902727 -141.472441 
L 87.208409 -134.676881 
L 84.514091 -128.502789 
L 81.819773 -127.173078 
L 79.125455 -130.583644 
L 76.431136 -110.628622 
L 73.736818 -112.000777 
L 71.0425 -109.391011 
L 68.348182 -108.907486 
z
" style="stroke: #d62728; stroke-opacity: 0.2"/>
    </defs>
    <g clip-path="url(#p2269b5786f)">
     <use xlink:href="#m44960ebf25" x="0" y="288" style="fill: #d62728; fill-opacity: 0.2; stroke: #d62728; stroke-opacity: 0.2"/>
    </g>
   </g>
   <g id="line2d_27">
    <path d="M 68.348182 231.199619 
L 71.0425 228.954747 
L 73.736818 225.249356 
L 76.431136 222.193084 
L 79.125455 214.809349 
L 81.819773 202.503123 
L 84.514091 210.860538 
L 87.208409 211.022818 
L 89.902727 207.560846 
L 92.597045 200.582811 
L 95.291364 196.14716 
L 97.985682 180.433056 
L 100.68 178.269324 
L 103.374318 171.047868 
L 106.068636 165.611491 
L 108.762955 159.715321 
L 111.457273 161.256981 
L 114.151591 162.852733 
L 116.845909 157.172936 
L 119.540227 149.870341 
L 122.234545 146.895209 
L 124.928864 142.026812 
L 127.623182 133.317791 
L 130.3175 136.292922 
L 133.011818 131.532712 
L 135.706136 128.692813 
L 138.400455 124.013743 
L 141.094773 121.173844 
L 143.789091 114.547415 
L 146.483409 116.819334 
L 149.177727 113.276222 
L 151.872045 109.083992 
L 154.566364 111.626377 
L 157.260682 108.867618 
L 159.955 113.222129 
L 162.649318 114.006482 
L 165.343636 115.845654 
L 168.037955 114.276948 
L 170.732273 104.188548 
L 173.426591 106.893213 
L 176.120909 102.160049 
L 178.815227 101.510929 
L 181.509545 100.45611 
L 184.203864 101.889583 
L 186.898182 99.130824 
L 189.5925 97.237559 
L 192.286818 94.586987 
L 194.981136 95.939319 
L 197.675455 95.722946 
L 200.369773 96.236833 
L 203.064091 95.668853 
L 205.758409 98.427611 
L 208.452727 98.265331 
L 211.147045 91.530715 
L 213.841364 87.040971 
L 216.535682 84.931333 
L 219.23 84.30926 
L 221.924318 83.957653 
L 224.618636 83.957653 
L 227.312955 87.392578 
L 230.007273 86.716412 
L 232.701591 83.849467 
L 235.395909 82.172574 
L 238.090227 80.576822 
L 240.784545 82.956927 
L 243.478864 82.84874 
L 246.173182 81.956201 
L 248.8675 83.1733 
L 251.561818 83.01102 
L 254.256136 79.873609 
L 256.950455 79.954749 
L 259.644773 83.308534 
L 262.339091 82.84874 
L 265.033409 82.145528 
L 267.727727 82.821694 
L 270.422045 79.792469 
L 273.116364 79.873609 
L 275.810682 76.655058 
L 278.505 74.112672 
L 281.199318 76.249358 
L 283.893636 75.924798 
L 286.587955 75.627285 
L 289.282273 75.546145 
L 291.976591 76.411638 
L 294.670909 78.683556 
L 297.365227 77.709877 
L 300.059545 78.08853 
L 302.753864 74.599512 
L 305.448182 73.409459 
L 308.1425 76.032985 
L 310.836818 74.788839 
L 313.531136 72.59806 
L 316.225455 70.948214 
L 318.919773 70.867074 
L 321.614091 70.542514 
L 324.308409 67.918989 
L 327.002727 68.811529 
L 329.697045 66.21505 
L 332.391364 65.674117 
L 335.085682 65.971631 
L 337.78 68.081269 
L 340.474318 67.946036 
L 343.168636 68.595156 
L 345.862955 65.890491 
L 348.557273 66.647797 
L 351.251591 65.863444 
L 353.945909 63.780852 
L 356.640227 61.427793 
L 359.334545 58.966548 
L 362.028864 58.966548 
L 364.723182 59.507481 
L 367.4175 58.777221 
L 370.111818 60.697534 
" clip-path="url(#p2269b5786f)" style="fill: none; stroke: #ff7f0e; stroke-width: 2; stroke-linecap: square"/>
   </g>
   <g id="line2d_28">
    <path d="M 68.348182 116.197261 
L 71.0425 104.107408 
L 73.736818 97.913725 
L 76.431136 87.527811 
L 79.125455 90.016103 
L 81.819773 81.361175 
L 84.514091 88.176931 
L 87.208409 82.713507 
L 89.902727 83.119207 
L 92.597045 83.66014 
L 95.291364 81.252988 
L 97.985682 79.359723 
L 100.68 84.552679 
L 103.374318 89.826776 
L 106.068636 85.877965 
L 108.762955 80.739102 
L 111.457273 78.277857 
L 114.151591 80.712055 
L 116.845909 83.930607 
L 119.540227 81.848014 
L 122.234545 84.687913 
L 124.928864 79.954749 
L 127.623182 78.16967 
L 130.3175 78.304903 
L 133.011818 73.652879 
L 135.706136 73.625833 
L 138.400455 70.785934 
L 141.094773 70.596608 
L 143.789091 68.919715 
L 146.483409 68.459922 
L 149.177727 68.459922 
L 151.872045 69.136089 
L 154.566364 71.570287 
L 157.260682 71.543241 
L 159.955 73.679926 
L 162.649318 73.625833 
L 165.343636 69.460648 
L 168.037955 67.26987 
L 170.732273 64.294738 
L 173.426591 66.13391 
L 176.120909 64.402925 
L 178.815227 67.10759 
L 181.509545 61.887586 
L 184.203864 61.427793 
L 186.898182 65.079091 
L 189.5925 71.164587 
L 192.286818 66.810077 
L 194.981136 66.45847 
L 197.675455 66.94531 
L 200.369773 66.70189 
L 203.064091 66.999403 
L 205.758409 66.242097 
L 208.452727 67.43215 
L 211.147045 67.02645 
L 213.841364 66.78303 
L 216.535682 63.753805 
L 219.23 60.535254 
L 221.924318 57.424889 
L 224.618636 58.614942 
L 227.312955 58.831315 
L 230.007273 56.883956 
L 232.701591 57.181469 
L 235.395909 55.180017 
L 238.090227 54.936597 
L 240.784545 53.800638 
L 243.478864 54.422711 
L 246.173182 54.82841 
L 248.8675 54.044058 
L 251.561818 52.177839 
L 254.256136 52.204885 
L 256.950455 51.772139 
L 259.644773 51.745092 
L 262.339091 52.204885 
L 265.033409 49.310894 
L 267.727727 49.446127 
L 270.422045 45.470269 
L 273.116364 47.850375 
L 275.810682 47.742188 
L 278.505 47.715141 
L 281.199318 45.118663 
L 283.893636 44.550683 
L 286.587955 46.822602 
L 289.282273 45.253896 
L 291.976591 45.362083 
L 294.670909 45.280943 
L 297.365227 45.362083 
L 300.059545 45.14571 
L 302.753864 45.14571 
L 305.448182 45.22685 
L 308.1425 45.118663 
L 310.836818 44.956383 
L 313.531136 45.551409 
L 316.225455 45.307989 
L 318.919773 44.767056 
L 321.614091 46.687369 
L 324.308409 47.120115 
L 327.002727 50.0682 
L 329.697045 50.122293 
L 332.391364 47.120115 
L 335.085682 47.282395 
L 337.78 46.930788 
L 340.474318 45.06457 
L 343.168636 45.091616 
L 345.862955 44.57773 
L 348.557273 42.197625 
L 351.251591 42.386951 
L 353.945909 42.251718 
L 356.640227 42.143531 
L 359.334545 41.764878 
L 362.028864 40.304359 
L 364.723182 40.087986 
L 367.4175 42.197625 
L 370.111818 40.358452 
" clip-path="url(#p2269b5786f)" style="fill: none; stroke: #2ca02c; stroke-width: 2; stroke-linecap: square"/>
   </g>
   <g id="line2d_29">
    <path d="M 68.348182 182.840208 
L 71.0425 182.596788 
L 73.736818 181.028082 
L 76.431136 181.839482 
L 79.125455 160.932421 
L 81.819773 164.908278 
L 84.514091 164.340299 
L 87.208409 157.903196 
L 89.902727 150.411274 
L 92.597045 148.085262 
L 95.291364 145.137177 
L 97.985682 143.676658 
L 100.68 143.027538 
L 103.374318 133.912817 
L 106.068636 130.153332 
L 108.762955 132.371158 
L 111.457273 131.343385 
L 114.151591 131.018825 
L 116.845909 123.959649 
L 119.540227 126.799548 
L 122.234545 126.529081 
L 124.928864 122.634364 
L 127.623182 111.950937 
L 130.3175 115.521094 
L 133.011818 113.708969 
L 135.706136 112.518916 
L 138.400455 106.649793 
L 141.094773 102.836215 
L 143.789091 104.594248 
L 146.483409 104.864714 
L 149.177727 104.594248 
L 151.872045 104.864714 
L 154.566364 105.243367 
L 157.260682 106.67684 
L 159.955 107.217773 
L 162.649318 107.244819 
L 165.343636 107.461193 
L 168.037955 104.675388 
L 170.732273 102.619842 
L 173.426591 101.889583 
L 176.120909 100.347923 
L 178.815227 95.37134 
L 181.509545 96.885952 
L 184.203864 95.04678 
L 186.898182 94.64108 
L 189.5925 98.535798 
L 192.286818 97.751445 
L 194.981136 92.558488 
L 197.675455 92.260975 
L 200.369773 92.450301 
L 203.064091 96.588439 
L 205.758409 90.421803 
L 208.452727 87.960557 
L 211.147045 87.581904 
L 213.841364 88.068744 
L 216.535682 87.906464 
L 219.23 89.989056 
L 221.924318 84.06584 
L 224.618636 81.442315 
L 227.312955 78.954023 
L 230.007273 78.81879 
L 232.701591 79.008116 
L 235.395909 79.008116 
L 238.090227 78.710603 
L 240.784545 78.629463 
L 243.478864 81.009568 
L 246.173182 81.009568 
L 248.8675 80.495682 
L 251.561818 80.360449 
L 254.256136 81.144802 
L 256.950455 83.443767 
L 259.644773 80.874335 
L 262.339091 80.549775 
L 265.033409 82.740554 
L 267.727727 82.524181 
L 270.422045 81.956201 
L 273.116364 80.414542 
L 275.810682 80.766148 
L 278.505 82.821694 
L 281.199318 81.225941 
L 283.893636 80.685008 
L 286.587955 79.603142 
L 289.282273 80.847288 
L 291.976591 81.009568 
L 294.670909 81.766874 
L 297.365227 81.848014 
L 300.059545 80.306355 
L 302.753864 79.954749 
L 305.448182 80.144075 
L 308.1425 82.253714 
L 310.836818 78.33195 
L 313.531136 80.441589 
L 316.225455 80.522729 
L 318.919773 80.225215 
L 321.614091 78.764696 
L 324.308409 73.490599 
L 327.002727 71.732567 
L 329.697045 74.031532 
L 332.391364 71.245727 
L 335.085682 75.275678 
L 337.78 77.223037 
L 340.474318 75.681378 
L 343.168636 74.842932 
L 345.862955 75.492052 
L 348.557273 76.141171 
L 351.251591 70.758888 
L 353.945909 68.432876 
L 356.640227 68.541062 
L 359.334545 67.35101 
L 362.028864 67.18873 
L 364.723182 68.351736 
L 367.4175 62.942406 
L 370.111818 61.45484 
" clip-path="url(#p2269b5786f)" style="fill: none; stroke: #d62728; stroke-width: 2; stroke-linecap: square"/>
   </g>
   <g id="patch_4">
    <path d="M 53.26 245.54 
L 53.26 10.8 
" style="fill: none; stroke: #000000; stroke-width: 0.8; stroke-linejoin: miter; stroke-linecap: square"/>
   </g>
   <g id="patch_5">
    <path d="M 53.26 245.54 
L 385.2 245.54 
" style="fill: none; stroke: #000000; stroke-width: 0.8; stroke-linejoin: miter; stroke-linecap: square"/>
   </g>
   <g id="legend_1">
    <g id="line2d_30">
     <path d="M 221.7875 157.569687 
L 231.7875 157.569687 
L 241.7875 157.569687 
" style="fill: none; stroke: #1f77b4; stroke-width: 2; stroke-linecap: square"/>
    </g>
    <g id="text_16">
     <!-- Autoencoder -->
     <g transform="translate(249.7875 161.069687) scale(0.1 -0.1)">
      <defs>
       <path id="DejaVuSans-41" d="M 2188 4044 
L 1331 1722 
L 3047 1722 
L 2188 4044 
z
M 1831 4666 
L 2547 4666 
L 4325 0 
L 3669 0 
L 3244 1197 
L 1141 1197 
L 716 0 
L 50 0 
L 1831 4666 
z
" transform="scale(0.015625)"/>
       <path id="DejaVuSans-64" d="M 2906 2969 
L 2906 4863 
L 3481 4863 
L 3481 0 
L 2906 0 
L 2906 525 
Q 2725 213 2448 61 
Q 2172 -91 1784 -91 
Q 1150 -91 751 415 
Q 353 922 353 1747 
Q 353 2572 751 3078 
Q 1150 3584 1784 3584 
Q 2172 3584 2448 3432 
Q 2725 3281 2906 2969 
z
M 947 1747 
Q 947 1113 1208 752 
Q 1469 391 1925 391 
Q 2381 391 2643 752 
Q 2906 1113 2906 1747 
Q 2906 2381 2643 2742 
Q 2381 3103 1925 3103 
Q 1469 3103 1208 2742 
Q 947 2381 947 1747 
z
" transform="scale(0.015625)"/>
      </defs>
      <use xlink:href="#DejaVuSans-41"/>
      <use xlink:href="#DejaVuSans-75" transform="translate(68.408203 0)"/>
      <use xlink:href="#DejaVuSans-74" transform="translate(131.787109 0)"/>
      <use xlink:href="#DejaVuSans-6f" transform="translate(170.996094 0)"/>
      <use xlink:href="#DejaVuSans-65" transform="translate(232.177734 0)"/>
      <use xlink:href="#DejaVuSans-6e" transform="translate(293.701172 0)"/>
      <use xlink:href="#DejaVuSans-63" transform="translate(357.080078 0)"/>
      <use xlink:href="#DejaVuSans-6f" transform="translate(412.060547 0)"/>
      <use xlink:href="#DejaVuSans-64" transform="translate(473.242188 0)"/>
      <use xlink:href="#DejaVuSans-65" transform="translate(536.71875 0)"/>
      <use xlink:href="#DejaVuSans-72" transform="translate(598.242188 0)"/>
     </g>
    </g>
    <g id="line2d_31">
     <path d="M 221.7875 172.247812 
L 231.7875 172.247812 
L 241.7875 172.247812 
" style="fill: none; stroke-dasharray: 7.4,3.2; stroke-dashoffset: 0; stroke: #1f77b4; stroke-width: 2"/>
    </g>
    <g id="text_17">
     <!-- Autoencoder (fine-tuned) -->
     <g transform="translate(249.7875 175.747812) scale(0.1 -0.1)">
      <defs>
       <path id="DejaVuSans-2d" d="M 313 2009 
L 1997 2009 
L 1997 1497 
L 313 1497 
L 313 2009 
z
" transform="scale(0.015625)"/>
      </defs>
      <use xlink:href="#DejaVuSans-41"/>
      <use xlink:href="#DejaVuSans-75" transform="translate(68.408203 0)"/>
      <use xlink:href="#DejaVuSans-74" transform="translate(131.787109 0)"/>
      <use xlink:href="#DejaVuSans-6f" transform="translate(170.996094 0)"/>
      <use xlink:href="#DejaVuSans-65" transform="translate(232.177734 0)"/>
      <use xlink:href="#DejaVuSans-6e" transform="translate(293.701172 0)"/>
      <use xlink:href="#DejaVuSans-63" transform="translate(357.080078 0)"/>
      <use xlink:href="#DejaVuSans-6f" transform="translate(412.060547 0)"/>
      <use xlink:href="#DejaVuSans-64" transform="translate(473.242188 0)"/>
      <use xlink:href="#DejaVuSans-65" transform="translate(536.71875 0)"/>
      <use xlink:href="#DejaVuSans-72" transform="translate(598.242188 0)"/>
      <use xlink:href="#DejaVuSans-20" transform="translate(639.355469 0)"/>
      <use xlink:href="#DejaVuSans-28" transform="translate(671.142578 0)"/>
      <use xlink:href="#DejaVuSans-66" transform="translate(710.15625 0)"/>
      <use xlink:href="#DejaVuSans-69" transform="translate(745.361328 0)"/>
      <use xlink:href="#DejaVuSans-6e" transform="translate(773.144531 0)"/>
      <use xlink:href="#DejaVuSans-65" transform="translate(836.523438 0)"/>
      <use xlink:href="#DejaVuSans-2d" transform="translate(898.046875 0)"/>
      <use xlink:href="#DejaVuSans-74" transform="translate(934.130859 0)"/>
      <use xlink:href="#DejaVuSans-75" transform="translate(973.339844 0)"/>
      <use xlink:href="#DejaVuSans-6e" transform="translate(1036.71875 0)"/>
      <use xlink:href="#DejaVuSans-65" transform="translate(1100.097656 0)"/>
      <use xlink:href="#DejaVuSans-64" transform="translate(1161.621094 0)"/>
      <use xlink:href="#DejaVuSans-29" transform="translate(1225.097656 0)"/>
     </g>
    </g>
    <g id="line2d_32">
     <path d="M 221.7875 186.925937 
L 231.7875 186.925937 
L 241.7875 186.925937 
" style="fill: none; stroke: #ff7f0e; stroke-width: 2; stroke-linecap: square"/>
    </g>
    <g id="text_18">
     <!-- Contrastive encoder -->
     <g transform="translate(249.7875 190.425937) scale(0.1 -0.1)">
      <defs>
       <path id="DejaVuSans-43" d="M 4122 4306 
L 4122 3641 
Q 3803 3938 3442 4084 
Q 3081 4231 2675 4231 
Q 1875 4231 1450 3742 
Q 1025 3253 1025 2328 
Q 1025 1406 1450 917 
Q 1875 428 2675 428 
Q 3081 428 3442 575 
Q 3803 722 4122 1019 
L 4122 359 
Q 3791 134 3420 21 
Q 3050 -91 2638 -91 
Q 1578 -91 968 557 
Q 359 1206 359 2328 
Q 359 3453 968 4101 
Q 1578 4750 2638 4750 
Q 3056 4750 3426 4639 
Q 3797 4528 4122 4306 
z
" transform="scale(0.015625)"/>
       <path id="DejaVuSans-76" d="M 191 3500 
L 800 3500 
L 1894 563 
L 2988 3500 
L 3597 3500 
L 2284 0 
L 1503 0 
L 191 3500 
z
" transform="scale(0.015625)"/>
      </defs>
      <use xlink:href="#DejaVuSans-43"/>
      <use xlink:href="#DejaVuSans-6f" transform="translate(69.824219 0)"/>
      <use xlink:href="#DejaVuSans-6e" transform="translate(131.005859 0)"/>
      <use xlink:href="#DejaVuSans-74" transform="translate(194.384766 0)"/>
      <use xlink:href="#DejaVuSans-72" transform="translate(233.59375 0)"/>
      <use xlink:href="#DejaVuSans-61" transform="translate(274.707031 0)"/>
      <use xlink:href="#DejaVuSans-73" transform="translate(335.986328 0)"/>
      <use xlink:href="#DejaVuSans-74" transform="translate(388.085938 0)"/>
      <use xlink:href="#DejaVuSans-69" transform="translate(427.294922 0)"/>
      <use xlink:href="#DejaVuSans-76" transform="translate(455.078125 0)"/>
      <use xlink:href="#DejaVuSans-65" transform="translate(514.257812 0)"/>
      <use xlink:href="#DejaVuSans-20" transform="translate(575.78125 0)"/>
      <use xlink:href="#DejaVuSans-65" transform="translate(607.568359 0)"/>
      <use xlink:href="#DejaVuSans-6e" transform="translate(669.091797 0)"/>
      <use xlink:href="#DejaVuSans-63" transform="translate(732.470703 0)"/>
      <use xlink:href="#DejaVuSans-6f" transform="translate(787.451172 0)"/>
      <use xlink:href="#DejaVuSans-64" transform="translate(848.632812 0)"/>
      <use xlink:href="#DejaVuSans-65" transform="translate(912.109375 0)"/>
      <use xlink:href="#DejaVuSans-72" transform="translate(973.632812 0)"/>
     </g>
    </g>
    <g id="line2d_33">
     <path d="M 221.7875 201.604062 
L 231.7875 201.604062 
L 241.7875 201.604062 
" style="fill: none; stroke: #2ca02c; stroke-width: 2; stroke-linecap: square"/>
    </g>
    <g id="text_19">
     <!-- Functional connectivity -->
     <g transform="translate(249.7875 205.104062) scale(0.1 -0.1)">
      <defs>
       <path id="DejaVuSans-46" d="M 628 4666 
L 3309 4666 
L 3309 4134 
L 1259 4134 
L 1259 2759 
L 3109 2759 
L 3109 2228 
L 1259 2228 
L 1259 0 
L 628 0 
L 628 4666 
z
" transform="scale(0.015625)"/>
      </defs>
      <use xlink:href="#DejaVuSans-46"/>
      <use xlink:href="#DejaVuSans-75" transform="translate(52.019531 0)"/>
      <use xlink:href="#DejaVuSans-6e" transform="translate(115.398438 0)"/>
      <use xlink:href="#DejaVuSans-63" transform="translate(178.777344 0)"/>
      <use xlink:href="#DejaVuSans-74" transform="translate(233.757812 0)"/>
      <use xlink:href="#DejaVuSans-69" transform="translate(272.966797 0)"/>
      <use xlink:href="#DejaVuSans-6f" transform="translate(300.75 0)"/>
      <use xlink:href="#DejaVuSans-6e" transform="translate(361.931641 0)"/>
      <use xlink:href="#DejaVuSans-61" transform="translate(425.310547 0)"/>
      <use xlink:href="#DejaVuSans-6c" transform="translate(486.589844 0)"/>
      <use xlink:href="#DejaVuSans-20" transform="translate(514.373047 0)"/>
      <use xlink:href="#DejaVuSans-63" transform="translate(546.160156 0)"/>
      <use xlink:href="#DejaVuSans-6f" transform="translate(601.140625 0)"/>
      <use xlink:href="#DejaVuSans-6e" transform="translate(662.322266 0)"/>
      <use xlink:href="#DejaVuSans-6e" transform="translate(725.701172 0)"/>
      <use xlink:href="#DejaVuSans-65" transform="translate(789.080078 0)"/>
      <use xlink:href="#DejaVuSans-63" transform="translate(850.603516 0)"/>
      <use xlink:href="#DejaVuSans-74" transform="translate(905.583984 0)"/>
      <use xlink:href="#DejaVuSans-69" transform="translate(944.792969 0)"/>
      <use xlink:href="#DejaVuSans-76" transform="translate(972.576172 0)"/>
      <use xlink:href="#DejaVuSans-69" transform="translate(1031.755859 0)"/>
      <use xlink:href="#DejaVuSans-74" transform="translate(1059.539062 0)"/>
      <use xlink:href="#DejaVuSans-79" transform="translate(1098.748047 0)"/>
     </g>
    </g>
    <g id="line2d_34">
     <path d="M 221.7875 216.282187 
L 231.7875 216.282187 
L 241.7875 216.282187 
" style="fill: none; stroke: #d62728; stroke-width: 2; stroke-linecap: square"/>
    </g>
    <g id="text_20">
     <!-- Spectral -->
     <g transform="translate(249.7875 219.782187) scale(0.1 -0.1)">
      <defs>
       <path id="DejaVuSans-70" d="M 1159 525 
L 1159 -1331 
L 581 -1331 
L 581 3500 
L 1159 3500 
L 1159 2969 
Q 1341 3281 1617 3432 
Q 1894 3584 2278 3584 
Q 2916 3584 3314 3078 
Q 3713 2572 3713 1747 
Q 3713 922 3314 415 
Q 2916 -91 2278 -91 
Q 1894 -91 1617 61 
Q 1341 213 1159 525 
z
M 3116 1747 
Q 3116 2381 2855 2742 
Q 2594 3103 2138 3103 
Q 1681 3103 1420 2742 
Q 1159 2381 1159 1747 
Q 1159 1113 1420 752 
Q 1681 391 2138 391 
Q 2594 391 2855 752 
Q 3116 1113 3116 1747 
z
" transform="scale(0.015625)"/>
      </defs>
      <use xlink:href="#DejaVuSans-53"/>
      <use xlink:href="#DejaVuSans-70" transform="translate(63.476562 0)"/>
      <use xlink:href="#DejaVuSans-65" transform="translate(126.953125 0)"/>
      <use xlink:href="#DejaVuSans-63" transform="translate(188.476562 0)"/>
      <use xlink:href="#DejaVuSans-74" transform="translate(243.457031 0)"/>
      <use xlink:href="#DejaVuSans-72" transform="translate(282.666016 0)"/>
      <use xlink:href="#DejaVuSans-61" transform="translate(323.779297 0)"/>
      <use xlink:href="#DejaVuSans-6c" transform="translate(385.058594 0)"/>
     </g>
    </g>
    <g id="patch_6">
     <path d="M 221.7875 234.460312 
L 241.7875 234.460312 
L 241.7875 227.460312 
L 221.7875 227.460312 
z
" style="opacity: 0.2; stroke: #000000; stroke-linejoin: miter"/>
    </g>
    <g id="text_21">
     <!-- Crossover range -->
     <g transform="translate(249.7875 234.460312) scale(0.1 -0.1)">
      <use xlink:href="#DejaVuSans-43"/>
      <use xlink:href="#DejaVuSans-72" transform="translate(69.824219 0)"/>
      <use xlink:href="#DejaVuSans-6f" transform="translate(108.6875 0)"/>
      <use xlink:href="#DejaVuSans-73" transform="translate(169.869141 0)"/>
      <use xlink:href="#DejaVuSans-73" transform="translate(221.96875 0)"/>
      <use xlink:href="#DejaVuSans-6f" transform="translate(274.068359 0)"/>
      <use xlink:href="#DejaVuSans-76" transform="translate(335.25 0)"/>
      <use xlink:href="#DejaVuSans-65" transform="translate(394.429688 0)"/>
      <use xlink:href="#DejaVuSans-72" transform="translate(455.953125 0)"/>
      <use xlink:href="#DejaVuSans-20" transform="translate(497.066406 0)"/>
      <use xlink:href="#DejaVuSans-72" transform="translate(528.853516 0)"/>
      <use xlink:href="#DejaVuSans-61" transform="translate(569.966797 0)"/>
      <use xlink:href="#DejaVuSans-6e" transform="translate(631.246094 0)"/>
      <use xlink:href="#DejaVuSans-67" transform="translate(694.625 0)"/>
      <use xlink:href="#DejaVuSans-65" transform="translate(758.101562 0)"/>
     </g>
    </g>
   </g>
   <g id="FillBetweenPolyCollection_4">
    <defs>
     <path id="m5008b4fcc9" d="M 68.348182 -61.693715 
L 68.348182 -55.801765 
L 71.0425 -87.664887 
L 73.736818 -130.398737 
L 76.431136 -151.781932 
L 79.125455 -172.697579 
L 81.819773 -191.907921 
L 84.514091 -208.941693 
L 87.208409 -206.75771 
L 89.902727 -206.898847 
L 92.597045 -213.231497 
L 95.291364 -220.813923 
L 97.985682 -227.972453 
L 100.68 -231.837976 
L 103.374318 -240.918568 
L 106.068636 -240.461075 
L 108.762955 -240.449869 
L 111.457273 -238.530278 
L 114.151591 -240.845556 
L 116.845909 -245.842242 
L 119.540227 -247.59185 
L 122.234545 -248.245805 
L 124.928864 -247.795138 
L 127.623182 -247.664011 
L 130.3175 -248.076549 
L 133.011818 -248.040359 
L 135.706136 -247.883072 
L 138.400455 -250.273481 
L 141.094773 -250.421748 
L 143.789091 -250.333514 
L 146.483409 -250.833907 
L 149.177727 -252.885947 
L 151.872045 -252.645804 
L 154.566364 -255.354462 
L 157.260682 -255.048552 
L 159.955 -257.804967 
L 162.649318 -257.782183 
L 165.343636 -257.608438 
L 168.037955 -257.608438 
L 170.732273 -257.432124 
L 173.426591 -257.539993 
L 176.120909 -257.996222 
L 178.815227 -257.779115 
L 181.509545 -255.524649 
L 184.203864 -255.411579 
L 186.898182 -258.054007 
L 189.5925 -257.668335 
L 192.286818 -255.593815 
L 194.981136 -257.857921 
L 197.675455 -257.552638 
L 200.369773 -257.724576 
L 203.064091 -257.804256 
L 205.758409 -258.069811 
L 208.452727 -260.595102 
L 211.147045 -260.129159 
L 213.841364 -260.470047 
L 216.535682 -259.923264 
L 219.23 -260.3007 
L 221.924318 -260.362747 
L 224.618636 -260.826836 
L 227.312955 -260.324069 
L 230.007273 -260.258855 
L 232.701591 -260.340975 
L 235.395909 -260.638597 
L 238.090227 -260.050764 
L 240.784545 -260.387776 
L 243.478864 -260.23165 
L 246.173182 -260.458364 
L 248.8675 -260.479192 
L 251.561818 -260.535633 
L 254.256136 -260.112895 
L 256.950455 -260.774477 
L 259.644773 -260.658705 
L 262.339091 -260.682893 
L 265.033409 -260.407567 
L 267.727727 -260.828471 
L 270.422045 -260.420312 
L 273.116364 -260.110813 
L 275.810682 -260.770473 
L 278.505 -260.579301 
L 281.199318 -261.116874 
L 283.893636 -260.816601 
L 286.587955 -260.771874 
L 289.282273 -258.596723 
L 291.976591 -257.983384 
L 294.670909 -258.157109 
L 297.365227 -258.675127 
L 300.059545 -258.315577 
L 302.753864 -258.427727 
L 305.448182 -258.025976 
L 308.1425 -257.702649 
L 310.836818 -258.633934 
L 313.531136 -258.288055 
L 316.225455 -258.21116 
L 318.919773 -260.70187 
L 321.614091 -260.919175 
L 324.308409 -260.604029 
L 327.002727 -260.847313 
L 329.697045 -261.059393 
L 332.391364 -260.955184 
L 335.085682 -260.700887 
L 337.78 -260.262059 
L 340.474318 -260.477209 
L 343.168636 -260.566775 
L 345.862955 -260.617801 
L 348.557273 -260.538834 
L 351.251591 -260.59426 
L 353.945909 -260.444857 
L 356.640227 -260.530898 
L 359.334545 -260.676055 
L 362.028864 -260.562586 
L 364.723182 -260.321773 
L 367.4175 -260.374018 
L 370.111818 -260.257303 
L 370.111818 -264.506641 
L 370.111818 -264.506641 
L 367.4175 -264.768579 
L 364.723182 -265.199477 
L 362.028864 -265.607784 
L 359.334545 -265.115662 
L 356.640227 -265.152632 
L 353.945909 -265.076394 
L 351.251591 -264.76471 
L 348.557273 -265.523349 
L 345.862955 -265.390289 
L 343.168636 -265.333129 
L 340.474318 -265.260415 
L 337.78 -265.042818 
L 335.085682 -265.41539 
L 332.391364 -265.106999 
L 329.697045 -265.381444 
L 327.002727 -265.647617 
L 324.308409 -265.620435 
L 321.614091 -265.738035 
L 318.919773 -265.035753 
L 316.225455 -262.766253 
L 313.531136 -262.743452 
L 310.836818 -263.479438 
L 308.1425 -263.491138 
L 305.448182 -262.951437 
L 302.753864 -263.144713 
L 300.059545 -263.851889 
L 297.365227 -263.708712 
L 294.670909 -263.793984 
L 291.976591 -262.939936 
L 289.282273 -263.733023 
L 286.587955 -265.885336 
L 283.893636 -264.542369 
L 281.199318 -265.43215 
L 278.505 -265.212416 
L 275.810682 -264.967151 
L 273.116364 -264.923597 
L 270.422045 -264.884566 
L 267.727727 -265.287806 
L 265.033409 -264.735031 
L 262.339091 -264.892451 
L 259.644773 -265.673945 
L 256.950455 -265.395894 
L 254.256136 -265.516542 
L 251.561818 -264.931525 
L 248.8675 -264.717498 
L 246.173182 -264.900607 
L 243.478864 -265.073227 
L 240.784545 -264.917101 
L 238.090227 -264.983646 
L 235.395909 -265.3154 
L 232.701591 -264.801623 
L 230.007273 -264.34281 
L 227.312955 -264.980808 
L 224.618636 -264.748507 
L 221.924318 -264.455291 
L 219.23 -264.733711 
L 216.535682 -263.380161 
L 213.841364 -264.99711 
L 211.147045 -264.742972 
L 208.452727 -265.088429 
L 205.758409 -262.691229 
L 203.064091 -262.307665 
L 200.369773 -262.495531 
L 197.675455 -261.801976 
L 194.981136 -262.903119 
L 192.286818 -260.893854 
L 189.5925 -261.469906 
L 186.898182 -262.436566 
L 184.203864 -260.859717 
L 181.509545 -260.476181 
L 178.815227 -262.386899 
L 176.120909 -262.710725 
L 173.426591 -262.193275 
L 170.732273 -262.138863 
L 168.037955 -262.178922 
L 165.343636 -262.178922 
L 162.649318 -262.113364 
L 159.955 -261.874207 
L 157.260682 -260.086785 
L 154.566364 -259.943155 
L 151.872045 -258.486628 
L 149.177727 -258.408765 
L 146.483409 -255.971062 
L 143.789091 -255.876428 
L 141.094773 -255.517727 
L 138.400455 -256.964234 
L 135.706136 -253.674846 
L 133.011818 -253.463466 
L 130.3175 -253.264996 
L 127.623182 -253.893907 
L 124.928864 -254.033247 
L 122.234545 -253.149833 
L 119.540227 -253.911975 
L 116.845909 -251.820959 
L 114.151591 -246.377637 
L 111.457273 -243.824518 
L 108.762955 -246.340578 
L 106.068636 -246.221186 
L 103.374318 -246.250532 
L 100.68 -239.049041 
L 97.985682 -234.962848 
L 95.291364 -229.084893 
L 92.597045 -221.304821 
L 89.902727 -215.033732 
L 87.208409 -215.499429 
L 84.514091 -217.372443 
L 81.819773 -200.273342 
L 79.125455 -180.644694 
L 76.431136 -161.098551 
L 73.736818 -138.503892 
L 71.0425 -96.040794 
L 68.348182 -61.693715 
z
" style="stroke: #1f77b4; stroke-opacity: 0.2"/>
    </defs>
    <g clip-path="url(#p2269b5786f)">
     <use xlink:href="#m5008b4fcc9" x="0" y="288" style="fill: #1f77b4; fill-opacity: 0.2; stroke: #1f77b4; stroke-opacity: 0.2"/>
    </g>
   </g>
   <g id="line2d_35">
    <path d="M 68.348182 229.25226 
L 71.0425 196.14716 
L 73.736818 153.548685 
L 76.431136 131.559758 
L 79.125455 111.328864 
L 81.819773 91.909368 
L 84.514091 74.842932 
L 87.208409 76.871431 
L 89.902727 77.033711 
L 92.597045 70.731841 
L 95.291364 63.050592 
L 97.985682 56.532349 
L 100.68 52.556492 
L 103.374318 44.41545 
L 106.068636 44.65887 
L 108.762955 44.604777 
L 111.457273 46.822602 
L 114.151591 44.388403 
L 116.845909 39.1684 
L 119.540227 37.248088 
L 122.234545 37.302181 
L 124.928864 37.085808 
L 127.623182 37.221041 
L 130.3175 37.329228 
L 133.011818 37.248088 
L 135.706136 37.221041 
L 138.400455 34.381143 
L 141.094773 35.030262 
L 143.789091 34.895029 
L 146.483409 34.597516 
L 149.177727 32.352644 
L 151.872045 32.433784 
L 154.566364 30.351192 
L 157.260682 30.432332 
L 159.955 28.160413 
L 162.649318 28.052226 
L 165.343636 28.10632 
L 168.037955 28.10632 
L 170.732273 28.214506 
L 173.426591 28.133366 
L 176.120909 27.646527 
L 178.815227 27.916993 
L 181.509545 29.999585 
L 184.203864 29.864352 
L 186.898182 27.754713 
L 189.5925 28.430879 
L 192.286818 29.756165 
L 194.981136 27.61948 
L 197.675455 28.322693 
L 200.369773 27.889946 
L 203.064091 27.94404 
L 205.758409 27.61948 
L 208.452727 25.158235 
L 211.147045 25.563935 
L 213.841364 25.266421 
L 216.535682 26.348287 
L 219.23 25.482795 
L 221.924318 25.590981 
L 224.618636 25.212328 
L 227.312955 25.347561 
L 230.007273 25.699168 
L 232.701591 25.428701 
L 235.395909 25.023002 
L 238.090227 25.482795 
L 240.784545 25.347561 
L 243.478864 25.347561 
L 246.173182 25.320515 
L 248.8675 25.401655 
L 251.561818 25.266421 
L 254.256136 25.185281 
L 256.950455 24.914815 
L 259.644773 24.833675 
L 262.339091 25.212328 
L 265.033409 25.428701 
L 267.727727 24.941862 
L 270.422045 25.347561 
L 273.116364 25.482795 
L 275.810682 25.131188 
L 278.505 25.104141 
L 281.199318 24.725488 
L 283.893636 25.320515 
L 286.587955 24.671395 
L 289.282273 26.835127 
L 291.976591 27.53834 
L 294.670909 27.024454 
L 297.365227 26.80808 
L 300.059545 26.916267 
L 302.753864 27.21378 
L 305.448182 27.511293 
L 308.1425 27.403107 
L 310.836818 26.943314 
L 313.531136 27.484247 
L 316.225455 27.511293 
L 318.919773 25.131188 
L 321.614091 24.671395 
L 324.308409 24.887768 
L 327.002727 24.752535 
L 329.697045 24.779582 
L 332.391364 24.968908 
L 335.085682 24.941862 
L 337.78 25.347561 
L 340.474318 25.131188 
L 343.168636 25.050048 
L 345.862955 24.995955 
L 348.557273 24.968908 
L 351.251591 25.320515 
L 353.945909 25.239375 
L 356.640227 25.158235 
L 359.334545 25.104141 
L 362.028864 24.914815 
L 364.723182 25.239375 
L 367.4175 25.428701 
L 370.111818 25.618028 
" clip-path="url(#p2269b5786f)" style="fill: none; stroke: #1f77b4; stroke-width: 2; stroke-linecap: square"/>
   </g>
   <g id="FillBetweenPolyCollection_5">
    <defs>
     <path id="mc0200542ef" d="M 68.348182 -60.510151 
L 68.348182 -54.659316 
L 71.0425 -91.614436 
L 73.736818 -130.812054 
L 76.431136 -154.571229 
L 79.125455 -170.177912 
L 81.819773 -189.345863 
L 84.514091 -199.767327 
L 87.208409 -206.113285 
L 89.902727 -204.411202 
L 92.597045 -218.803989 
L 95.291364 -221.879205 
L 97.985682 -220.987006 
L 100.68 -223.758553 
L 103.374318 -235.807434 
L 106.068636 -235.466812 
L 108.762955 -239.949972 
L 111.457273 -242.527516 
L 114.151591 -243.411325 
L 116.845909 -240.00299 
L 119.540227 -245.553937 
L 122.234545 -247.463626 
L 124.928864 -249.924737 
L 127.623182 -247.623263 
L 130.3175 -247.791988 
L 133.011818 -248.258016 
L 135.706136 -247.425174 
L 138.400455 -247.890406 
L 141.094773 -247.561978 
L 143.789091 -247.739313 
L 146.483409 -245.377091 
L 149.177727 -247.607219 
L 151.872045 -247.615133 
L 154.566364 -247.727639 
L 157.260682 -247.807552 
L 159.955 -247.053495 
L 162.649318 -247.844992 
L 165.343636 -250.002249 
L 168.037955 -249.782364 
L 170.732273 -247.689209 
L 173.426591 -250.460286 
L 176.120909 -252.40265 
L 178.815227 -252.973497 
L 181.509545 -250.030993 
L 184.203864 -250.512287 
L 186.898182 -250.75713 
L 189.5925 -250.40862 
L 192.286818 -250.750296 
L 194.981136 -250.250298 
L 197.675455 -250.382628 
L 200.369773 -250.91172 
L 203.064091 -250.695463 
L 205.758409 -250.686598 
L 208.452727 -250.521783 
L 211.147045 -250.364882 
L 213.841364 -250.564667 
L 216.535682 -255.046927 
L 219.23 -255.245209 
L 221.924318 -254.914739 
L 224.618636 -255.485607 
L 227.312955 -255.159031 
L 230.007273 -255.940724 
L 232.701591 -255.806903 
L 235.395909 -255.325803 
L 238.090227 -255.306201 
L 240.784545 -255.566353 
L 243.478864 -257.890437 
L 246.173182 -257.916272 
L 248.8675 -257.86211 
L 251.561818 -260.362979 
L 254.256136 -260.457882 
L 256.950455 -260.523083 
L 259.644773 -260.477209 
L 262.339091 -260.321501 
L 265.033409 -260.468431 
L 267.727727 -260.415497 
L 270.422045 -260.348187 
L 273.116364 -260.390417 
L 275.810682 -260.351954 
L 278.505 -260.826488 
L 281.199318 -260.604029 
L 283.893636 -260.526413 
L 286.587955 -260.812339 
L 289.282273 -260.891335 
L 291.976591 -260.797126 
L 294.670909 -260.800647 
L 297.365227 -260.800625 
L 300.059545 -260.566775 
L 302.753864 -260.600381 
L 305.448182 -260.933655 
L 308.1425 -258.023763 
L 310.836818 -260.835932 
L 313.531136 -261.071154 
L 316.225455 -260.505241 
L 318.919773 -260.692893 
L 321.614091 -260.447004 
L 324.308409 -261.046796 
L 327.002727 -261.341558 
L 329.697045 -260.65683 
L 332.391364 -260.930531 
L 335.085682 -260.76772 
L 337.78 -261.050938 
L 340.474318 -261.011428 
L 343.168636 -260.637763 
L 345.862955 -260.712005 
L 348.557273 -261.252181 
L 351.251591 -260.747804 
L 353.945909 -260.657268 
L 356.640227 -261.006613 
L 359.334545 -261.462545 
L 362.028864 -260.743748 
L 364.723182 -261.372914 
L 367.4175 -260.877987 
L 370.111818 -260.821425 
L 370.111818 -265.565318 
L 370.111818 -265.565318 
L 367.4175 -265.616943 
L 364.723182 -265.771135 
L 362.028864 -265.264343 
L 359.334545 -266.060158 
L 356.640227 -266.461997 
L 353.945909 -265.891756 
L 351.251591 -265.584846 
L 348.557273 -266.108242 
L 345.862955 -265.458365 
L 343.168636 -266.127633 
L 340.474318 -265.970341 
L 337.78 -266.147205 
L 335.085682 -266.322236 
L 332.391364 -266.159426 
L 329.697045 -265.784007 
L 327.002727 -265.694305 
L 324.308409 -266.53 
L 321.614091 -265.4529 
L 318.919773 -265.207011 
L 316.225455 -265.665129 
L 313.531136 -265.910616 
L 310.836818 -264.847599 
L 308.1425 -263.170024 
L 305.448182 -265.777649 
L 302.753864 -265.840456 
L 300.059545 -265.333129 
L 297.365227 -265.153372 
L 294.670909 -265.856563 
L 291.976591 -265.481431 
L 289.282273 -265.657688 
L 286.587955 -266.331711 
L 283.893636 -265.319397 
L 281.199318 -265.620435 
L 278.505 -265.073415 
L 275.810682 -265.169296 
L 273.116364 -265.184927 
L 270.422045 -265.335343 
L 267.727727 -264.835287 
L 265.033409 -265.215099 
L 262.339091 -265.524309 
L 259.644773 -265.260415 
L 256.950455 -265.106354 
L 254.256136 -265.496115 
L 251.561818 -264.509152 
L 248.8675 -262.628464 
L 246.173182 -262.303835 
L 243.478864 -262.383764 
L 240.784545 -260.921316 
L 238.090227 -260.965095 
L 235.395909 -260.675026 
L 232.701591 -260.626673 
L 230.007273 -260.709225 
L 227.312955 -260.084493 
L 224.618636 -261.002063 
L 221.924318 -259.571478 
L 219.23 -259.565568 
L 216.535682 -259.92613 
L 213.841364 -256.186208 
L 211.147045 -256.223713 
L 208.452727 -256.012719 
L 205.758409 -255.847904 
L 203.064091 -256.596345 
L 200.369773 -255.352315 
L 197.675455 -255.448661 
L 194.981136 -255.364618 
L 192.286818 -255.730113 
L 189.5925 -255.855415 
L 186.898182 -255.939652 
L 184.203864 -256.292682 
L 181.509545 -256.287135 
L 178.815227 -257.834375 
L 176.120909 -257.323357 
L 173.426591 -255.425096 
L 170.732273 -253.38187 
L 168.037955 -254.912965 
L 165.343636 -255.450387 
L 162.649318 -254.307953 
L 159.955 -254.179864 
L 157.260682 -253.696273 
L 154.566364 -254.371212 
L 151.872045 -253.401852 
L 149.177727 -253.1393 
L 146.483409 -252.232016 
L 143.789091 -253.926792 
L 141.094773 -253.617287 
L 138.400455 -253.937979 
L 135.706136 -253.375438 
L 133.011818 -253.353995 
L 130.3175 -253.982304 
L 127.623182 -254.042841 
L 124.928864 -256.014739 
L 122.234545 -252.90424 
L 119.540227 -251.243771 
L 116.845909 -247.32839 
L 114.151591 -249.437571 
L 111.457273 -248.806768 
L 108.762955 -247.327315 
L 106.068636 -242.506427 
L 103.374318 -241.733058 
L 100.68 -230.143167 
L 97.985682 -229.128183 
L 95.291364 -230.399716 
L 92.597045 -227.091923 
L 89.902727 -214.275779 
L 87.208409 -215.602921 
L 84.514091 -208.641926 
L 81.819773 -197.642443 
L 79.125455 -178.836896 
L 76.431136 -162.690812 
L 73.736818 -139.551095 
L 71.0425 -99.339747 
L 68.348182 -60.510151 
z
" style="stroke: #1f77b4; stroke-opacity: 0.2"/>
    </defs>
    <g clip-path="url(#p2269b5786f)">
     <use xlink:href="#mc0200542ef" x="0" y="288" style="fill: #1f77b4; fill-opacity: 0.2; stroke: #1f77b4; stroke-opacity: 0.2"/>
    </g>
   </g>
   <g id="line2d_36">
    <path d="M 68.348182 230.415266 
L 71.0425 192.522909 
L 73.736818 152.818426 
L 76.431136 129.36898 
L 79.125455 113.492596 
L 81.819773 94.505847 
L 84.514091 83.795373 
L 87.208409 77.141897 
L 89.902727 78.65651 
L 92.597045 65.052044 
L 95.291364 61.86054 
L 97.985682 62.942406 
L 100.68 61.04914 
L 103.374318 49.229754 
L 106.068636 49.013381 
L 108.762955 44.361357 
L 111.457273 42.332858 
L 114.151591 41.575552 
L 116.845909 44.33431 
L 119.540227 39.601146 
L 122.234545 37.816067 
L 124.928864 35.030262 
L 127.623182 37.166948 
L 130.3175 37.112854 
L 133.011818 37.193994 
L 135.706136 37.599694 
L 138.400455 37.085808 
L 141.094773 37.410367 
L 143.789091 37.166948 
L 146.483409 39.195446 
L 149.177727 37.626741 
L 151.872045 37.491507 
L 154.566364 36.950574 
L 157.260682 37.248088 
L 159.955 37.383321 
L 162.649318 36.923528 
L 165.343636 35.273682 
L 168.037955 35.652335 
L 170.732273 37.464461 
L 173.426591 35.057309 
L 176.120909 33.136997 
L 178.815227 32.596064 
L 181.509545 34.840936 
L 184.203864 34.597516 
L 186.898182 34.651609 
L 189.5925 34.867982 
L 192.286818 34.759796 
L 194.981136 35.192542 
L 197.675455 35.084356 
L 200.369773 34.867982 
L 203.064091 34.354096 
L 205.758409 34.732749 
L 208.452727 34.732749 
L 211.147045 34.705702 
L 213.841364 34.624562 
L 216.535682 30.513472 
L 219.23 30.594612 
L 221.924318 30.756891 
L 224.618636 29.756165 
L 227.312955 30.378238 
L 230.007273 29.675025 
L 232.701591 29.783212 
L 235.395909 29.999585 
L 238.090227 29.864352 
L 240.784545 29.756165 
L 243.478864 27.8629 
L 246.173182 27.889946 
L 248.8675 27.754713 
L 251.561818 25.563935 
L 254.256136 25.023002 
L 256.950455 25.185281 
L 259.644773 25.131188 
L 262.339091 25.077095 
L 265.033409 25.158235 
L 267.727727 25.374608 
L 270.422045 25.158235 
L 273.116364 25.212328 
L 275.810682 25.239375 
L 278.505 25.050048 
L 281.199318 24.887768 
L 283.893636 25.077095 
L 286.587955 24.427975 
L 289.282273 24.725488 
L 291.976591 24.860722 
L 294.670909 24.671395 
L 297.365227 25.023002 
L 300.059545 25.050048 
L 302.753864 24.779582 
L 305.448182 24.644348 
L 308.1425 27.403107 
L 310.836818 25.158235 
L 313.531136 24.509115 
L 316.225455 24.914815 
L 318.919773 25.050048 
L 321.614091 25.050048 
L 324.308409 24.211602 
L 327.002727 24.482068 
L 329.697045 24.779582 
L 332.391364 24.455022 
L 335.085682 24.455022 
L 337.78 24.400929 
L 340.474318 24.509115 
L 343.168636 24.617302 
L 345.862955 24.914815 
L 348.557273 24.319789 
L 351.251591 24.833675 
L 353.945909 24.725488 
L 356.640227 24.265695 
L 359.334545 24.238649 
L 362.028864 24.995955 
L 364.723182 24.427975 
L 367.4175 24.752535 
L 370.111818 24.806628 
" clip-path="url(#p2269b5786f)" style="fill: none; stroke-dasharray: 7.4,3.2; stroke-dashoffset: 0; stroke: #1f77b4; stroke-width: 2"/>
   </g>
  </g>
 </g>
 <defs>
  <clipPath id="p2269b5786f">
   <rect x="53.26" y="10.8" width="331.94" height="234.74"/>
  </clipPath>
 </defs>
</svg>
