<?xml version="1.0" encoding="UTF-8"?>
<!DOCTYPE svg PUBLIC "-//W3C//DTD SVG 1.1//EN" "http://www.w3.org/Graphics/SVG/1.1/DTD/svg11.dtd">
<svg xmlns="http://www.w3.org/2000/svg" style="background: #ffffff; background-color: light-dark(#ffffff, var(--ge-dark-color, #121212)); color-scheme: light dark;" xmlns:xlink="http://www.w3.org/1999/xlink" version="1.1" width="360px" height="288px" viewBox="0 0 360 288"><defs/><rect fill="#ffffff" width="100%" height="100%" x="0" y="0" style="fill: light-dark(#ffffff, var(--ge-dark-color, #121212));"/><g><g data-cell-id="0"><g data-cell-id="1"><g data-cell-id="cBl-TT8mGXeKmp7MqHlj-5"/><g data-cell-id="cBl-TT8mGXeKmp7MqHlj-4"><g><g><svg xmlns:xlink="http://www.w3.org/1999/xlink" xmlns="http://www.w3.org/2000/svg" width="360" height="288" viewBox="0 0 360 288" version="1.1" id="svg-image-7ysQ9BtZ1aJIEY6ncN0w" x="0" y="-0.04" style="font-family: initial;">&#xa; <metadata>&#xa;  &#xa;   &#xa;    &#xa;    2026-01-09T17:25:54.816590&#xa;    image/svg+xml&#xa;    &#xa;     &#xa;      Matplotlib v3.10.3, https://matplotlib.org/&#xa;     &#xa;    &#xa;   &#xa;  &#xa; </metadata>&#xa; <defs>&#xa;  <style type="text/css">#svg-image-7ysQ9BtZ1aJIEY6ncN0w * { stroke-linejoin: round; stroke-linecap: butt; }&#xa;</style>&#xa; </defs>&#xa; <g id="figure_1">&#xa;  <g id="patch_1">&#xa;   <path d="M 0 288 &#10;L 360 288 &#10;L 360 0 &#10;L 0 0 &#10;z" style="fill: #ffffff"/>&#xa;  </g>&#xa;  <g id="axes_1">&#xa;   <g id="patch_2">&#xa;    <path d="M 47.5 242.948 &#10;L 349.2 242.948 &#10;L 349.2 14.4 &#10;L 47.5 14.4 &#10;z" style="fill: #ffffff"/>&#xa;   </g>&#xa;   <g id="matplotlib.axis_1">&#xa;    <g id="xtick_1">&#xa;     <g id="line2d_1">&#xa;      <path d="M 47.5 242.948 &#10;L 47.5 14.4" clip-path="url(#p4620d4dd22)" style="fill: none; stroke: #b0b0b0; stroke-opacity: 0.3; stroke-width: 0.8; stroke-linecap: square"/>&#xa;     </g>&#xa;     <g id="line2d_2">&#xa;      <defs>&#xa;       <path id="mc81dfa7c31" d="M 0 0 &#10;L 0 4" style="stroke: #000000; stroke-width: 0.8"/>&#xa;      </defs>&#xa;      <g>&#xa;       <use xlink:href="#mc81dfa7c31" x="47.5" y="242.948" style="stroke: #000000; stroke-width: 0.8"/>&#xa;      </g>&#xa;     </g>&#xa;     <g id="text_1">&#xa;      &#xa;      <g transform="translate(39.58 257.286594) scale(0.09 -0.09)">&#xa;       <defs>&#xa;        <path id="DejaVuSans-31" d="M 794 531 &#10;L 1825 531 &#10;L 1825 4091 &#10;L 703 3866 &#10;L 703 4441 &#10;L 1819 4666 &#10;L 2450 4666 &#10;L 2450 531 &#10;L 3481 531 &#10;L 3481 0 &#10;L 794 0 &#10;L 794 531 &#10;z" transform="scale(0.015625)"/>&#xa;        <path id="DejaVuSans-30" d="M 2034 4250 &#10;Q 1547 4250 1301 3770 &#10;Q 1056 3291 1056 2328 &#10;Q 1056 1369 1301 889 &#10;Q 1547 409 2034 409 &#10;Q 2525 409 2770 889 &#10;Q 3016 1369 3016 2328 &#10;Q 3016 3291 2770 3770 &#10;Q 2525 4250 2034 4250 &#10;z&#10;M 2034 4750 &#10;Q 2819 4750 3233 4129 &#10;Q 3647 3509 3647 2328 &#10;Q 3647 1150 3233 529 &#10;Q 2819 -91 2034 -91 &#10;Q 1250 -91 836 529 &#10;Q 422 1150 422 2328 &#10;Q 422 3509 836 4129 &#10;Q 1250 4750 2034 4750 &#10;z" transform="scale(0.015625)"/>&#xa;       </defs>&#xa;       <use xlink:href="#DejaVuSans-31" transform="translate(0 0.765625)"/>&#xa;       <use xlink:href="#DejaVuSans-30" transform="translate(63.623047 0.765625)"/>&#xa;       <use xlink:href="#DejaVuSans-30" transform="translate(128.203125 39.046875) scale(0.7)"/>&#xa;      </g>&#xa;     </g>&#xa;    </g>&#xa;    <g id="xtick_2">&#xa;     <g id="line2d_3">&#xa;      <path d="M 132.335303 242.948 &#10;L 132.335303 14.4" clip-path="url(#p4620d4dd22)" style="fill: none; stroke: #b0b0b0; stroke-opacity: 0.3; stroke-width: 0.8; stroke-linecap: square"/>&#xa;     </g>&#xa;     <g id="line2d_4">&#xa;      <g>&#xa;       <use xlink:href="#mc81dfa7c31" x="132.335303" y="242.948" style="stroke: #000000; stroke-width: 0.8"/>&#xa;      </g>&#xa;     </g>&#xa;     <g id="text_2">&#xa;      &#xa;      <g transform="translate(124.415303 257.286594) scale(0.09 -0.09)">&#xa;       <use xlink:href="#DejaVuSans-31" transform="translate(0 0.684375)"/>&#xa;       <use xlink:href="#DejaVuSans-30" transform="translate(63.623047 0.684375)"/>&#xa;       <use xlink:href="#DejaVuSans-31" transform="translate(128.203125 38.965625) scale(0.7)"/>&#xa;      </g>&#xa;     </g>&#xa;    </g>&#xa;    <g id="xtick_3">&#xa;     <g id="line2d_5">&#xa;      <path d="M 217.170606 242.948 &#10;L 217.170606 14.4" clip-path="url(#p4620d4dd22)" style="fill: none; stroke: #b0b0b0; stroke-opacity: 0.3; stroke-width: 0.8; stroke-linecap: square"/>&#xa;     </g>&#xa;     <g id="line2d_6">&#xa;      <g>&#xa;       <use xlink:href="#mc81dfa7c31" x="217.170606" y="242.948" style="stroke: #000000; stroke-width: 0.8"/>&#xa;      </g>&#xa;     </g>&#xa;     <g id="text_3">&#xa;      &#xa;      <g transform="translate(209.250606 257.286594) scale(0.09 -0.09)">&#xa;       <defs>&#xa;        <path id="DejaVuSans-32" d="M 1228 531 &#10;L 3431 531 &#10;L 3431 0 &#10;L 469 0 &#10;L 469 531 &#10;Q 828 903 1448 1529 &#10;Q 2069 2156 2228 2338 &#10;Q 2531 2678 2651 2914 &#10;Q 2772 3150 2772 3378 &#10;Q 2772 3750 2511 3984 &#10;Q 2250 4219 1831 4219 &#10;Q 1534 4219 1204 4116 &#10;Q 875 4013 500 3803 &#10;L 500 4441 &#10;Q 881 4594 1212 4672 &#10;Q 1544 4750 1819 4750 &#10;Q 2544 4750 2975 4387 &#10;Q 3406 4025 3406 3419 &#10;Q 3406 3131 3298 2873 &#10;Q 3191 2616 2906 2266 &#10;Q 2828 2175 2409 1742 &#10;Q 1991 1309 1228 531 &#10;z" transform="scale(0.015625)"/>&#xa;       </defs>&#xa;       <use xlink:href="#DejaVuSans-31" transform="translate(0 0.765625)"/>&#xa;       <use xlink:href="#DejaVuSans-30" transform="translate(63.623047 0.765625)"/>&#xa;       <use xlink:href="#DejaVuSans-32" transform="translate(128.203125 39.046875) scale(0.7)"/>&#xa;      </g>&#xa;     </g>&#xa;    </g>&#xa;    <g id="xtick_4">&#xa;     <g id="line2d_7">&#xa;      <path d="M 302.005909 242.948 &#10;L 302.005909 14.4" clip-path="url(#p4620d4dd22)" style="fill: none; stroke: #b0b0b0; stroke-opacity: 0.3; stroke-width: 0.8; stroke-linecap: square"/>&#xa;     </g>&#xa;     <g id="line2d_8">&#xa;      <g>&#xa;       <use xlink:href="#mc81dfa7c31" x="302.005909" y="242.948" style="stroke: #000000; stroke-width: 0.8"/>&#xa;      </g>&#xa;     </g>&#xa;     <g id="text_4">&#xa;      &#xa;      <g transform="translate(294.085909 257.286594) scale(0.09 -0.09)">&#xa;       <defs>&#xa;        <path id="DejaVuSans-33" d="M 2597 2516 &#10;Q 3050 2419 3304 2112 &#10;Q 3559 1806 3559 1356 &#10;Q 3559 666 3084 287 &#10;Q 2609 -91 1734 -91 &#10;Q 1441 -91 1130 -33 &#10;Q 819 25 488 141 &#10;L 488 750 &#10;Q 750 597 1062 519 &#10;Q 1375 441 1716 441 &#10;Q 2309 441 2620 675 &#10;Q 2931 909 2931 1356 &#10;Q 2931 1769 2642 2001 &#10;Q 2353 2234 1838 2234 &#10;L 1294 2234 &#10;L 1294 2753 &#10;L 1863 2753 &#10;Q 2328 2753 2575 2939 &#10;Q 2822 3125 2822 3475 &#10;Q 2822 3834 2567 4026 &#10;Q 2313 4219 1838 4219 &#10;Q 1578 4219 1281 4162 &#10;Q 984 4106 628 3988 &#10;L 628 4550 &#10;Q 988 4650 1302 4700 &#10;Q 1616 4750 1894 4750 &#10;Q 2613 4750 3031 4423 &#10;Q 3450 4097 3450 3541 &#10;Q 3450 3153 3228 2886 &#10;Q 3006 2619 2597 2516 &#10;z" transform="scale(0.015625)"/>&#xa;       </defs>&#xa;       <use xlink:href="#DejaVuSans-31" transform="translate(0 0.765625)"/>&#xa;       <use xlink:href="#DejaVuSans-30" transform="translate(63.623047 0.765625)"/>&#xa;       <use xlink:href="#DejaVuSans-33" transform="translate(128.203125 39.046875) scale(0.7)"/>&#xa;      </g>&#xa;     </g>&#xa;    </g>&#xa;    <g id="xtick_5">&#xa;     <g id="line2d_9">&#xa;      <defs>&#xa;       <path id="m1cecaaaca0" d="M 0 0 &#10;L 0 2" style="stroke: #000000; stroke-width: 0.6"/>&#xa;      </defs>&#xa;      <g>&#xa;       <use xlink:href="#m1cecaaaca0" x="73.037971" y="242.948" style="stroke: #000000; stroke-width: 0.6"/>&#xa;      </g>&#xa;     </g>&#xa;    </g>&#xa;    <g id="xtick_6">&#xa;     <g id="line2d_10">&#xa;      <g>&#xa;       <use xlink:href="#m1cecaaaca0" x="87.976726" y="242.948" style="stroke: #000000; stroke-width: 0.6"/>&#xa;      </g>&#xa;     </g>&#xa;    </g>&#xa;    <g id="xtick_7">&#xa;     <g id="line2d_11">&#xa;      <g>&#xa;       <use xlink:href="#m1cecaaaca0" x="98.575942" y="242.948" style="stroke: #000000; stroke-width: 0.6"/>&#xa;      </g>&#xa;     </g>&#xa;    </g>&#xa;    <g id="xtick_8">&#xa;     <g id="line2d_12">&#xa;      <g>&#xa;       <use xlink:href="#m1cecaaaca0" x="106.797332" y="242.948" style="stroke: #000000; stroke-width: 0.6"/>&#xa;      </g>&#xa;     </g>&#xa;    </g>&#xa;    <g id="xtick_9">&#xa;     <g id="line2d_13">&#xa;      <g>&#xa;       <use xlink:href="#m1cecaaaca0" x="113.514697" y="242.948" style="stroke: #000000; stroke-width: 0.6"/>&#xa;      </g>&#xa;     </g>&#xa;    </g>&#xa;    <g id="xtick_10">&#xa;     <g id="line2d_14">&#xa;      <g>&#xa;       <use xlink:href="#m1cecaaaca0" x="119.194148" y="242.948" style="stroke: #000000; stroke-width: 0.6"/>&#xa;      </g>&#xa;     </g>&#xa;    </g>&#xa;    <g id="xtick_11">&#xa;     <g id="line2d_15">&#xa;      <g>&#xa;       <use xlink:href="#m1cecaaaca0" x="124.113913" y="242.948" style="stroke: #000000; stroke-width: 0.6"/>&#xa;      </g>&#xa;     </g>&#xa;    </g>&#xa;    <g id="xtick_12">&#xa;     <g id="line2d_16">&#xa;      <g>&#xa;       <use xlink:href="#m1cecaaaca0" x="128.453452" y="242.948" style="stroke: #000000; stroke-width: 0.6"/>&#xa;      </g>&#xa;     </g>&#xa;    </g>&#xa;    <g id="xtick_13">&#xa;     <g id="line2d_17">&#xa;      <g>&#xa;       <use xlink:href="#m1cecaaaca0" x="157.873274" y="242.948" style="stroke: #000000; stroke-width: 0.6"/>&#xa;      </g>&#xa;     </g>&#xa;    </g>&#xa;    <g id="xtick_14">&#xa;     <g id="line2d_18">&#xa;      <g>&#xa;       <use xlink:href="#m1cecaaaca0" x="172.812029" y="242.948" style="stroke: #000000; stroke-width: 0.6"/>&#xa;      </g>&#xa;     </g>&#xa;    </g>&#xa;    <g id="xtick_15">&#xa;     <g id="line2d_19">&#xa;      <g>&#xa;       <use xlink:href="#m1cecaaaca0" x="183.411245" y="242.948" style="stroke: #000000; stroke-width: 0.6"/>&#xa;      </g>&#xa;     </g>&#xa;    </g>&#xa;    <g id="xtick_16">&#xa;     <g id="line2d_20">&#xa;      <g>&#xa;       <use xlink:href="#m1cecaaaca0" x="191.632635" y="242.948" style="stroke: #000000; stroke-width: 0.6"/>&#xa;      </g>&#xa;     </g>&#xa;    </g>&#xa;    <g id="xtick_17">&#xa;     <g id="line2d_21">&#xa;      <g>&#xa;       <use xlink:href="#m1cecaaaca0" x="198.35" y="242.948" style="stroke: #000000; stroke-width: 0.6"/>&#xa;      </g>&#xa;     </g>&#xa;    </g>&#xa;    <g id="xtick_18">&#xa;     <g id="line2d_22">&#xa;      <g>&#xa;       <use xlink:href="#m1cecaaaca0" x="204.029451" y="242.948" style="stroke: #000000; stroke-width: 0.6"/>&#xa;      </g>&#xa;     </g>&#xa;    </g>&#xa;    <g id="xtick_19">&#xa;     <g id="line2d_23">&#xa;      <g>&#xa;       <use xlink:href="#m1cecaaaca0" x="208.949216" y="242.948" style="stroke: #000000; stroke-width: 0.6"/>&#xa;      </g>&#xa;     </g>&#xa;    </g>&#xa;    <g id="xtick_20">&#xa;     <g id="line2d_24">&#xa;      <g>&#xa;       <use xlink:href="#m1cecaaaca0" x="213.288755" y="242.948" style="stroke: #000000; stroke-width: 0.6"/>&#xa;      </g>&#xa;     </g>&#xa;    </g>&#xa;    <g id="xtick_21">&#xa;     <g id="line2d_25">&#xa;      <g>&#xa;       <use xlink:href="#m1cecaaaca0" x="242.708577" y="242.948" style="stroke: #000000; stroke-width: 0.6"/>&#xa;      </g>&#xa;     </g>&#xa;    </g>&#xa;    <g id="xtick_22">&#xa;     <g id="line2d_26">&#xa;      <g>&#xa;       <use xlink:href="#m1cecaaaca0" x="257.647332" y="242.948" style="stroke: #000000; stroke-width: 0.6"/>&#xa;      </g>&#xa;     </g>&#xa;    </g>&#xa;    <g id="xtick_23">&#xa;     <g id="line2d_27">&#xa;      <g>&#xa;       <use xlink:href="#m1cecaaaca0" x="268.246548" y="242.948" style="stroke: #000000; stroke-width: 0.6"/>&#xa;      </g>&#xa;     </g>&#xa;    </g>&#xa;    <g id="xtick_24">&#xa;     <g id="line2d_28">&#xa;      <g>&#xa;       <use xlink:href="#m1cecaaaca0" x="276.467938" y="242.948" style="stroke: #000000; stroke-width: 0.6"/>&#xa;      </g>&#xa;     </g>&#xa;    </g>&#xa;    <g id="xtick_25">&#xa;     <g id="line2d_29">&#xa;      <g>&#xa;       <use xlink:href="#m1cecaaaca0" x="283.185303" y="242.948" style="stroke: #000000; stroke-width: 0.6"/>&#xa;      </g>&#xa;     </g>&#xa;    </g>&#xa;    <g id="xtick_26">&#xa;     <g id="line2d_30">&#xa;      <g>&#xa;       <use xlink:href="#m1cecaaaca0" x="288.864754" y="242.948" style="stroke: #000000; stroke-width: 0.6"/>&#xa;      </g>&#xa;     </g>&#xa;    </g>&#xa;    <g id="xtick_27">&#xa;     <g id="line2d_31">&#xa;      <g>&#xa;       <use xlink:href="#m1cecaaaca0" x="293.784519" y="242.948" style="stroke: #000000; stroke-width: 0.6"/>&#xa;      </g>&#xa;     </g>&#xa;    </g>&#xa;    <g id="xtick_28">&#xa;     <g id="line2d_32">&#xa;      <g>&#xa;       <use xlink:href="#m1cecaaaca0" x="298.124058" y="242.948" style="stroke: #000000; stroke-width: 0.6"/>&#xa;      </g>&#xa;     </g>&#xa;    </g>&#xa;    <g id="xtick_29">&#xa;     <g id="line2d_33">&#xa;      <g>&#xa;       <use xlink:href="#m1cecaaaca0" x="327.54388" y="242.948" style="stroke: #000000; stroke-width: 0.6"/>&#xa;      </g>&#xa;     </g>&#xa;    </g>&#xa;    <g id="xtick_30">&#xa;     <g id="line2d_34">&#xa;      <g>&#xa;       <use xlink:href="#m1cecaaaca0" x="342.482635" y="242.948" style="stroke: #000000; stroke-width: 0.6"/>&#xa;      </g>&#xa;     </g>&#xa;    </g>&#xa;    <g id="text_5">&#xa;     &#xa;     <g transform="translate(144.512734 271.516594) scale(0.11 -0.11)">&#xa;      <defs>&#xa;       <path id="DejaVuSans-53" d="M 3425 4513 &#10;L 3425 3897 &#10;Q 3066 4069 2747 4153 &#10;Q 2428 4238 2131 4238 &#10;Q 1616 4238 1336 4038 &#10;Q 1056 3838 1056 3469 &#10;Q 1056 3159 1242 3001 &#10;Q 1428 2844 1947 2747 &#10;L 2328 2669 &#10;Q 3034 2534 3370 2195 &#10;Q 3706 1856 3706 1288 &#10;Q 3706 609 3251 259 &#10;Q 2797 -91 1919 -91 &#10;Q 1588 -91 1214 -16 &#10;Q 841 59 441 206 &#10;L 441 856 &#10;Q 825 641 1194 531 &#10;Q 1563 422 1919 422 &#10;Q 2459 422 2753 634 &#10;Q 3047 847 3047 1241 &#10;Q 3047 1584 2836 1778 &#10;Q 2625 1972 2144 2069 &#10;L 1759 2144 &#10;Q 1053 2284 737 2584 &#10;Q 422 2884 422 3419 &#10;Q 422 4038 858 4394 &#10;Q 1294 4750 2059 4750 &#10;Q 2388 4750 2728 4690 &#10;Q 3069 4631 3425 4513 &#10;z" transform="scale(0.015625)"/>&#xa;       <path id="DejaVuSans-74" d="M 1172 4494 &#10;L 1172 3500 &#10;L 2356 3500 &#10;L 2356 3053 &#10;L 1172 3053 &#10;L 1172 1153 &#10;Q 1172 725 1289 603 &#10;Q 1406 481 1766 481 &#10;L 2356 481 &#10;L 2356 0 &#10;L 1766 0 &#10;Q 1100 0 847 248 &#10;Q 594 497 594 1153 &#10;L 594 3053 &#10;L 172 3053 &#10;L 172 3500 &#10;L 594 3500 &#10;L 594 4494 &#10;L 1172 4494 &#10;z" transform="scale(0.015625)"/>&#xa;       <path id="DejaVuSans-65" d="M 3597 1894 &#10;L 3597 1613 &#10;L 953 1613 &#10;Q 991 1019 1311 708 &#10;Q 1631 397 2203 397 &#10;Q 2534 397 2845 478 &#10;Q 3156 559 3463 722 &#10;L 3463 178 &#10;Q 3153 47 2828 -22 &#10;Q 2503 -91 2169 -91 &#10;Q 1331 -91 842 396 &#10;Q 353 884 353 1716 &#10;Q 353 2575 817 3079 &#10;Q 1281 3584 2069 3584 &#10;Q 2775 3584 3186 3129 &#10;Q 3597 2675 3597 1894 &#10;z&#10;M 3022 2063 &#10;Q 3016 2534 2758 2815 &#10;Q 2500 3097 2075 3097 &#10;Q 1594 3097 1305 2825 &#10;Q 1016 2553 972 2059 &#10;L 3022 2063 &#10;z" transform="scale(0.015625)"/>&#xa;       <path id="DejaVuSans-70" d="M 1159 525 &#10;L 1159 -1331 &#10;L 581 -1331 &#10;L 581 3500 &#10;L 1159 3500 &#10;L 1159 2969 &#10;Q 1341 3281 1617 3432 &#10;Q 1894 3584 2278 3584 &#10;Q 2916 3584 3314 3078 &#10;Q 3713 2572 3713 1747 &#10;Q 3713 922 3314 415 &#10;Q 2916 -91 2278 -91 &#10;Q 1894 -91 1617 61 &#10;Q 1341 213 1159 525 &#10;z&#10;M 3116 1747 &#10;Q 3116 2381 2855 2742 &#10;Q 2594 3103 2138 3103 &#10;Q 1681 3103 1420 2742 &#10;Q 1159 2381 1159 1747 &#10;Q 1159 1113 1420 752 &#10;Q 1681 391 2138 391 &#10;Q 2594 391 2855 752 &#10;Q 3116 1113 3116 1747 &#10;z" transform="scale(0.015625)"/>&#xa;       <path id="DejaVuSans-20" transform="scale(0.015625)"/>&#xa;       <path id="DejaVuSans-73" d="M 2834 3397 &#10;L 2834 2853 &#10;Q 2591 2978 2328 3040 &#10;Q 2066 3103 1784 3103 &#10;Q 1356 3103 1142 2972 &#10;Q 928 2841 928 2578 &#10;Q 928 2378 1081 2264 &#10;Q 1234 2150 1697 2047 &#10;L 1894 2003 &#10;Q 2506 1872 2764 1633 &#10;Q 3022 1394 3022 966 &#10;Q 3022 478 2636 193 &#10;Q 2250 -91 1575 -91 &#10;Q 1294 -91 989 -36 &#10;Q 684 19 347 128 &#10;L 347 722 &#10;Q 666 556 975 473 &#10;Q 1284 391 1588 391 &#10;Q 1994 391 2212 530 &#10;Q 2431 669 2431 922 &#10;Q 2431 1156 2273 1281 &#10;Q 2116 1406 1581 1522 &#10;L 1381 1569 &#10;Q 847 1681 609 1914 &#10;Q 372 2147 372 2553 &#10;Q 372 3047 722 3315 &#10;Q 1072 3584 1716 3584 &#10;Q 2034 3584 2315 3537 &#10;Q 2597 3491 2834 3397 &#10;z" transform="scale(0.015625)"/>&#xa;       <path id="DejaVuSans-69" d="M 603 3500 &#10;L 1178 3500 &#10;L 1178 0 &#10;L 603 0 &#10;L 603 3500 &#10;z&#10;M 603 4863 &#10;L 1178 4863 &#10;L 1178 4134 &#10;L 603 4134 &#10;L 603 4863 &#10;z" transform="scale(0.015625)"/>&#xa;       <path id="DejaVuSans-7a" d="M 353 3500 &#10;L 3084 3500 &#10;L 3084 2975 &#10;L 922 459 &#10;L 3084 459 &#10;L 3084 0 &#10;L 275 0 &#10;L 275 525 &#10;L 2438 3041 &#10;L 353 3041 &#10;L 353 3500 &#10;z" transform="scale(0.015625)"/>&#xa;       <path id="DejaVuSans-28" d="M 1984 4856 &#10;Q 1566 4138 1362 3434 &#10;Q 1159 2731 1159 2009 &#10;Q 1159 1288 1364 580 &#10;Q 1569 -128 1984 -844 &#10;L 1484 -844 &#10;Q 1016 -109 783 600 &#10;Q 550 1309 550 2009 &#10;Q 550 2706 781 3412 &#10;Q 1013 4119 1484 4856 &#10;L 1984 4856 &#10;z" transform="scale(0.015625)"/>&#xa;       <path id="DejaVuSans-61" d="M 2194 1759 &#10;Q 1497 1759 1228 1600 &#10;Q 959 1441 959 1056 &#10;Q 959 750 1161 570 &#10;Q 1363 391 1709 391 &#10;Q 2188 391 2477 730 &#10;Q 2766 1069 2766 1631 &#10;L 2766 1759 &#10;L 2194 1759 &#10;z&#10;M 3341 1997 &#10;L 3341 0 &#10;L 2766 0 &#10;L 2766 531 &#10;Q 2569 213 2275 61 &#10;Q 1981 -91 1556 -91 &#10;Q 1019 -91 701 211 &#10;Q 384 513 384 1019 &#10;Q 384 1609 779 1909 &#10;Q 1175 2209 1959 2209 &#10;L 2766 2209 &#10;L 2766 2266 &#10;Q 2766 2663 2505 2880 &#10;Q 2244 3097 1772 3097 &#10;Q 1472 3097 1187 3025 &#10;Q 903 2953 641 2809 &#10;L 641 3341 &#10;Q 956 3463 1253 3523 &#10;Q 1550 3584 1831 3584 &#10;Q 2591 3584 2966 3190 &#10;Q 3341 2797 3341 1997 &#10;z" transform="scale(0.015625)"/>&#xa;       <path id="DejaVuSans-6d" d="M 3328 2828 &#10;Q 3544 3216 3844 3400 &#10;Q 4144 3584 4550 3584 &#10;Q 5097 3584 5394 3201 &#10;Q 5691 2819 5691 2113 &#10;L 5691 0 &#10;L 5113 0 &#10;L 5113 2094 &#10;Q 5113 2597 4934 2840 &#10;Q 4756 3084 4391 3084 &#10;Q 3944 3084 3684 2787 &#10;Q 3425 2491 3425 1978 &#10;L 3425 0 &#10;L 2847 0 &#10;L 2847 2094 &#10;Q 2847 2600 2669 2842 &#10;Q 2491 3084 2119 3084 &#10;Q 1678 3084 1418 2786 &#10;Q 1159 2488 1159 1978 &#10;L 1159 0 &#10;L 581 0 &#10;L 581 3500 &#10;L 1159 3500 &#10;L 1159 2956 &#10;Q 1356 3278 1631 3431 &#10;Q 1906 3584 2284 3584 &#10;Q 2666 3584 2933 3390 &#10;Q 3200 3197 3328 2828 &#10;z" transform="scale(0.015625)"/>&#xa;       <path id="DejaVuSans-6c" d="M 603 4863 &#10;L 1178 4863 &#10;L 1178 0 &#10;L 603 0 &#10;L 603 4863 &#10;z" transform="scale(0.015625)"/>&#xa;       <path id="DejaVuSans-29" d="M 513 4856 &#10;L 1013 4856 &#10;Q 1481 4119 1714 3412 &#10;Q 1947 2706 1947 2009 &#10;Q 1947 1309 1714 600 &#10;Q 1481 -109 1013 -844 &#10;L 513 -844 &#10;Q 928 -128 1133 580 &#10;Q 1338 1288 1338 2009 &#10;Q 1338 2731 1133 3434 &#10;Q 928 4138 513 4856 &#10;z" transform="scale(0.015625)"/>&#xa;      </defs>&#xa;      <use xlink:href="#DejaVuSans-53"/>&#xa;      <use xlink:href="#DejaVuSans-74" transform="translate(63.476562 0)"/>&#xa;      <use xlink:href="#DejaVuSans-65" transform="translate(102.685547 0)"/>&#xa;      <use xlink:href="#DejaVuSans-70" transform="translate(164.208984 0)"/>&#xa;      <use xlink:href="#DejaVuSans-20" transform="translate(227.685547 0)"/>&#xa;      <use xlink:href="#DejaVuSans-73" transform="translate(259.472656 0)"/>&#xa;      <use xlink:href="#DejaVuSans-69" transform="translate(311.572266 0)"/>&#xa;      <use xlink:href="#DejaVuSans-7a" transform="translate(339.355469 0)"/>&#xa;      <use xlink:href="#DejaVuSans-65" transform="translate(391.845703 0)"/>&#xa;      <use xlink:href="#DejaVuSans-20" transform="translate(453.369141 0)"/>&#xa;      <use xlink:href="#DejaVuSans-28" transform="translate(485.15625 0)"/>&#xa;      <use xlink:href="#DejaVuSans-73" transform="translate(524.169922 0)"/>&#xa;      <use xlink:href="#DejaVuSans-61" transform="translate(576.269531 0)"/>&#xa;      <use xlink:href="#DejaVuSans-6d" transform="translate(637.548828 0)"/>&#xa;      <use xlink:href="#DejaVuSans-70" transform="translate(734.960938 0)"/>&#xa;      <use xlink:href="#DejaVuSans-6c" transform="translate(798.4375 0)"/>&#xa;      <use xlink:href="#DejaVuSans-65" transform="translate(826.220703 0)"/>&#xa;      <use xlink:href="#DejaVuSans-73" transform="translate(887.744141 0)"/>&#xa;      <use xlink:href="#DejaVuSans-29" transform="translate(939.84375 0)"/>&#xa;     </g>&#xa;    </g>&#xa;   </g>&#xa;   <g id="matplotlib.axis_2">&#xa;    <g id="ytick_1">&#xa;     <g id="line2d_35">&#xa;      <path d="M 47.5 242.948 &#10;L 349.2 242.948" clip-path="url(#p4620d4dd22)" style="fill: none; stroke: #b0b0b0; stroke-opacity: 0.3; stroke-width: 0.8; stroke-linecap: square"/>&#xa;     </g>&#xa;     <g id="line2d_36">&#xa;      <defs>&#xa;       <path id="m87d6bcf36c" d="M 0 0 &#10;L -4 0" style="stroke: #000000; stroke-width: 0.8"/>&#xa;      </defs>&#xa;      <g>&#xa;       <use xlink:href="#m87d6bcf36c" x="47.5" y="242.948" style="stroke: #000000; stroke-width: 0.8"/>&#xa;      </g>&#xa;     </g>&#xa;     <g id="text_6">&#xa;      &#xa;      <g transform="translate(25.687188 246.367297) scale(0.09 -0.09)">&#xa;       <defs>&#xa;        <path id="DejaVuSans-2e" d="M 684 794 &#10;L 1344 794 &#10;L 1344 0 &#10;L 684 0 &#10;L 684 794 &#10;z" transform="scale(0.015625)"/>&#xa;       </defs>&#xa;       <use xlink:href="#DejaVuSans-30"/>&#xa;       <use xlink:href="#DejaVuSans-2e" transform="translate(63.623047 0)"/>&#xa;       <use xlink:href="#DejaVuSans-30" transform="translate(95.410156 0)"/>&#xa;      </g>&#xa;     </g>&#xa;    </g>&#xa;    <g id="ytick_2">&#xa;     <g id="line2d_37">&#xa;      <path d="M 47.5 197.2384 &#10;L 349.2 197.2384" clip-path="url(#p4620d4dd22)" style="fill: none; stroke: #b0b0b0; stroke-opacity: 0.3; stroke-width: 0.8; stroke-linecap: square"/>&#xa;     </g>&#xa;     <g id="line2d_38">&#xa;      <g>&#xa;       <use xlink:href="#m87d6bcf36c" x="47.5" y="197.2384" style="stroke: #000000; stroke-width: 0.8"/>&#xa;      </g>&#xa;     </g>&#xa;     <g id="text_7">&#xa;      &#xa;      <g transform="translate(25.687188 200.657697) scale(0.09 -0.09)">&#xa;       <use xlink:href="#DejaVuSans-30"/>&#xa;       <use xlink:href="#DejaVuSans-2e" transform="translate(63.623047 0)"/>&#xa;       <use xlink:href="#DejaVuSans-32" transform="translate(95.410156 0)"/>&#xa;      </g>&#xa;     </g>&#xa;    </g>&#xa;    <g id="ytick_3">&#xa;     <g id="line2d_39">&#xa;      <path d="M 47.5 151.5288 &#10;L 349.2 151.5288" clip-path="url(#p4620d4dd22)" style="fill: none; stroke: #b0b0b0; stroke-opacity: 0.3; stroke-width: 0.8; stroke-linecap: square"/>&#xa;     </g>&#xa;     <g id="line2d_40">&#xa;      <g>&#xa;       <use xlink:href="#m87d6bcf36c" x="47.5" y="151.5288" style="stroke: #000000; stroke-width: 0.8"/>&#xa;      </g>&#xa;     </g>&#xa;     <g id="text_8">&#xa;      &#xa;      <g transform="translate(25.687188 154.948097) scale(0.09 -0.09)">&#xa;       <defs>&#xa;        <path id="DejaVuSans-34" d="M 2419 4116 &#10;L 825 1625 &#10;L 2419 1625 &#10;L 2419 4116 &#10;z&#10;M 2253 4666 &#10;L 3047 4666 &#10;L 3047 1625 &#10;L 3713 1625 &#10;L 3713 1100 &#10;L 3047 1100 &#10;L 3047 0 &#10;L 2419 0 &#10;L 2419 1100 &#10;L 313 1100 &#10;L 313 1709 &#10;L 2253 4666 &#10;z" transform="scale(0.015625)"/>&#xa;       </defs>&#xa;       <use xlink:href="#DejaVuSans-30"/>&#xa;       <use xlink:href="#DejaVuSans-2e" transform="translate(63.623047 0)"/>&#xa;       <use xlink:href="#DejaVuSans-34" transform="translate(95.410156 0)"/>&#xa;      </g>&#xa;     </g>&#xa;    </g>&#xa;    <g id="ytick_4">&#xa;     <g id="line2d_41">&#xa;      <path d="M 47.5 105.8192 &#10;L 349.2 105.8192" clip-path="url(#p4620d4dd22)" style="fill: none; stroke: #b0b0b0; stroke-opacity: 0.3; stroke-width: 0.8; stroke-linecap: square"/>&#xa;     </g>&#xa;     <g id="line2d_42">&#xa;      <g>&#xa;       <use xlink:href="#m87d6bcf36c" x="47.5" y="105.8192" style="stroke: #000000; stroke-width: 0.8"/>&#xa;      </g>&#xa;     </g>&#xa;     <g id="text_9">&#xa;      &#xa;      <g transform="translate(25.687188 109.238497) scale(0.09 -0.09)">&#xa;       <defs>&#xa;        <path id="DejaVuSans-36" d="M 2113 2584 &#10;Q 1688 2584 1439 2293 &#10;Q 1191 2003 1191 1497 &#10;Q 1191 994 1439 701 &#10;Q 1688 409 2113 409 &#10;Q 2538 409 2786 701 &#10;Q 3034 994 3034 1497 &#10;Q 3034 2003 2786 2293 &#10;Q 2538 2584 2113 2584 &#10;z&#10;M 3366 4563 &#10;L 3366 3988 &#10;Q 3128 4100 2886 4159 &#10;Q 2644 4219 2406 4219 &#10;Q 1781 4219 1451 3797 &#10;Q 1122 3375 1075 2522 &#10;Q 1259 2794 1537 2939 &#10;Q 1816 3084 2150 3084 &#10;Q 2853 3084 3261 2657 &#10;Q 3669 2231 3669 1497 &#10;Q 3669 778 3244 343 &#10;Q 2819 -91 2113 -91 &#10;Q 1303 -91 875 529 &#10;Q 447 1150 447 2328 &#10;Q 447 3434 972 4092 &#10;Q 1497 4750 2381 4750 &#10;Q 2619 4750 2861 4703 &#10;Q 3103 4656 3366 4563 &#10;z" transform="scale(0.015625)"/>&#xa;       </defs>&#xa;       <use xlink:href="#DejaVuSans-30"/>&#xa;       <use xlink:href="#DejaVuSans-2e" transform="translate(63.623047 0)"/>&#xa;       <use xlink:href="#DejaVuSans-36" transform="translate(95.410156 0)"/>&#xa;      </g>&#xa;     </g>&#xa;    </g>&#xa;    <g id="ytick_5">&#xa;     <g id="line2d_43">&#xa;      <path d="M 47.5 60.1096 &#10;L 349.2 60.1096" clip-path="url(#p4620d4dd22)" style="fill: none; stroke: #b0b0b0; stroke-opacity: 0.3; stroke-width: 0.8; stroke-linecap: square"/>&#xa;     </g>&#xa;     <g id="line2d_44">&#xa;      <g>&#xa;       <use xlink:href="#m87d6bcf36c" x="47.5" y="60.1096" style="stroke: #000000; stroke-width: 0.8"/>&#xa;      </g>&#xa;     </g>&#xa;     <g id="text_10">&#xa;      &#xa;      <g transform="translate(25.687188 63.528897) scale(0.09 -0.09)">&#xa;       <defs>&#xa;        <path id="DejaVuSans-38" d="M 2034 2216 &#10;Q 1584 2216 1326 1975 &#10;Q 1069 1734 1069 1313 &#10;Q 1069 891 1326 650 &#10;Q 1584 409 2034 409 &#10;Q 2484 409 2743 651 &#10;Q 3003 894 3003 1313 &#10;Q 3003 1734 2745 1975 &#10;Q 2488 2216 2034 2216 &#10;z&#10;M 1403 2484 &#10;Q 997 2584 770 2862 &#10;Q 544 3141 544 3541 &#10;Q 544 4100 942 4425 &#10;Q 1341 4750 2034 4750 &#10;Q 2731 4750 3128 4425 &#10;Q 3525 4100 3525 3541 &#10;Q 3525 3141 3298 2862 &#10;Q 3072 2584 2669 2484 &#10;Q 3125 2378 3379 2068 &#10;Q 3634 1759 3634 1313 &#10;Q 3634 634 3220 271 &#10;Q 2806 -91 2034 -91 &#10;Q 1263 -91 848 271 &#10;Q 434 634 434 1313 &#10;Q 434 1759 690 2068 &#10;Q 947 2378 1403 2484 &#10;z&#10;M 1172 3481 &#10;Q 1172 3119 1398 2916 &#10;Q 1625 2713 2034 2713 &#10;Q 2441 2713 2670 2916 &#10;Q 2900 3119 2900 3481 &#10;Q 2900 3844 2670 4047 &#10;Q 2441 4250 2034 4250 &#10;Q 1625 4250 1398 4047 &#10;Q 1172 3844 1172 3481 &#10;z" transform="scale(0.015625)"/>&#xa;       </defs>&#xa;       <use xlink:href="#DejaVuSans-30"/>&#xa;       <use xlink:href="#DejaVuSans-2e" transform="translate(63.623047 0)"/>&#xa;       <use xlink:href="#DejaVuSans-38" transform="translate(95.410156 0)"/>&#xa;      </g>&#xa;     </g>&#xa;    </g>&#xa;    <g id="ytick_6">&#xa;     <g id="line2d_45">&#xa;      <path d="M 47.5 14.4 &#10;L 349.2 14.4" clip-path="url(#p4620d4dd22)" style="fill: none; stroke: #b0b0b0; stroke-opacity: 0.3; stroke-width: 0.8; stroke-linecap: square"/>&#xa;     </g>&#xa;     <g id="line2d_46">&#xa;      <g>&#xa;       <use xlink:href="#m87d6bcf36c" x="47.5" y="14.4" style="stroke: #000000; stroke-width: 0.8"/>&#xa;      </g>&#xa;     </g>&#xa;     <g id="text_11">&#xa;      &#xa;      <g transform="translate(25.687188 17.819297) scale(0.09 -0.09)">&#xa;       <use xlink:href="#DejaVuSans-31"/>&#xa;       <use xlink:href="#DejaVuSans-2e" transform="translate(63.623047 0)"/>&#xa;       <use xlink:href="#DejaVuSans-30" transform="translate(95.410156 0)"/>&#xa;      </g>&#xa;     </g>&#xa;    </g>&#xa;    <g id="text_12">&#xa;     &#xa;     <g transform="translate(19.399531 194.853609) rotate(-90) scale(0.11 -0.11)">&#xa;      <defs>&#xa;       <path id="DejaVuSans-44" d="M 1259 4147 &#10;L 1259 519 &#10;L 2022 519 &#10;Q 2988 519 3436 956 &#10;Q 3884 1394 3884 2338 &#10;Q 3884 3275 3436 3711 &#10;Q 2988 4147 2022 4147 &#10;L 1259 4147 &#10;z&#10;M 628 4666 &#10;L 1925 4666 &#10;Q 3281 4666 3915 4102 &#10;Q 4550 3538 4550 2338 &#10;Q 4550 1131 3912 565 &#10;Q 3275 0 1925 0 &#10;L 628 0 &#10;L 628 4666 &#10;z" transform="scale(0.015625)"/>&#xa;       <path id="DejaVuSans-66" d="M 2375 4863 &#10;L 2375 4384 &#10;L 1825 4384 &#10;Q 1516 4384 1395 4259 &#10;Q 1275 4134 1275 3809 &#10;L 1275 3500 &#10;L 2222 3500 &#10;L 2222 3053 &#10;L 1275 3053 &#10;L 1275 0 &#10;L 697 0 &#10;L 697 3053 &#10;L 147 3053 &#10;L 147 3500 &#10;L 697 3500 &#10;L 697 3744 &#10;Q 697 4328 969 4595 &#10;Q 1241 4863 1831 4863 &#10;L 2375 4863 &#10;z" transform="scale(0.015625)"/>&#xa;       <path id="DejaVuSans-72" d="M 2631 2963 &#10;Q 2534 3019 2420 3045 &#10;Q 2306 3072 2169 3072 &#10;Q 1681 3072 1420 2755 &#10;Q 1159 2438 1159 1844 &#10;L 1159 0 &#10;L 581 0 &#10;L 581 3500 &#10;L 1159 3500 &#10;L 1159 2956 &#10;Q 1341 3275 1631 3429 &#10;Q 1922 3584 2338 3584 &#10;Q 2397 3584 2469 3576 &#10;Q 2541 3569 2628 3553 &#10;L 2631 2963 &#10;z" transform="scale(0.015625)"/>&#xa;       <path id="DejaVuSans-6e" d="M 3513 2113 &#10;L 3513 0 &#10;L 2938 0 &#10;L 2938 2094 &#10;Q 2938 2591 2744 2837 &#10;Q 2550 3084 2163 3084 &#10;Q 1697 3084 1428 2787 &#10;Q 1159 2491 1159 1978 &#10;L 1159 0 &#10;L 581 0 &#10;L 581 3500 &#10;L 1159 3500 &#10;L 1159 2956 &#10;Q 1366 3272 1645 3428 &#10;Q 1925 3584 2291 3584 &#10;Q 2894 3584 3203 3211 &#10;Q 3513 2838 3513 2113 &#10;z" transform="scale(0.015625)"/>&#xa;       <path id="DejaVuSans-6f" d="M 1959 3097 &#10;Q 1497 3097 1228 2736 &#10;Q 959 2375 959 1747 &#10;Q 959 1119 1226 758 &#10;Q 1494 397 1959 397 &#10;Q 2419 397 2687 759 &#10;Q 2956 1122 2956 1747 &#10;Q 2956 2369 2687 2733 &#10;Q 2419 3097 1959 3097 &#10;z&#10;M 1959 3584 &#10;Q 2709 3584 3137 3096 &#10;Q 3566 2609 3566 1747 &#10;Q 3566 888 3137 398 &#10;Q 2709 -91 1959 -91 &#10;Q 1206 -91 779 398 &#10;Q 353 888 353 1747 &#10;Q 353 2609 779 3096 &#10;Q 1206 3584 1959 3584 &#10;z" transform="scale(0.015625)"/>&#xa;       <path id="DejaVuSans-63" d="M 3122 3366 &#10;L 3122 2828 &#10;Q 2878 2963 2633 3030 &#10;Q 2388 3097 2138 3097 &#10;Q 1578 3097 1268 2742 &#10;Q 959 2388 959 1747 &#10;Q 959 1106 1268 751 &#10;Q 1578 397 2138 397 &#10;Q 2388 397 2633 464 &#10;Q 2878 531 3122 666 &#10;L 3122 134 &#10;Q 2881 22 2623 -34 &#10;Q 2366 -91 2075 -91 &#10;Q 1284 -91 818 406 &#10;Q 353 903 353 1747 &#10;Q 353 2603 823 3093 &#10;Q 1294 3584 2113 3584 &#10;Q 2378 3584 2631 3529 &#10;Q 2884 3475 3122 3366 &#10;z" transform="scale(0.015625)"/>&#xa;       <path id="DejaVuSans-75" d="M 544 1381 &#10;L 544 3500 &#10;L 1119 3500 &#10;L 1119 1403 &#10;Q 1119 906 1312 657 &#10;Q 1506 409 1894 409 &#10;Q 2359 409 2629 706 &#10;Q 2900 1003 2900 1516 &#10;L 2900 3500 &#10;L 3475 3500 &#10;L 3475 0 &#10;L 2900 0 &#10;L 2900 538 &#10;Q 2691 219 2414 64 &#10;Q 2138 -91 1772 -91 &#10;Q 1169 -91 856 284 &#10;Q 544 659 544 1381 &#10;z&#10;M 1991 3584 &#10;L 1991 3584 &#10;z" transform="scale(0.015625)"/>&#xa;       <path id="DejaVuSans-79" d="M 2059 -325 &#10;Q 1816 -950 1584 -1140 &#10;Q 1353 -1331 966 -1331 &#10;L 506 -1331 &#10;L 506 -850 &#10;L 844 -850 &#10;Q 1081 -850 1212 -737 &#10;Q 1344 -625 1503 -206 &#10;L 1606 56 &#10;L 191 3500 &#10;L 800 3500 &#10;L 1894 763 &#10;L 2988 3500 &#10;L 3597 3500 &#10;L 2059 -325 &#10;z" transform="scale(0.015625)"/>&#xa;      </defs>&#xa;      <use xlink:href="#DejaVuSans-44"/>&#xa;      <use xlink:href="#DejaVuSans-69" transform="translate(77.001953 0)"/>&#xa;      <use xlink:href="#DejaVuSans-66" transform="translate(104.785156 0)"/>&#xa;      <use xlink:href="#DejaVuSans-66" transform="translate(139.990234 0)"/>&#xa;      <use xlink:href="#DejaVuSans-65" transform="translate(175.195312 0)"/>&#xa;      <use xlink:href="#DejaVuSans-72" transform="translate(236.71875 0)"/>&#xa;      <use xlink:href="#DejaVuSans-65" transform="translate(275.582031 0)"/>&#xa;      <use xlink:href="#DejaVuSans-6e" transform="translate(337.105469 0)"/>&#xa;      <use xlink:href="#DejaVuSans-74" transform="translate(400.484375 0)"/>&#xa;      <use xlink:href="#DejaVuSans-69" transform="translate(439.693359 0)"/>&#xa;      <use xlink:href="#DejaVuSans-61" transform="translate(467.476562 0)"/>&#xa;      <use xlink:href="#DejaVuSans-74" transform="translate(528.755859 0)"/>&#xa;      <use xlink:href="#DejaVuSans-69" transform="translate(567.964844 0)"/>&#xa;      <use xlink:href="#DejaVuSans-6f" transform="translate(595.748047 0)"/>&#xa;      <use xlink:href="#DejaVuSans-6e" transform="translate(656.929688 0)"/>&#xa;      <use xlink:href="#DejaVuSans-20" transform="translate(720.308594 0)"/>&#xa;      <use xlink:href="#DejaVuSans-61" transform="translate(752.095703 0)"/>&#xa;      <use xlink:href="#DejaVuSans-63" transform="translate(813.375 0)"/>&#xa;      <use xlink:href="#DejaVuSans-63" transform="translate(868.355469 0)"/>&#xa;      <use xlink:href="#DejaVuSans-75" transform="translate(923.335938 0)"/>&#xa;      <use xlink:href="#DejaVuSans-72" transform="translate(986.714844 0)"/>&#xa;      <use xlink:href="#DejaVuSans-61" transform="translate(1027.828125 0)"/>&#xa;      <use xlink:href="#DejaVuSans-63" transform="translate(1089.107422 0)"/>&#xa;      <use xlink:href="#DejaVuSans-79" transform="translate(1144.087891 0)"/>&#xa;     </g>&#xa;    </g>&#xa;   </g>&#xa;   <g id="line2d_47">&#xa;    <path d="M 349.2 233.80608 &#10;L 323.662029 233.80608 &#10;L 308.723274 217.80772 &#10;L 298.124058 224.66416 &#10;L 289.902668 217.80772 &#10;L 283.185303 208.6658 &#10;L 277.505852 210.95128 &#10;L 272.586087 210.95128 &#10;L 268.246548 208.6658 &#10;L 264.364697 194.95292 &#10;L 260.853136 199.52388 &#10;L 257.647332 178.95456 &#10;L 254.698278 190.38196 &#10;L 251.967881 204.09484 &#10;L 249.425942 181.24004 &#10;L 247.048116 204.09484 &#10;L 244.814493 204.09484 &#10;L 242.708577 172.09812 &#10;L 240.716551 172.09812 &#10;L 238.826726 183.52552 &#10;L 237.029126 185.811 &#10;L 235.315165 192.66744 &#10;L 233.677407 176.66908 &#10;L 232.109361 185.811 &#10;L 230.605336 183.52552 &#10;L 229.160307 158.38524 &#10;L 227.769821 158.38524 &#10;L 226.42991 167.52716 &#10;L 225.137023 169.81264 &#10;L 223.887971 144.67236 &#10;L 222.679879 162.9562 &#10;L 221.510146 151.5288 &#10;L 219.276522 169.81264 &#10;L 218.20852 149.24332 &#10;L 217.170606 149.24332 &#10;L 216.161132 140.1014 &#10;L 215.17858 137.81592 &#10;L 214.221552 144.67236 &#10;L 213.288755 140.1014 &#10;L 212.378993 137.81592 &#10;L 211.491155 151.5288 &#10;L 210.624209 126.38852 &#10;L 209.777194 140.1014 &#10;L 208.949216 140.1014 &#10;L 208.139436 151.5288 &#10;L 207.347072 133.24496 &#10;L 206.57139 142.38688 &#10;L 205.811704 117.2466 &#10;L 205.067365 128.674 &#10;L 203.622336 119.53208 &#10;L 202.920534 121.81756 &#10;L 202.231851 112.67564 &#10;L 200.891939 121.81756 &#10;L 200.239825 96.67728 &#10;L 198.969233 119.53208 &#10;L 198.35 117.2466 &#10;L 197.741003 126.38852 &#10;L 196.552399 133.24496 &#10;L 195.972175 105.8192 &#10;L 195.400946 110.39016 &#10;L 194.284391 92.10632 &#10;L 193.738551 124.10304 &#10;L 192.670549 105.8192 &#10;L 192.147937 108.10468 &#10;L 191.124441 94.3918 &#10;L 190.623161 92.10632 &#10;L 189.158988 98.96276 &#10;L 188.214231 87.53536 &#10;L 187.293095 105.8192 &#10;L 185.953184 119.53208 &#10;L 185.086238 94.3918 &#10;L 184.239223 94.3918 &#10;L 183.411245 76.10796 &#10;L 182.601465 96.67728 &#10;L 181.809101 87.53536 &#10;L 181.033419 71.537 &#10;L 180.273733 62.39508 &#10;L 179.529394 76.10796 &#10;L 178.799796 69.25152 &#10;L 178.084366 71.537 &#10;L 177.382563 60.1096 &#10;L 175.684405 87.53536 &#10;L 175.026468 98.96276 &#10;L 174.061081 87.53536 &#10;L 173.431262 92.10632 &#10;L 172.506272 82.9644 &#10;L 171.902267 105.8192 &#10;L 171.014429 94.3918 &#10;L 170.147483 76.10796 &#10;L 169.580648 73.82248 &#10;L 167.930663 73.82248 &#10;L 167.132578 69.25152 &#10;L 166.351414 80.67892 &#10;L 165.58647 48.6822 &#10;L 164.837085 69.25152 &#10;L 164.102638 64.68056 &#10;L 163.14561 50.96768 &#10;L 161.755124 64.68056 &#10;L 160.856458 55.53864 &#10;L 160.196556 57.82412 &#10;L 159.334681 46.39672 &#10;L 158.492507 55.53864 &#10;L 157.873274 57.82412 &#10;L 157.063494 57.82412 &#10;L 156.27113 62.39508 &#10;L 155.495449 60.1096 &#10;L 154.735762 50.96768 &#10;L 153.991423 64.68056 &#10;L 153.081661 60.1096 &#10;L 152.369687 69.25152 &#10;L 151.671211 55.53864 &#10;L 150.816335 53.25316 &#10;L 149.980846 53.25316 &#10;L 149.325833 73.82248 &#10;L 148.52311 66.96604 &#10;L 147.737505 80.67892 &#10;L 146.214829 76.10796 &#10;L 145.476458 80.67892 &#10;L 144.609512 76.10796 &#10;L 143.902321 64.68056 &#10;L 143.071229 64.68056 &#10;L 142.258472 57.82412 &#10;L 141.594607 50.96768 &#10;L 140.813443 60.1096 &#10;L 140.048499 48.6822 &#10;L 139.175685 50.96768 &#10;L 138.443671 50.96768 &#10;L 137.725917 48.6822 &#10;L 136.905837 44.11124 &#10;L 136.103614 41.82576 &#10;L 135.318487 34.96932 &#10;L 134.549742 39.54028 &#10;L 133.79671 37.2548 &#10;L 133.058761 37.2548 &#10;L 131.525523 41.82576 &#10;L 130.733159 41.82576 &#10;L 129.957478 37.2548 &#10;L 129.197791 41.82576 &#10;L 128.361459 37.2548 &#10;L 127.633662 46.39672 &#10;L 126.831716 41.82576 &#10;L 126.046854 41.82576 &#10;L 125.278364 39.54028 &#10;L 124.525576 39.54028 &#10;L 123.787862 41.82576 &#10;L 122.985139 37.2548 &#10;L 122.199534 37.2548 &#10;L 121.43033 41.82576 &#10;L 119.938487 37.2548 &#10;L 119.143012 44.11124 &#10;L 118.36435 39.54028 &#10;L 117.601804 37.2548 &#10;L 116.854722 41.82576 &#10;L 116.056636 39.54028 &#10;L 114.510528 39.54028 &#10;L 113.761143 46.39672 &#10;L 112.966148 41.82576 &#10;L 111.425842 41.82576 &#10;L 110.679183 39.54028 &#10;L 109.891658 41.82576 &#10;L 109.120615 41.82576 &#10;L 107.573013 37.2548 &#10;L 106.797332 46.39672 &#10;L 106.037645 41.82576 &#10;L 105.244215 39.54028 &#10;L 102.961565 39.54028 &#10;L 102.185883 41.82576 &#10;L 101.426197 39.54028 &#10;L 99.867367 39.54028 &#10;L 99.112007 41.82576 &#10;L 98.331134 39.54028 &#10;L 97.566468 41.82576 &#10;L 96.778341 39.54028 &#10;L 95.250931 39.54028 &#10;L 94.473691 41.82576 &#10;L 93.712509 39.54028 &#10;L 92.931596 44.11124 &#10;L 92.166892 39.54028 &#10;L 90.617486 39.54028 &#10;L 89.834246 41.82576 &#10;L 89.067311 41.82576 &#10;L 88.316016 39.54028 &#10;L 86.768634 39.54028 &#10;L 86.004097 41.82576 &#10;L 85.226597 41.82576 &#10;L 84.465165 39.54028 &#10;L 81.387513 39.54028 &#10;L 80.600065 41.82576 &#10;L 79.829097 39.54028 &#10;L 74.456809 39.54028 &#10;L 73.678025 41.82576 &#10;L 72.915363 39.54028 &#10;L 65.211689 39.54028 &#10;L 64.44187 41.82576 &#10;L 63.67193 39.54028 &#10;L 61.364613 39.54028 &#10;L 60.582719 41.82576 &#10;L 59.817075 39.54028 &#10;L 47.510236 39.54028 &#10;L 47.510236 39.54028" clip-path="url(#p4620d4dd22)" style="fill: none; stroke: #1f77b4; stroke-width: 1.5; stroke-linecap: square"/>&#xa;   </g>&#xa;   <g id="line2d_48">&#xa;    <path d="M 349.2 222.37868 &#10;L 323.662029 213.23676 &#10;L 308.723274 215.52224 &#10;L 298.124058 194.95292 &#10;L 289.902668 188.09648 &#10;L 283.185303 192.66744 &#10;L 277.505852 190.38196 &#10;L 272.586087 181.24004 &#10;L 268.246548 185.811 &#10;L 264.364697 183.52552 &#10;L 260.853136 176.66908 &#10;L 257.647332 149.24332 &#10;L 254.698278 169.81264 &#10;L 251.967881 174.3836 &#10;L 249.425942 160.67072 &#10;L 247.048116 169.81264 &#10;L 244.814493 140.1014 &#10;L 242.708577 156.09976 &#10;L 240.716551 153.81428 &#10;L 238.826726 160.67072 &#10;L 237.029126 162.9562 &#10;L 235.315165 146.95784 &#10;L 233.677407 137.81592 &#10;L 232.109361 140.1014 &#10;L 230.605336 162.9562 &#10;L 229.160307 142.38688 &#10;L 227.769821 130.95948 &#10;L 226.42991 146.95784 &#10;L 225.137023 142.38688 &#10;L 222.679879 137.81592 &#10;L 221.510146 133.24496 &#10;L 220.37641 144.67236 &#10;L 219.276522 128.674 &#10;L 218.20852 135.53044 &#10;L 217.170606 126.38852 &#10;L 216.161132 135.53044 &#10;L 215.17858 114.96112 &#10;L 214.221552 128.674 &#10;L 213.288755 156.09976 &#10;L 212.378993 133.24496 &#10;L 211.491155 133.24496 &#10;L 210.624209 126.38852 &#10;L 209.777194 126.38852 &#10;L 208.949216 121.81756 &#10;L 208.139436 130.95948 &#10;L 207.347072 128.674 &#10;L 206.57139 130.95948 &#10;L 205.811704 126.38852 &#10;L 205.067365 146.95784 &#10;L 202.920534 117.2466 &#10;L 202.231851 121.81756 &#10;L 201.555804 119.53208 &#10;L 200.891939 126.38852 &#10;L 200.239825 130.95948 &#10;L 198.969233 130.95948 &#10;L 198.35 133.24496 &#10;L 197.741003 121.81756 &#10;L 196.552399 128.674 &#10;L 195.972175 133.24496 &#10;L 195.400946 130.95948 &#10;L 194.284391 142.38688 &#10;L 193.738551 124.10304 &#10;L 192.670549 124.10304 &#10;L 192.147937 121.81756 &#10;L 191.124441 114.96112 &#10;L 190.623161 117.2466 &#10;L 189.640609 112.67564 &#10;L 189.158988 133.24496 &#10;L 188.214231 121.81756 &#10;L 187.293095 121.81756 &#10;L 186.841022 114.96112 &#10;L 185.953184 114.96112 &#10;L 185.086238 119.53208 &#10;L 184.239223 128.674 &#10;L 183.411245 124.10304 &#10;L 182.601465 124.10304 &#10;L 181.809101 126.38852 &#10;L 181.033419 124.10304 &#10;L 180.273733 117.2466 &#10;L 179.529394 149.24332 &#10;L 178.799796 121.81756 &#10;L 177.382563 121.81756 &#10;L 176.354306 124.10304 &#10;L 175.026468 110.39016 &#10;L 174.061081 121.81756 &#10;L 173.431262 114.96112 &#10;L 172.506272 121.81756 &#10;L 171.902267 119.53208 &#10;L 171.014429 119.53208 &#10;L 170.147483 121.81756 &#10;L 169.580648 126.38852 &#10;L 168.74642 119.53208 &#10;L 167.930663 119.53208 &#10;L 167.132578 124.10304 &#10;L 166.351414 124.10304 &#10;L 165.58647 119.53208 &#10;L 164.837085 121.81756 &#10;L 164.102638 117.2466 &#10;L 163.14561 117.2466 &#10;L 161.755124 121.81756 &#10;L 160.856458 119.53208 &#10;L 160.196556 121.81756 &#10;L 159.334681 121.81756 &#10;L 158.492507 117.2466 &#10;L 157.873274 119.53208 &#10;L 157.063494 124.10304 &#10;L 156.27113 121.81756 &#10;L 155.495449 126.38852 &#10;L 154.735762 121.81756 &#10;L 153.991423 146.95784 &#10;L 153.081661 119.53208 &#10;L 152.369687 119.53208 &#10;L 151.671211 114.96112 &#10;L 150.816335 119.53208 &#10;L 149.325833 119.53208 &#10;L 148.52311 121.81756 &#10;L 147.737505 119.53208 &#10;L 146.968301 119.53208 &#10;L 146.214829 124.10304 &#10;L 145.476458 121.81756 &#10;L 144.609512 119.53208 &#10;L 143.902321 119.53208 &#10;L 143.071229 114.96112 &#10;L 142.258472 119.53208 &#10;L 141.594607 121.81756 &#10;L 140.813443 124.10304 &#10;L 140.048499 119.53208 &#10;L 139.175685 117.2466 &#10;L 138.443671 119.53208 &#10;L 136.905837 119.53208 &#10;L 136.103614 121.81756 &#10;L 135.318487 121.81756 &#10;L 134.549742 119.53208 &#10;L 133.79671 121.81756 &#10;L 133.058761 121.81756 &#10;L 132.233102 119.53208 &#10;L 131.525523 121.81756 &#10;L 130.733159 117.2466 &#10;L 129.957478 119.53208 &#10;L 129.197791 124.10304 &#10;L 128.361459 126.38852 &#10;L 127.633662 119.53208 &#10;L 126.831716 121.81756 &#10;L 125.278364 121.81756 &#10;L 124.525576 119.53208 &#10;L 122.199534 119.53208 &#10;L 121.43033 121.81756 &#10;L 120.676858 117.2466 &#10;L 119.938487 117.2466 &#10;L 119.143012 121.81756 &#10;L 118.36435 121.81756 &#10;L 117.601804 119.53208 &#10;L 116.056636 119.53208 &#10;L 115.275473 117.2466 &#10;L 114.510528 119.53208 &#10;L 113.761143 117.2466 &#10;L 112.966148 121.81756 &#10;L 112.187946 119.53208 &#10;L 111.425842 121.81756 &#10;L 109.891658 121.81756 &#10;L 109.120615 119.53208 &#10;L 107.573013 119.53208 &#10;L 106.797332 121.81756 &#10;L 105.244215 121.81756 &#10;L 104.467511 119.53208 &#10;L 102.961565 124.10304 &#10;L 102.185883 119.53208 &#10;L 101.426197 119.53208 &#10;L 100.638538 121.81756 &#10;L 96.006721 121.81756 &#10;L 95.250931 119.53208 &#10;L 93.712509 119.53208 &#10;L 92.931596 121.81756 &#10;L 89.834246 121.81756 &#10;L 89.067311 119.53208 &#10;L 88.316016 121.81756 &#10;L 86.768634 121.81756 &#10;L 86.004097 119.53208 &#10;L 85.226597 121.81756 &#10;L 62.902202 121.81756 &#10;L 62.132998 124.10304 &#10;L 61.364613 121.81756 &#10;L 57.517072 121.81756 &#10;L 56.746148 124.10304 &#10;L 55.96526 121.81756 &#10;L 47.510236 121.81756 &#10;L 47.510236 121.81756" clip-path="url(#p4620d4dd22)" style="fill: none; stroke: #ff7f0e; stroke-width: 1.5; stroke-linecap: square"/>&#xa;   </g>&#xa;   <g id="line2d_49">&#xa;    <path d="M 349.2 185.811 &#10;L 323.662029 172.09812 &#10;L 308.723274 174.3836 &#10;L 298.124058 156.09976 &#10;L 289.902668 165.24168 &#10;L 283.185303 160.67072 &#10;L 277.505852 158.38524 &#10;L 272.586087 151.5288 &#10;L 268.246548 153.81428 &#10;L 264.364697 158.38524 &#10;L 260.853136 144.67236 &#10;L 254.698278 144.67236 &#10;L 251.967881 149.24332 &#10;L 249.425942 144.67236 &#10;L 247.048116 142.38688 &#10;L 244.814493 133.24496 &#10;L 240.716551 142.38688 &#10;L 238.826726 140.1014 &#10;L 237.029126 135.53044 &#10;L 235.315165 142.38688 &#10;L 233.677407 135.53044 &#10;L 232.109361 133.24496 &#10;L 230.605336 133.24496 &#10;L 229.160307 135.53044 &#10;L 226.42991 144.67236 &#10;L 225.137023 137.81592 &#10;L 223.887971 135.53044 &#10;L 222.679879 142.38688 &#10;L 221.510146 137.81592 &#10;L 220.37641 135.53044 &#10;L 217.170606 135.53044 &#10;L 216.161132 140.1014 &#10;L 215.17858 137.81592 &#10;L 214.221552 137.81592 &#10;L 213.288755 140.1014 &#10;L 212.378993 137.81592 &#10;L 211.491155 140.1014 &#10;L 210.624209 137.81592 &#10;L 208.949216 137.81592 &#10;L 208.139436 135.53044 &#10;L 207.347072 135.53044 &#10;L 206.57139 137.81592 &#10;L 205.067365 137.81592 &#10;L 203.622336 135.53044 &#10;L 202.920534 137.81592 &#10;L 200.239825 137.81592 &#10;L 198.969233 135.53044 &#10;L 198.35 135.53044 &#10;L 197.741003 137.81592 &#10;L 196.552399 137.81592 &#10;L 195.972175 135.53044 &#10;L 195.400946 135.53044 &#10;L 194.284391 140.1014 &#10;L 193.738551 135.53044 &#10;L 189.640609 135.53044 &#10;L 189.158988 137.81592 &#10;L 188.214231 135.53044 &#10;L 180.273733 135.53044 &#10;L 179.529394 140.1014 &#10;L 178.799796 135.53044 &#10;L 154.735762 135.53044 &#10;L 153.991423 140.1014 &#10;L 153.081661 135.53044 &#10;L 47.510236 135.53044 &#10;L 47.510236 135.53044" clip-path="url(#p4620d4dd22)" style="fill: none; stroke: #a9a9a9; stroke-width: 1.5; stroke-linecap: square"/>&#xa;   </g>&#xa;   <g id="patch_3">&#xa;    <path d="M 47.5 242.948 &#10;L 47.5 14.4" style="fill: none; stroke: #000000; stroke-width: 0.8; stroke-linejoin: miter; stroke-linecap: square"/>&#xa;   </g>&#xa;   <g id="patch_4">&#xa;    <path d="M 47.5 242.948 &#10;L 349.2 242.948" style="fill: none; stroke: #000000; stroke-width: 0.8; stroke-linejoin: miter; stroke-linecap: square"/>&#xa;   </g>&#xa;   <g id="legend_1">&#xa;    <g id="line2d_50">&#xa;     <path d="M 56.5 199.012062 &#10;L 66.5 199.012062 &#10;L 76.5 199.012062" style="fill: none; stroke: #1f77b4; stroke-width: 1.5; stroke-linecap: square"/>&#xa;    </g>&#xa;    <g id="text_13">&#xa;     &#xa;     <g transform="translate(84.5 202.512062) scale(0.1 -0.1)">&#xa;      <defs>&#xa;       <path id="DejaVuSans-41" d="M 2188 4044 &#10;L 1331 1722 &#10;L 3047 1722 &#10;L 2188 4044 &#10;z&#10;M 1831 4666 &#10;L 2547 4666 &#10;L 4325 0 &#10;L 3669 0 &#10;L 3244 1197 &#10;L 1141 1197 &#10;L 716 0 &#10;L 50 0 &#10;L 1831 4666 &#10;z" transform="scale(0.015625)"/>&#xa;       <path id="DejaVuSans-64" d="M 2906 2969 &#10;L 2906 4863 &#10;L 3481 4863 &#10;L 3481 0 &#10;L 2906 0 &#10;L 2906 525 &#10;Q 2725 213 2448 61 &#10;Q 2172 -91 1784 -91 &#10;Q 1150 -91 751 415 &#10;Q 353 922 353 1747 &#10;Q 353 2572 751 3078 &#10;Q 1150 3584 1784 3584 &#10;Q 2172 3584 2448 3432 &#10;Q 2725 3281 2906 2969 &#10;z&#10;M 947 1747 &#10;Q 947 1113 1208 752 &#10;Q 1469 391 1925 391 &#10;Q 2381 391 2643 752 &#10;Q 2906 1113 2906 1747 &#10;Q 2906 2381 2643 2742 &#10;Q 2381 3103 1925 3103 &#10;Q 1469 3103 1208 2742 &#10;Q 947 2381 947 1747 &#10;z" transform="scale(0.015625)"/>&#xa;      </defs>&#xa;      <use xlink:href="#DejaVuSans-41"/>&#xa;      <use xlink:href="#DejaVuSans-75" transform="translate(68.408203 0)"/>&#xa;      <use xlink:href="#DejaVuSans-74" transform="translate(131.787109 0)"/>&#xa;      <use xlink:href="#DejaVuSans-6f" transform="translate(170.996094 0)"/>&#xa;      <use xlink:href="#DejaVuSans-65" transform="translate(232.177734 0)"/>&#xa;      <use xlink:href="#DejaVuSans-6e" transform="translate(293.701172 0)"/>&#xa;      <use xlink:href="#DejaVuSans-63" transform="translate(357.080078 0)"/>&#xa;      <use xlink:href="#DejaVuSans-6f" transform="translate(412.060547 0)"/>&#xa;      <use xlink:href="#DejaVuSans-64" transform="translate(473.242188 0)"/>&#xa;      <use xlink:href="#DejaVuSans-65" transform="translate(536.71875 0)"/>&#xa;      <use xlink:href="#DejaVuSans-72" transform="translate(598.242188 0)"/>&#xa;     </g>&#xa;    </g>&#xa;    <g id="line2d_51">&#xa;     <path d="M 56.5 213.690187 &#10;L 66.5 213.690187 &#10;L 76.5 213.690187" style="fill: none; stroke: #ff7f0e; stroke-width: 1.5; stroke-linecap: square"/>&#xa;    </g>&#xa;    <g id="text_14">&#xa;     &#xa;     <g transform="translate(84.5 217.190187) scale(0.1 -0.1)">&#xa;      <defs>&#xa;       <path id="DejaVuSans-45" d="M 628 4666 &#10;L 3578 4666 &#10;L 3578 4134 &#10;L 1259 4134 &#10;L 1259 2753 &#10;L 3481 2753 &#10;L 3481 2222 &#10;L 1259 2222 &#10;L 1259 531 &#10;L 3634 531 &#10;L 3634 0 &#10;L 628 0 &#10;L 628 4666 &#10;z" transform="scale(0.015625)"/>&#xa;       <path id="DejaVuSans-43" d="M 4122 4306 &#10;L 4122 3641 &#10;Q 3803 3938 3442 4084 &#10;Q 3081 4231 2675 4231 &#10;Q 1875 4231 1450 3742 &#10;Q 1025 3253 1025 2328 &#10;Q 1025 1406 1450 917 &#10;Q 1875 428 2675 428 &#10;Q 3081 428 3442 575 &#10;Q 3803 722 4122 1019 &#10;L 4122 359 &#10;Q 3791 134 3420 21 &#10;Q 3050 -91 2638 -91 &#10;Q 1578 -91 968 557 &#10;Q 359 1206 359 2328 &#10;Q 359 3453 968 4101 &#10;Q 1578 4750 2638 4750 &#10;Q 3056 4750 3426 4639 &#10;Q 3797 4528 4122 4306 &#10;z" transform="scale(0.015625)"/>&#xa;       <path id="DejaVuSans-62" d="M 3116 1747 &#10;Q 3116 2381 2855 2742 &#10;Q 2594 3103 2138 3103 &#10;Q 1681 3103 1420 2742 &#10;Q 1159 2381 1159 1747 &#10;Q 1159 1113 1420 752 &#10;Q 1681 391 2138 391 &#10;Q 2594 391 2855 752 &#10;Q 3116 1113 3116 1747 &#10;z&#10;M 1159 2969 &#10;Q 1341 3281 1617 3432 &#10;Q 1894 3584 2278 3584 &#10;Q 2916 3584 3314 3078 &#10;Q 3713 2572 3713 1747 &#10;Q 3713 922 3314 415 &#10;Q 2916 -91 2278 -91 &#10;Q 1894 -91 1617 61 &#10;Q 1341 213 1159 525 &#10;L 1159 0 &#10;L 581 0 &#10;L 581 4863 &#10;L 1159 4863 &#10;L 1159 2969 &#10;z" transform="scale(0.015625)"/>&#xa;       <path id="DejaVuSans-67" d="M 2906 1791 &#10;Q 2906 2416 2648 2759 &#10;Q 2391 3103 1925 3103 &#10;Q 1463 3103 1205 2759 &#10;Q 947 2416 947 1791 &#10;Q 947 1169 1205 825 &#10;Q 1463 481 1925 481 &#10;Q 2391 481 2648 825 &#10;Q 2906 1169 2906 1791 &#10;z&#10;M 3481 434 &#10;Q 3481 -459 3084 -895 &#10;Q 2688 -1331 1869 -1331 &#10;Q 1566 -1331 1297 -1286 &#10;Q 1028 -1241 775 -1147 &#10;L 775 -588 &#10;Q 1028 -725 1275 -790 &#10;Q 1522 -856 1778 -856 &#10;Q 2344 -856 2625 -561 &#10;Q 2906 -266 2906 331 &#10;L 2906 616 &#10;Q 2728 306 2450 153 &#10;Q 2172 0 1784 0 &#10;Q 1141 0 747 490 &#10;Q 353 981 353 1791 &#10;Q 353 2603 747 3093 &#10;Q 1141 3584 1784 3584 &#10;Q 2172 3584 2450 3431 &#10;Q 2728 3278 2906 2969 &#10;L 2906 3500 &#10;L 3481 3500 &#10;L 3481 434 &#10;z" transform="scale(0.015625)"/>&#xa;      </defs>&#xa;      <use xlink:href="#DejaVuSans-45"/>&#xa;      <use xlink:href="#DejaVuSans-6e" transform="translate(63.183594 0)"/>&#xa;      <use xlink:href="#DejaVuSans-63" transform="translate(126.5625 0)"/>&#xa;      <use xlink:href="#DejaVuSans-6f" transform="translate(181.542969 0)"/>&#xa;      <use xlink:href="#DejaVuSans-64" transform="translate(242.724609 0)"/>&#xa;      <use xlink:href="#DejaVuSans-65" transform="translate(306.201172 0)"/>&#xa;      <use xlink:href="#DejaVuSans-72" transform="translate(367.724609 0)"/>&#xa;      <use xlink:href="#DejaVuSans-20" transform="translate(408.837891 0)"/>&#xa;      <use xlink:href="#DejaVuSans-28" transform="translate(440.625 0)"/>&#xa;      <use xlink:href="#DejaVuSans-43" transform="translate(479.638672 0)"/>&#xa;      <use xlink:href="#DejaVuSans-6f" transform="translate(549.462891 0)"/>&#xa;      <use xlink:href="#DejaVuSans-73" transform="translate(610.644531 0)"/>&#xa;      <use xlink:href="#DejaVuSans-69" transform="translate(662.744141 0)"/>&#xa;      <use xlink:href="#DejaVuSans-6e" transform="translate(690.527344 0)"/>&#xa;      <use xlink:href="#DejaVuSans-65" transform="translate(753.90625 0)"/>&#xa;      <use xlink:href="#DejaVuSans-20" transform="translate(815.429688 0)"/>&#xa;      <use xlink:href="#DejaVuSans-45" transform="translate(847.216797 0)"/>&#xa;      <use xlink:href="#DejaVuSans-6d" transform="translate(910.400391 0)"/>&#xa;      <use xlink:href="#DejaVuSans-62" transform="translate(1007.8125 0)"/>&#xa;      <use xlink:href="#DejaVuSans-65" transform="translate(1071.289062 0)"/>&#xa;      <use xlink:href="#DejaVuSans-64" transform="translate(1132.8125 0)"/>&#xa;      <use xlink:href="#DejaVuSans-64" transform="translate(1196.289062 0)"/>&#xa;      <use xlink:href="#DejaVuSans-69" transform="translate(1259.765625 0)"/>&#xa;      <use xlink:href="#DejaVuSans-6e" transform="translate(1287.548828 0)"/>&#xa;      <use xlink:href="#DejaVuSans-67" transform="translate(1350.927734 0)"/>&#xa;      <use xlink:href="#DejaVuSans-29" transform="translate(1414.404297 0)"/>&#xa;     </g>&#xa;    </g>&#xa;    <g id="line2d_52">&#xa;     <path d="M 56.5 228.368313 &#10;L 66.5 228.368313 &#10;L 76.5 228.368313" style="fill: none; stroke: #a9a9a9; stroke-width: 1.5; stroke-linecap: square"/>&#xa;    </g>&#xa;    <g id="text_15">&#xa;     &#xa;     <g transform="translate(84.5 231.868313) scale(0.1 -0.1)">&#xa;      <defs>&#xa;       <path id="DejaVuSans-2d" d="M 313 2009 &#10;L 1997 2009 &#10;L 1997 1497 &#10;L 313 1497 &#10;L 313 2009 &#10;z" transform="scale(0.015625)"/>&#xa;      </defs>&#xa;      <use xlink:href="#DejaVuSans-45"/>&#xa;      <use xlink:href="#DejaVuSans-6e" transform="translate(63.183594 0)"/>&#xa;      <use xlink:href="#DejaVuSans-63" transform="translate(126.5625 0)"/>&#xa;      <use xlink:href="#DejaVuSans-6f" transform="translate(181.542969 0)"/>&#xa;      <use xlink:href="#DejaVuSans-64" transform="translate(242.724609 0)"/>&#xa;      <use xlink:href="#DejaVuSans-65" transform="translate(306.201172 0)"/>&#xa;      <use xlink:href="#DejaVuSans-72" transform="translate(367.724609 0)"/>&#xa;      <use xlink:href="#DejaVuSans-20" transform="translate(408.837891 0)"/>&#xa;      <use xlink:href="#DejaVuSans-28" transform="translate(440.625 0)"/>&#xa;      <use xlink:href="#DejaVuSans-43" transform="translate(479.638672 0)"/>&#xa;      <use xlink:href="#DejaVuSans-72" transform="translate(549.462891 0)"/>&#xa;      <use xlink:href="#DejaVuSans-6f" transform="translate(588.326172 0)"/>&#xa;      <use xlink:href="#DejaVuSans-73" transform="translate(649.507812 0)"/>&#xa;      <use xlink:href="#DejaVuSans-73" transform="translate(701.607422 0)"/>&#xa;      <use xlink:href="#DejaVuSans-2d" transform="translate(753.707031 0)"/>&#xa;      <use xlink:href="#DejaVuSans-45" transform="translate(789.791016 0)"/>&#xa;      <use xlink:href="#DejaVuSans-6e" transform="translate(852.974609 0)"/>&#xa;      <use xlink:href="#DejaVuSans-74" transform="translate(916.353516 0)"/>&#xa;      <use xlink:href="#DejaVuSans-72" transform="translate(955.5625 0)"/>&#xa;      <use xlink:href="#DejaVuSans-6f" transform="translate(994.425781 0)"/>&#xa;      <use xlink:href="#DejaVuSans-70" transform="translate(1055.607422 0)"/>&#xa;      <use xlink:href="#DejaVuSans-79" transform="translate(1119.083984 0)"/>&#xa;      <use xlink:href="#DejaVuSans-29" transform="translate(1178.263672 0)"/>&#xa;     </g>&#xa;    </g>&#xa;   </g>&#xa;  </g>&#xa; </g>&#xa; <defs>&#xa;  <clipPath id="p4620d4dd22">&#xa;   <rect x="47.5" y="14.4" width="301.7" height="228.548"/>&#xa;  </clipPath>&#xa; </defs>&#xa;</svg></g></g></g><g data-cell-id="C-HzvF8Wylgo-6imGrnk-4"/><g data-cell-id="Gd7cTjvcUu4GrjWpaTf3-1"/><g data-cell-id="Gd7cTjvcUu4GrjWpaTf3-2"/><g data-cell-id="Gd7cTjvcUu4GrjWpaTf3-3"/><g data-cell-id="lza8Y-RYpo-3boIecJYN-1"/></g></g></g></svg>