<?xml version="1.0" encoding="utf-8" standalone="no"?>
<!DOCTYPE svg PUBLIC "-//W3C//DTD SVG 1.1//EN"
  "http://www.w3.org/Graphics/SVG/1.1/DTD/svg11.dtd">
<svg xmlns:xlink="http://www.w3.org/1999/xlink" width="396pt" height="288pt" viewBox="0 0 396 288" xmlns="http://www.w3.org/2000/svg" version="1.1">
 <metadata>
  <rdf:RDF xmlns:dc="http://purl.org/dc/elements/1.1/" xmlns:cc="http://creativecommons.org/ns#" xmlns:rdf="http://www.w3.org/1999/02/22-rdf-syntax-ns#">
   <cc:Work>
    <dc:type rdf:resource="http://purl.org/dc/dcmitype/StillImage"/>
    <dc:date>2026-01-05T10:25:34.650342</dc:date>
    <dc:format>image/svg+xml</dc:format>
    <dc:creator>
     <cc:Agent>
      <dc:title>Matplotlib v3.10.3, https://matplotlib.org/</dc:title>
     </cc:Agent>
    </dc:creator>
   </cc:Work>
  </rdf:RDF>
 </metadata>
 <defs>
  <style type="text/css">*{stroke-linejoin: round; stroke-linecap: butt}</style>
 </defs>
 <g id="figure_1">
  <g id="patch_1">
   <path d="M 0 288 
L 396 288 
L 396 0 
L 0 0 
z
" style="fill: #ffffff"/>
  </g>
  <g id="axes_1">
   <g id="patch_2">
    <path d="M 32.7 245.54 
L 385.2 245.54 
L 385.2 10.8 
L 32.7 10.8 
z
" style="fill: #ffffff"/>
   </g>
   <g id="matplotlib.axis_1">
    <g id="xtick_1">
     <g id="line2d_1">
      <path d="M 52.515089 245.54 
L 52.515089 10.8 
" clip-path="url(#pf51cdf8a92)" style="fill: none; stroke: #b0b0b0; stroke-opacity: 0.3; stroke-width: 0.8; stroke-linecap: square"/>
     </g>
     <g id="line2d_2">
      <defs>
       <path id="m3484225ee2" d="M 0 0 
L 0 4 
" style="stroke: #000000; stroke-width: 0.8"/>
      </defs>
      <g>
       <use xlink:href="#m3484225ee2" x="52.515089" y="245.54" style="stroke: #000000; stroke-width: 0.8"/>
      </g>
     </g>
     <g id="text_1">
      <!-- broadband -->
      <g transform="translate(28.218604 259.878594) scale(0.09 -0.09)">
       <defs>
        <path id="DejaVuSans-62" d="M 3116 1747 
Q 3116 2381 2855 2742 
Q 2594 3103 2138 3103 
Q 1681 3103 1420 2742 
Q 1159 2381 1159 1747 
Q 1159 1113 1420 752 
Q 1681 391 2138 391 
Q 2594 391 2855 752 
Q 3116 1113 3116 1747 
z
M 1159 2969 
Q 1341 3281 1617 3432 
Q 1894 3584 2278 3584 
Q 2916 3584 3314 3078 
Q 3713 2572 3713 1747 
Q 3713 922 3314 415 
Q 2916 -91 2278 -91 
Q 1894 -91 1617 61 
Q 1341 213 1159 525 
L 1159 0 
L 581 0 
L 581 4863 
L 1159 4863 
L 1159 2969 
z
" transform="scale(0.015625)"/>
        <path id="DejaVuSans-72" d="M 2631 2963 
Q 2534 3019 2420 3045 
Q 2306 3072 2169 3072 
Q 1681 3072 1420 2755 
Q 1159 2438 1159 1844 
L 1159 0 
L 581 0 
L 581 3500 
L 1159 3500 
L 1159 2956 
Q 1341 3275 1631 3429 
Q 1922 3584 2338 3584 
Q 2397 3584 2469 3576 
Q 2541 3569 2628 3553 
L 2631 2963 
z
" transform="scale(0.015625)"/>
        <path id="DejaVuSans-6f" d="M 1959 3097 
Q 1497 3097 1228 2736 
Q 959 2375 959 1747 
Q 959 1119 1226 758 
Q 1494 397 1959 397 
Q 2419 397 2687 759 
Q 2956 1122 2956 1747 
Q 2956 2369 2687 2733 
Q 2419 3097 1959 3097 
z
M 1959 3584 
Q 2709 3584 3137 3096 
Q 3566 2609 3566 1747 
Q 3566 888 3137 398 
Q 2709 -91 1959 -91 
Q 1206 -91 779 398 
Q 353 888 353 1747 
Q 353 2609 779 3096 
Q 1206 3584 1959 3584 
z
" transform="scale(0.015625)"/>
        <path id="DejaVuSans-61" d="M 2194 1759 
Q 1497 1759 1228 1600 
Q 959 1441 959 1056 
Q 959 750 1161 570 
Q 1363 391 1709 391 
Q 2188 391 2477 730 
Q 2766 1069 2766 1631 
L 2766 1759 
L 2194 1759 
z
M 3341 1997 
L 3341 0 
L 2766 0 
L 2766 531 
Q 2569 213 2275 61 
Q 1981 -91 1556 -91 
Q 1019 -91 701 211 
Q 384 513 384 1019 
Q 384 1609 779 1909 
Q 1175 2209 1959 2209 
L 2766 2209 
L 2766 2266 
Q 2766 2663 2505 2880 
Q 2244 3097 1772 3097 
Q 1472 3097 1187 3025 
Q 903 2953 641 2809 
L 641 3341 
Q 956 3463 1253 3523 
Q 1550 3584 1831 3584 
Q 2591 3584 2966 3190 
Q 3341 2797 3341 1997 
z
" transform="scale(0.015625)"/>
        <path id="DejaVuSans-64" d="M 2906 2969 
L 2906 4863 
L 3481 4863 
L 3481 0 
L 2906 0 
L 2906 525 
Q 2725 213 2448 61 
Q 2172 -91 1784 -91 
Q 1150 -91 751 415 
Q 353 922 353 1747 
Q 353 2572 751 3078 
Q 1150 3584 1784 3584 
Q 2172 3584 2448 3432 
Q 2725 3281 2906 2969 
z
M 947 1747 
Q 947 1113 1208 752 
Q 1469 391 1925 391 
Q 2381 391 2643 752 
Q 2906 1113 2906 1747 
Q 2906 2381 2643 2742 
Q 2381 3103 1925 3103 
Q 1469 3103 1208 2742 
Q 947 2381 947 1747 
z
" transform="scale(0.015625)"/>
        <path id="DejaVuSans-6e" d="M 3513 2113 
L 3513 0 
L 2938 0 
L 2938 2094 
Q 2938 2591 2744 2837 
Q 2550 3084 2163 3084 
Q 1697 3084 1428 2787 
Q 1159 2491 1159 1978 
L 1159 0 
L 581 0 
L 581 3500 
L 1159 3500 
L 1159 2956 
Q 1366 3272 1645 3428 
Q 1925 3584 2291 3584 
Q 2894 3584 3203 3211 
Q 3513 2838 3513 2113 
z
" transform="scale(0.015625)"/>
       </defs>
       <use xlink:href="#DejaVuSans-62"/>
       <use xlink:href="#DejaVuSans-72" transform="translate(63.476562 0)"/>
       <use xlink:href="#DejaVuSans-6f" transform="translate(102.339844 0)"/>
       <use xlink:href="#DejaVuSans-61" transform="translate(163.521484 0)"/>
       <use xlink:href="#DejaVuSans-64" transform="translate(224.800781 0)"/>
       <use xlink:href="#DejaVuSans-62" transform="translate(288.277344 0)"/>
       <use xlink:href="#DejaVuSans-61" transform="translate(351.753906 0)"/>
       <use xlink:href="#DejaVuSans-6e" transform="translate(413.033203 0)"/>
       <use xlink:href="#DejaVuSans-64" transform="translate(476.412109 0)"/>
      </g>
     </g>
    </g>
    <g id="xtick_2">
     <g id="line2d_3">
      <path d="M 115.089053 245.54 
L 115.089053 10.8 
" clip-path="url(#pf51cdf8a92)" style="fill: none; stroke: #b0b0b0; stroke-opacity: 0.3; stroke-width: 0.8; stroke-linecap: square"/>
     </g>
     <g id="line2d_4">
      <g>
       <use xlink:href="#m3484225ee2" x="115.089053" y="245.54" style="stroke: #000000; stroke-width: 0.8"/>
      </g>
     </g>
     <g id="text_2">
      <!-- delta -->
      <g transform="translate(103.691397 259.878594) scale(0.09 -0.09)">
       <defs>
        <path id="DejaVuSans-65" d="M 3597 1894 
L 3597 1613 
L 953 1613 
Q 991 1019 1311 708 
Q 1631 397 2203 397 
Q 2534 397 2845 478 
Q 3156 559 3463 722 
L 3463 178 
Q 3153 47 2828 -22 
Q 2503 -91 2169 -91 
Q 1331 -91 842 396 
Q 353 884 353 1716 
Q 353 2575 817 3079 
Q 1281 3584 2069 3584 
Q 2775 3584 3186 3129 
Q 3597 2675 3597 1894 
z
M 3022 2063 
Q 3016 2534 2758 2815 
Q 2500 3097 2075 3097 
Q 1594 3097 1305 2825 
Q 1016 2553 972 2059 
L 3022 2063 
z
" transform="scale(0.015625)"/>
        <path id="DejaVuSans-6c" d="M 603 4863 
L 1178 4863 
L 1178 0 
L 603 0 
L 603 4863 
z
" transform="scale(0.015625)"/>
        <path id="DejaVuSans-74" d="M 1172 4494 
L 1172 3500 
L 2356 3500 
L 2356 3053 
L 1172 3053 
L 1172 1153 
Q 1172 725 1289 603 
Q 1406 481 1766 481 
L 2356 481 
L 2356 0 
L 1766 0 
Q 1100 0 847 248 
Q 594 497 594 1153 
L 594 3053 
L 172 3053 
L 172 3500 
L 594 3500 
L 594 4494 
L 1172 4494 
z
" transform="scale(0.015625)"/>
       </defs>
       <use xlink:href="#DejaVuSans-64"/>
       <use xlink:href="#DejaVuSans-65" transform="translate(63.476562 0)"/>
       <use xlink:href="#DejaVuSans-6c" transform="translate(125 0)"/>
       <use xlink:href="#DejaVuSans-74" transform="translate(152.783203 0)"/>
       <use xlink:href="#DejaVuSans-61" transform="translate(191.992188 0)"/>
      </g>
     </g>
    </g>
    <g id="xtick_3">
     <g id="line2d_5">
      <path d="M 177.663018 245.54 
L 177.663018 10.8 
" clip-path="url(#pf51cdf8a92)" style="fill: none; stroke: #b0b0b0; stroke-opacity: 0.3; stroke-width: 0.8; stroke-linecap: square"/>
     </g>
     <g id="line2d_6">
      <g>
       <use xlink:href="#m3484225ee2" x="177.663018" y="245.54" style="stroke: #000000; stroke-width: 0.8"/>
      </g>
     </g>
     <g id="text_3">
      <!-- theta -->
      <g transform="translate(165.756299 259.878594) scale(0.09 -0.09)">
       <defs>
        <path id="DejaVuSans-68" d="M 3513 2113 
L 3513 0 
L 2938 0 
L 2938 2094 
Q 2938 2591 2744 2837 
Q 2550 3084 2163 3084 
Q 1697 3084 1428 2787 
Q 1159 2491 1159 1978 
L 1159 0 
L 581 0 
L 581 4863 
L 1159 4863 
L 1159 2956 
Q 1366 3272 1645 3428 
Q 1925 3584 2291 3584 
Q 2894 3584 3203 3211 
Q 3513 2838 3513 2113 
z
" transform="scale(0.015625)"/>
       </defs>
       <use xlink:href="#DejaVuSans-74"/>
       <use xlink:href="#DejaVuSans-68" transform="translate(39.208984 0)"/>
       <use xlink:href="#DejaVuSans-65" transform="translate(102.587891 0)"/>
       <use xlink:href="#DejaVuSans-74" transform="translate(164.111328 0)"/>
       <use xlink:href="#DejaVuSans-61" transform="translate(203.320312 0)"/>
      </g>
     </g>
    </g>
    <g id="xtick_4">
     <g id="line2d_7">
      <path d="M 240.236982 245.54 
L 240.236982 10.8 
" clip-path="url(#pf51cdf8a92)" style="fill: none; stroke: #b0b0b0; stroke-opacity: 0.3; stroke-width: 0.8; stroke-linecap: square"/>
     </g>
     <g id="line2d_8">
      <g>
       <use xlink:href="#m3484225ee2" x="240.236982" y="245.54" style="stroke: #000000; stroke-width: 0.8"/>
      </g>
     </g>
     <g id="text_4">
      <!-- alpha -->
      <g transform="translate(227.762842 259.878594) scale(0.09 -0.09)">
       <defs>
        <path id="DejaVuSans-70" d="M 1159 525 
L 1159 -1331 
L 581 -1331 
L 581 3500 
L 1159 3500 
L 1159 2969 
Q 1341 3281 1617 3432 
Q 1894 3584 2278 3584 
Q 2916 3584 3314 3078 
Q 3713 2572 3713 1747 
Q 3713 922 3314 415 
Q 2916 -91 2278 -91 
Q 1894 -91 1617 61 
Q 1341 213 1159 525 
z
M 3116 1747 
Q 3116 2381 2855 2742 
Q 2594 3103 2138 3103 
Q 1681 3103 1420 2742 
Q 1159 2381 1159 1747 
Q 1159 1113 1420 752 
Q 1681 391 2138 391 
Q 2594 391 2855 752 
Q 3116 1113 3116 1747 
z
" transform="scale(0.015625)"/>
       </defs>
       <use xlink:href="#DejaVuSans-61"/>
       <use xlink:href="#DejaVuSans-6c" transform="translate(61.279297 0)"/>
       <use xlink:href="#DejaVuSans-70" transform="translate(89.0625 0)"/>
       <use xlink:href="#DejaVuSans-68" transform="translate(152.539062 0)"/>
       <use xlink:href="#DejaVuSans-61" transform="translate(215.917969 0)"/>
      </g>
     </g>
    </g>
    <g id="xtick_5">
     <g id="line2d_9">
      <path d="M 302.810947 245.54 
L 302.810947 10.8 
" clip-path="url(#pf51cdf8a92)" style="fill: none; stroke: #b0b0b0; stroke-opacity: 0.3; stroke-width: 0.8; stroke-linecap: square"/>
     </g>
     <g id="line2d_10">
      <g>
       <use xlink:href="#m3484225ee2" x="302.810947" y="245.54" style="stroke: #000000; stroke-width: 0.8"/>
      </g>
     </g>
     <g id="text_5">
      <!-- beta -->
      <g transform="translate(292.663447 259.878594) scale(0.09 -0.09)">
       <use xlink:href="#DejaVuSans-62"/>
       <use xlink:href="#DejaVuSans-65" transform="translate(63.476562 0)"/>
       <use xlink:href="#DejaVuSans-74" transform="translate(125 0)"/>
       <use xlink:href="#DejaVuSans-61" transform="translate(164.208984 0)"/>
      </g>
     </g>
    </g>
    <g id="xtick_6">
     <g id="line2d_11">
      <path d="M 365.384911 245.54 
L 365.384911 10.8 
" clip-path="url(#pf51cdf8a92)" style="fill: none; stroke: #b0b0b0; stroke-opacity: 0.3; stroke-width: 0.8; stroke-linecap: square"/>
     </g>
     <g id="line2d_12">
      <g>
       <use xlink:href="#m3484225ee2" x="365.384911" y="245.54" style="stroke: #000000; stroke-width: 0.8"/>
      </g>
     </g>
     <g id="text_6">
      <!-- gamma -->
      <g transform="translate(348.246239 259.878594) scale(0.09 -0.09)">
       <defs>
        <path id="DejaVuSans-67" d="M 2906 1791 
Q 2906 2416 2648 2759 
Q 2391 3103 1925 3103 
Q 1463 3103 1205 2759 
Q 947 2416 947 1791 
Q 947 1169 1205 825 
Q 1463 481 1925 481 
Q 2391 481 2648 825 
Q 2906 1169 2906 1791 
z
M 3481 434 
Q 3481 -459 3084 -895 
Q 2688 -1331 1869 -1331 
Q 1566 -1331 1297 -1286 
Q 1028 -1241 775 -1147 
L 775 -588 
Q 1028 -725 1275 -790 
Q 1522 -856 1778 -856 
Q 2344 -856 2625 -561 
Q 2906 -266 2906 331 
L 2906 616 
Q 2728 306 2450 153 
Q 2172 0 1784 0 
Q 1141 0 747 490 
Q 353 981 353 1791 
Q 353 2603 747 3093 
Q 1141 3584 1784 3584 
Q 2172 3584 2450 3431 
Q 2728 3278 2906 2969 
L 2906 3500 
L 3481 3500 
L 3481 434 
z
" transform="scale(0.015625)"/>
        <path id="DejaVuSans-6d" d="M 3328 2828 
Q 3544 3216 3844 3400 
Q 4144 3584 4550 3584 
Q 5097 3584 5394 3201 
Q 5691 2819 5691 2113 
L 5691 0 
L 5113 0 
L 5113 2094 
Q 5113 2597 4934 2840 
Q 4756 3084 4391 3084 
Q 3944 3084 3684 2787 
Q 3425 2491 3425 1978 
L 3425 0 
L 2847 0 
L 2847 2094 
Q 2847 2600 2669 2842 
Q 2491 3084 2119 3084 
Q 1678 3084 1418 2786 
Q 1159 2488 1159 1978 
L 1159 0 
L 581 0 
L 581 3500 
L 1159 3500 
L 1159 2956 
Q 1356 3278 1631 3431 
Q 1906 3584 2284 3584 
Q 2666 3584 2933 3390 
Q 3200 3197 3328 2828 
z
" transform="scale(0.015625)"/>
       </defs>
       <use xlink:href="#DejaVuSans-67"/>
       <use xlink:href="#DejaVuSans-61" transform="translate(63.476562 0)"/>
       <use xlink:href="#DejaVuSans-6d" transform="translate(124.755859 0)"/>
       <use xlink:href="#DejaVuSans-6d" transform="translate(222.167969 0)"/>
       <use xlink:href="#DejaVuSans-61" transform="translate(319.580078 0)"/>
      </g>
     </g>
    </g>
    <g id="text_7">
     <!-- Frequency band -->
     <g transform="translate(164.95 274.108594) scale(0.11 -0.11)">
      <defs>
       <path id="DejaVuSans-46" d="M 628 4666 
L 3309 4666 
L 3309 4134 
L 1259 4134 
L 1259 2759 
L 3109 2759 
L 3109 2228 
L 1259 2228 
L 1259 0 
L 628 0 
L 628 4666 
z
" transform="scale(0.015625)"/>
       <path id="DejaVuSans-71" d="M 947 1747 
Q 947 1113 1208 752 
Q 1469 391 1925 391 
Q 2381 391 2643 752 
Q 2906 1113 2906 1747 
Q 2906 2381 2643 2742 
Q 2381 3103 1925 3103 
Q 1469 3103 1208 2742 
Q 947 2381 947 1747 
z
M 2906 525 
Q 2725 213 2448 61 
Q 2172 -91 1784 -91 
Q 1150 -91 751 415 
Q 353 922 353 1747 
Q 353 2572 751 3078 
Q 1150 3584 1784 3584 
Q 2172 3584 2448 3432 
Q 2725 3281 2906 2969 
L 2906 3500 
L 3481 3500 
L 3481 -1331 
L 2906 -1331 
L 2906 525 
z
" transform="scale(0.015625)"/>
       <path id="DejaVuSans-75" d="M 544 1381 
L 544 3500 
L 1119 3500 
L 1119 1403 
Q 1119 906 1312 657 
Q 1506 409 1894 409 
Q 2359 409 2629 706 
Q 2900 1003 2900 1516 
L 2900 3500 
L 3475 3500 
L 3475 0 
L 2900 0 
L 2900 538 
Q 2691 219 2414 64 
Q 2138 -91 1772 -91 
Q 1169 -91 856 284 
Q 544 659 544 1381 
z
M 1991 3584 
L 1991 3584 
z
" transform="scale(0.015625)"/>
       <path id="DejaVuSans-63" d="M 3122 3366 
L 3122 2828 
Q 2878 2963 2633 3030 
Q 2388 3097 2138 3097 
Q 1578 3097 1268 2742 
Q 959 2388 959 1747 
Q 959 1106 1268 751 
Q 1578 397 2138 397 
Q 2388 397 2633 464 
Q 2878 531 3122 666 
L 3122 134 
Q 2881 22 2623 -34 
Q 2366 -91 2075 -91 
Q 1284 -91 818 406 
Q 353 903 353 1747 
Q 353 2603 823 3093 
Q 1294 3584 2113 3584 
Q 2378 3584 2631 3529 
Q 2884 3475 3122 3366 
z
" transform="scale(0.015625)"/>
       <path id="DejaVuSans-79" d="M 2059 -325 
Q 1816 -950 1584 -1140 
Q 1353 -1331 966 -1331 
L 506 -1331 
L 506 -850 
L 844 -850 
Q 1081 -850 1212 -737 
Q 1344 -625 1503 -206 
L 1606 56 
L 191 3500 
L 800 3500 
L 1894 763 
L 2988 3500 
L 3597 3500 
L 2059 -325 
z
" transform="scale(0.015625)"/>
       <path id="DejaVuSans-20" transform="scale(0.015625)"/>
      </defs>
      <use xlink:href="#DejaVuSans-46"/>
      <use xlink:href="#DejaVuSans-72" transform="translate(50.269531 0)"/>
      <use xlink:href="#DejaVuSans-65" transform="translate(89.132812 0)"/>
      <use xlink:href="#DejaVuSans-71" transform="translate(150.65625 0)"/>
      <use xlink:href="#DejaVuSans-75" transform="translate(214.132812 0)"/>
      <use xlink:href="#DejaVuSans-65" transform="translate(277.511719 0)"/>
      <use xlink:href="#DejaVuSans-6e" transform="translate(339.035156 0)"/>
      <use xlink:href="#DejaVuSans-63" transform="translate(402.414062 0)"/>
      <use xlink:href="#DejaVuSans-79" transform="translate(457.394531 0)"/>
      <use xlink:href="#DejaVuSans-20" transform="translate(516.574219 0)"/>
      <use xlink:href="#DejaVuSans-62" transform="translate(548.361328 0)"/>
      <use xlink:href="#DejaVuSans-61" transform="translate(611.837891 0)"/>
      <use xlink:href="#DejaVuSans-6e" transform="translate(673.117188 0)"/>
      <use xlink:href="#DejaVuSans-64" transform="translate(736.496094 0)"/>
     </g>
    </g>
   </g>
   <g id="matplotlib.axis_2">
    <g id="ytick_1">
     <g id="line2d_13">
      <path d="M 32.7 202.039231 
L 385.2 202.039231 
" clip-path="url(#pf51cdf8a92)" style="fill: none; stroke: #b0b0b0; stroke-opacity: 0.3; stroke-width: 0.8; stroke-linecap: square"/>
     </g>
     <g id="line2d_14">
      <defs>
       <path id="m59a62eb316" d="M 0 0 
L -4 0 
" style="stroke: #000000; stroke-width: 0.8"/>
      </defs>
      <g>
       <use xlink:href="#m59a62eb316" x="32.7" y="202.039231" style="stroke: #000000; stroke-width: 0.8"/>
      </g>
     </g>
     <g id="text_8">
      <!-- 0.6 -->
      <g transform="translate(10.887188 205.458528) scale(0.09 -0.09)">
       <defs>
        <path id="DejaVuSans-30" d="M 2034 4250 
Q 1547 4250 1301 3770 
Q 1056 3291 1056 2328 
Q 1056 1369 1301 889 
Q 1547 409 2034 409 
Q 2525 409 2770 889 
Q 3016 1369 3016 2328 
Q 3016 3291 2770 3770 
Q 2525 4250 2034 4250 
z
M 2034 4750 
Q 2819 4750 3233 4129 
Q 3647 3509 3647 2328 
Q 3647 1150 3233 529 
Q 2819 -91 2034 -91 
Q 1250 -91 836 529 
Q 422 1150 422 2328 
Q 422 3509 836 4129 
Q 1250 4750 2034 4750 
z
" transform="scale(0.015625)"/>
        <path id="DejaVuSans-2e" d="M 684 794 
L 1344 794 
L 1344 0 
L 684 0 
L 684 794 
z
" transform="scale(0.015625)"/>
        <path id="DejaVuSans-36" d="M 2113 2584 
Q 1688 2584 1439 2293 
Q 1191 2003 1191 1497 
Q 1191 994 1439 701 
Q 1688 409 2113 409 
Q 2538 409 2786 701 
Q 3034 994 3034 1497 
Q 3034 2003 2786 2293 
Q 2538 2584 2113 2584 
z
M 3366 4563 
L 3366 3988 
Q 3128 4100 2886 4159 
Q 2644 4219 2406 4219 
Q 1781 4219 1451 3797 
Q 1122 3375 1075 2522 
Q 1259 2794 1537 2939 
Q 1816 3084 2150 3084 
Q 2853 3084 3261 2657 
Q 3669 2231 3669 1497 
Q 3669 778 3244 343 
Q 2819 -91 2113 -91 
Q 1303 -91 875 529 
Q 447 1150 447 2328 
Q 447 3434 972 4092 
Q 1497 4750 2381 4750 
Q 2619 4750 2861 4703 
Q 3103 4656 3366 4563 
z
" transform="scale(0.015625)"/>
       </defs>
       <use xlink:href="#DejaVuSans-30"/>
       <use xlink:href="#DejaVuSans-2e" transform="translate(63.623047 0)"/>
       <use xlink:href="#DejaVuSans-36" transform="translate(95.410156 0)"/>
      </g>
     </g>
    </g>
    <g id="ytick_2">
     <g id="line2d_15">
      <path d="M 32.7 152.793077 
L 385.2 152.793077 
" clip-path="url(#pf51cdf8a92)" style="fill: none; stroke: #b0b0b0; stroke-opacity: 0.3; stroke-width: 0.8; stroke-linecap: square"/>
     </g>
     <g id="line2d_16">
      <g>
       <use xlink:href="#m59a62eb316" x="32.7" y="152.793077" style="stroke: #000000; stroke-width: 0.8"/>
      </g>
     </g>
     <g id="text_9">
      <!-- 0.7 -->
      <g transform="translate(10.887188 156.212374) scale(0.09 -0.09)">
       <defs>
        <path id="DejaVuSans-37" d="M 525 4666 
L 3525 4666 
L 3525 4397 
L 1831 0 
L 1172 0 
L 2766 4134 
L 525 4134 
L 525 4666 
z
" transform="scale(0.015625)"/>
       </defs>
       <use xlink:href="#DejaVuSans-30"/>
       <use xlink:href="#DejaVuSans-2e" transform="translate(63.623047 0)"/>
       <use xlink:href="#DejaVuSans-37" transform="translate(95.410156 0)"/>
      </g>
     </g>
    </g>
    <g id="ytick_3">
     <g id="line2d_17">
      <path d="M 32.7 103.546923 
L 385.2 103.546923 
" clip-path="url(#pf51cdf8a92)" style="fill: none; stroke: #b0b0b0; stroke-opacity: 0.3; stroke-width: 0.8; stroke-linecap: square"/>
     </g>
     <g id="line2d_18">
      <g>
       <use xlink:href="#m59a62eb316" x="32.7" y="103.546923" style="stroke: #000000; stroke-width: 0.8"/>
      </g>
     </g>
     <g id="text_10">
      <!-- 0.8 -->
      <g transform="translate(10.887188 106.96622) scale(0.09 -0.09)">
       <defs>
        <path id="DejaVuSans-38" d="M 2034 2216 
Q 1584 2216 1326 1975 
Q 1069 1734 1069 1313 
Q 1069 891 1326 650 
Q 1584 409 2034 409 
Q 2484 409 2743 651 
Q 3003 894 3003 1313 
Q 3003 1734 2745 1975 
Q 2488 2216 2034 2216 
z
M 1403 2484 
Q 997 2584 770 2862 
Q 544 3141 544 3541 
Q 544 4100 942 4425 
Q 1341 4750 2034 4750 
Q 2731 4750 3128 4425 
Q 3525 4100 3525 3541 
Q 3525 3141 3298 2862 
Q 3072 2584 2669 2484 
Q 3125 2378 3379 2068 
Q 3634 1759 3634 1313 
Q 3634 634 3220 271 
Q 2806 -91 2034 -91 
Q 1263 -91 848 271 
Q 434 634 434 1313 
Q 434 1759 690 2068 
Q 947 2378 1403 2484 
z
M 1172 3481 
Q 1172 3119 1398 2916 
Q 1625 2713 2034 2713 
Q 2441 2713 2670 2916 
Q 2900 3119 2900 3481 
Q 2900 3844 2670 4047 
Q 2441 4250 2034 4250 
Q 1625 4250 1398 4047 
Q 1172 3844 1172 3481 
z
" transform="scale(0.015625)"/>
       </defs>
       <use xlink:href="#DejaVuSans-30"/>
       <use xlink:href="#DejaVuSans-2e" transform="translate(63.623047 0)"/>
       <use xlink:href="#DejaVuSans-38" transform="translate(95.410156 0)"/>
      </g>
     </g>
    </g>
    <g id="ytick_4">
     <g id="line2d_19">
      <path d="M 32.7 54.300769 
L 385.2 54.300769 
" clip-path="url(#pf51cdf8a92)" style="fill: none; stroke: #b0b0b0; stroke-opacity: 0.3; stroke-width: 0.8; stroke-linecap: square"/>
     </g>
     <g id="line2d_20">
      <g>
       <use xlink:href="#m59a62eb316" x="32.7" y="54.300769" style="stroke: #000000; stroke-width: 0.8"/>
      </g>
     </g>
     <g id="text_11">
      <!-- 0.9 -->
      <g transform="translate(10.887188 57.720066) scale(0.09 -0.09)">
       <defs>
        <path id="DejaVuSans-39" d="M 703 97 
L 703 672 
Q 941 559 1184 500 
Q 1428 441 1663 441 
Q 2288 441 2617 861 
Q 2947 1281 2994 2138 
Q 2813 1869 2534 1725 
Q 2256 1581 1919 1581 
Q 1219 1581 811 2004 
Q 403 2428 403 3163 
Q 403 3881 828 4315 
Q 1253 4750 1959 4750 
Q 2769 4750 3195 4129 
Q 3622 3509 3622 2328 
Q 3622 1225 3098 567 
Q 2575 -91 1691 -91 
Q 1453 -91 1209 -44 
Q 966 3 703 97 
z
M 1959 2075 
Q 2384 2075 2632 2365 
Q 2881 2656 2881 3163 
Q 2881 3666 2632 3958 
Q 2384 4250 1959 4250 
Q 1534 4250 1286 3958 
Q 1038 3666 1038 3163 
Q 1038 2656 1286 2365 
Q 1534 2075 1959 2075 
z
" transform="scale(0.015625)"/>
       </defs>
       <use xlink:href="#DejaVuSans-30"/>
       <use xlink:href="#DejaVuSans-2e" transform="translate(63.623047 0)"/>
       <use xlink:href="#DejaVuSans-39" transform="translate(95.410156 0)"/>
      </g>
     </g>
    </g>
   </g>
   <g id="line2d_21"/>
   <g id="line2d_22"/>
   <g id="line2d_23"/>
   <g id="line2d_24"/>
   <g id="line2d_25">
    <path d="M 49.386391 109.018718 
L 111.960355 147.321282 
L 174.53432 130.905897 
L 237.108284 130.905897 
L 299.682249 158.264872 
L 362.256213 212.982821 
" clip-path="url(#pf51cdf8a92)" style="fill: none; stroke: #ff7f0e; stroke-width: 2; stroke-linecap: square"/>
   </g>
   <g id="line2d_26">
    <path d="M 55.643787 43.357179 
L 118.217751 109.018718 
L 180.791716 54.300769 
L 243.36568 29.677692 
L 305.939645 32.41359 
L 368.513609 103.546923 
" clip-path="url(#pf51cdf8a92)" style="fill: none; stroke: #2ca02c; stroke-width: 2; stroke-linecap: square"/>
   </g>
   <g id="line2d_27">
    <path d="M 61.901183 76.187949 
L 124.475148 109.018718 
L 187.049112 70.716154 
L 249.623077 87.131538 
L 312.197041 54.300769 
L 374.771006 114.490513 
" clip-path="url(#pf51cdf8a92)" style="fill: none; stroke: #d62728; stroke-width: 2; stroke-linecap: square"/>
   </g>
   <g id="patch_3">
    <path d="M 32.7 245.54 
L 32.7 10.8 
" style="fill: none; stroke: #000000; stroke-width: 0.8; stroke-linejoin: miter; stroke-linecap: square"/>
   </g>
   <g id="patch_4">
    <path d="M 32.7 245.54 
L 385.2 245.54 
" style="fill: none; stroke: #000000; stroke-width: 0.8; stroke-linejoin: miter; stroke-linecap: square"/>
   </g>
   <g id="patch_5">
    <path d="M 46.257692 114.490513 
L 52.515089 114.490513 
L 52.515089 103.546923 
L 46.257692 103.546923 
L 46.257692 114.490513 
z
" clip-path="url(#pf51cdf8a92)" style="fill: #ff7f0e; stroke: #000000; stroke-linejoin: miter"/>
   </g>
   <g id="patch_6">
    <path d="M 108.831657 152.793077 
L 115.089053 152.793077 
L 115.089053 141.849487 
L 108.831657 141.849487 
L 108.831657 152.793077 
z
" clip-path="url(#pf51cdf8a92)" style="fill: #ff7f0e; stroke: #000000; stroke-linejoin: miter"/>
   </g>
   <g id="patch_7">
    <path d="M 171.405621 136.377692 
L 177.663018 136.377692 
L 177.663018 125.434103 
L 171.405621 125.434103 
L 171.405621 136.377692 
z
" clip-path="url(#pf51cdf8a92)" style="fill: #ff7f0e; stroke: #000000; stroke-linejoin: miter"/>
   </g>
   <g id="patch_8">
    <path d="M 233.979586 136.377692 
L 240.236982 136.377692 
L 240.236982 124.066154 
L 233.979586 124.066154 
L 233.979586 136.377692 
z
" clip-path="url(#pf51cdf8a92)" style="fill: #ff7f0e; stroke: #000000; stroke-linejoin: miter"/>
   </g>
   <g id="patch_9">
    <path d="M 296.55355 158.264872 
L 302.810947 158.264872 
L 302.810947 152.793077 
L 296.55355 152.793077 
L 296.55355 158.264872 
z
" clip-path="url(#pf51cdf8a92)" style="fill: #ff7f0e; stroke: #000000; stroke-linejoin: miter"/>
   </g>
   <g id="patch_10">
    <path d="M 359.127515 218.454615 
L 365.384911 218.454615 
L 365.384911 207.511026 
L 359.127515 207.511026 
L 359.127515 218.454615 
z
" clip-path="url(#pf51cdf8a92)" style="fill: #ff7f0e; stroke: #000000; stroke-linejoin: miter"/>
   </g>
   <g id="patch_11">
    <path d="M 52.515089 48.828974 
L 58.772485 48.828974 
L 58.772485 43.357179 
L 52.515089 43.357179 
L 52.515089 48.828974 
z
" clip-path="url(#pf51cdf8a92)" style="fill: #2ca02c; stroke: #000000; stroke-linejoin: miter"/>
   </g>
   <g id="patch_12">
    <path d="M 115.089053 114.490513 
L 121.34645 114.490513 
L 121.34645 103.546923 
L 115.089053 103.546923 
L 115.089053 114.490513 
z
" clip-path="url(#pf51cdf8a92)" style="fill: #2ca02c; stroke: #000000; stroke-linejoin: miter"/>
   </g>
   <g id="patch_13">
    <path d="M 177.663018 59.772564 
L 183.920414 59.772564 
L 183.920414 48.828974 
L 177.663018 48.828974 
L 177.663018 59.772564 
z
" clip-path="url(#pf51cdf8a92)" style="fill: #2ca02c; stroke: #000000; stroke-linejoin: miter"/>
   </g>
   <g id="patch_14">
    <path d="M 240.236982 32.41359 
L 246.494379 32.41359 
L 246.494379 26.941795 
L 240.236982 26.941795 
L 240.236982 32.41359 
z
" clip-path="url(#pf51cdf8a92)" style="fill: #2ca02c; stroke: #000000; stroke-linejoin: miter"/>
   </g>
   <g id="patch_15">
    <path d="M 302.810947 37.885385 
L 309.068343 37.885385 
L 309.068343 32.41359 
L 302.810947 32.41359 
L 302.810947 37.885385 
z
" clip-path="url(#pf51cdf8a92)" style="fill: #2ca02c; stroke: #000000; stroke-linejoin: miter"/>
   </g>
   <g id="patch_16">
    <path d="M 365.384911 109.018718 
L 371.642308 109.018718 
L 371.642308 98.075128 
L 365.384911 98.075128 
L 365.384911 109.018718 
z
" clip-path="url(#pf51cdf8a92)" style="fill: #2ca02c; stroke: #000000; stroke-linejoin: miter"/>
   </g>
   <g id="patch_17">
    <path d="M 58.772485 81.659744 
L 65.029882 81.659744 
L 65.029882 70.716154 
L 58.772485 70.716154 
L 58.772485 81.659744 
z
" clip-path="url(#pf51cdf8a92)" style="fill: #d62728; stroke: #000000; stroke-linejoin: miter"/>
   </g>
   <g id="patch_18">
    <path d="M 121.34645 114.490513 
L 127.603846 114.490513 
L 127.603846 103.546923 
L 121.34645 103.546923 
L 121.34645 114.490513 
z
" clip-path="url(#pf51cdf8a92)" style="fill: #d62728; stroke: #000000; stroke-linejoin: miter"/>
   </g>
   <g id="patch_19">
    <path d="M 183.920414 70.716154 
L 190.177811 70.716154 
L 190.177811 65.244359 
L 183.920414 65.244359 
L 183.920414 70.716154 
z
" clip-path="url(#pf51cdf8a92)" style="fill: #d62728; stroke: #000000; stroke-linejoin: miter"/>
   </g>
   <g id="patch_20">
    <path d="M 246.494379 92.603333 
L 252.751775 92.603333 
L 252.751775 81.659744 
L 246.494379 81.659744 
L 246.494379 92.603333 
z
" clip-path="url(#pf51cdf8a92)" style="fill: #d62728; stroke: #000000; stroke-linejoin: miter"/>
   </g>
   <g id="patch_21">
    <path d="M 309.068343 54.300769 
L 315.32574 54.300769 
L 315.32574 48.828974 
L 309.068343 48.828974 
L 309.068343 54.300769 
z
" clip-path="url(#pf51cdf8a92)" style="fill: #d62728; stroke: #000000; stroke-linejoin: miter"/>
   </g>
   <g id="patch_22">
    <path d="M 371.642308 119.962308 
L 377.899704 119.962308 
L 377.899704 109.018718 
L 371.642308 109.018718 
L 371.642308 119.962308 
z
" clip-path="url(#pf51cdf8a92)" style="fill: #d62728; stroke: #000000; stroke-linejoin: miter"/>
   </g>
   <g id="line2d_28">
    <path d="M 49.386391 114.490513 
L 49.386391 125.434103 
" clip-path="url(#pf51cdf8a92)" style="fill: none; stroke: #000000; stroke-linecap: square"/>
   </g>
   <g id="line2d_29">
    <path d="M 49.386391 103.546923 
L 49.386391 87.131538 
" clip-path="url(#pf51cdf8a92)" style="fill: none; stroke: #000000; stroke-linecap: square"/>
   </g>
   <g id="line2d_30">
    <path d="M 47.822041 125.434103 
L 50.95074 125.434103 
" clip-path="url(#pf51cdf8a92)" style="fill: none; stroke: #000000; stroke-linecap: square"/>
   </g>
   <g id="line2d_31">
    <path d="M 47.822041 87.131538 
L 50.95074 87.131538 
" clip-path="url(#pf51cdf8a92)" style="fill: none; stroke: #000000; stroke-linecap: square"/>
   </g>
   <g id="line2d_32">
    <path d="M 111.960355 152.793077 
L 111.960355 169.208462 
" clip-path="url(#pf51cdf8a92)" style="fill: none; stroke: #000000; stroke-linecap: square"/>
   </g>
   <g id="line2d_33">
    <path d="M 111.960355 141.849487 
L 111.960355 130.905897 
" clip-path="url(#pf51cdf8a92)" style="fill: none; stroke: #000000; stroke-linecap: square"/>
   </g>
   <g id="line2d_34">
    <path d="M 110.396006 169.208462 
L 113.524704 169.208462 
" clip-path="url(#pf51cdf8a92)" style="fill: none; stroke: #000000; stroke-linecap: square"/>
   </g>
   <g id="line2d_35">
    <path d="M 110.396006 130.905897 
L 113.524704 130.905897 
" clip-path="url(#pf51cdf8a92)" style="fill: none; stroke: #000000; stroke-linecap: square"/>
   </g>
   <g id="line2d_36">
    <path d="M 174.53432 136.377692 
L 174.53432 147.321282 
" clip-path="url(#pf51cdf8a92)" style="fill: none; stroke: #000000; stroke-linecap: square"/>
   </g>
   <g id="line2d_37">
    <path d="M 174.53432 125.434103 
L 174.53432 109.018718 
" clip-path="url(#pf51cdf8a92)" style="fill: none; stroke: #000000; stroke-linecap: square"/>
   </g>
   <g id="line2d_38">
    <path d="M 172.96997 147.321282 
L 176.098669 147.321282 
" clip-path="url(#pf51cdf8a92)" style="fill: none; stroke: #000000; stroke-linecap: square"/>
   </g>
   <g id="line2d_39">
    <path d="M 172.96997 109.018718 
L 176.098669 109.018718 
" clip-path="url(#pf51cdf8a92)" style="fill: none; stroke: #000000; stroke-linecap: square"/>
   </g>
   <g id="line2d_40">
    <path d="M 237.108284 136.377692 
L 237.108284 147.321282 
" clip-path="url(#pf51cdf8a92)" style="fill: none; stroke: #000000; stroke-linecap: square"/>
   </g>
   <g id="line2d_41">
    <path d="M 237.108284 124.066154 
L 237.108284 109.018718 
" clip-path="url(#pf51cdf8a92)" style="fill: none; stroke: #000000; stroke-linecap: square"/>
   </g>
   <g id="line2d_42">
    <path d="M 235.543935 147.321282 
L 238.672633 147.321282 
" clip-path="url(#pf51cdf8a92)" style="fill: none; stroke: #000000; stroke-linecap: square"/>
   </g>
   <g id="line2d_43">
    <path d="M 235.543935 109.018718 
L 238.672633 109.018718 
" clip-path="url(#pf51cdf8a92)" style="fill: none; stroke: #000000; stroke-linecap: square"/>
   </g>
   <g id="line2d_44">
    <path d="M 299.682249 158.264872 
L 299.682249 163.736667 
" clip-path="url(#pf51cdf8a92)" style="fill: none; stroke: #000000; stroke-linecap: square"/>
   </g>
   <g id="line2d_45">
    <path d="M 299.682249 152.793077 
L 299.682249 147.321282 
" clip-path="url(#pf51cdf8a92)" style="fill: none; stroke: #000000; stroke-linecap: square"/>
   </g>
   <g id="line2d_46">
    <path d="M 298.117899 163.736667 
L 301.246598 163.736667 
" clip-path="url(#pf51cdf8a92)" style="fill: none; stroke: #000000; stroke-linecap: square"/>
   </g>
   <g id="line2d_47">
    <path d="M 298.117899 147.321282 
L 301.246598 147.321282 
" clip-path="url(#pf51cdf8a92)" style="fill: none; stroke: #000000; stroke-linecap: square"/>
   </g>
   <g id="line2d_48">
    <path d="M 362.256213 218.454615 
L 362.256213 234.87 
" clip-path="url(#pf51cdf8a92)" style="fill: none; stroke: #000000; stroke-linecap: square"/>
   </g>
   <g id="line2d_49">
    <path d="M 362.256213 207.511026 
L 362.256213 191.095641 
" clip-path="url(#pf51cdf8a92)" style="fill: none; stroke: #000000; stroke-linecap: square"/>
   </g>
   <g id="line2d_50">
    <path d="M 360.691864 234.87 
L 363.820562 234.87 
" clip-path="url(#pf51cdf8a92)" style="fill: none; stroke: #000000; stroke-linecap: square"/>
   </g>
   <g id="line2d_51">
    <path d="M 360.691864 191.095641 
L 363.820562 191.095641 
" clip-path="url(#pf51cdf8a92)" style="fill: none; stroke: #000000; stroke-linecap: square"/>
   </g>
   <g id="line2d_52">
    <path d="M 55.643787 48.828974 
L 55.643787 48.828974 
" clip-path="url(#pf51cdf8a92)" style="fill: none; stroke: #000000; stroke-linecap: square"/>
   </g>
   <g id="line2d_53">
    <path d="M 55.643787 43.357179 
L 55.643787 37.885385 
" clip-path="url(#pf51cdf8a92)" style="fill: none; stroke: #000000; stroke-linecap: square"/>
   </g>
   <g id="line2d_54">
    <path d="M 54.079438 48.828974 
L 57.208136 48.828974 
" clip-path="url(#pf51cdf8a92)" style="fill: none; stroke: #000000; stroke-linecap: square"/>
   </g>
   <g id="line2d_55">
    <path d="M 54.079438 37.885385 
L 57.208136 37.885385 
" clip-path="url(#pf51cdf8a92)" style="fill: none; stroke: #000000; stroke-linecap: square"/>
   </g>
   <g id="line2d_56">
    <path d="M 118.217751 114.490513 
L 118.217751 125.434103 
" clip-path="url(#pf51cdf8a92)" style="fill: none; stroke: #000000; stroke-linecap: square"/>
   </g>
   <g id="line2d_57">
    <path d="M 118.217751 103.546923 
L 118.217751 92.603333 
" clip-path="url(#pf51cdf8a92)" style="fill: none; stroke: #000000; stroke-linecap: square"/>
   </g>
   <g id="line2d_58">
    <path d="M 116.653402 125.434103 
L 119.782101 125.434103 
" clip-path="url(#pf51cdf8a92)" style="fill: none; stroke: #000000; stroke-linecap: square"/>
   </g>
   <g id="line2d_59">
    <path d="M 116.653402 92.603333 
L 119.782101 92.603333 
" clip-path="url(#pf51cdf8a92)" style="fill: none; stroke: #000000; stroke-linecap: square"/>
   </g>
   <g id="line2d_60">
    <path d="M 180.791716 59.772564 
L 180.791716 59.772564 
" clip-path="url(#pf51cdf8a92)" style="fill: none; stroke: #000000; stroke-linecap: square"/>
   </g>
   <g id="line2d_61">
    <path d="M 180.791716 48.828974 
L 180.791716 37.885385 
" clip-path="url(#pf51cdf8a92)" style="fill: none; stroke: #000000; stroke-linecap: square"/>
   </g>
   <g id="line2d_62">
    <path d="M 179.227367 59.772564 
L 182.356065 59.772564 
" clip-path="url(#pf51cdf8a92)" style="fill: none; stroke: #000000; stroke-linecap: square"/>
   </g>
   <g id="line2d_63">
    <path d="M 179.227367 37.885385 
L 182.356065 37.885385 
" clip-path="url(#pf51cdf8a92)" style="fill: none; stroke: #000000; stroke-linecap: square"/>
   </g>
   <g id="line2d_64">
    <path d="M 243.36568 32.41359 
L 243.36568 32.41359 
" clip-path="url(#pf51cdf8a92)" style="fill: none; stroke: #000000; stroke-linecap: square"/>
   </g>
   <g id="line2d_65">
    <path d="M 243.36568 26.941795 
L 243.36568 21.47 
" clip-path="url(#pf51cdf8a92)" style="fill: none; stroke: #000000; stroke-linecap: square"/>
   </g>
   <g id="line2d_66">
    <path d="M 241.801331 32.41359 
L 244.93003 32.41359 
" clip-path="url(#pf51cdf8a92)" style="fill: none; stroke: #000000; stroke-linecap: square"/>
   </g>
   <g id="line2d_67">
    <path d="M 241.801331 21.47 
L 244.93003 21.47 
" clip-path="url(#pf51cdf8a92)" style="fill: none; stroke: #000000; stroke-linecap: square"/>
   </g>
   <g id="line2d_68">
    <path d="M 305.939645 37.885385 
L 305.939645 37.885385 
" clip-path="url(#pf51cdf8a92)" style="fill: none; stroke: #000000; stroke-linecap: square"/>
   </g>
   <g id="line2d_69">
    <path d="M 305.939645 32.41359 
L 305.939645 26.941795 
" clip-path="url(#pf51cdf8a92)" style="fill: none; stroke: #000000; stroke-linecap: square"/>
   </g>
   <g id="line2d_70">
    <path d="M 304.375296 37.885385 
L 307.503994 37.885385 
" clip-path="url(#pf51cdf8a92)" style="fill: none; stroke: #000000; stroke-linecap: square"/>
   </g>
   <g id="line2d_71">
    <path d="M 304.375296 26.941795 
L 307.503994 26.941795 
" clip-path="url(#pf51cdf8a92)" style="fill: none; stroke: #000000; stroke-linecap: square"/>
   </g>
   <g id="line2d_72">
    <path d="M 368.513609 109.018718 
L 368.513609 114.490513 
" clip-path="url(#pf51cdf8a92)" style="fill: none; stroke: #000000; stroke-linecap: square"/>
   </g>
   <g id="line2d_73">
    <path d="M 368.513609 98.075128 
L 368.513609 81.659744 
" clip-path="url(#pf51cdf8a92)" style="fill: none; stroke: #000000; stroke-linecap: square"/>
   </g>
   <g id="line2d_74">
    <path d="M 366.94926 114.490513 
L 370.077959 114.490513 
" clip-path="url(#pf51cdf8a92)" style="fill: none; stroke: #000000; stroke-linecap: square"/>
   </g>
   <g id="line2d_75">
    <path d="M 366.94926 81.659744 
L 370.077959 81.659744 
" clip-path="url(#pf51cdf8a92)" style="fill: none; stroke: #000000; stroke-linecap: square"/>
   </g>
   <g id="line2d_76">
    <path d="M 61.901183 81.659744 
L 61.901183 87.131538 
" clip-path="url(#pf51cdf8a92)" style="fill: none; stroke: #000000; stroke-linecap: square"/>
   </g>
   <g id="line2d_77">
    <path d="M 61.901183 70.716154 
L 61.901183 54.300769 
" clip-path="url(#pf51cdf8a92)" style="fill: none; stroke: #000000; stroke-linecap: square"/>
   </g>
   <g id="line2d_78">
    <path d="M 60.336834 87.131538 
L 63.465533 87.131538 
" clip-path="url(#pf51cdf8a92)" style="fill: none; stroke: #000000; stroke-linecap: square"/>
   </g>
   <g id="line2d_79">
    <path d="M 60.336834 54.300769 
L 63.465533 54.300769 
" clip-path="url(#pf51cdf8a92)" style="fill: none; stroke: #000000; stroke-linecap: square"/>
   </g>
   <g id="line2d_80">
    <path d="M 124.475148 114.490513 
L 124.475148 125.434103 
" clip-path="url(#pf51cdf8a92)" style="fill: none; stroke: #000000; stroke-linecap: square"/>
   </g>
   <g id="line2d_81">
    <path d="M 124.475148 103.546923 
L 124.475148 87.131538 
" clip-path="url(#pf51cdf8a92)" style="fill: none; stroke: #000000; stroke-linecap: square"/>
   </g>
   <g id="line2d_82">
    <path d="M 122.910799 125.434103 
L 126.039497 125.434103 
" clip-path="url(#pf51cdf8a92)" style="fill: none; stroke: #000000; stroke-linecap: square"/>
   </g>
   <g id="line2d_83">
    <path d="M 122.910799 87.131538 
L 126.039497 87.131538 
" clip-path="url(#pf51cdf8a92)" style="fill: none; stroke: #000000; stroke-linecap: square"/>
   </g>
   <g id="line2d_84">
    <path d="M 187.049112 70.716154 
L 187.049112 76.187949 
" clip-path="url(#pf51cdf8a92)" style="fill: none; stroke: #000000; stroke-linecap: square"/>
   </g>
   <g id="line2d_85">
    <path d="M 187.049112 65.244359 
L 187.049112 59.772564 
" clip-path="url(#pf51cdf8a92)" style="fill: none; stroke: #000000; stroke-linecap: square"/>
   </g>
   <g id="line2d_86">
    <path d="M 185.484763 76.187949 
L 188.613462 76.187949 
" clip-path="url(#pf51cdf8a92)" style="fill: none; stroke: #000000; stroke-linecap: square"/>
   </g>
   <g id="line2d_87">
    <path d="M 185.484763 59.772564 
L 188.613462 59.772564 
" clip-path="url(#pf51cdf8a92)" style="fill: none; stroke: #000000; stroke-linecap: square"/>
   </g>
   <g id="line2d_88">
    <path d="M 249.623077 92.603333 
L 249.623077 98.075128 
" clip-path="url(#pf51cdf8a92)" style="fill: none; stroke: #000000; stroke-linecap: square"/>
   </g>
   <g id="line2d_89">
    <path d="M 249.623077 81.659744 
L 249.623077 65.244359 
" clip-path="url(#pf51cdf8a92)" style="fill: none; stroke: #000000; stroke-linecap: square"/>
   </g>
   <g id="line2d_90">
    <path d="M 248.058728 98.075128 
L 251.187426 98.075128 
" clip-path="url(#pf51cdf8a92)" style="fill: none; stroke: #000000; stroke-linecap: square"/>
   </g>
   <g id="line2d_91">
    <path d="M 248.058728 65.244359 
L 251.187426 65.244359 
" clip-path="url(#pf51cdf8a92)" style="fill: none; stroke: #000000; stroke-linecap: square"/>
   </g>
   <g id="line2d_92">
    <path d="M 312.197041 54.300769 
L 312.197041 59.772564 
" clip-path="url(#pf51cdf8a92)" style="fill: none; stroke: #000000; stroke-linecap: square"/>
   </g>
   <g id="line2d_93">
    <path d="M 312.197041 48.828974 
L 312.197041 43.357179 
" clip-path="url(#pf51cdf8a92)" style="fill: none; stroke: #000000; stroke-linecap: square"/>
   </g>
   <g id="line2d_94">
    <path d="M 310.632692 59.772564 
L 313.761391 59.772564 
" clip-path="url(#pf51cdf8a92)" style="fill: none; stroke: #000000; stroke-linecap: square"/>
   </g>
   <g id="line2d_95">
    <path d="M 310.632692 43.357179 
L 313.761391 43.357179 
" clip-path="url(#pf51cdf8a92)" style="fill: none; stroke: #000000; stroke-linecap: square"/>
   </g>
   <g id="line2d_96">
    <path d="M 374.771006 119.962308 
L 374.771006 130.905897 
" clip-path="url(#pf51cdf8a92)" style="fill: none; stroke: #000000; stroke-linecap: square"/>
   </g>
   <g id="line2d_97">
    <path d="M 374.771006 109.018718 
L 374.771006 98.075128 
" clip-path="url(#pf51cdf8a92)" style="fill: none; stroke: #000000; stroke-linecap: square"/>
   </g>
   <g id="line2d_98">
    <path d="M 373.206657 130.905897 
L 376.335355 130.905897 
" clip-path="url(#pf51cdf8a92)" style="fill: none; stroke: #000000; stroke-linecap: square"/>
   </g>
   <g id="line2d_99">
    <path d="M 373.206657 98.075128 
L 376.335355 98.075128 
" clip-path="url(#pf51cdf8a92)" style="fill: none; stroke: #000000; stroke-linecap: square"/>
   </g>
   <g id="line2d_100">
    <path d="M 46.257692 109.018718 
L 52.515089 109.018718 
" clip-path="url(#pf51cdf8a92)" style="fill: none; stroke: #000000; stroke-width: 1.2"/>
   </g>
   <g id="line2d_101">
    <path d="M 108.831657 147.321282 
L 115.089053 147.321282 
" clip-path="url(#pf51cdf8a92)" style="fill: none; stroke: #000000; stroke-width: 1.2"/>
   </g>
   <g id="line2d_102">
    <path d="M 171.405621 130.905897 
L 177.663018 130.905897 
" clip-path="url(#pf51cdf8a92)" style="fill: none; stroke: #000000; stroke-width: 1.2"/>
   </g>
   <g id="line2d_103">
    <path d="M 233.979586 130.905897 
L 240.236982 130.905897 
" clip-path="url(#pf51cdf8a92)" style="fill: none; stroke: #000000; stroke-width: 1.2"/>
   </g>
   <g id="line2d_104">
    <path d="M 296.55355 158.264872 
L 302.810947 158.264872 
" clip-path="url(#pf51cdf8a92)" style="fill: none; stroke: #000000; stroke-width: 1.2"/>
   </g>
   <g id="line2d_105">
    <path d="M 359.127515 212.982821 
L 365.384911 212.982821 
" clip-path="url(#pf51cdf8a92)" style="fill: none; stroke: #000000; stroke-width: 1.2"/>
   </g>
   <g id="line2d_106">
    <path d="M 52.515089 43.357179 
L 58.772485 43.357179 
" clip-path="url(#pf51cdf8a92)" style="fill: none; stroke: #000000; stroke-width: 1.2"/>
   </g>
   <g id="line2d_107">
    <path d="M 115.089053 109.018718 
L 121.34645 109.018718 
" clip-path="url(#pf51cdf8a92)" style="fill: none; stroke: #000000; stroke-width: 1.2"/>
   </g>
   <g id="line2d_108">
    <path d="M 177.663018 54.300769 
L 183.920414 54.300769 
" clip-path="url(#pf51cdf8a92)" style="fill: none; stroke: #000000; stroke-width: 1.2"/>
   </g>
   <g id="line2d_109">
    <path d="M 240.236982 29.677692 
L 246.494379 29.677692 
" clip-path="url(#pf51cdf8a92)" style="fill: none; stroke: #000000; stroke-width: 1.2"/>
   </g>
   <g id="line2d_110">
    <path d="M 302.810947 32.41359 
L 309.068343 32.41359 
" clip-path="url(#pf51cdf8a92)" style="fill: none; stroke: #000000; stroke-width: 1.2"/>
   </g>
   <g id="line2d_111">
    <path d="M 365.384911 103.546923 
L 371.642308 103.546923 
" clip-path="url(#pf51cdf8a92)" style="fill: none; stroke: #000000; stroke-width: 1.2"/>
   </g>
   <g id="line2d_112">
    <path d="M 58.772485 76.187949 
L 65.029882 76.187949 
" clip-path="url(#pf51cdf8a92)" style="fill: none; stroke: #000000; stroke-width: 1.2"/>
   </g>
   <g id="line2d_113">
    <path d="M 121.34645 109.018718 
L 127.603846 109.018718 
" clip-path="url(#pf51cdf8a92)" style="fill: none; stroke: #000000; stroke-width: 1.2"/>
   </g>
   <g id="line2d_114">
    <path d="M 183.920414 70.716154 
L 190.177811 70.716154 
" clip-path="url(#pf51cdf8a92)" style="fill: none; stroke: #000000; stroke-width: 1.2"/>
   </g>
   <g id="line2d_115">
    <path d="M 246.494379 87.131538 
L 252.751775 87.131538 
" clip-path="url(#pf51cdf8a92)" style="fill: none; stroke: #000000; stroke-width: 1.2"/>
   </g>
   <g id="line2d_116">
    <path d="M 309.068343 54.300769 
L 315.32574 54.300769 
" clip-path="url(#pf51cdf8a92)" style="fill: none; stroke: #000000; stroke-width: 1.2"/>
   </g>
   <g id="line2d_117">
    <path d="M 371.642308 114.490513 
L 377.899704 114.490513 
" clip-path="url(#pf51cdf8a92)" style="fill: none; stroke: #000000; stroke-width: 1.2"/>
   </g>
   <g id="legend_1">
    <g id="line2d_118">
     <path d="M 41.7 186.925938 
L 51.7 186.925938 
L 61.7 186.925938 
" style="fill: none; stroke: #1f77b4; stroke-width: 2; stroke-linecap: square"/>
     <defs>
      <path id="m026c8ffe22" d="M 0 3 
C 0.795609 3 1.55874 2.683901 2.12132 2.12132 
C 2.683901 1.55874 3 0.795609 3 0 
C 3 -0.795609 2.683901 -1.55874 2.12132 -2.12132 
C 1.55874 -2.683901 0.795609 -3 0 -3 
C -0.795609 -3 -1.55874 -2.683901 -2.12132 -2.12132 
C -2.683901 -1.55874 -3 -0.795609 -3 0 
C -3 0.795609 -2.683901 1.55874 -2.12132 2.12132 
C -1.55874 2.683901 -0.795609 3 0 3 
z
" style="stroke: #1f77b4"/>
     </defs>
     <g>
      <use xlink:href="#m026c8ffe22" x="51.7" y="186.925938" style="fill: #1f77b4; stroke: #1f77b4"/>
     </g>
    </g>
    <g id="text_12">
     <!-- Autoencoder -->
     <g transform="translate(69.7 190.425938) scale(0.1 -0.1)">
      <defs>
       <path id="DejaVuSans-41" d="M 2188 4044 
L 1331 1722 
L 3047 1722 
L 2188 4044 
z
M 1831 4666 
L 2547 4666 
L 4325 0 
L 3669 0 
L 3244 1197 
L 1141 1197 
L 716 0 
L 50 0 
L 1831 4666 
z
" transform="scale(0.015625)"/>
      </defs>
      <use xlink:href="#DejaVuSans-41"/>
      <use xlink:href="#DejaVuSans-75" transform="translate(68.408203 0)"/>
      <use xlink:href="#DejaVuSans-74" transform="translate(131.787109 0)"/>
      <use xlink:href="#DejaVuSans-6f" transform="translate(170.996094 0)"/>
      <use xlink:href="#DejaVuSans-65" transform="translate(232.177734 0)"/>
      <use xlink:href="#DejaVuSans-6e" transform="translate(293.701172 0)"/>
      <use xlink:href="#DejaVuSans-63" transform="translate(357.080078 0)"/>
      <use xlink:href="#DejaVuSans-6f" transform="translate(412.060547 0)"/>
      <use xlink:href="#DejaVuSans-64" transform="translate(473.242188 0)"/>
      <use xlink:href="#DejaVuSans-65" transform="translate(536.71875 0)"/>
      <use xlink:href="#DejaVuSans-72" transform="translate(598.242188 0)"/>
     </g>
    </g>
    <g id="line2d_119">
     <path d="M 41.7 201.604062 
L 51.7 201.604062 
L 61.7 201.604062 
" style="fill: none; stroke: #ff7f0e; stroke-width: 2; stroke-linecap: square"/>
     <defs>
      <path id="m0253cd8ffb" d="M 0 3 
C 0.795609 3 1.55874 2.683901 2.12132 2.12132 
C 2.683901 1.55874 3 0.795609 3 0 
C 3 -0.795609 2.683901 -1.55874 2.12132 -2.12132 
C 1.55874 -2.683901 0.795609 -3 0 -3 
C -0.795609 -3 -1.55874 -2.683901 -2.12132 -2.12132 
C -2.683901 -1.55874 -3 -0.795609 -3 0 
C -3 0.795609 -2.683901 1.55874 -2.12132 2.12132 
C -1.55874 2.683901 -0.795609 3 0 3 
z
" style="stroke: #ff7f0e"/>
     </defs>
     <g>
      <use xlink:href="#m0253cd8ffb" x="51.7" y="201.604062" style="fill: #ff7f0e; stroke: #ff7f0e"/>
     </g>
    </g>
    <g id="text_13">
     <!-- Contrastive encoder -->
     <g transform="translate(69.7 205.104062) scale(0.1 -0.1)">
      <defs>
       <path id="DejaVuSans-43" d="M 4122 4306 
L 4122 3641 
Q 3803 3938 3442 4084 
Q 3081 4231 2675 4231 
Q 1875 4231 1450 3742 
Q 1025 3253 1025 2328 
Q 1025 1406 1450 917 
Q 1875 428 2675 428 
Q 3081 428 3442 575 
Q 3803 722 4122 1019 
L 4122 359 
Q 3791 134 3420 21 
Q 3050 -91 2638 -91 
Q 1578 -91 968 557 
Q 359 1206 359 2328 
Q 359 3453 968 4101 
Q 1578 4750 2638 4750 
Q 3056 4750 3426 4639 
Q 3797 4528 4122 4306 
z
" transform="scale(0.015625)"/>
       <path id="DejaVuSans-73" d="M 2834 3397 
L 2834 2853 
Q 2591 2978 2328 3040 
Q 2066 3103 1784 3103 
Q 1356 3103 1142 2972 
Q 928 2841 928 2578 
Q 928 2378 1081 2264 
Q 1234 2150 1697 2047 
L 1894 2003 
Q 2506 1872 2764 1633 
Q 3022 1394 3022 966 
Q 3022 478 2636 193 
Q 2250 -91 1575 -91 
Q 1294 -91 989 -36 
Q 684 19 347 128 
L 347 722 
Q 666 556 975 473 
Q 1284 391 1588 391 
Q 1994 391 2212 530 
Q 2431 669 2431 922 
Q 2431 1156 2273 1281 
Q 2116 1406 1581 1522 
L 1381 1569 
Q 847 1681 609 1914 
Q 372 2147 372 2553 
Q 372 3047 722 3315 
Q 1072 3584 1716 3584 
Q 2034 3584 2315 3537 
Q 2597 3491 2834 3397 
z
" transform="scale(0.015625)"/>
       <path id="DejaVuSans-69" d="M 603 3500 
L 1178 3500 
L 1178 0 
L 603 0 
L 603 3500 
z
M 603 4863 
L 1178 4863 
L 1178 4134 
L 603 4134 
L 603 4863 
z
" transform="scale(0.015625)"/>
       <path id="DejaVuSans-76" d="M 191 3500 
L 800 3500 
L 1894 563 
L 2988 3500 
L 3597 3500 
L 2284 0 
L 1503 0 
L 191 3500 
z
" transform="scale(0.015625)"/>
      </defs>
      <use xlink:href="#DejaVuSans-43"/>
      <use xlink:href="#DejaVuSans-6f" transform="translate(69.824219 0)"/>
      <use xlink:href="#DejaVuSans-6e" transform="translate(131.005859 0)"/>
      <use xlink:href="#DejaVuSans-74" transform="translate(194.384766 0)"/>
      <use xlink:href="#DejaVuSans-72" transform="translate(233.59375 0)"/>
      <use xlink:href="#DejaVuSans-61" transform="translate(274.707031 0)"/>
      <use xlink:href="#DejaVuSans-73" transform="translate(335.986328 0)"/>
      <use xlink:href="#DejaVuSans-74" transform="translate(388.085938 0)"/>
      <use xlink:href="#DejaVuSans-69" transform="translate(427.294922 0)"/>
      <use xlink:href="#DejaVuSans-76" transform="translate(455.078125 0)"/>
      <use xlink:href="#DejaVuSans-65" transform="translate(514.257812 0)"/>
      <use xlink:href="#DejaVuSans-20" transform="translate(575.78125 0)"/>
      <use xlink:href="#DejaVuSans-65" transform="translate(607.568359 0)"/>
      <use xlink:href="#DejaVuSans-6e" transform="translate(669.091797 0)"/>
      <use xlink:href="#DejaVuSans-63" transform="translate(732.470703 0)"/>
      <use xlink:href="#DejaVuSans-6f" transform="translate(787.451172 0)"/>
      <use xlink:href="#DejaVuSans-64" transform="translate(848.632812 0)"/>
      <use xlink:href="#DejaVuSans-65" transform="translate(912.109375 0)"/>
      <use xlink:href="#DejaVuSans-72" transform="translate(973.632812 0)"/>
     </g>
    </g>
    <g id="line2d_120">
     <path d="M 41.7 216.282188 
L 51.7 216.282188 
L 61.7 216.282188 
" style="fill: none; stroke: #2ca02c; stroke-width: 2; stroke-linecap: square"/>
     <defs>
      <path id="m60fe89b4d1" d="M 0 3 
C 0.795609 3 1.55874 2.683901 2.12132 2.12132 
C 2.683901 1.55874 3 0.795609 3 0 
C 3 -0.795609 2.683901 -1.55874 2.12132 -2.12132 
C 1.55874 -2.683901 0.795609 -3 0 -3 
C -0.795609 -3 -1.55874 -2.683901 -2.12132 -2.12132 
C -2.683901 -1.55874 -3 -0.795609 -3 0 
C -3 0.795609 -2.683901 1.55874 -2.12132 2.12132 
C -1.55874 2.683901 -0.795609 3 0 3 
z
" style="stroke: #2ca02c"/>
     </defs>
     <g>
      <use xlink:href="#m60fe89b4d1" x="51.7" y="216.282188" style="fill: #2ca02c; stroke: #2ca02c"/>
     </g>
    </g>
    <g id="text_14">
     <!-- Functional connectivity -->
     <g transform="translate(69.7 219.782188) scale(0.1 -0.1)">
      <use xlink:href="#DejaVuSans-46"/>
      <use xlink:href="#DejaVuSans-75" transform="translate(52.019531 0)"/>
      <use xlink:href="#DejaVuSans-6e" transform="translate(115.398438 0)"/>
      <use xlink:href="#DejaVuSans-63" transform="translate(178.777344 0)"/>
      <use xlink:href="#DejaVuSans-74" transform="translate(233.757812 0)"/>
      <use xlink:href="#DejaVuSans-69" transform="translate(272.966797 0)"/>
      <use xlink:href="#DejaVuSans-6f" transform="translate(300.75 0)"/>
      <use xlink:href="#DejaVuSans-6e" transform="translate(361.931641 0)"/>
      <use xlink:href="#DejaVuSans-61" transform="translate(425.310547 0)"/>
      <use xlink:href="#DejaVuSans-6c" transform="translate(486.589844 0)"/>
      <use xlink:href="#DejaVuSans-20" transform="translate(514.373047 0)"/>
      <use xlink:href="#DejaVuSans-63" transform="translate(546.160156 0)"/>
      <use xlink:href="#DejaVuSans-6f" transform="translate(601.140625 0)"/>
      <use xlink:href="#DejaVuSans-6e" transform="translate(662.322266 0)"/>
      <use xlink:href="#DejaVuSans-6e" transform="translate(725.701172 0)"/>
      <use xlink:href="#DejaVuSans-65" transform="translate(789.080078 0)"/>
      <use xlink:href="#DejaVuSans-63" transform="translate(850.603516 0)"/>
      <use xlink:href="#DejaVuSans-74" transform="translate(905.583984 0)"/>
      <use xlink:href="#DejaVuSans-69" transform="translate(944.792969 0)"/>
      <use xlink:href="#DejaVuSans-76" transform="translate(972.576172 0)"/>
      <use xlink:href="#DejaVuSans-69" transform="translate(1031.755859 0)"/>
      <use xlink:href="#DejaVuSans-74" transform="translate(1059.539062 0)"/>
      <use xlink:href="#DejaVuSans-79" transform="translate(1098.748047 0)"/>
     </g>
    </g>
    <g id="line2d_121">
     <path d="M 41.7 230.960313 
L 51.7 230.960313 
L 61.7 230.960313 
" style="fill: none; stroke: #d62728; stroke-width: 2; stroke-linecap: square"/>
     <defs>
      <path id="mad07a418ca" d="M 0 3 
C 0.795609 3 1.55874 2.683901 2.12132 2.12132 
C 2.683901 1.55874 3 0.795609 3 0 
C 3 -0.795609 2.683901 -1.55874 2.12132 -2.12132 
C 1.55874 -2.683901 0.795609 -3 0 -3 
C -0.795609 -3 -1.55874 -2.683901 -2.12132 -2.12132 
C -2.683901 -1.55874 -3 -0.795609 -3 0 
C -3 0.795609 -2.683901 1.55874 -2.12132 2.12132 
C -1.55874 2.683901 -0.795609 3 0 3 
z
" style="stroke: #d62728"/>
     </defs>
     <g>
      <use xlink:href="#mad07a418ca" x="51.7" y="230.960313" style="fill: #d62728; stroke: #d62728"/>
     </g>
    </g>
    <g id="text_15">
     <!-- Spectral -->
     <g transform="translate(69.7 234.460313) scale(0.1 -0.1)">
      <defs>
       <path id="DejaVuSans-53" d="M 3425 4513 
L 3425 3897 
Q 3066 4069 2747 4153 
Q 2428 4238 2131 4238 
Q 1616 4238 1336 4038 
Q 1056 3838 1056 3469 
Q 1056 3159 1242 3001 
Q 1428 2844 1947 2747 
L 2328 2669 
Q 3034 2534 3370 2195 
Q 3706 1856 3706 1288 
Q 3706 609 3251 259 
Q 2797 -91 1919 -91 
Q 1588 -91 1214 -16 
Q 841 59 441 206 
L 441 856 
Q 825 641 1194 531 
Q 1563 422 1919 422 
Q 2459 422 2753 634 
Q 3047 847 3047 1241 
Q 3047 1584 2836 1778 
Q 2625 1972 2144 2069 
L 1759 2144 
Q 1053 2284 737 2584 
Q 422 2884 422 3419 
Q 422 4038 858 4394 
Q 1294 4750 2059 4750 
Q 2388 4750 2728 4690 
Q 3069 4631 3425 4513 
z
" transform="scale(0.015625)"/>
      </defs>
      <use xlink:href="#DejaVuSans-53"/>
      <use xlink:href="#DejaVuSans-70" transform="translate(63.476562 0)"/>
      <use xlink:href="#DejaVuSans-65" transform="translate(126.953125 0)"/>
      <use xlink:href="#DejaVuSans-63" transform="translate(188.476562 0)"/>
      <use xlink:href="#DejaVuSans-74" transform="translate(243.457031 0)"/>
      <use xlink:href="#DejaVuSans-72" transform="translate(282.666016 0)"/>
      <use xlink:href="#DejaVuSans-61" transform="translate(323.779297 0)"/>
      <use xlink:href="#DejaVuSans-6c" transform="translate(385.058594 0)"/>
     </g>
    </g>
   </g>
   <g id="line2d_122">
    <path d="M 43.128994 35.149487 
L 105.702959 37.885385 
L 168.276923 37.885385 
L 230.850888 37.885385 
L 293.424852 29.677692 
L 355.998817 54.300769 
" clip-path="url(#pf51cdf8a92)" style="fill: none; stroke: #1f77b4; stroke-width: 2; stroke-linecap: square"/>
   </g>
   <g id="patch_23">
    <path d="M 40.000296 37.885385 
L 46.257692 37.885385 
L 46.257692 32.41359 
L 40.000296 32.41359 
L 40.000296 37.885385 
z
" clip-path="url(#pf51cdf8a92)" style="fill: #1f77b4; stroke: #000000; stroke-linejoin: miter"/>
   </g>
   <g id="patch_24">
    <path d="M 102.57426 37.885385 
L 108.831657 37.885385 
L 108.831657 32.41359 
L 102.57426 32.41359 
L 102.57426 37.885385 
z
" clip-path="url(#pf51cdf8a92)" style="fill: #1f77b4; stroke: #000000; stroke-linejoin: miter"/>
   </g>
   <g id="patch_25">
    <path d="M 165.148225 37.885385 
L 171.405621 37.885385 
L 171.405621 32.41359 
L 165.148225 32.41359 
L 165.148225 37.885385 
z
" clip-path="url(#pf51cdf8a92)" style="fill: #1f77b4; stroke: #000000; stroke-linejoin: miter"/>
   </g>
   <g id="patch_26">
    <path d="M 227.722189 43.357179 
L 233.979586 43.357179 
L 233.979586 32.41359 
L 227.722189 32.41359 
L 227.722189 43.357179 
z
" clip-path="url(#pf51cdf8a92)" style="fill: #1f77b4; stroke: #000000; stroke-linejoin: miter"/>
   </g>
   <g id="patch_27">
    <path d="M 290.296154 32.41359 
L 296.55355 32.41359 
L 296.55355 26.941795 
L 290.296154 26.941795 
L 290.296154 32.41359 
z
" clip-path="url(#pf51cdf8a92)" style="fill: #1f77b4; stroke: #000000; stroke-linejoin: miter"/>
   </g>
   <g id="patch_28">
    <path d="M 352.870118 54.300769 
L 359.127515 54.300769 
L 359.127515 48.828974 
L 352.870118 48.828974 
L 352.870118 54.300769 
z
" clip-path="url(#pf51cdf8a92)" style="fill: #1f77b4; stroke: #000000; stroke-linejoin: miter"/>
   </g>
   <g id="line2d_123">
    <path d="M 43.128994 37.885385 
L 43.128994 37.885385 
" clip-path="url(#pf51cdf8a92)" style="fill: none; stroke: #000000; stroke-linecap: square"/>
   </g>
   <g id="line2d_124">
    <path d="M 43.128994 32.41359 
L 43.128994 26.941795 
" clip-path="url(#pf51cdf8a92)" style="fill: none; stroke: #000000; stroke-linecap: square"/>
   </g>
   <g id="line2d_125">
    <path d="M 41.564645 37.885385 
L 44.693343 37.885385 
" clip-path="url(#pf51cdf8a92)" style="fill: none; stroke: #000000; stroke-linecap: square"/>
   </g>
   <g id="line2d_126">
    <path d="M 41.564645 26.941795 
L 44.693343 26.941795 
" clip-path="url(#pf51cdf8a92)" style="fill: none; stroke: #000000; stroke-linecap: square"/>
   </g>
   <g id="line2d_127">
    <path d="M 105.702959 37.885385 
L 105.702959 37.885385 
" clip-path="url(#pf51cdf8a92)" style="fill: none; stroke: #000000; stroke-linecap: square"/>
   </g>
   <g id="line2d_128">
    <path d="M 105.702959 32.41359 
L 105.702959 26.941795 
" clip-path="url(#pf51cdf8a92)" style="fill: none; stroke: #000000; stroke-linecap: square"/>
   </g>
   <g id="line2d_129">
    <path d="M 104.138609 37.885385 
L 107.267308 37.885385 
" clip-path="url(#pf51cdf8a92)" style="fill: none; stroke: #000000; stroke-linecap: square"/>
   </g>
   <g id="line2d_130">
    <path d="M 104.138609 26.941795 
L 107.267308 26.941795 
" clip-path="url(#pf51cdf8a92)" style="fill: none; stroke: #000000; stroke-linecap: square"/>
   </g>
   <g id="line2d_131">
    <path d="M 168.276923 37.885385 
L 168.276923 37.885385 
" clip-path="url(#pf51cdf8a92)" style="fill: none; stroke: #000000; stroke-linecap: square"/>
   </g>
   <g id="line2d_132">
    <path d="M 168.276923 32.41359 
L 168.276923 26.941795 
" clip-path="url(#pf51cdf8a92)" style="fill: none; stroke: #000000; stroke-linecap: square"/>
   </g>
   <g id="line2d_133">
    <path d="M 166.712574 37.885385 
L 169.841272 37.885385 
" clip-path="url(#pf51cdf8a92)" style="fill: none; stroke: #000000; stroke-linecap: square"/>
   </g>
   <g id="line2d_134">
    <path d="M 166.712574 26.941795 
L 169.841272 26.941795 
" clip-path="url(#pf51cdf8a92)" style="fill: none; stroke: #000000; stroke-linecap: square"/>
   </g>
   <g id="line2d_135">
    <path d="M 230.850888 43.357179 
L 230.850888 43.357179 
" clip-path="url(#pf51cdf8a92)" style="fill: none; stroke: #000000; stroke-linecap: square"/>
   </g>
   <g id="line2d_136">
    <path d="M 230.850888 32.41359 
L 230.850888 26.941795 
" clip-path="url(#pf51cdf8a92)" style="fill: none; stroke: #000000; stroke-linecap: square"/>
   </g>
   <g id="line2d_137">
    <path d="M 229.286538 43.357179 
L 232.415237 43.357179 
" clip-path="url(#pf51cdf8a92)" style="fill: none; stroke: #000000; stroke-linecap: square"/>
   </g>
   <g id="line2d_138">
    <path d="M 229.286538 26.941795 
L 232.415237 26.941795 
" clip-path="url(#pf51cdf8a92)" style="fill: none; stroke: #000000; stroke-linecap: square"/>
   </g>
   <g id="line2d_139">
    <path d="M 293.424852 32.41359 
L 293.424852 32.41359 
" clip-path="url(#pf51cdf8a92)" style="fill: none; stroke: #000000; stroke-linecap: square"/>
   </g>
   <g id="line2d_140">
    <path d="M 293.424852 26.941795 
L 293.424852 21.47 
" clip-path="url(#pf51cdf8a92)" style="fill: none; stroke: #000000; stroke-linecap: square"/>
   </g>
   <g id="line2d_141">
    <path d="M 291.860503 32.41359 
L 294.989201 32.41359 
" clip-path="url(#pf51cdf8a92)" style="fill: none; stroke: #000000; stroke-linecap: square"/>
   </g>
   <g id="line2d_142">
    <path d="M 291.860503 21.47 
L 294.989201 21.47 
" clip-path="url(#pf51cdf8a92)" style="fill: none; stroke: #000000; stroke-linecap: square"/>
   </g>
   <g id="line2d_143">
    <path d="M 355.998817 54.300769 
L 355.998817 59.772564 
" clip-path="url(#pf51cdf8a92)" style="fill: none; stroke: #000000; stroke-linecap: square"/>
   </g>
   <g id="line2d_144">
    <path d="M 355.998817 48.828974 
L 355.998817 43.357179 
" clip-path="url(#pf51cdf8a92)" style="fill: none; stroke: #000000; stroke-linecap: square"/>
   </g>
   <g id="line2d_145">
    <path d="M 354.434467 59.772564 
L 357.563166 59.772564 
" clip-path="url(#pf51cdf8a92)" style="fill: none; stroke: #000000; stroke-linecap: square"/>
   </g>
   <g id="line2d_146">
    <path d="M 354.434467 43.357179 
L 357.563166 43.357179 
" clip-path="url(#pf51cdf8a92)" style="fill: none; stroke: #000000; stroke-linecap: square"/>
   </g>
   <g id="line2d_147">
    <path d="M 40.000296 35.149487 
L 46.257692 35.149487 
" clip-path="url(#pf51cdf8a92)" style="fill: none; stroke: #000000; stroke-width: 1.2"/>
   </g>
   <g id="line2d_148">
    <path d="M 102.57426 37.885385 
L 108.831657 37.885385 
" clip-path="url(#pf51cdf8a92)" style="fill: none; stroke: #000000; stroke-width: 1.2"/>
   </g>
   <g id="line2d_149">
    <path d="M 165.148225 37.885385 
L 171.405621 37.885385 
" clip-path="url(#pf51cdf8a92)" style="fill: none; stroke: #000000; stroke-width: 1.2"/>
   </g>
   <g id="line2d_150">
    <path d="M 227.722189 37.885385 
L 233.979586 37.885385 
" clip-path="url(#pf51cdf8a92)" style="fill: none; stroke: #000000; stroke-width: 1.2"/>
   </g>
   <g id="line2d_151">
    <path d="M 290.296154 29.677692 
L 296.55355 29.677692 
" clip-path="url(#pf51cdf8a92)" style="fill: none; stroke: #000000; stroke-width: 1.2"/>
   </g>
   <g id="line2d_152">
    <path d="M 352.870118 54.300769 
L 359.127515 54.300769 
" clip-path="url(#pf51cdf8a92)" style="fill: none; stroke: #000000; stroke-width: 1.2"/>
   </g>
  </g>
 </g>
 <defs>
  <clipPath id="pf51cdf8a92">
   <rect x="32.7" y="10.8" width="352.5" height="234.74"/>
  </clipPath>
 </defs>
</svg>
