<?xml version="1.0" encoding="utf-8" standalone="no"?>
<!DOCTYPE svg PUBLIC "-//W3C//DTD SVG 1.1//EN"
  "http://www.w3.org/Graphics/SVG/1.1/DTD/svg11.dtd">
<svg xmlns:xlink="http://www.w3.org/1999/xlink" width="360pt" height="288pt" viewBox="0 0 360 288" xmlns="http://www.w3.org/2000/svg" version="1.1">
 <metadata>
  <rdf:RDF xmlns:dc="http://purl.org/dc/elements/1.1/" xmlns:cc="http://creativecommons.org/ns#" xmlns:rdf="http://www.w3.org/1999/02/22-rdf-syntax-ns#">
   <cc:Work>
    <dc:type rdf:resource="http://purl.org/dc/dcmitype/StillImage"/>
    <dc:date>2026-01-10T10:59:42.418870</dc:date>
    <dc:format>image/svg+xml</dc:format>
    <dc:creator>
     <cc:Agent>
      <dc:title>Matplotlib v3.10.3, https://matplotlib.org/</dc:title>
     </cc:Agent>
    </dc:creator>
   </cc:Work>
  </rdf:RDF>
 </metadata>
 <defs>
  <style type="text/css">*{stroke-linejoin: round; stroke-linecap: butt}</style>
 </defs>
 <g id="figure_1">
  <g id="patch_1">
   <path d="M 0 288 
L 360 288 
L 360 0 
L 0 0 
z
" style="fill: #ffffff"/>
  </g>
  <g id="axes_1">
   <g id="patch_2">
    <path d="M 47.5 242.948 
L 349.2 242.948 
L 349.2 14.4 
L 47.5 14.4 
z
" style="fill: #ffffff"/>
   </g>
   <g id="matplotlib.axis_1">
    <g id="xtick_1">
     <g id="line2d_1">
      <path d="M 47.5 242.948 
L 47.5 14.4 
" clip-path="url(#p4380db272f)" style="fill: none; stroke: #b0b0b0; stroke-opacity: 0.3; stroke-width: 0.8; stroke-linecap: square"/>
     </g>
     <g id="line2d_2">
      <defs>
       <path id="md34f5fde32" d="M 0 0 
L 0 4 
" style="stroke: #000000; stroke-width: 0.8"/>
      </defs>
      <g>
       <use xlink:href="#md34f5fde32" x="47.5" y="242.948" style="stroke: #000000; stroke-width: 0.8"/>
      </g>
     </g>
     <g id="text_1">
      <!-- $\mathdefault{10^{0}}$ -->
      <g transform="translate(39.58 257.286594) scale(0.09 -0.09)">
       <defs>
        <path id="DejaVuSans-31" d="M 794 531 
L 1825 531 
L 1825 4091 
L 703 3866 
L 703 4441 
L 1819 4666 
L 2450 4666 
L 2450 531 
L 3481 531 
L 3481 0 
L 794 0 
L 794 531 
z
" transform="scale(0.015625)"/>
        <path id="DejaVuSans-30" d="M 2034 4250 
Q 1547 4250 1301 3770 
Q 1056 3291 1056 2328 
Q 1056 1369 1301 889 
Q 1547 409 2034 409 
Q 2525 409 2770 889 
Q 3016 1369 3016 2328 
Q 3016 3291 2770 3770 
Q 2525 4250 2034 4250 
z
M 2034 4750 
Q 2819 4750 3233 4129 
Q 3647 3509 3647 2328 
Q 3647 1150 3233 529 
Q 2819 -91 2034 -91 
Q 1250 -91 836 529 
Q 422 1150 422 2328 
Q 422 3509 836 4129 
Q 1250 4750 2034 4750 
z
" transform="scale(0.015625)"/>
       </defs>
       <use xlink:href="#DejaVuSans-31" transform="translate(0 0.765625)"/>
       <use xlink:href="#DejaVuSans-30" transform="translate(63.623047 0.765625)"/>
       <use xlink:href="#DejaVuSans-30" transform="translate(128.203125 39.046875) scale(0.7)"/>
      </g>
     </g>
    </g>
    <g id="xtick_2">
     <g id="line2d_3">
      <path d="M 100.130718 242.948 
L 100.130718 14.4 
" clip-path="url(#p4380db272f)" style="fill: none; stroke: #b0b0b0; stroke-opacity: 0.3; stroke-width: 0.8; stroke-linecap: square"/>
     </g>
     <g id="line2d_4">
      <g>
       <use xlink:href="#md34f5fde32" x="100.130718" y="242.948" style="stroke: #000000; stroke-width: 0.8"/>
      </g>
     </g>
     <g id="text_2">
      <!-- $\mathdefault{10^{1}}$ -->
      <g transform="translate(92.210718 257.286594) scale(0.09 -0.09)">
       <use xlink:href="#DejaVuSans-31" transform="translate(0 0.684375)"/>
       <use xlink:href="#DejaVuSans-30" transform="translate(63.623047 0.684375)"/>
       <use xlink:href="#DejaVuSans-31" transform="translate(128.203125 38.965625) scale(0.7)"/>
      </g>
     </g>
    </g>
    <g id="xtick_3">
     <g id="line2d_5">
      <path d="M 152.761436 242.948 
L 152.761436 14.4 
" clip-path="url(#p4380db272f)" style="fill: none; stroke: #b0b0b0; stroke-opacity: 0.3; stroke-width: 0.8; stroke-linecap: square"/>
     </g>
     <g id="line2d_6">
      <g>
       <use xlink:href="#md34f5fde32" x="152.761436" y="242.948" style="stroke: #000000; stroke-width: 0.8"/>
      </g>
     </g>
     <g id="text_3">
      <!-- $\mathdefault{10^{2}}$ -->
      <g transform="translate(144.841436 257.286594) scale(0.09 -0.09)">
       <defs>
        <path id="DejaVuSans-32" d="M 1228 531 
L 3431 531 
L 3431 0 
L 469 0 
L 469 531 
Q 828 903 1448 1529 
Q 2069 2156 2228 2338 
Q 2531 2678 2651 2914 
Q 2772 3150 2772 3378 
Q 2772 3750 2511 3984 
Q 2250 4219 1831 4219 
Q 1534 4219 1204 4116 
Q 875 4013 500 3803 
L 500 4441 
Q 881 4594 1212 4672 
Q 1544 4750 1819 4750 
Q 2544 4750 2975 4387 
Q 3406 4025 3406 3419 
Q 3406 3131 3298 2873 
Q 3191 2616 2906 2266 
Q 2828 2175 2409 1742 
Q 1991 1309 1228 531 
z
" transform="scale(0.015625)"/>
       </defs>
       <use xlink:href="#DejaVuSans-31" transform="translate(0 0.765625)"/>
       <use xlink:href="#DejaVuSans-30" transform="translate(63.623047 0.765625)"/>
       <use xlink:href="#DejaVuSans-32" transform="translate(128.203125 39.046875) scale(0.7)"/>
      </g>
     </g>
    </g>
    <g id="xtick_4">
     <g id="line2d_7">
      <path d="M 205.392154 242.948 
L 205.392154 14.4 
" clip-path="url(#p4380db272f)" style="fill: none; stroke: #b0b0b0; stroke-opacity: 0.3; stroke-width: 0.8; stroke-linecap: square"/>
     </g>
     <g id="line2d_8">
      <g>
       <use xlink:href="#md34f5fde32" x="205.392154" y="242.948" style="stroke: #000000; stroke-width: 0.8"/>
      </g>
     </g>
     <g id="text_4">
      <!-- $\mathdefault{10^{3}}$ -->
      <g transform="translate(197.472154 257.286594) scale(0.09 -0.09)">
       <defs>
        <path id="DejaVuSans-33" d="M 2597 2516 
Q 3050 2419 3304 2112 
Q 3559 1806 3559 1356 
Q 3559 666 3084 287 
Q 2609 -91 1734 -91 
Q 1441 -91 1130 -33 
Q 819 25 488 141 
L 488 750 
Q 750 597 1062 519 
Q 1375 441 1716 441 
Q 2309 441 2620 675 
Q 2931 909 2931 1356 
Q 2931 1769 2642 2001 
Q 2353 2234 1838 2234 
L 1294 2234 
L 1294 2753 
L 1863 2753 
Q 2328 2753 2575 2939 
Q 2822 3125 2822 3475 
Q 2822 3834 2567 4026 
Q 2313 4219 1838 4219 
Q 1578 4219 1281 4162 
Q 984 4106 628 3988 
L 628 4550 
Q 988 4650 1302 4700 
Q 1616 4750 1894 4750 
Q 2613 4750 3031 4423 
Q 3450 4097 3450 3541 
Q 3450 3153 3228 2886 
Q 3006 2619 2597 2516 
z
" transform="scale(0.015625)"/>
       </defs>
       <use xlink:href="#DejaVuSans-31" transform="translate(0 0.765625)"/>
       <use xlink:href="#DejaVuSans-30" transform="translate(63.623047 0.765625)"/>
       <use xlink:href="#DejaVuSans-33" transform="translate(128.203125 39.046875) scale(0.7)"/>
      </g>
     </g>
    </g>
    <g id="xtick_5">
     <g id="line2d_9">
      <path d="M 258.022872 242.948 
L 258.022872 14.4 
" clip-path="url(#p4380db272f)" style="fill: none; stroke: #b0b0b0; stroke-opacity: 0.3; stroke-width: 0.8; stroke-linecap: square"/>
     </g>
     <g id="line2d_10">
      <g>
       <use xlink:href="#md34f5fde32" x="258.022872" y="242.948" style="stroke: #000000; stroke-width: 0.8"/>
      </g>
     </g>
     <g id="text_5">
      <!-- $\mathdefault{10^{4}}$ -->
      <g transform="translate(250.102872 257.286594) scale(0.09 -0.09)">
       <defs>
        <path id="DejaVuSans-34" d="M 2419 4116 
L 825 1625 
L 2419 1625 
L 2419 4116 
z
M 2253 4666 
L 3047 4666 
L 3047 1625 
L 3713 1625 
L 3713 1100 
L 3047 1100 
L 3047 0 
L 2419 0 
L 2419 1100 
L 313 1100 
L 313 1709 
L 2253 4666 
z
" transform="scale(0.015625)"/>
       </defs>
       <use xlink:href="#DejaVuSans-31" transform="translate(0 0.684375)"/>
       <use xlink:href="#DejaVuSans-30" transform="translate(63.623047 0.684375)"/>
       <use xlink:href="#DejaVuSans-34" transform="translate(128.203125 38.965625) scale(0.7)"/>
      </g>
     </g>
    </g>
    <g id="xtick_6">
     <g id="line2d_11">
      <path d="M 310.65359 242.948 
L 310.65359 14.4 
" clip-path="url(#p4380db272f)" style="fill: none; stroke: #b0b0b0; stroke-opacity: 0.3; stroke-width: 0.8; stroke-linecap: square"/>
     </g>
     <g id="line2d_12">
      <g>
       <use xlink:href="#md34f5fde32" x="310.65359" y="242.948" style="stroke: #000000; stroke-width: 0.8"/>
      </g>
     </g>
     <g id="text_6">
      <!-- $\mathdefault{10^{5}}$ -->
      <g transform="translate(302.73359 257.286594) scale(0.09 -0.09)">
       <defs>
        <path id="DejaVuSans-35" d="M 691 4666 
L 3169 4666 
L 3169 4134 
L 1269 4134 
L 1269 2991 
Q 1406 3038 1543 3061 
Q 1681 3084 1819 3084 
Q 2600 3084 3056 2656 
Q 3513 2228 3513 1497 
Q 3513 744 3044 326 
Q 2575 -91 1722 -91 
Q 1428 -91 1123 -41 
Q 819 9 494 109 
L 494 744 
Q 775 591 1075 516 
Q 1375 441 1709 441 
Q 2250 441 2565 725 
Q 2881 1009 2881 1497 
Q 2881 1984 2565 2268 
Q 2250 2553 1709 2553 
Q 1456 2553 1204 2497 
Q 953 2441 691 2322 
L 691 4666 
z
" transform="scale(0.015625)"/>
       </defs>
       <use xlink:href="#DejaVuSans-31" transform="translate(0 0.684375)"/>
       <use xlink:href="#DejaVuSans-30" transform="translate(63.623047 0.684375)"/>
       <use xlink:href="#DejaVuSans-35" transform="translate(128.203125 38.965625) scale(0.7)"/>
      </g>
     </g>
    </g>
    <g id="xtick_7">
     <g id="line2d_13">
      <defs>
       <path id="m5dfedb0ed6" d="M 0 0 
L 0 2 
" style="stroke: #000000; stroke-width: 0.6"/>
      </defs>
      <g>
       <use xlink:href="#m5dfedb0ed6" x="63.343425" y="242.948" style="stroke: #000000; stroke-width: 0.6"/>
      </g>
     </g>
    </g>
    <g id="xtick_8">
     <g id="line2d_14">
      <g>
       <use xlink:href="#m5dfedb0ed6" x="72.611234" y="242.948" style="stroke: #000000; stroke-width: 0.6"/>
      </g>
     </g>
    </g>
    <g id="xtick_9">
     <g id="line2d_15">
      <g>
       <use xlink:href="#m5dfedb0ed6" x="79.18685" y="242.948" style="stroke: #000000; stroke-width: 0.6"/>
      </g>
     </g>
    </g>
    <g id="xtick_10">
     <g id="line2d_16">
      <g>
       <use xlink:href="#m5dfedb0ed6" x="84.287293" y="242.948" style="stroke: #000000; stroke-width: 0.6"/>
      </g>
     </g>
    </g>
    <g id="xtick_11">
     <g id="line2d_17">
      <g>
       <use xlink:href="#m5dfedb0ed6" x="88.454659" y="242.948" style="stroke: #000000; stroke-width: 0.6"/>
      </g>
     </g>
    </g>
    <g id="xtick_12">
     <g id="line2d_18">
      <g>
       <use xlink:href="#m5dfedb0ed6" x="91.978117" y="242.948" style="stroke: #000000; stroke-width: 0.6"/>
      </g>
     </g>
    </g>
    <g id="xtick_13">
     <g id="line2d_19">
      <g>
       <use xlink:href="#m5dfedb0ed6" x="95.030275" y="242.948" style="stroke: #000000; stroke-width: 0.6"/>
      </g>
     </g>
    </g>
    <g id="xtick_14">
     <g id="line2d_20">
      <g>
       <use xlink:href="#m5dfedb0ed6" x="97.722469" y="242.948" style="stroke: #000000; stroke-width: 0.6"/>
      </g>
     </g>
    </g>
    <g id="xtick_15">
     <g id="line2d_21">
      <g>
       <use xlink:href="#m5dfedb0ed6" x="115.974143" y="242.948" style="stroke: #000000; stroke-width: 0.6"/>
      </g>
     </g>
    </g>
    <g id="xtick_16">
     <g id="line2d_22">
      <g>
       <use xlink:href="#m5dfedb0ed6" x="125.241952" y="242.948" style="stroke: #000000; stroke-width: 0.6"/>
      </g>
     </g>
    </g>
    <g id="xtick_17">
     <g id="line2d_23">
      <g>
       <use xlink:href="#m5dfedb0ed6" x="131.817568" y="242.948" style="stroke: #000000; stroke-width: 0.6"/>
      </g>
     </g>
    </g>
    <g id="xtick_18">
     <g id="line2d_24">
      <g>
       <use xlink:href="#m5dfedb0ed6" x="136.918011" y="242.948" style="stroke: #000000; stroke-width: 0.6"/>
      </g>
     </g>
    </g>
    <g id="xtick_19">
     <g id="line2d_25">
      <g>
       <use xlink:href="#m5dfedb0ed6" x="141.085377" y="242.948" style="stroke: #000000; stroke-width: 0.6"/>
      </g>
     </g>
    </g>
    <g id="xtick_20">
     <g id="line2d_26">
      <g>
       <use xlink:href="#m5dfedb0ed6" x="144.608835" y="242.948" style="stroke: #000000; stroke-width: 0.6"/>
      </g>
     </g>
    </g>
    <g id="xtick_21">
     <g id="line2d_27">
      <g>
       <use xlink:href="#m5dfedb0ed6" x="147.660993" y="242.948" style="stroke: #000000; stroke-width: 0.6"/>
      </g>
     </g>
    </g>
    <g id="xtick_22">
     <g id="line2d_28">
      <g>
       <use xlink:href="#m5dfedb0ed6" x="150.353187" y="242.948" style="stroke: #000000; stroke-width: 0.6"/>
      </g>
     </g>
    </g>
    <g id="xtick_23">
     <g id="line2d_29">
      <g>
       <use xlink:href="#m5dfedb0ed6" x="168.604861" y="242.948" style="stroke: #000000; stroke-width: 0.6"/>
      </g>
     </g>
    </g>
    <g id="xtick_24">
     <g id="line2d_30">
      <g>
       <use xlink:href="#m5dfedb0ed6" x="177.87267" y="242.948" style="stroke: #000000; stroke-width: 0.6"/>
      </g>
     </g>
    </g>
    <g id="xtick_25">
     <g id="line2d_31">
      <g>
       <use xlink:href="#m5dfedb0ed6" x="184.448286" y="242.948" style="stroke: #000000; stroke-width: 0.6"/>
      </g>
     </g>
    </g>
    <g id="xtick_26">
     <g id="line2d_32">
      <g>
       <use xlink:href="#m5dfedb0ed6" x="189.548729" y="242.948" style="stroke: #000000; stroke-width: 0.6"/>
      </g>
     </g>
    </g>
    <g id="xtick_27">
     <g id="line2d_33">
      <g>
       <use xlink:href="#m5dfedb0ed6" x="193.716095" y="242.948" style="stroke: #000000; stroke-width: 0.6"/>
      </g>
     </g>
    </g>
    <g id="xtick_28">
     <g id="line2d_34">
      <g>
       <use xlink:href="#m5dfedb0ed6" x="197.239553" y="242.948" style="stroke: #000000; stroke-width: 0.6"/>
      </g>
     </g>
    </g>
    <g id="xtick_29">
     <g id="line2d_35">
      <g>
       <use xlink:href="#m5dfedb0ed6" x="200.291711" y="242.948" style="stroke: #000000; stroke-width: 0.6"/>
      </g>
     </g>
    </g>
    <g id="xtick_30">
     <g id="line2d_36">
      <g>
       <use xlink:href="#m5dfedb0ed6" x="202.983905" y="242.948" style="stroke: #000000; stroke-width: 0.6"/>
      </g>
     </g>
    </g>
    <g id="xtick_31">
     <g id="line2d_37">
      <g>
       <use xlink:href="#m5dfedb0ed6" x="221.235579" y="242.948" style="stroke: #000000; stroke-width: 0.6"/>
      </g>
     </g>
    </g>
    <g id="xtick_32">
     <g id="line2d_38">
      <g>
       <use xlink:href="#m5dfedb0ed6" x="230.503389" y="242.948" style="stroke: #000000; stroke-width: 0.6"/>
      </g>
     </g>
    </g>
    <g id="xtick_33">
     <g id="line2d_39">
      <g>
       <use xlink:href="#m5dfedb0ed6" x="237.079004" y="242.948" style="stroke: #000000; stroke-width: 0.6"/>
      </g>
     </g>
    </g>
    <g id="xtick_34">
     <g id="line2d_40">
      <g>
       <use xlink:href="#m5dfedb0ed6" x="242.179448" y="242.948" style="stroke: #000000; stroke-width: 0.6"/>
      </g>
     </g>
    </g>
    <g id="xtick_35">
     <g id="line2d_41">
      <g>
       <use xlink:href="#m5dfedb0ed6" x="246.346813" y="242.948" style="stroke: #000000; stroke-width: 0.6"/>
      </g>
     </g>
    </g>
    <g id="xtick_36">
     <g id="line2d_42">
      <g>
       <use xlink:href="#m5dfedb0ed6" x="249.870271" y="242.948" style="stroke: #000000; stroke-width: 0.6"/>
      </g>
     </g>
    </g>
    <g id="xtick_37">
     <g id="line2d_43">
      <g>
       <use xlink:href="#m5dfedb0ed6" x="252.922429" y="242.948" style="stroke: #000000; stroke-width: 0.6"/>
      </g>
     </g>
    </g>
    <g id="xtick_38">
     <g id="line2d_44">
      <g>
       <use xlink:href="#m5dfedb0ed6" x="255.614623" y="242.948" style="stroke: #000000; stroke-width: 0.6"/>
      </g>
     </g>
    </g>
    <g id="xtick_39">
     <g id="line2d_45">
      <g>
       <use xlink:href="#m5dfedb0ed6" x="273.866297" y="242.948" style="stroke: #000000; stroke-width: 0.6"/>
      </g>
     </g>
    </g>
    <g id="xtick_40">
     <g id="line2d_46">
      <g>
       <use xlink:href="#m5dfedb0ed6" x="283.134107" y="242.948" style="stroke: #000000; stroke-width: 0.6"/>
      </g>
     </g>
    </g>
    <g id="xtick_41">
     <g id="line2d_47">
      <g>
       <use xlink:href="#m5dfedb0ed6" x="289.709722" y="242.948" style="stroke: #000000; stroke-width: 0.6"/>
      </g>
     </g>
    </g>
    <g id="xtick_42">
     <g id="line2d_48">
      <g>
       <use xlink:href="#m5dfedb0ed6" x="294.810166" y="242.948" style="stroke: #000000; stroke-width: 0.6"/>
      </g>
     </g>
    </g>
    <g id="xtick_43">
     <g id="line2d_49">
      <g>
       <use xlink:href="#m5dfedb0ed6" x="298.977531" y="242.948" style="stroke: #000000; stroke-width: 0.6"/>
      </g>
     </g>
    </g>
    <g id="xtick_44">
     <g id="line2d_50">
      <g>
       <use xlink:href="#m5dfedb0ed6" x="302.500989" y="242.948" style="stroke: #000000; stroke-width: 0.6"/>
      </g>
     </g>
    </g>
    <g id="xtick_45">
     <g id="line2d_51">
      <g>
       <use xlink:href="#m5dfedb0ed6" x="305.553147" y="242.948" style="stroke: #000000; stroke-width: 0.6"/>
      </g>
     </g>
    </g>
    <g id="xtick_46">
     <g id="line2d_52">
      <g>
       <use xlink:href="#m5dfedb0ed6" x="308.245341" y="242.948" style="stroke: #000000; stroke-width: 0.6"/>
      </g>
     </g>
    </g>
    <g id="xtick_47">
     <g id="line2d_53">
      <g>
       <use xlink:href="#m5dfedb0ed6" x="326.497015" y="242.948" style="stroke: #000000; stroke-width: 0.6"/>
      </g>
     </g>
    </g>
    <g id="xtick_48">
     <g id="line2d_54">
      <g>
       <use xlink:href="#m5dfedb0ed6" x="335.764825" y="242.948" style="stroke: #000000; stroke-width: 0.6"/>
      </g>
     </g>
    </g>
    <g id="xtick_49">
     <g id="line2d_55">
      <g>
       <use xlink:href="#m5dfedb0ed6" x="342.34044" y="242.948" style="stroke: #000000; stroke-width: 0.6"/>
      </g>
     </g>
    </g>
    <g id="xtick_50">
     <g id="line2d_56">
      <g>
       <use xlink:href="#m5dfedb0ed6" x="347.440884" y="242.948" style="stroke: #000000; stroke-width: 0.6"/>
      </g>
     </g>
    </g>
    <g id="text_7">
     <!-- Step size (samples) -->
     <g transform="translate(144.512734 271.516594) scale(0.11 -0.11)">
      <defs>
       <path id="DejaVuSans-53" d="M 3425 4513 
L 3425 3897 
Q 3066 4069 2747 4153 
Q 2428 4238 2131 4238 
Q 1616 4238 1336 4038 
Q 1056 3838 1056 3469 
Q 1056 3159 1242 3001 
Q 1428 2844 1947 2747 
L 2328 2669 
Q 3034 2534 3370 2195 
Q 3706 1856 3706 1288 
Q 3706 609 3251 259 
Q 2797 -91 1919 -91 
Q 1588 -91 1214 -16 
Q 841 59 441 206 
L 441 856 
Q 825 641 1194 531 
Q 1563 422 1919 422 
Q 2459 422 2753 634 
Q 3047 847 3047 1241 
Q 3047 1584 2836 1778 
Q 2625 1972 2144 2069 
L 1759 2144 
Q 1053 2284 737 2584 
Q 422 2884 422 3419 
Q 422 4038 858 4394 
Q 1294 4750 2059 4750 
Q 2388 4750 2728 4690 
Q 3069 4631 3425 4513 
z
" transform="scale(0.015625)"/>
       <path id="DejaVuSans-74" d="M 1172 4494 
L 1172 3500 
L 2356 3500 
L 2356 3053 
L 1172 3053 
L 1172 1153 
Q 1172 725 1289 603 
Q 1406 481 1766 481 
L 2356 481 
L 2356 0 
L 1766 0 
Q 1100 0 847 248 
Q 594 497 594 1153 
L 594 3053 
L 172 3053 
L 172 3500 
L 594 3500 
L 594 4494 
L 1172 4494 
z
" transform="scale(0.015625)"/>
       <path id="DejaVuSans-65" d="M 3597 1894 
L 3597 1613 
L 953 1613 
Q 991 1019 1311 708 
Q 1631 397 2203 397 
Q 2534 397 2845 478 
Q 3156 559 3463 722 
L 3463 178 
Q 3153 47 2828 -22 
Q 2503 -91 2169 -91 
Q 1331 -91 842 396 
Q 353 884 353 1716 
Q 353 2575 817 3079 
Q 1281 3584 2069 3584 
Q 2775 3584 3186 3129 
Q 3597 2675 3597 1894 
z
M 3022 2063 
Q 3016 2534 2758 2815 
Q 2500 3097 2075 3097 
Q 1594 3097 1305 2825 
Q 1016 2553 972 2059 
L 3022 2063 
z
" transform="scale(0.015625)"/>
       <path id="DejaVuSans-70" d="M 1159 525 
L 1159 -1331 
L 581 -1331 
L 581 3500 
L 1159 3500 
L 1159 2969 
Q 1341 3281 1617 3432 
Q 1894 3584 2278 3584 
Q 2916 3584 3314 3078 
Q 3713 2572 3713 1747 
Q 3713 922 3314 415 
Q 2916 -91 2278 -91 
Q 1894 -91 1617 61 
Q 1341 213 1159 525 
z
M 3116 1747 
Q 3116 2381 2855 2742 
Q 2594 3103 2138 3103 
Q 1681 3103 1420 2742 
Q 1159 2381 1159 1747 
Q 1159 1113 1420 752 
Q 1681 391 2138 391 
Q 2594 391 2855 752 
Q 3116 1113 3116 1747 
z
" transform="scale(0.015625)"/>
       <path id="DejaVuSans-20" transform="scale(0.015625)"/>
       <path id="DejaVuSans-73" d="M 2834 3397 
L 2834 2853 
Q 2591 2978 2328 3040 
Q 2066 3103 1784 3103 
Q 1356 3103 1142 2972 
Q 928 2841 928 2578 
Q 928 2378 1081 2264 
Q 1234 2150 1697 2047 
L 1894 2003 
Q 2506 1872 2764 1633 
Q 3022 1394 3022 966 
Q 3022 478 2636 193 
Q 2250 -91 1575 -91 
Q 1294 -91 989 -36 
Q 684 19 347 128 
L 347 722 
Q 666 556 975 473 
Q 1284 391 1588 391 
Q 1994 391 2212 530 
Q 2431 669 2431 922 
Q 2431 1156 2273 1281 
Q 2116 1406 1581 1522 
L 1381 1569 
Q 847 1681 609 1914 
Q 372 2147 372 2553 
Q 372 3047 722 3315 
Q 1072 3584 1716 3584 
Q 2034 3584 2315 3537 
Q 2597 3491 2834 3397 
z
" transform="scale(0.015625)"/>
       <path id="DejaVuSans-69" d="M 603 3500 
L 1178 3500 
L 1178 0 
L 603 0 
L 603 3500 
z
M 603 4863 
L 1178 4863 
L 1178 4134 
L 603 4134 
L 603 4863 
z
" transform="scale(0.015625)"/>
       <path id="DejaVuSans-7a" d="M 353 3500 
L 3084 3500 
L 3084 2975 
L 922 459 
L 3084 459 
L 3084 0 
L 275 0 
L 275 525 
L 2438 3041 
L 353 3041 
L 353 3500 
z
" transform="scale(0.015625)"/>
       <path id="DejaVuSans-28" d="M 1984 4856 
Q 1566 4138 1362 3434 
Q 1159 2731 1159 2009 
Q 1159 1288 1364 580 
Q 1569 -128 1984 -844 
L 1484 -844 
Q 1016 -109 783 600 
Q 550 1309 550 2009 
Q 550 2706 781 3412 
Q 1013 4119 1484 4856 
L 1984 4856 
z
" transform="scale(0.015625)"/>
       <path id="DejaVuSans-61" d="M 2194 1759 
Q 1497 1759 1228 1600 
Q 959 1441 959 1056 
Q 959 750 1161 570 
Q 1363 391 1709 391 
Q 2188 391 2477 730 
Q 2766 1069 2766 1631 
L 2766 1759 
L 2194 1759 
z
M 3341 1997 
L 3341 0 
L 2766 0 
L 2766 531 
Q 2569 213 2275 61 
Q 1981 -91 1556 -91 
Q 1019 -91 701 211 
Q 384 513 384 1019 
Q 384 1609 779 1909 
Q 1175 2209 1959 2209 
L 2766 2209 
L 2766 2266 
Q 2766 2663 2505 2880 
Q 2244 3097 1772 3097 
Q 1472 3097 1187 3025 
Q 903 2953 641 2809 
L 641 3341 
Q 956 3463 1253 3523 
Q 1550 3584 1831 3584 
Q 2591 3584 2966 3190 
Q 3341 2797 3341 1997 
z
" transform="scale(0.015625)"/>
       <path id="DejaVuSans-6d" d="M 3328 2828 
Q 3544 3216 3844 3400 
Q 4144 3584 4550 3584 
Q 5097 3584 5394 3201 
Q 5691 2819 5691 2113 
L 5691 0 
L 5113 0 
L 5113 2094 
Q 5113 2597 4934 2840 
Q 4756 3084 4391 3084 
Q 3944 3084 3684 2787 
Q 3425 2491 3425 1978 
L 3425 0 
L 2847 0 
L 2847 2094 
Q 2847 2600 2669 2842 
Q 2491 3084 2119 3084 
Q 1678 3084 1418 2786 
Q 1159 2488 1159 1978 
L 1159 0 
L 581 0 
L 581 3500 
L 1159 3500 
L 1159 2956 
Q 1356 3278 1631 3431 
Q 1906 3584 2284 3584 
Q 2666 3584 2933 3390 
Q 3200 3197 3328 2828 
z
" transform="scale(0.015625)"/>
       <path id="DejaVuSans-6c" d="M 603 4863 
L 1178 4863 
L 1178 0 
L 603 0 
L 603 4863 
z
" transform="scale(0.015625)"/>
       <path id="DejaVuSans-29" d="M 513 4856 
L 1013 4856 
Q 1481 4119 1714 3412 
Q 1947 2706 1947 2009 
Q 1947 1309 1714 600 
Q 1481 -109 1013 -844 
L 513 -844 
Q 928 -128 1133 580 
Q 1338 1288 1338 2009 
Q 1338 2731 1133 3434 
Q 928 4138 513 4856 
z
" transform="scale(0.015625)"/>
      </defs>
      <use xlink:href="#DejaVuSans-53"/>
      <use xlink:href="#DejaVuSans-74" transform="translate(63.476562 0)"/>
      <use xlink:href="#DejaVuSans-65" transform="translate(102.685547 0)"/>
      <use xlink:href="#DejaVuSans-70" transform="translate(164.208984 0)"/>
      <use xlink:href="#DejaVuSans-20" transform="translate(227.685547 0)"/>
      <use xlink:href="#DejaVuSans-73" transform="translate(259.472656 0)"/>
      <use xlink:href="#DejaVuSans-69" transform="translate(311.572266 0)"/>
      <use xlink:href="#DejaVuSans-7a" transform="translate(339.355469 0)"/>
      <use xlink:href="#DejaVuSans-65" transform="translate(391.845703 0)"/>
      <use xlink:href="#DejaVuSans-20" transform="translate(453.369141 0)"/>
      <use xlink:href="#DejaVuSans-28" transform="translate(485.15625 0)"/>
      <use xlink:href="#DejaVuSans-73" transform="translate(524.169922 0)"/>
      <use xlink:href="#DejaVuSans-61" transform="translate(576.269531 0)"/>
      <use xlink:href="#DejaVuSans-6d" transform="translate(637.548828 0)"/>
      <use xlink:href="#DejaVuSans-70" transform="translate(734.960938 0)"/>
      <use xlink:href="#DejaVuSans-6c" transform="translate(798.4375 0)"/>
      <use xlink:href="#DejaVuSans-65" transform="translate(826.220703 0)"/>
      <use xlink:href="#DejaVuSans-73" transform="translate(887.744141 0)"/>
      <use xlink:href="#DejaVuSans-29" transform="translate(939.84375 0)"/>
     </g>
    </g>
   </g>
   <g id="matplotlib.axis_2">
    <g id="ytick_1">
     <g id="line2d_57">
      <path d="M 47.5 242.948 
L 349.2 242.948 
" clip-path="url(#p4380db272f)" style="fill: none; stroke: #b0b0b0; stroke-opacity: 0.3; stroke-width: 0.8; stroke-linecap: square"/>
     </g>
     <g id="line2d_58">
      <defs>
       <path id="m954afb4b68" d="M 0 0 
L -4 0 
" style="stroke: #000000; stroke-width: 0.8"/>
      </defs>
      <g>
       <use xlink:href="#m954afb4b68" x="47.5" y="242.948" style="stroke: #000000; stroke-width: 0.8"/>
      </g>
     </g>
     <g id="text_8">
      <!-- 0.0 -->
      <g transform="translate(25.687188 246.367297) scale(0.09 -0.09)">
       <defs>
        <path id="DejaVuSans-2e" d="M 684 794 
L 1344 794 
L 1344 0 
L 684 0 
L 684 794 
z
" transform="scale(0.015625)"/>
       </defs>
       <use xlink:href="#DejaVuSans-30"/>
       <use xlink:href="#DejaVuSans-2e" transform="translate(63.623047 0)"/>
       <use xlink:href="#DejaVuSans-30" transform="translate(95.410156 0)"/>
      </g>
     </g>
    </g>
    <g id="ytick_2">
     <g id="line2d_59">
      <path d="M 47.5 197.2384 
L 349.2 197.2384 
" clip-path="url(#p4380db272f)" style="fill: none; stroke: #b0b0b0; stroke-opacity: 0.3; stroke-width: 0.8; stroke-linecap: square"/>
     </g>
     <g id="line2d_60">
      <g>
       <use xlink:href="#m954afb4b68" x="47.5" y="197.2384" style="stroke: #000000; stroke-width: 0.8"/>
      </g>
     </g>
     <g id="text_9">
      <!-- 0.2 -->
      <g transform="translate(25.687188 200.657697) scale(0.09 -0.09)">
       <use xlink:href="#DejaVuSans-30"/>
       <use xlink:href="#DejaVuSans-2e" transform="translate(63.623047 0)"/>
       <use xlink:href="#DejaVuSans-32" transform="translate(95.410156 0)"/>
      </g>
     </g>
    </g>
    <g id="ytick_3">
     <g id="line2d_61">
      <path d="M 47.5 151.5288 
L 349.2 151.5288 
" clip-path="url(#p4380db272f)" style="fill: none; stroke: #b0b0b0; stroke-opacity: 0.3; stroke-width: 0.8; stroke-linecap: square"/>
     </g>
     <g id="line2d_62">
      <g>
       <use xlink:href="#m954afb4b68" x="47.5" y="151.5288" style="stroke: #000000; stroke-width: 0.8"/>
      </g>
     </g>
     <g id="text_10">
      <!-- 0.4 -->
      <g transform="translate(25.687188 154.948097) scale(0.09 -0.09)">
       <use xlink:href="#DejaVuSans-30"/>
       <use xlink:href="#DejaVuSans-2e" transform="translate(63.623047 0)"/>
       <use xlink:href="#DejaVuSans-34" transform="translate(95.410156 0)"/>
      </g>
     </g>
    </g>
    <g id="ytick_4">
     <g id="line2d_63">
      <path d="M 47.5 105.8192 
L 349.2 105.8192 
" clip-path="url(#p4380db272f)" style="fill: none; stroke: #b0b0b0; stroke-opacity: 0.3; stroke-width: 0.8; stroke-linecap: square"/>
     </g>
     <g id="line2d_64">
      <g>
       <use xlink:href="#m954afb4b68" x="47.5" y="105.8192" style="stroke: #000000; stroke-width: 0.8"/>
      </g>
     </g>
     <g id="text_11">
      <!-- 0.6 -->
      <g transform="translate(25.687188 109.238497) scale(0.09 -0.09)">
       <defs>
        <path id="DejaVuSans-36" d="M 2113 2584 
Q 1688 2584 1439 2293 
Q 1191 2003 1191 1497 
Q 1191 994 1439 701 
Q 1688 409 2113 409 
Q 2538 409 2786 701 
Q 3034 994 3034 1497 
Q 3034 2003 2786 2293 
Q 2538 2584 2113 2584 
z
M 3366 4563 
L 3366 3988 
Q 3128 4100 2886 4159 
Q 2644 4219 2406 4219 
Q 1781 4219 1451 3797 
Q 1122 3375 1075 2522 
Q 1259 2794 1537 2939 
Q 1816 3084 2150 3084 
Q 2853 3084 3261 2657 
Q 3669 2231 3669 1497 
Q 3669 778 3244 343 
Q 2819 -91 2113 -91 
Q 1303 -91 875 529 
Q 447 1150 447 2328 
Q 447 3434 972 4092 
Q 1497 4750 2381 4750 
Q 2619 4750 2861 4703 
Q 3103 4656 3366 4563 
z
" transform="scale(0.015625)"/>
       </defs>
       <use xlink:href="#DejaVuSans-30"/>
       <use xlink:href="#DejaVuSans-2e" transform="translate(63.623047 0)"/>
       <use xlink:href="#DejaVuSans-36" transform="translate(95.410156 0)"/>
      </g>
     </g>
    </g>
    <g id="ytick_5">
     <g id="line2d_65">
      <path d="M 47.5 60.1096 
L 349.2 60.1096 
" clip-path="url(#p4380db272f)" style="fill: none; stroke: #b0b0b0; stroke-opacity: 0.3; stroke-width: 0.8; stroke-linecap: square"/>
     </g>
     <g id="line2d_66">
      <g>
       <use xlink:href="#m954afb4b68" x="47.5" y="60.1096" style="stroke: #000000; stroke-width: 0.8"/>
      </g>
     </g>
     <g id="text_12">
      <!-- 0.8 -->
      <g transform="translate(25.687188 63.528897) scale(0.09 -0.09)">
       <defs>
        <path id="DejaVuSans-38" d="M 2034 2216 
Q 1584 2216 1326 1975 
Q 1069 1734 1069 1313 
Q 1069 891 1326 650 
Q 1584 409 2034 409 
Q 2484 409 2743 651 
Q 3003 894 3003 1313 
Q 3003 1734 2745 1975 
Q 2488 2216 2034 2216 
z
M 1403 2484 
Q 997 2584 770 2862 
Q 544 3141 544 3541 
Q 544 4100 942 4425 
Q 1341 4750 2034 4750 
Q 2731 4750 3128 4425 
Q 3525 4100 3525 3541 
Q 3525 3141 3298 2862 
Q 3072 2584 2669 2484 
Q 3125 2378 3379 2068 
Q 3634 1759 3634 1313 
Q 3634 634 3220 271 
Q 2806 -91 2034 -91 
Q 1263 -91 848 271 
Q 434 634 434 1313 
Q 434 1759 690 2068 
Q 947 2378 1403 2484 
z
M 1172 3481 
Q 1172 3119 1398 2916 
Q 1625 2713 2034 2713 
Q 2441 2713 2670 2916 
Q 2900 3119 2900 3481 
Q 2900 3844 2670 4047 
Q 2441 4250 2034 4250 
Q 1625 4250 1398 4047 
Q 1172 3844 1172 3481 
z
" transform="scale(0.015625)"/>
       </defs>
       <use xlink:href="#DejaVuSans-30"/>
       <use xlink:href="#DejaVuSans-2e" transform="translate(63.623047 0)"/>
       <use xlink:href="#DejaVuSans-38" transform="translate(95.410156 0)"/>
      </g>
     </g>
    </g>
    <g id="ytick_6">
     <g id="line2d_67">
      <path d="M 47.5 14.4 
L 349.2 14.4 
" clip-path="url(#p4380db272f)" style="fill: none; stroke: #b0b0b0; stroke-opacity: 0.3; stroke-width: 0.8; stroke-linecap: square"/>
     </g>
     <g id="line2d_68">
      <g>
       <use xlink:href="#m954afb4b68" x="47.5" y="14.4" style="stroke: #000000; stroke-width: 0.8"/>
      </g>
     </g>
     <g id="text_13">
      <!-- 1.0 -->
      <g transform="translate(25.687188 17.819297) scale(0.09 -0.09)">
       <use xlink:href="#DejaVuSans-31"/>
       <use xlink:href="#DejaVuSans-2e" transform="translate(63.623047 0)"/>
       <use xlink:href="#DejaVuSans-30" transform="translate(95.410156 0)"/>
      </g>
     </g>
    </g>
    <g id="text_14">
     <!-- Differentiation accuracy -->
     <g transform="translate(19.399531 194.853609) rotate(-90) scale(0.11 -0.11)">
      <defs>
       <path id="DejaVuSans-44" d="M 1259 4147 
L 1259 519 
L 2022 519 
Q 2988 519 3436 956 
Q 3884 1394 3884 2338 
Q 3884 3275 3436 3711 
Q 2988 4147 2022 4147 
L 1259 4147 
z
M 628 4666 
L 1925 4666 
Q 3281 4666 3915 4102 
Q 4550 3538 4550 2338 
Q 4550 1131 3912 565 
Q 3275 0 1925 0 
L 628 0 
L 628 4666 
z
" transform="scale(0.015625)"/>
       <path id="DejaVuSans-66" d="M 2375 4863 
L 2375 4384 
L 1825 4384 
Q 1516 4384 1395 4259 
Q 1275 4134 1275 3809 
L 1275 3500 
L 2222 3500 
L 2222 3053 
L 1275 3053 
L 1275 0 
L 697 0 
L 697 3053 
L 147 3053 
L 147 3500 
L 697 3500 
L 697 3744 
Q 697 4328 969 4595 
Q 1241 4863 1831 4863 
L 2375 4863 
z
" transform="scale(0.015625)"/>
       <path id="DejaVuSans-72" d="M 2631 2963 
Q 2534 3019 2420 3045 
Q 2306 3072 2169 3072 
Q 1681 3072 1420 2755 
Q 1159 2438 1159 1844 
L 1159 0 
L 581 0 
L 581 3500 
L 1159 3500 
L 1159 2956 
Q 1341 3275 1631 3429 
Q 1922 3584 2338 3584 
Q 2397 3584 2469 3576 
Q 2541 3569 2628 3553 
L 2631 2963 
z
" transform="scale(0.015625)"/>
       <path id="DejaVuSans-6e" d="M 3513 2113 
L 3513 0 
L 2938 0 
L 2938 2094 
Q 2938 2591 2744 2837 
Q 2550 3084 2163 3084 
Q 1697 3084 1428 2787 
Q 1159 2491 1159 1978 
L 1159 0 
L 581 0 
L 581 3500 
L 1159 3500 
L 1159 2956 
Q 1366 3272 1645 3428 
Q 1925 3584 2291 3584 
Q 2894 3584 3203 3211 
Q 3513 2838 3513 2113 
z
" transform="scale(0.015625)"/>
       <path id="DejaVuSans-6f" d="M 1959 3097 
Q 1497 3097 1228 2736 
Q 959 2375 959 1747 
Q 959 1119 1226 758 
Q 1494 397 1959 397 
Q 2419 397 2687 759 
Q 2956 1122 2956 1747 
Q 2956 2369 2687 2733 
Q 2419 3097 1959 3097 
z
M 1959 3584 
Q 2709 3584 3137 3096 
Q 3566 2609 3566 1747 
Q 3566 888 3137 398 
Q 2709 -91 1959 -91 
Q 1206 -91 779 398 
Q 353 888 353 1747 
Q 353 2609 779 3096 
Q 1206 3584 1959 3584 
z
" transform="scale(0.015625)"/>
       <path id="DejaVuSans-63" d="M 3122 3366 
L 3122 2828 
Q 2878 2963 2633 3030 
Q 2388 3097 2138 3097 
Q 1578 3097 1268 2742 
Q 959 2388 959 1747 
Q 959 1106 1268 751 
Q 1578 397 2138 397 
Q 2388 397 2633 464 
Q 2878 531 3122 666 
L 3122 134 
Q 2881 22 2623 -34 
Q 2366 -91 2075 -91 
Q 1284 -91 818 406 
Q 353 903 353 1747 
Q 353 2603 823 3093 
Q 1294 3584 2113 3584 
Q 2378 3584 2631 3529 
Q 2884 3475 3122 3366 
z
" transform="scale(0.015625)"/>
       <path id="DejaVuSans-75" d="M 544 1381 
L 544 3500 
L 1119 3500 
L 1119 1403 
Q 1119 906 1312 657 
Q 1506 409 1894 409 
Q 2359 409 2629 706 
Q 2900 1003 2900 1516 
L 2900 3500 
L 3475 3500 
L 3475 0 
L 2900 0 
L 2900 538 
Q 2691 219 2414 64 
Q 2138 -91 1772 -91 
Q 1169 -91 856 284 
Q 544 659 544 1381 
z
M 1991 3584 
L 1991 3584 
z
" transform="scale(0.015625)"/>
       <path id="DejaVuSans-79" d="M 2059 -325 
Q 1816 -950 1584 -1140 
Q 1353 -1331 966 -1331 
L 506 -1331 
L 506 -850 
L 844 -850 
Q 1081 -850 1212 -737 
Q 1344 -625 1503 -206 
L 1606 56 
L 191 3500 
L 800 3500 
L 1894 763 
L 2988 3500 
L 3597 3500 
L 2059 -325 
z
" transform="scale(0.015625)"/>
      </defs>
      <use xlink:href="#DejaVuSans-44"/>
      <use xlink:href="#DejaVuSans-69" transform="translate(77.001953 0)"/>
      <use xlink:href="#DejaVuSans-66" transform="translate(104.785156 0)"/>
      <use xlink:href="#DejaVuSans-66" transform="translate(139.990234 0)"/>
      <use xlink:href="#DejaVuSans-65" transform="translate(175.195312 0)"/>
      <use xlink:href="#DejaVuSans-72" transform="translate(236.71875 0)"/>
      <use xlink:href="#DejaVuSans-65" transform="translate(275.582031 0)"/>
      <use xlink:href="#DejaVuSans-6e" transform="translate(337.105469 0)"/>
      <use xlink:href="#DejaVuSans-74" transform="translate(400.484375 0)"/>
      <use xlink:href="#DejaVuSans-69" transform="translate(439.693359 0)"/>
      <use xlink:href="#DejaVuSans-61" transform="translate(467.476562 0)"/>
      <use xlink:href="#DejaVuSans-74" transform="translate(528.755859 0)"/>
      <use xlink:href="#DejaVuSans-69" transform="translate(567.964844 0)"/>
      <use xlink:href="#DejaVuSans-6f" transform="translate(595.748047 0)"/>
      <use xlink:href="#DejaVuSans-6e" transform="translate(656.929688 0)"/>
      <use xlink:href="#DejaVuSans-20" transform="translate(720.308594 0)"/>
      <use xlink:href="#DejaVuSans-61" transform="translate(752.095703 0)"/>
      <use xlink:href="#DejaVuSans-63" transform="translate(813.375 0)"/>
      <use xlink:href="#DejaVuSans-63" transform="translate(868.355469 0)"/>
      <use xlink:href="#DejaVuSans-75" transform="translate(923.335938 0)"/>
      <use xlink:href="#DejaVuSans-72" transform="translate(986.714844 0)"/>
      <use xlink:href="#DejaVuSans-61" transform="translate(1027.828125 0)"/>
      <use xlink:href="#DejaVuSans-63" transform="translate(1089.107422 0)"/>
      <use xlink:href="#DejaVuSans-79" transform="translate(1144.087891 0)"/>
     </g>
    </g>
   </g>
   <g id="line2d_69">
    <path d="M 234.670754 233.80608 
L 218.82733 233.80608 
L 209.55952 217.80772 
L 202.983905 224.66416 
L 197.883461 217.80772 
L 193.716095 208.6658 
L 190.192638 210.95128 
L 187.14048 210.95128 
L 184.448286 208.6658 
L 182.040036 194.95292 
L 179.86151 199.52388 
L 177.87267 178.95456 
L 176.043116 190.38196 
L 174.349213 204.09484 
L 172.772227 181.24004 
L 171.297055 204.09484 
L 169.911344 204.09484 
L 168.604861 172.09812 
L 167.369034 172.09812 
L 166.196611 183.52552 
L 165.081403 185.811 
L 164.018085 192.66744 
L 163.002041 176.66908 
L 162.029246 185.811 
L 161.096168 183.52552 
L 160.199691 158.38524 
L 159.337052 158.38524 
L 158.505788 167.52716 
L 157.703698 169.81264 
L 156.928802 144.67236 
L 156.179317 162.9562 
L 155.45363 151.5288 
L 154.067919 169.81264 
L 153.405344 149.24332 
L 152.761436 149.24332 
L 152.135172 140.1014 
L 151.525609 137.81592 
L 150.931882 144.67236 
L 150.353187 140.1014 
L 149.788782 137.81592 
L 149.237979 151.5288 
L 148.700137 126.38852 
L 148.17466 140.1014 
L 147.660993 140.1014 
L 147.158616 151.5288 
L 146.667043 133.24496 
L 146.185821 142.38688 
L 145.714521 117.2466 
L 145.252743 128.674 
L 144.356266 119.53208 
L 143.920877 121.81756 
L 143.493627 112.67564 
L 142.662363 121.81756 
L 142.2578 96.67728 
L 141.469541 119.53208 
L 141.085377 117.2466 
L 140.707563 126.38852 
L 139.970169 133.24496 
L 139.610205 105.8192 
L 139.255823 110.39016 
L 138.563126 92.10632 
L 138.224494 124.10304 
L 137.56192 105.8192 
L 137.237698 108.10468 
L 136.602734 94.3918 
L 136.291747 92.10632 
L 135.383393 98.96276 
L 134.797278 87.53536 
L 134.225817 105.8192 
L 133.394554 119.53208 
L 132.856712 94.3918 
L 132.331235 94.3918 
L 131.817568 76.10796 
L 131.315191 96.67728 
L 130.823619 87.53536 
L 130.342396 71.537 
L 129.871096 62.39508 
L 129.409318 76.10796 
L 128.956685 69.25152 
L 128.512841 71.537 
L 128.077452 60.1096 
L 126.615762 98.96276 
L 126.016848 87.53536 
L 125.626117 92.10632 
L 125.052265 82.9644 
L 124.677548 105.8192 
L 124.126744 94.3918 
L 123.588902 76.10796 
L 123.237246 73.82248 
L 122.213617 73.82248 
L 121.718495 69.25152 
L 121.233871 80.67892 
L 120.759309 48.6822 
L 120.294401 69.25152 
L 119.83876 64.68056 
L 119.245032 50.96768 
L 118.382393 64.68056 
L 117.824871 55.53864 
L 117.415477 57.82412 
L 116.880781 46.39672 
L 116.358307 55.53864 
L 115.974143 57.82412 
L 115.471766 57.82412 
L 114.980194 62.39508 
L 114.498971 60.1096 
L 114.027671 50.96768 
L 113.565893 64.68056 
L 113.001489 60.1096 
L 112.559789 69.25152 
L 112.126464 55.53864 
L 111.59611 53.25316 
L 111.077783 53.25316 
L 110.671422 73.82248 
L 110.173423 66.96604 
L 109.686044 80.67892 
L 108.741396 76.10796 
L 108.283319 80.67892 
L 107.745477 76.10796 
L 107.306746 64.68056 
L 106.791147 64.68056 
L 105.87507 50.96768 
L 105.390446 60.1096 
L 104.915885 48.6822 
L 104.374402 50.96768 
L 103.92027 50.96768 
L 103.474985 48.6822 
L 102.966218 44.11124 
L 102.468529 41.82576 
L 101.981447 34.96932 
L 101.504527 39.54028 
L 101.037356 37.2548 
L 100.579542 37.2548 
L 99.628341 41.82576 
L 99.136769 41.82576 
L 98.655546 37.2548 
L 98.184246 41.82576 
L 97.665397 37.2548 
L 97.213881 46.39672 
L 96.716364 41.82576 
L 96.229446 41.82576 
L 95.752685 39.54028 
L 95.285665 39.54028 
L 94.827997 41.82576 
L 94.329998 37.2548 
L 93.842619 37.2548 
L 93.365415 41.82576 
L 92.439895 37.2548 
L 91.946393 44.11124 
L 91.463321 39.54028 
L 90.990247 37.2548 
L 90.526767 41.82576 
L 90.031645 39.54028 
L 89.07246 39.54028 
L 88.607551 46.39672 
L 88.114347 41.82576 
L 87.158761 41.82576 
L 86.695543 39.54028 
L 86.206973 41.82576 
L 85.728628 41.82576 
L 84.768516 37.2548 
L 84.287293 46.39672 
L 83.815993 41.82576 
L 83.32376 39.54028 
L 81.907633 39.54028 
L 81.42641 41.82576 
L 80.955111 39.54028 
L 79.988033 39.54028 
L 79.519417 41.82576 
L 79.034974 39.54028 
L 78.560585 41.82576 
L 78.071642 39.54028 
L 77.124056 39.54028 
L 76.641867 41.82576 
L 76.169639 39.54028 
L 75.685171 44.11124 
L 75.210759 39.54028 
L 74.249527 39.54028 
L 73.763615 41.82576 
L 73.287819 41.82576 
L 72.821725 39.54028 
L 71.86175 39.54028 
L 71.387441 41.82576 
L 70.90509 41.82576 
L 70.432708 39.54028 
L 68.523372 39.54028 
L 68.03485 41.82576 
L 67.556551 39.54028 
L 64.223653 39.54028 
L 63.740506 41.82576 
L 63.267361 39.54028 
L 58.488101 39.54028 
L 58.010516 41.82576 
L 57.532855 39.54028 
L 56.101425 39.54028 
L 55.616349 41.82576 
L 55.141353 39.54028 
L 47.50635 39.54028 
L 47.50635 39.54028 
" clip-path="url(#p4380db272f)" style="fill: none; stroke: #1f77b4; stroke-width: 1.5; stroke-linecap: square"/>
   </g>
   <g id="line2d_70">
    <path d="M 234.670754 222.37868 
L 218.82733 213.23676 
L 209.55952 215.52224 
L 202.983905 194.95292 
L 197.883461 188.09648 
L 193.716095 192.66744 
L 190.192638 190.38196 
L 187.14048 181.24004 
L 184.448286 185.811 
L 182.040036 183.52552 
L 179.86151 176.66908 
L 177.87267 149.24332 
L 176.043116 169.81264 
L 174.349213 174.3836 
L 172.772227 160.67072 
L 171.297055 169.81264 
L 169.911344 140.1014 
L 168.604861 156.09976 
L 167.369034 153.81428 
L 166.196611 160.67072 
L 165.081403 162.9562 
L 164.018085 146.95784 
L 163.002041 137.81592 
L 162.029246 140.1014 
L 161.096168 162.9562 
L 160.199691 142.38688 
L 159.337052 130.95948 
L 158.505788 146.95784 
L 157.703698 142.38688 
L 156.179317 137.81592 
L 155.45363 133.24496 
L 154.750275 144.67236 
L 154.067919 128.674 
L 153.405344 135.53044 
L 152.761436 126.38852 
L 152.135172 135.53044 
L 151.525609 114.96112 
L 150.931882 128.674 
L 150.353187 156.09976 
L 149.788782 133.24496 
L 149.237979 133.24496 
L 148.700137 126.38852 
L 148.17466 126.38852 
L 147.660993 121.81756 
L 147.158616 130.95948 
L 146.667043 128.674 
L 146.185821 130.95948 
L 145.714521 126.38852 
L 145.252743 146.95784 
L 143.920877 117.2466 
L 143.493627 121.81756 
L 143.074216 119.53208 
L 142.662363 126.38852 
L 142.2578 130.95948 
L 141.469541 130.95948 
L 141.085377 133.24496 
L 140.707563 121.81756 
L 139.970169 128.674 
L 139.610205 133.24496 
L 139.255823 130.95948 
L 138.563126 142.38688 
L 138.224494 124.10304 
L 137.56192 124.10304 
L 137.237698 121.81756 
L 136.602734 114.96112 
L 136.291747 117.2466 
L 135.682184 112.67564 
L 135.383393 133.24496 
L 134.797278 121.81756 
L 134.225817 121.81756 
L 133.945357 114.96112 
L 133.394554 114.96112 
L 132.856712 119.53208 
L 132.331235 128.674 
L 131.817568 124.10304 
L 131.315191 124.10304 
L 130.823619 126.38852 
L 130.342396 124.10304 
L 129.871096 117.2466 
L 129.409318 149.24332 
L 128.956685 121.81756 
L 128.077452 121.81756 
L 127.439535 124.10304 
L 126.615762 110.39016 
L 126.016848 121.81756 
L 125.626117 114.96112 
L 125.052265 121.81756 
L 124.677548 119.53208 
L 124.126744 119.53208 
L 123.588902 121.81756 
L 123.237246 126.38852 
L 122.719701 119.53208 
L 122.213617 119.53208 
L 121.718495 124.10304 
L 121.233871 124.10304 
L 120.759309 119.53208 
L 120.294401 121.81756 
L 119.83876 117.2466 
L 119.245032 117.2466 
L 118.382393 121.81756 
L 117.824871 119.53208 
L 117.415477 121.81756 
L 116.880781 121.81756 
L 116.358307 117.2466 
L 115.974143 119.53208 
L 115.471766 124.10304 
L 114.980194 121.81756 
L 114.498971 126.38852 
L 114.027671 121.81756 
L 113.565893 146.95784 
L 113.001489 119.53208 
L 112.559789 119.53208 
L 112.126464 114.96112 
L 111.59611 119.53208 
L 110.671422 119.53208 
L 110.173423 121.81756 
L 109.686044 119.53208 
L 109.20884 119.53208 
L 108.741396 124.10304 
L 107.745477 119.53208 
L 107.306746 119.53208 
L 106.791147 114.96112 
L 106.286923 119.53208 
L 105.390446 124.10304 
L 104.915885 119.53208 
L 104.374402 117.2466 
L 103.92027 119.53208 
L 102.966218 119.53208 
L 102.468529 121.81756 
L 101.981447 121.81756 
L 101.504527 119.53208 
L 101.037356 121.81756 
L 100.579542 121.81756 
L 100.067314 119.53208 
L 99.628341 121.81756 
L 99.136769 117.2466 
L 98.655546 119.53208 
L 98.184246 124.10304 
L 97.665397 126.38852 
L 97.213881 119.53208 
L 96.716364 121.81756 
L 95.752685 121.81756 
L 95.285665 119.53208 
L 93.842619 119.53208 
L 93.365415 121.81756 
L 92.897971 117.2466 
L 92.439895 117.2466 
L 91.946393 121.81756 
L 91.463321 121.81756 
L 90.990247 119.53208 
L 90.031645 119.53208 
L 89.547021 117.2466 
L 89.07246 119.53208 
L 88.607551 117.2466 
L 88.114347 121.81756 
L 87.63156 119.53208 
L 87.158761 121.81756 
L 86.206973 121.81756 
L 85.728628 119.53208 
L 84.768516 119.53208 
L 84.287293 121.81756 
L 83.32376 121.81756 
L 82.841903 119.53208 
L 81.907633 124.10304 
L 81.42641 119.53208 
L 80.955111 119.53208 
L 80.466458 121.81756 
L 77.592939 121.81756 
L 77.124056 119.53208 
L 76.169639 119.53208 
L 75.685171 121.81756 
L 73.763615 121.81756 
L 73.287819 119.53208 
L 72.821725 121.81756 
L 71.86175 121.81756 
L 71.387441 119.53208 
L 70.90509 121.81756 
L 57.055326 121.81756 
L 56.578122 124.10304 
L 56.101425 121.81756 
L 53.714461 121.81756 
L 53.23619 124.10304 
L 52.751737 121.81756 
L 47.50635 121.81756 
L 47.50635 121.81756 
" clip-path="url(#p4380db272f)" style="fill: none; stroke: #ff7f0e; stroke-width: 1.5; stroke-linecap: square"/>
   </g>
   <g id="line2d_71">
    <path d="M 162.029246 135.53044 
L 226.788656 135.53044 
L 228.095139 140.1014 
L 229.330966 135.53044 
L 236.500309 135.53044 
L 237.362948 137.81592 
L 238.194212 135.53044 
L 238.996302 137.81592 
L 239.771198 135.53044 
L 240.520683 137.81592 
L 241.949725 137.81592 
L 242.632081 135.53044 
L 243.294656 135.53044 
L 243.938564 140.1014 
L 244.564828 137.81592 
L 245.768118 137.81592 
L 246.346813 135.53044 
L 246.911218 135.53044 
L 247.462021 137.81592 
L 247.999863 135.53044 
L 248.52534 135.53044 
L 249.039007 137.81592 
L 250.032957 137.81592 
L 250.514179 135.53044 
L 250.985479 137.81592 
L 252.343734 137.81592 
L 252.779123 135.53044 
L 253.206373 140.1014 
L 253.625784 137.81592 
L 255.230459 137.81592 
L 255.614623 135.53044 
L 255.992437 137.81592 
L 257.79315 137.81592 
L 258.136874 135.53044 
L 258.475506 137.81592 
L 258.809194 135.53044 
L 259.13808 137.81592 
L 259.462302 135.53044 
L 259.781989 137.81592 
L 263.305446 137.81592 
L 263.575949 135.53044 
L 263.843288 140.1014 
L 264.368765 140.1014 
L 264.627042 137.81592 
L 264.882432 140.1014 
L 265.135001 135.53044 
L 265.384809 137.81592 
L 266.118259 137.81592 
L 266.357604 135.53044 
L 266.594469 137.81592 
L 267.060959 137.81592 
L 267.290682 135.53044 
L 267.743315 135.53044 
L 267.966314 137.81592 
L 268.40589 137.81592 
L 268.622548 133.24496 
L 268.837171 133.24496 
L 269.049798 135.53044 
L 269.260465 133.24496 
L 269.469209 137.81592 
L 269.676063 135.53044 
L 270.084238 137.81592 
L 270.285625 140.1014 
L 270.485253 137.81592 
L 270.879353 142.38688 
L 271.073883 142.38688 
L 271.266773 135.53044 
L 271.458048 135.53044 
L 271.647735 137.81592 
L 271.835862 133.24496 
L 272.022452 135.53044 
L 272.207532 135.53044 
L 272.573256 142.38688 
L 272.753946 142.38688 
L 272.933219 144.67236 
L 273.111098 144.67236 
L 273.287602 137.81592 
L 273.462754 137.81592 
L 273.809083 135.53044 
L 273.980299 140.1014 
L 274.31893 135.53044 
L 274.652619 137.81592 
L 274.817653 133.24496 
L 274.981505 133.24496 
L 275.144191 135.53044 
L 275.466129 133.24496 
L 275.625413 133.24496 
L 275.783596 135.53044 
L 276.251678 135.53044 
L 276.405599 137.81592 
L 276.710367 135.53044 
L 276.86124 137.81592 
L 277.160032 133.24496 
L 277.307976 133.24496 
L 277.454968 137.81592 
L 277.746147 140.1014 
L 277.890357 142.38688 
L 278.176076 137.81592 
L 278.317607 137.81592 
L 278.598068 142.38688 
L 278.737018 142.38688 
L 279.148871 133.24496 
L 279.553434 140.1014 
L 279.819219 137.81592 
L 279.950961 137.81592 
L 280.21219 144.67236 
L 280.598518 135.53044 
L 280.85249 137.81592 
L 281.719806 137.81592 
L 281.841065 140.1014 
L 282.08167 142.38688 
L 282.319768 137.81592 
L 283.809739 137.81592 
L 284.140211 133.24496 
L 284.3579 130.95948 
L 284.787157 135.53044 
L 284.998799 140.1014 
L 285.2085 140.1014 
L 285.416294 137.81592 
L 285.826301 142.38688 
L 286.229082 137.81592 
L 286.526577 142.38688 
L 287.110197 142.38688 
L 287.301472 144.67236 
L 287.772772 140.1014 
L 288.142938 146.95784 
L 288.325797 144.67236 
L 288.597371 149.24332 
L 288.776644 149.24332 
L 289.218771 144.67236 
L 289.393254 146.95784 
L 289.652507 146.95784 
L 289.993666 135.53044 
L 290.246235 140.1014 
L 290.413077 137.81592 
L 290.661078 142.38688 
L 291.068526 137.81592 
L 291.309554 137.81592 
L 291.468838 142.38688 
L 291.940138 142.38688 
L 292.095103 146.95784 
L 292.325598 142.38688 
L 292.704665 142.38688 
L 292.929124 135.53044 
L 293.371536 142.38688 
L 293.589572 142.38688 
L 293.805547 137.81592 
L 294.231471 142.38688 
L 294.441493 146.95784 
L 294.649602 140.1014 
L 294.855834 142.38688 
L 295.060222 140.1014 
L 295.262799 140.1014 
L 295.463596 149.24332 
L 295.662644 149.24332 
L 296.055615 153.81428 
L 296.313891 153.81428 
L 296.505701 149.24332 
L 296.695915 156.09976 
L 296.884559 153.81428 
L 297.133687 153.81428 
L 297.318766 142.38688 
L 297.744879 142.38688 
L 297.925095 149.24332 
L 298.163193 146.95784 
L 298.398837 153.81428 
L 298.573989 151.5288 
L 298.805456 153.81428 
L 298.977531 153.81428 
L 299.204968 151.5288 
L 299.430165 146.95784 
L 299.597618 149.24332 
L 299.818997 149.24332 
L 300.038253 146.95784 
L 300.255425 146.95784 
L 300.683676 153.81428 
L 300.89483 162.9562 
L 301.104051 151.5288 
L 301.516834 151.5288 
L 301.720463 153.81428 
L 301.922294 149.24332 
L 302.122359 151.5288 
L 302.320687 151.5288 
L 302.51731 153.81428 
L 302.760733 153.81428 
L 302.953622 156.09976 
L 303.144897 149.24332 
L 303.381762 146.95784 
L 303.569502 149.24332 
L 303.802029 153.81428 
L 303.986363 153.81428 
L 304.214709 151.5288 
L 304.395757 153.81428 
L 304.620069 165.24168 
L 304.842201 158.38524 
L 305.018366 162.9562 
L 305.236679 160.67072 
L 305.452927 160.67072 
L 305.87938 153.81428 
L 306.08966 151.5288 
L 306.298023 153.81428 
L 306.504503 153.81428 
L 306.709135 156.09976 
L 307.112984 156.09976 
L 307.351911 153.81428 
L 307.549128 160.67072 
L 307.938528 165.24168 
L 308.359342 149.24332 
L 308.772549 153.81428 
L 309.214961 153.81428 
L 309.432997 156.09976 
L 309.613118 156.09976 
L 309.827406 160.67072 
L 310.039703 158.38524 
L 310.250048 158.38524 
L 310.458474 160.67072 
L 310.665016 153.81428 
L 310.869709 151.5288 
L 311.307021 156.09976 
L 311.506069 165.24168 
L 311.703399 160.67072 
L 311.931484 167.52716 
L 312.125191 162.9562 
L 312.317269 169.81264 
L 312.759274 162.9562 
L 312.946119 160.67072 
L 313.162191 149.24332 
L 313.37624 146.95784 
L 313.588304 146.95784 
L 314.006618 158.38524 
L 314.212938 167.52716 
L 314.417413 162.9562 
L 315.048393 162.9562 
L 315.245561 169.81264 
L 315.468832 169.81264 
L 315.662422 172.09812 
L 315.881677 169.81264 
L 316.071816 165.24168 
L 316.287198 165.24168 
L 316.500569 169.81264 
L 316.711967 162.9562 
L 317.128986 162.9562 
L 317.334677 165.24168 
L 317.740587 149.24332 
L 317.965784 156.09976 
L 318.164112 158.38524 
L 318.385194 158.38524 
L 318.579932 162.9562 
L 318.988322 158.38524 
L 319.20161 167.52716 
L 319.412927 165.24168 
L 319.622308 167.52716 
L 319.829788 160.67072 
L 320.035401 160.67072 
L 320.239182 158.38524 
L 320.463494 167.52716 
L 320.883716 172.09812 
L 321.080104 169.81264 
L 321.296352 178.95456 
L 322.327364 153.81428 
L 322.532179 160.67072 
L 322.755376 162.9562 
L 322.956408 172.09812 
L 323.155688 169.81264 
L 323.372907 181.24004 
L 323.588082 185.811 
L 323.781953 185.811 
L 324.202767 174.3836 
L 324.410304 176.66908 
L 324.615974 172.09812 
L 325.240226 183.52552 
L 325.456542 183.52552 
L 325.670831 181.24004 
L 325.865512 185.811 
L 326.076017 183.52552 
L 326.284602 176.66908 
L 326.713134 172.09812 
L 326.91601 167.52716 
L 327.117102 169.81264 
L 327.742464 181.24004 
L 327.952536 181.24004 
L 328.366974 167.52716 
L 328.587059 162.9562 
L 329.204442 162.9562 
L 329.626898 153.81428 
L 330.041688 162.9562 
L 330.246293 156.09976 
L 330.449084 156.09976 
L 330.664381 158.38524 
L 330.877669 158.38524 
L 331.284467 169.81264 
L 331.69781 174.3836 
L 331.915241 167.52716 
L 332.330716 181.24004 
L 332.751817 167.52716 
L 332.959494 178.95456 
L 333.1653 174.3836 
L 333.584012 174.3836 
L 333.784296 165.24168 
L 333.995192 167.52716 
L 334.20416 167.52716 
L 334.411234 176.66908 
L 334.61645 176.66908 
L 335.033238 183.52552 
L 335.244663 185.811 
L 335.45415 183.52552 
L 335.661735 176.66908 
L 335.867452 178.95456 
L 336.082607 176.66908 
L 336.284586 183.52552 
L 336.705216 176.66908 
L 336.912663 174.3836 
L 337.534521 188.09648 
L 337.745091 188.09648 
L 337.953739 190.38196 
L 338.5786 178.95456 
L 338.789823 181.24004 
L 338.98919 178.95456 
L 339.19667 181.24004 
L 339.412029 178.95456 
L 339.827187 185.811 
L 340.036714 185.811 
L 340.244336 183.52552 
L 340.45009 178.95456 
L 340.663234 185.811 
L 340.865268 181.24004 
L 341.074593 181.24004 
L 341.282019 188.09648 
L 341.496475 190.38196 
L 341.700124 188.09648 
L 341.91071 192.66744 
L 342.119374 188.09648 
L 342.32615 188.09648 
L 342.531072 183.52552 
L 342.742597 183.52552 
L 343.159864 192.66744 
L 343.365675 181.24004 
L 343.577771 192.66744 
L 343.77987 190.38196 
L 343.988174 185.811 
L 344.407004 185.811 
L 345.032634 169.81264 
L 345.237429 172.09812 
L 345.447888 178.95456 
L 345.656428 190.38196 
L 346.075164 181.24004 
L 346.486367 181.24004 
L 346.699855 188.09648 
L 347.113985 181.24004 
L 347.321716 190.38196 
L 347.534407 190.38196 
L 347.738369 188.09648 
L 347.947236 188.09648 
L 348.365914 178.95456 
L 348.783529 197.2384 
L 348.989509 206.38032 
L 349.2 185.811 
L 349.2 185.811 
" clip-path="url(#p4380db272f)" style="fill: none; stroke: #a9a9a9; stroke-width: 1.5; stroke-linecap: square"/>
   </g>
   <g id="patch_3">
    <path d="M 47.5 242.948 
L 47.5 14.4 
" style="fill: none; stroke: #000000; stroke-width: 0.8; stroke-linejoin: miter; stroke-linecap: square"/>
   </g>
   <g id="patch_4">
    <path d="M 47.5 242.948 
L 349.2 242.948 
" style="fill: none; stroke: #000000; stroke-width: 0.8; stroke-linejoin: miter; stroke-linecap: square"/>
   </g>
   <g id="legend_1">
    <g id="line2d_72">
     <path d="M 166.853125 27.498438 
L 176.853125 27.498438 
L 186.853125 27.498438 
" style="fill: none; stroke: #1f77b4; stroke-width: 1.5; stroke-linecap: square"/>
    </g>
    <g id="text_15">
     <!-- Autoencoder -->
     <g transform="translate(194.853125 30.998438) scale(0.1 -0.1)">
      <defs>
       <path id="DejaVuSans-41" d="M 2188 4044 
L 1331 1722 
L 3047 1722 
L 2188 4044 
z
M 1831 4666 
L 2547 4666 
L 4325 0 
L 3669 0 
L 3244 1197 
L 1141 1197 
L 716 0 
L 50 0 
L 1831 4666 
z
" transform="scale(0.015625)"/>
       <path id="DejaVuSans-64" d="M 2906 2969 
L 2906 4863 
L 3481 4863 
L 3481 0 
L 2906 0 
L 2906 525 
Q 2725 213 2448 61 
Q 2172 -91 1784 -91 
Q 1150 -91 751 415 
Q 353 922 353 1747 
Q 353 2572 751 3078 
Q 1150 3584 1784 3584 
Q 2172 3584 2448 3432 
Q 2725 3281 2906 2969 
z
M 947 1747 
Q 947 1113 1208 752 
Q 1469 391 1925 391 
Q 2381 391 2643 752 
Q 2906 1113 2906 1747 
Q 2906 2381 2643 2742 
Q 2381 3103 1925 3103 
Q 1469 3103 1208 2742 
Q 947 2381 947 1747 
z
" transform="scale(0.015625)"/>
      </defs>
      <use xlink:href="#DejaVuSans-41"/>
      <use xlink:href="#DejaVuSans-75" transform="translate(68.408203 0)"/>
      <use xlink:href="#DejaVuSans-74" transform="translate(131.787109 0)"/>
      <use xlink:href="#DejaVuSans-6f" transform="translate(170.996094 0)"/>
      <use xlink:href="#DejaVuSans-65" transform="translate(232.177734 0)"/>
      <use xlink:href="#DejaVuSans-6e" transform="translate(293.701172 0)"/>
      <use xlink:href="#DejaVuSans-63" transform="translate(357.080078 0)"/>
      <use xlink:href="#DejaVuSans-6f" transform="translate(412.060547 0)"/>
      <use xlink:href="#DejaVuSans-64" transform="translate(473.242188 0)"/>
      <use xlink:href="#DejaVuSans-65" transform="translate(536.71875 0)"/>
      <use xlink:href="#DejaVuSans-72" transform="translate(598.242188 0)"/>
     </g>
    </g>
    <g id="line2d_73">
     <path d="M 166.853125 42.176563 
L 176.853125 42.176563 
L 186.853125 42.176563 
" style="fill: none; stroke: #ff7f0e; stroke-width: 1.5; stroke-linecap: square"/>
    </g>
    <g id="text_16">
     <!-- Encoder (Cosine Embedding) -->
     <g transform="translate(194.853125 45.676563) scale(0.1 -0.1)">
      <defs>
       <path id="DejaVuSans-45" d="M 628 4666 
L 3578 4666 
L 3578 4134 
L 1259 4134 
L 1259 2753 
L 3481 2753 
L 3481 2222 
L 1259 2222 
L 1259 531 
L 3634 531 
L 3634 0 
L 628 0 
L 628 4666 
z
" transform="scale(0.015625)"/>
       <path id="DejaVuSans-43" d="M 4122 4306 
L 4122 3641 
Q 3803 3938 3442 4084 
Q 3081 4231 2675 4231 
Q 1875 4231 1450 3742 
Q 1025 3253 1025 2328 
Q 1025 1406 1450 917 
Q 1875 428 2675 428 
Q 3081 428 3442 575 
Q 3803 722 4122 1019 
L 4122 359 
Q 3791 134 3420 21 
Q 3050 -91 2638 -91 
Q 1578 -91 968 557 
Q 359 1206 359 2328 
Q 359 3453 968 4101 
Q 1578 4750 2638 4750 
Q 3056 4750 3426 4639 
Q 3797 4528 4122 4306 
z
" transform="scale(0.015625)"/>
       <path id="DejaVuSans-62" d="M 3116 1747 
Q 3116 2381 2855 2742 
Q 2594 3103 2138 3103 
Q 1681 3103 1420 2742 
Q 1159 2381 1159 1747 
Q 1159 1113 1420 752 
Q 1681 391 2138 391 
Q 2594 391 2855 752 
Q 3116 1113 3116 1747 
z
M 1159 2969 
Q 1341 3281 1617 3432 
Q 1894 3584 2278 3584 
Q 2916 3584 3314 3078 
Q 3713 2572 3713 1747 
Q 3713 922 3314 415 
Q 2916 -91 2278 -91 
Q 1894 -91 1617 61 
Q 1341 213 1159 525 
L 1159 0 
L 581 0 
L 581 4863 
L 1159 4863 
L 1159 2969 
z
" transform="scale(0.015625)"/>
       <path id="DejaVuSans-67" d="M 2906 1791 
Q 2906 2416 2648 2759 
Q 2391 3103 1925 3103 
Q 1463 3103 1205 2759 
Q 947 2416 947 1791 
Q 947 1169 1205 825 
Q 1463 481 1925 481 
Q 2391 481 2648 825 
Q 2906 1169 2906 1791 
z
M 3481 434 
Q 3481 -459 3084 -895 
Q 2688 -1331 1869 -1331 
Q 1566 -1331 1297 -1286 
Q 1028 -1241 775 -1147 
L 775 -588 
Q 1028 -725 1275 -790 
Q 1522 -856 1778 -856 
Q 2344 -856 2625 -561 
Q 2906 -266 2906 331 
L 2906 616 
Q 2728 306 2450 153 
Q 2172 0 1784 0 
Q 1141 0 747 490 
Q 353 981 353 1791 
Q 353 2603 747 3093 
Q 1141 3584 1784 3584 
Q 2172 3584 2450 3431 
Q 2728 3278 2906 2969 
L 2906 3500 
L 3481 3500 
L 3481 434 
z
" transform="scale(0.015625)"/>
      </defs>
      <use xlink:href="#DejaVuSans-45"/>
      <use xlink:href="#DejaVuSans-6e" transform="translate(63.183594 0)"/>
      <use xlink:href="#DejaVuSans-63" transform="translate(126.5625 0)"/>
      <use xlink:href="#DejaVuSans-6f" transform="translate(181.542969 0)"/>
      <use xlink:href="#DejaVuSans-64" transform="translate(242.724609 0)"/>
      <use xlink:href="#DejaVuSans-65" transform="translate(306.201172 0)"/>
      <use xlink:href="#DejaVuSans-72" transform="translate(367.724609 0)"/>
      <use xlink:href="#DejaVuSans-20" transform="translate(408.837891 0)"/>
      <use xlink:href="#DejaVuSans-28" transform="translate(440.625 0)"/>
      <use xlink:href="#DejaVuSans-43" transform="translate(479.638672 0)"/>
      <use xlink:href="#DejaVuSans-6f" transform="translate(549.462891 0)"/>
      <use xlink:href="#DejaVuSans-73" transform="translate(610.644531 0)"/>
      <use xlink:href="#DejaVuSans-69" transform="translate(662.744141 0)"/>
      <use xlink:href="#DejaVuSans-6e" transform="translate(690.527344 0)"/>
      <use xlink:href="#DejaVuSans-65" transform="translate(753.90625 0)"/>
      <use xlink:href="#DejaVuSans-20" transform="translate(815.429688 0)"/>
      <use xlink:href="#DejaVuSans-45" transform="translate(847.216797 0)"/>
      <use xlink:href="#DejaVuSans-6d" transform="translate(910.400391 0)"/>
      <use xlink:href="#DejaVuSans-62" transform="translate(1007.8125 0)"/>
      <use xlink:href="#DejaVuSans-65" transform="translate(1071.289062 0)"/>
      <use xlink:href="#DejaVuSans-64" transform="translate(1132.8125 0)"/>
      <use xlink:href="#DejaVuSans-64" transform="translate(1196.289062 0)"/>
      <use xlink:href="#DejaVuSans-69" transform="translate(1259.765625 0)"/>
      <use xlink:href="#DejaVuSans-6e" transform="translate(1287.548828 0)"/>
      <use xlink:href="#DejaVuSans-67" transform="translate(1350.927734 0)"/>
      <use xlink:href="#DejaVuSans-29" transform="translate(1414.404297 0)"/>
     </g>
    </g>
    <g id="line2d_74">
     <path d="M 166.853125 56.854688 
L 176.853125 56.854688 
L 186.853125 56.854688 
" style="fill: none; stroke: #a9a9a9; stroke-width: 1.5; stroke-linecap: square"/>
    </g>
    <g id="text_17">
     <!-- Encoder (Cross-Entropy) -->
     <g transform="translate(194.853125 60.354688) scale(0.1 -0.1)">
      <defs>
       <path id="DejaVuSans-2d" d="M 313 2009 
L 1997 2009 
L 1997 1497 
L 313 1497 
L 313 2009 
z
" transform="scale(0.015625)"/>
      </defs>
      <use xlink:href="#DejaVuSans-45"/>
      <use xlink:href="#DejaVuSans-6e" transform="translate(63.183594 0)"/>
      <use xlink:href="#DejaVuSans-63" transform="translate(126.5625 0)"/>
      <use xlink:href="#DejaVuSans-6f" transform="translate(181.542969 0)"/>
      <use xlink:href="#DejaVuSans-64" transform="translate(242.724609 0)"/>
      <use xlink:href="#DejaVuSans-65" transform="translate(306.201172 0)"/>
      <use xlink:href="#DejaVuSans-72" transform="translate(367.724609 0)"/>
      <use xlink:href="#DejaVuSans-20" transform="translate(408.837891 0)"/>
      <use xlink:href="#DejaVuSans-28" transform="translate(440.625 0)"/>
      <use xlink:href="#DejaVuSans-43" transform="translate(479.638672 0)"/>
      <use xlink:href="#DejaVuSans-72" transform="translate(549.462891 0)"/>
      <use xlink:href="#DejaVuSans-6f" transform="translate(588.326172 0)"/>
      <use xlink:href="#DejaVuSans-73" transform="translate(649.507812 0)"/>
      <use xlink:href="#DejaVuSans-73" transform="translate(701.607422 0)"/>
      <use xlink:href="#DejaVuSans-2d" transform="translate(753.707031 0)"/>
      <use xlink:href="#DejaVuSans-45" transform="translate(789.791016 0)"/>
      <use xlink:href="#DejaVuSans-6e" transform="translate(852.974609 0)"/>
      <use xlink:href="#DejaVuSans-74" transform="translate(916.353516 0)"/>
      <use xlink:href="#DejaVuSans-72" transform="translate(955.5625 0)"/>
      <use xlink:href="#DejaVuSans-6f" transform="translate(994.425781 0)"/>
      <use xlink:href="#DejaVuSans-70" transform="translate(1055.607422 0)"/>
      <use xlink:href="#DejaVuSans-79" transform="translate(1119.083984 0)"/>
      <use xlink:href="#DejaVuSans-29" transform="translate(1178.263672 0)"/>
     </g>
    </g>
   </g>
  </g>
 </g>
 <defs>
  <clipPath id="p4380db272f">
   <rect x="47.5" y="14.4" width="301.7" height="228.548"/>
  </clipPath>
 </defs>
</svg>
