<?xml version="1.0" encoding="utf-8" standalone="no"?>
<!DOCTYPE svg PUBLIC "-//W3C//DTD SVG 1.1//EN"
  "http://www.w3.org/Graphics/SVG/1.1/DTD/svg11.dtd">
<svg xmlns:xlink="http://www.w3.org/1999/xlink" width="378pt" height="378pt" viewBox="0 0 378 378" xmlns="http://www.w3.org/2000/svg" version="1.1">
 <metadata>
  <rdf:RDF xmlns:dc="http://purl.org/dc/elements/1.1/" xmlns:cc="http://creativecommons.org/ns#" xmlns:rdf="http://www.w3.org/1999/02/22-rdf-syntax-ns#">
   <cc:Work>
    <dc:type rdf:resource="http://purl.org/dc/dcmitype/StillImage"/>
    <dc:date>2026-01-02T18:30:39.540688</dc:date>
    <dc:format>image/svg+xml</dc:format>
    <dc:creator>
     <cc:Agent>
      <dc:title>Matplotlib v3.10.3, https://matplotlib.org/</dc:title>
     </cc:Agent>
    </dc:creator>
   </cc:Work>
  </rdf:RDF>
 </metadata>
 <defs>
  <style type="text/css">*{stroke-linejoin: round; stroke-linecap: butt}</style>
 </defs>
 <g id="figure_1">
  <g id="patch_1">
   <path d="M 0 378 
L 378 378 
L 378 0 
L 0 0 
z
" style="fill: #ffffff"/>
  </g>
  <g id="axes_1">
   <g id="patch_2">
    <path d="M 47.5 335.54 
L 360.045 335.54 
L 360.045 14.4 
L 47.5 14.4 
z
" style="fill: #ffffff"/>
   </g>
   <g id="matplotlib.axis_1">
    <g id="xtick_1">
     <g id="line2d_1">
      <path d="M 47.5 335.54 
L 47.5 14.4 
" clip-path="url(#p784f683690)" style="fill: none; stroke: #b0b0b0; stroke-opacity: 0.3; stroke-width: 0.8; stroke-linecap: square"/>
     </g>
     <g id="line2d_2">
      <defs>
       <path id="m144e748da1" d="M 0 0 
L 0 4 
" style="stroke: #000000; stroke-width: 0.8"/>
      </defs>
      <g>
       <use xlink:href="#m144e748da1" x="47.5" y="335.54" style="stroke: #000000; stroke-width: 0.8"/>
      </g>
     </g>
     <g id="text_1">
      <!-- 0.0 -->
      <g transform="translate(40.343594 349.878594) scale(0.09 -0.09)">
       <defs>
        <path id="DejaVuSans-30" d="M 2034 4250 
Q 1547 4250 1301 3770 
Q 1056 3291 1056 2328 
Q 1056 1369 1301 889 
Q 1547 409 2034 409 
Q 2525 409 2770 889 
Q 3016 1369 3016 2328 
Q 3016 3291 2770 3770 
Q 2525 4250 2034 4250 
z
M 2034 4750 
Q 2819 4750 3233 4129 
Q 3647 3509 3647 2328 
Q 3647 1150 3233 529 
Q 2819 -91 2034 -91 
Q 1250 -91 836 529 
Q 422 1150 422 2328 
Q 422 3509 836 4129 
Q 1250 4750 2034 4750 
z
" transform="scale(0.015625)"/>
        <path id="DejaVuSans-2e" d="M 684 794 
L 1344 794 
L 1344 0 
L 684 0 
L 684 794 
z
" transform="scale(0.015625)"/>
       </defs>
       <use xlink:href="#DejaVuSans-30"/>
       <use xlink:href="#DejaVuSans-2e" transform="translate(63.623047 0)"/>
       <use xlink:href="#DejaVuSans-30" transform="translate(95.410156 0)"/>
      </g>
     </g>
    </g>
    <g id="xtick_2">
     <g id="line2d_3">
      <path d="M 110.009 335.54 
L 110.009 14.4 
" clip-path="url(#p784f683690)" style="fill: none; stroke: #b0b0b0; stroke-opacity: 0.3; stroke-width: 0.8; stroke-linecap: square"/>
     </g>
     <g id="line2d_4">
      <g>
       <use xlink:href="#m144e748da1" x="110.009" y="335.54" style="stroke: #000000; stroke-width: 0.8"/>
      </g>
     </g>
     <g id="text_2">
      <!-- 0.5 -->
      <g transform="translate(102.852594 349.878594) scale(0.09 -0.09)">
       <defs>
        <path id="DejaVuSans-35" d="M 691 4666 
L 3169 4666 
L 3169 4134 
L 1269 4134 
L 1269 2991 
Q 1406 3038 1543 3061 
Q 1681 3084 1819 3084 
Q 2600 3084 3056 2656 
Q 3513 2228 3513 1497 
Q 3513 744 3044 326 
Q 2575 -91 1722 -91 
Q 1428 -91 1123 -41 
Q 819 9 494 109 
L 494 744 
Q 775 591 1075 516 
Q 1375 441 1709 441 
Q 2250 441 2565 725 
Q 2881 1009 2881 1497 
Q 2881 1984 2565 2268 
Q 2250 2553 1709 2553 
Q 1456 2553 1204 2497 
Q 953 2441 691 2322 
L 691 4666 
z
" transform="scale(0.015625)"/>
       </defs>
       <use xlink:href="#DejaVuSans-30"/>
       <use xlink:href="#DejaVuSans-2e" transform="translate(63.623047 0)"/>
       <use xlink:href="#DejaVuSans-35" transform="translate(95.410156 0)"/>
      </g>
     </g>
    </g>
    <g id="xtick_3">
     <g id="line2d_5">
      <path d="M 172.518 335.54 
L 172.518 14.4 
" clip-path="url(#p784f683690)" style="fill: none; stroke: #b0b0b0; stroke-opacity: 0.3; stroke-width: 0.8; stroke-linecap: square"/>
     </g>
     <g id="line2d_6">
      <g>
       <use xlink:href="#m144e748da1" x="172.518" y="335.54" style="stroke: #000000; stroke-width: 0.8"/>
      </g>
     </g>
     <g id="text_3">
      <!-- 1.0 -->
      <g transform="translate(165.361594 349.878594) scale(0.09 -0.09)">
       <defs>
        <path id="DejaVuSans-31" d="M 794 531 
L 1825 531 
L 1825 4091 
L 703 3866 
L 703 4441 
L 1819 4666 
L 2450 4666 
L 2450 531 
L 3481 531 
L 3481 0 
L 794 0 
L 794 531 
z
" transform="scale(0.015625)"/>
       </defs>
       <use xlink:href="#DejaVuSans-31"/>
       <use xlink:href="#DejaVuSans-2e" transform="translate(63.623047 0)"/>
       <use xlink:href="#DejaVuSans-30" transform="translate(95.410156 0)"/>
      </g>
     </g>
    </g>
    <g id="xtick_4">
     <g id="line2d_7">
      <path d="M 235.027 335.54 
L 235.027 14.4 
" clip-path="url(#p784f683690)" style="fill: none; stroke: #b0b0b0; stroke-opacity: 0.3; stroke-width: 0.8; stroke-linecap: square"/>
     </g>
     <g id="line2d_8">
      <g>
       <use xlink:href="#m144e748da1" x="235.027" y="335.54" style="stroke: #000000; stroke-width: 0.8"/>
      </g>
     </g>
     <g id="text_4">
      <!-- 1.5 -->
      <g transform="translate(227.870594 349.878594) scale(0.09 -0.09)">
       <use xlink:href="#DejaVuSans-31"/>
       <use xlink:href="#DejaVuSans-2e" transform="translate(63.623047 0)"/>
       <use xlink:href="#DejaVuSans-35" transform="translate(95.410156 0)"/>
      </g>
     </g>
    </g>
    <g id="xtick_5">
     <g id="line2d_9">
      <path d="M 297.536 335.54 
L 297.536 14.4 
" clip-path="url(#p784f683690)" style="fill: none; stroke: #b0b0b0; stroke-opacity: 0.3; stroke-width: 0.8; stroke-linecap: square"/>
     </g>
     <g id="line2d_10">
      <g>
       <use xlink:href="#m144e748da1" x="297.536" y="335.54" style="stroke: #000000; stroke-width: 0.8"/>
      </g>
     </g>
     <g id="text_5">
      <!-- 2.0 -->
      <g transform="translate(290.379594 349.878594) scale(0.09 -0.09)">
       <defs>
        <path id="DejaVuSans-32" d="M 1228 531 
L 3431 531 
L 3431 0 
L 469 0 
L 469 531 
Q 828 903 1448 1529 
Q 2069 2156 2228 2338 
Q 2531 2678 2651 2914 
Q 2772 3150 2772 3378 
Q 2772 3750 2511 3984 
Q 2250 4219 1831 4219 
Q 1534 4219 1204 4116 
Q 875 4013 500 3803 
L 500 4441 
Q 881 4594 1212 4672 
Q 1544 4750 1819 4750 
Q 2544 4750 2975 4387 
Q 3406 4025 3406 3419 
Q 3406 3131 3298 2873 
Q 3191 2616 2906 2266 
Q 2828 2175 2409 1742 
Q 1991 1309 1228 531 
z
" transform="scale(0.015625)"/>
       </defs>
       <use xlink:href="#DejaVuSans-32"/>
       <use xlink:href="#DejaVuSans-2e" transform="translate(63.623047 0)"/>
       <use xlink:href="#DejaVuSans-30" transform="translate(95.410156 0)"/>
      </g>
     </g>
    </g>
    <g id="xtick_6">
     <g id="line2d_11">
      <path d="M 360.045 335.54 
L 360.045 14.4 
" clip-path="url(#p784f683690)" style="fill: none; stroke: #b0b0b0; stroke-opacity: 0.3; stroke-width: 0.8; stroke-linecap: square"/>
     </g>
     <g id="line2d_12">
      <g>
       <use xlink:href="#m144e748da1" x="360.045" y="335.54" style="stroke: #000000; stroke-width: 0.8"/>
      </g>
     </g>
     <g id="text_6">
      <!-- 2.5 -->
      <g transform="translate(352.888594 349.878594) scale(0.09 -0.09)">
       <use xlink:href="#DejaVuSans-32"/>
       <use xlink:href="#DejaVuSans-2e" transform="translate(63.623047 0)"/>
       <use xlink:href="#DejaVuSans-35" transform="translate(95.410156 0)"/>
      </g>
     </g>
    </g>
    <g id="text_7">
     <!-- Absolute error -->
     <g transform="translate(164.673516 364.108594) scale(0.11 -0.11)">
      <defs>
       <path id="DejaVuSans-41" d="M 2188 4044 
L 1331 1722 
L 3047 1722 
L 2188 4044 
z
M 1831 4666 
L 2547 4666 
L 4325 0 
L 3669 0 
L 3244 1197 
L 1141 1197 
L 716 0 
L 50 0 
L 1831 4666 
z
" transform="scale(0.015625)"/>
       <path id="DejaVuSans-62" d="M 3116 1747 
Q 3116 2381 2855 2742 
Q 2594 3103 2138 3103 
Q 1681 3103 1420 2742 
Q 1159 2381 1159 1747 
Q 1159 1113 1420 752 
Q 1681 391 2138 391 
Q 2594 391 2855 752 
Q 3116 1113 3116 1747 
z
M 1159 2969 
Q 1341 3281 1617 3432 
Q 1894 3584 2278 3584 
Q 2916 3584 3314 3078 
Q 3713 2572 3713 1747 
Q 3713 922 3314 415 
Q 2916 -91 2278 -91 
Q 1894 -91 1617 61 
Q 1341 213 1159 525 
L 1159 0 
L 581 0 
L 581 4863 
L 1159 4863 
L 1159 2969 
z
" transform="scale(0.015625)"/>
       <path id="DejaVuSans-73" d="M 2834 3397 
L 2834 2853 
Q 2591 2978 2328 3040 
Q 2066 3103 1784 3103 
Q 1356 3103 1142 2972 
Q 928 2841 928 2578 
Q 928 2378 1081 2264 
Q 1234 2150 1697 2047 
L 1894 2003 
Q 2506 1872 2764 1633 
Q 3022 1394 3022 966 
Q 3022 478 2636 193 
Q 2250 -91 1575 -91 
Q 1294 -91 989 -36 
Q 684 19 347 128 
L 347 722 
Q 666 556 975 473 
Q 1284 391 1588 391 
Q 1994 391 2212 530 
Q 2431 669 2431 922 
Q 2431 1156 2273 1281 
Q 2116 1406 1581 1522 
L 1381 1569 
Q 847 1681 609 1914 
Q 372 2147 372 2553 
Q 372 3047 722 3315 
Q 1072 3584 1716 3584 
Q 2034 3584 2315 3537 
Q 2597 3491 2834 3397 
z
" transform="scale(0.015625)"/>
       <path id="DejaVuSans-6f" d="M 1959 3097 
Q 1497 3097 1228 2736 
Q 959 2375 959 1747 
Q 959 1119 1226 758 
Q 1494 397 1959 397 
Q 2419 397 2687 759 
Q 2956 1122 2956 1747 
Q 2956 2369 2687 2733 
Q 2419 3097 1959 3097 
z
M 1959 3584 
Q 2709 3584 3137 3096 
Q 3566 2609 3566 1747 
Q 3566 888 3137 398 
Q 2709 -91 1959 -91 
Q 1206 -91 779 398 
Q 353 888 353 1747 
Q 353 2609 779 3096 
Q 1206 3584 1959 3584 
z
" transform="scale(0.015625)"/>
       <path id="DejaVuSans-6c" d="M 603 4863 
L 1178 4863 
L 1178 0 
L 603 0 
L 603 4863 
z
" transform="scale(0.015625)"/>
       <path id="DejaVuSans-75" d="M 544 1381 
L 544 3500 
L 1119 3500 
L 1119 1403 
Q 1119 906 1312 657 
Q 1506 409 1894 409 
Q 2359 409 2629 706 
Q 2900 1003 2900 1516 
L 2900 3500 
L 3475 3500 
L 3475 0 
L 2900 0 
L 2900 538 
Q 2691 219 2414 64 
Q 2138 -91 1772 -91 
Q 1169 -91 856 284 
Q 544 659 544 1381 
z
M 1991 3584 
L 1991 3584 
z
" transform="scale(0.015625)"/>
       <path id="DejaVuSans-74" d="M 1172 4494 
L 1172 3500 
L 2356 3500 
L 2356 3053 
L 1172 3053 
L 1172 1153 
Q 1172 725 1289 603 
Q 1406 481 1766 481 
L 2356 481 
L 2356 0 
L 1766 0 
Q 1100 0 847 248 
Q 594 497 594 1153 
L 594 3053 
L 172 3053 
L 172 3500 
L 594 3500 
L 594 4494 
L 1172 4494 
z
" transform="scale(0.015625)"/>
       <path id="DejaVuSans-65" d="M 3597 1894 
L 3597 1613 
L 953 1613 
Q 991 1019 1311 708 
Q 1631 397 2203 397 
Q 2534 397 2845 478 
Q 3156 559 3463 722 
L 3463 178 
Q 3153 47 2828 -22 
Q 2503 -91 2169 -91 
Q 1331 -91 842 396 
Q 353 884 353 1716 
Q 353 2575 817 3079 
Q 1281 3584 2069 3584 
Q 2775 3584 3186 3129 
Q 3597 2675 3597 1894 
z
M 3022 2063 
Q 3016 2534 2758 2815 
Q 2500 3097 2075 3097 
Q 1594 3097 1305 2825 
Q 1016 2553 972 2059 
L 3022 2063 
z
" transform="scale(0.015625)"/>
       <path id="DejaVuSans-20" transform="scale(0.015625)"/>
       <path id="DejaVuSans-72" d="M 2631 2963 
Q 2534 3019 2420 3045 
Q 2306 3072 2169 3072 
Q 1681 3072 1420 2755 
Q 1159 2438 1159 1844 
L 1159 0 
L 581 0 
L 581 3500 
L 1159 3500 
L 1159 2956 
Q 1341 3275 1631 3429 
Q 1922 3584 2338 3584 
Q 2397 3584 2469 3576 
Q 2541 3569 2628 3553 
L 2631 2963 
z
" transform="scale(0.015625)"/>
      </defs>
      <use xlink:href="#DejaVuSans-41"/>
      <use xlink:href="#DejaVuSans-62" transform="translate(68.408203 0)"/>
      <use xlink:href="#DejaVuSans-73" transform="translate(131.884766 0)"/>
      <use xlink:href="#DejaVuSans-6f" transform="translate(183.984375 0)"/>
      <use xlink:href="#DejaVuSans-6c" transform="translate(245.166016 0)"/>
      <use xlink:href="#DejaVuSans-75" transform="translate(272.949219 0)"/>
      <use xlink:href="#DejaVuSans-74" transform="translate(336.328125 0)"/>
      <use xlink:href="#DejaVuSans-65" transform="translate(375.537109 0)"/>
      <use xlink:href="#DejaVuSans-20" transform="translate(437.060547 0)"/>
      <use xlink:href="#DejaVuSans-65" transform="translate(468.847656 0)"/>
      <use xlink:href="#DejaVuSans-72" transform="translate(530.371094 0)"/>
      <use xlink:href="#DejaVuSans-72" transform="translate(569.734375 0)"/>
      <use xlink:href="#DejaVuSans-6f" transform="translate(608.597656 0)"/>
      <use xlink:href="#DejaVuSans-72" transform="translate(669.779297 0)"/>
     </g>
    </g>
   </g>
   <g id="matplotlib.axis_2">
    <g id="ytick_1">
     <g id="line2d_13">
      <path d="M 47.5 335.54 
L 360.045 335.54 
" clip-path="url(#p784f683690)" style="fill: none; stroke: #b0b0b0; stroke-opacity: 0.3; stroke-width: 0.8; stroke-linecap: square"/>
     </g>
     <g id="line2d_14">
      <defs>
       <path id="m0fedb2f550" d="M 0 0 
L -4 0 
" style="stroke: #000000; stroke-width: 0.8"/>
      </defs>
      <g>
       <use xlink:href="#m0fedb2f550" x="47.5" y="335.54" style="stroke: #000000; stroke-width: 0.8"/>
      </g>
     </g>
     <g id="text_8">
      <!-- 0.0 -->
      <g transform="translate(25.687188 338.959297) scale(0.09 -0.09)">
       <use xlink:href="#DejaVuSans-30"/>
       <use xlink:href="#DejaVuSans-2e" transform="translate(63.623047 0)"/>
       <use xlink:href="#DejaVuSans-30" transform="translate(95.410156 0)"/>
      </g>
     </g>
    </g>
    <g id="ytick_2">
     <g id="line2d_15">
      <path d="M 47.5 271.312 
L 360.045 271.312 
" clip-path="url(#p784f683690)" style="fill: none; stroke: #b0b0b0; stroke-opacity: 0.3; stroke-width: 0.8; stroke-linecap: square"/>
     </g>
     <g id="line2d_16">
      <g>
       <use xlink:href="#m0fedb2f550" x="47.5" y="271.312" style="stroke: #000000; stroke-width: 0.8"/>
      </g>
     </g>
     <g id="text_9">
      <!-- 0.2 -->
      <g transform="translate(25.687188 274.731297) scale(0.09 -0.09)">
       <use xlink:href="#DejaVuSans-30"/>
       <use xlink:href="#DejaVuSans-2e" transform="translate(63.623047 0)"/>
       <use xlink:href="#DejaVuSans-32" transform="translate(95.410156 0)"/>
      </g>
     </g>
    </g>
    <g id="ytick_3">
     <g id="line2d_17">
      <path d="M 47.5 207.084 
L 360.045 207.084 
" clip-path="url(#p784f683690)" style="fill: none; stroke: #b0b0b0; stroke-opacity: 0.3; stroke-width: 0.8; stroke-linecap: square"/>
     </g>
     <g id="line2d_18">
      <g>
       <use xlink:href="#m0fedb2f550" x="47.5" y="207.084" style="stroke: #000000; stroke-width: 0.8"/>
      </g>
     </g>
     <g id="text_10">
      <!-- 0.4 -->
      <g transform="translate(25.687188 210.503297) scale(0.09 -0.09)">
       <defs>
        <path id="DejaVuSans-34" d="M 2419 4116 
L 825 1625 
L 2419 1625 
L 2419 4116 
z
M 2253 4666 
L 3047 4666 
L 3047 1625 
L 3713 1625 
L 3713 1100 
L 3047 1100 
L 3047 0 
L 2419 0 
L 2419 1100 
L 313 1100 
L 313 1709 
L 2253 4666 
z
" transform="scale(0.015625)"/>
       </defs>
       <use xlink:href="#DejaVuSans-30"/>
       <use xlink:href="#DejaVuSans-2e" transform="translate(63.623047 0)"/>
       <use xlink:href="#DejaVuSans-34" transform="translate(95.410156 0)"/>
      </g>
     </g>
    </g>
    <g id="ytick_4">
     <g id="line2d_19">
      <path d="M 47.5 142.856 
L 360.045 142.856 
" clip-path="url(#p784f683690)" style="fill: none; stroke: #b0b0b0; stroke-opacity: 0.3; stroke-width: 0.8; stroke-linecap: square"/>
     </g>
     <g id="line2d_20">
      <g>
       <use xlink:href="#m0fedb2f550" x="47.5" y="142.856" style="stroke: #000000; stroke-width: 0.8"/>
      </g>
     </g>
     <g id="text_11">
      <!-- 0.6 -->
      <g transform="translate(25.687188 146.275297) scale(0.09 -0.09)">
       <defs>
        <path id="DejaVuSans-36" d="M 2113 2584 
Q 1688 2584 1439 2293 
Q 1191 2003 1191 1497 
Q 1191 994 1439 701 
Q 1688 409 2113 409 
Q 2538 409 2786 701 
Q 3034 994 3034 1497 
Q 3034 2003 2786 2293 
Q 2538 2584 2113 2584 
z
M 3366 4563 
L 3366 3988 
Q 3128 4100 2886 4159 
Q 2644 4219 2406 4219 
Q 1781 4219 1451 3797 
Q 1122 3375 1075 2522 
Q 1259 2794 1537 2939 
Q 1816 3084 2150 3084 
Q 2853 3084 3261 2657 
Q 3669 2231 3669 1497 
Q 3669 778 3244 343 
Q 2819 -91 2113 -91 
Q 1303 -91 875 529 
Q 447 1150 447 2328 
Q 447 3434 972 4092 
Q 1497 4750 2381 4750 
Q 2619 4750 2861 4703 
Q 3103 4656 3366 4563 
z
" transform="scale(0.015625)"/>
       </defs>
       <use xlink:href="#DejaVuSans-30"/>
       <use xlink:href="#DejaVuSans-2e" transform="translate(63.623047 0)"/>
       <use xlink:href="#DejaVuSans-36" transform="translate(95.410156 0)"/>
      </g>
     </g>
    </g>
    <g id="ytick_5">
     <g id="line2d_21">
      <path d="M 47.5 78.628 
L 360.045 78.628 
" clip-path="url(#p784f683690)" style="fill: none; stroke: #b0b0b0; stroke-opacity: 0.3; stroke-width: 0.8; stroke-linecap: square"/>
     </g>
     <g id="line2d_22">
      <g>
       <use xlink:href="#m0fedb2f550" x="47.5" y="78.628" style="stroke: #000000; stroke-width: 0.8"/>
      </g>
     </g>
     <g id="text_12">
      <!-- 0.8 -->
      <g transform="translate(25.687188 82.047297) scale(0.09 -0.09)">
       <defs>
        <path id="DejaVuSans-38" d="M 2034 2216 
Q 1584 2216 1326 1975 
Q 1069 1734 1069 1313 
Q 1069 891 1326 650 
Q 1584 409 2034 409 
Q 2484 409 2743 651 
Q 3003 894 3003 1313 
Q 3003 1734 2745 1975 
Q 2488 2216 2034 2216 
z
M 1403 2484 
Q 997 2584 770 2862 
Q 544 3141 544 3541 
Q 544 4100 942 4425 
Q 1341 4750 2034 4750 
Q 2731 4750 3128 4425 
Q 3525 4100 3525 3541 
Q 3525 3141 3298 2862 
Q 3072 2584 2669 2484 
Q 3125 2378 3379 2068 
Q 3634 1759 3634 1313 
Q 3634 634 3220 271 
Q 2806 -91 2034 -91 
Q 1263 -91 848 271 
Q 434 634 434 1313 
Q 434 1759 690 2068 
Q 947 2378 1403 2484 
z
M 1172 3481 
Q 1172 3119 1398 2916 
Q 1625 2713 2034 2713 
Q 2441 2713 2670 2916 
Q 2900 3119 2900 3481 
Q 2900 3844 2670 4047 
Q 2441 4250 2034 4250 
Q 1625 4250 1398 4047 
Q 1172 3844 1172 3481 
z
" transform="scale(0.015625)"/>
       </defs>
       <use xlink:href="#DejaVuSans-30"/>
       <use xlink:href="#DejaVuSans-2e" transform="translate(63.623047 0)"/>
       <use xlink:href="#DejaVuSans-38" transform="translate(95.410156 0)"/>
      </g>
     </g>
    </g>
    <g id="ytick_6">
     <g id="line2d_23">
      <path d="M 47.5 14.4 
L 360.045 14.4 
" clip-path="url(#p784f683690)" style="fill: none; stroke: #b0b0b0; stroke-opacity: 0.3; stroke-width: 0.8; stroke-linecap: square"/>
     </g>
     <g id="line2d_24">
      <g>
       <use xlink:href="#m0fedb2f550" x="47.5" y="14.4" style="stroke: #000000; stroke-width: 0.8"/>
      </g>
     </g>
     <g id="text_13">
      <!-- 1.0 -->
      <g transform="translate(25.687188 17.819297) scale(0.09 -0.09)">
       <use xlink:href="#DejaVuSans-31"/>
       <use xlink:href="#DejaVuSans-2e" transform="translate(63.623047 0)"/>
       <use xlink:href="#DejaVuSans-30" transform="translate(95.410156 0)"/>
      </g>
     </g>
    </g>
    <g id="text_14">
     <!-- ECDF -->
     <g transform="translate(19.399531 189.684219) rotate(-90) scale(0.11 -0.11)">
      <defs>
       <path id="DejaVuSans-45" d="M 628 4666 
L 3578 4666 
L 3578 4134 
L 1259 4134 
L 1259 2753 
L 3481 2753 
L 3481 2222 
L 1259 2222 
L 1259 531 
L 3634 531 
L 3634 0 
L 628 0 
L 628 4666 
z
" transform="scale(0.015625)"/>
       <path id="DejaVuSans-43" d="M 4122 4306 
L 4122 3641 
Q 3803 3938 3442 4084 
Q 3081 4231 2675 4231 
Q 1875 4231 1450 3742 
Q 1025 3253 1025 2328 
Q 1025 1406 1450 917 
Q 1875 428 2675 428 
Q 3081 428 3442 575 
Q 3803 722 4122 1019 
L 4122 359 
Q 3791 134 3420 21 
Q 3050 -91 2638 -91 
Q 1578 -91 968 557 
Q 359 1206 359 2328 
Q 359 3453 968 4101 
Q 1578 4750 2638 4750 
Q 3056 4750 3426 4639 
Q 3797 4528 4122 4306 
z
" transform="scale(0.015625)"/>
       <path id="DejaVuSans-44" d="M 1259 4147 
L 1259 519 
L 2022 519 
Q 2988 519 3436 956 
Q 3884 1394 3884 2338 
Q 3884 3275 3436 3711 
Q 2988 4147 2022 4147 
L 1259 4147 
z
M 628 4666 
L 1925 4666 
Q 3281 4666 3915 4102 
Q 4550 3538 4550 2338 
Q 4550 1131 3912 565 
Q 3275 0 1925 0 
L 628 0 
L 628 4666 
z
" transform="scale(0.015625)"/>
       <path id="DejaVuSans-46" d="M 628 4666 
L 3309 4666 
L 3309 4134 
L 1259 4134 
L 1259 2759 
L 3109 2759 
L 3109 2228 
L 1259 2228 
L 1259 0 
L 628 0 
L 628 4666 
z
" transform="scale(0.015625)"/>
      </defs>
      <use xlink:href="#DejaVuSans-45"/>
      <use xlink:href="#DejaVuSans-43" transform="translate(63.183594 0)"/>
      <use xlink:href="#DejaVuSans-44" transform="translate(133.007812 0)"/>
      <use xlink:href="#DejaVuSans-46" transform="translate(210.009766 0)"/>
     </g>
    </g>
   </g>
   <g id="line2d_25">
    <path d="M 47.500063 335.538771 
L 47.593861 334.852984 
L 47.706502 333.959495 
L 49.318033 321.617788 
L 50.038671 316.108142 
L 50.077082 315.807035 
L 51.464437 305.153986 
L 51.5052 304.878688 
L 51.734711 303.042549 
L 51.879964 301.935212 
L 52.049942 300.674249 
L 52.910164 294.160503 
L 53.116562 292.610723 
L 55.066304 278.002724 
L 55.171542 277.203868 
L 55.346962 275.833523 
L 55.546921 274.421392 
L 55.671738 273.465223 
L 56.008419 270.847435 
L 56.027737 270.680289 
L 56.368422 268.090768 
L 56.400238 267.865859 
L 63.364267 218.460934 
L 63.428431 218.046759 
L 63.899703 214.882061 
L 63.95963 214.499839 
L 64.186786 213.002906 
L 64.248187 212.605937 
L 64.382442 211.705073 
L 65.318524 205.526846 
L 65.404051 204.914799 
L 65.577519 203.800088 
L 65.659475 203.330607 
L 65.989518 201.178613 
L 66.107185 200.389589 
L 66.22632 199.622688 
L 70.923362 171.351798 
L 70.956695 171.162531 
L 71.27923 169.354659 
L 71.366169 168.853223 
L 71.55641 167.742199 
L 71.683416 167.017084 
L 71.813685 166.304259 
L 71.883649 165.925724 
L 72.027239 165.102288 
L 72.084784 164.785204 
L 72.263968 163.832722 
L 73.410862 157.628686 
L 73.552398 156.886364 
L 73.779057 155.659814 
L 73.862836 155.208767 
L 74.142955 153.802781 
L 74.22423 153.384918 
L 74.355478 152.717567 
L 74.44365 152.198925 
L 74.608758 151.389008 
L 74.848183 150.199328 
L 75.109678 148.862166 
L 75.209055 148.345982 
L 75.360449 147.608577 
L 75.799867 145.353346 
L 77.881904 135.357817 
L 77.916359 135.186985 
L 78.103378 134.308244 
L 78.202072 133.873175 
L 78.339152 133.229174 
L 78.393451 132.97354 
L 78.527387 132.343059 
L 79.107153 129.66382 
L 79.277453 128.850216 
L 79.41127 128.262749 
L 79.533555 127.736734 
L 79.616701 127.339764 
L 79.757321 126.682244 
L 79.862889 126.26561 
L 79.977093 125.742052 
L 80.155295 124.894036 
L 80.282439 124.302883 
L 84.648266 106.321255 
L 84.704601 106.102492 
L 85.122821 104.451933 
L 86.133899 100.703456 
L 86.185293 100.516647 
L 86.759811 98.385546 
L 86.998831 97.512949 
L 87.116634 97.101231 
L 88.14798 93.426495 
L 88.28129 92.932433 
L 88.599133 91.87057 
L 88.745588 91.382653 
L 88.867754 90.996745 
L 89.759869 88.047123 
L 89.822553 87.846795 
L 90.007641 87.318321 
L 90.917659 84.401883 
L 90.994392 84.174517 
L 91.128012 83.76157 
L 91.300134 83.197455 
L 91.490881 82.668981 
L 91.742788 81.957385 
L 91.924273 81.349025 
L 92.002396 81.110598 
L 92.56978 79.393672 
L 92.862798 78.534595 
L 92.97474 78.244549 
L 93.160111 77.693953 
L 93.221479 77.516976 
L 93.47434 76.754991 
L 93.538689 76.574326 
L 93.692275 76.13557 
L 93.827865 75.798822 
L 93.88936 75.629219 
L 94.006619 75.321966 
L 94.177698 74.842653 
L 94.233164 74.706233 
L 94.442712 74.126141 
L 94.58233 73.752522 
L 95.020282 72.524742 
L 95.137985 72.239612 
L 98.093091 64.930697 
L 98.299379 64.425574 
L 98.621446 63.683253 
L 98.841308 63.189191 
L 99.241491 62.279725 
L 99.803901 61.031052 
L 99.948869 60.731174 
L 100.198119 60.21499 
L 100.63441 59.266195 
L 100.899812 58.715599 
L 101.016296 58.456279 
L 101.146231 58.174836 
L 101.310547 57.829484 
L 101.485832 57.44972 
L 101.792211 56.756559 
L 101.96785 56.446849 
L 102.11334 56.189986 
L 102.700377 54.990474 
L 103.095453 54.207595 
L 103.211944 53.966709 
L 103.336737 53.727053 
L 103.46457 53.4579 
L 103.721936 52.941716 
L 103.855764 52.690998 
L 104.031496 52.365311 
L 104.125491 52.176044 
L 104.401396 51.679524 
L 104.520813 51.473051 
L 104.763502 51.062562 
L 106.699359 47.837642 
L 106.854309 47.612734 
L 107.001572 47.402573 
L 107.087792 47.267382 
L 107.462848 46.68729 
L 107.585596 46.461153 
L 107.999609 45.772908 
L 108.088757 45.615595 
L 110.027406 42.72005 
L 110.225433 42.430004 
L 110.338438 42.269004 
L 110.722004 41.742988 
L 110.833742 41.602881 
L 112.265197 39.792551 
L 112.483791 39.479154 
L 112.644695 39.257932 
L 112.785494 39.103077 
L 112.906523 38.967886 
L 113.07625 38.756496 
L 116.746465 34.57295 
L 116.920252 34.42424 
L 117.343223 34.017438 
L 117.479469 33.874873 
L 117.640283 33.710186 
L 117.795702 33.566392 
L 118.37641 32.966636 
L 118.607947 32.740498 
L 120.591235 30.979329 
L 120.760439 30.822016 
L 120.890776 30.716321 
L 121.347883 30.331641 
L 123.200535 28.850685 
L 123.380523 28.713037 
L 123.651003 28.509021 
L 124.035955 28.236181 
L 124.522042 27.867478 
L 124.715934 27.722455 
L 124.938403 27.566371 
L 125.192228 27.391852 
L 125.667763 27.075997 
L 125.875932 26.944493 
L 126.171264 26.757684 
L 126.282361 26.68763 
L 129.117424 24.896964 
L 129.880309 24.529491 
L 130.0154 24.463124 
L 130.404109 24.28246 
L 130.977945 23.956772 
L 131.362645 23.760131 
L 132.442307 23.214451 
L 132.735559 23.064512 
L 133.738649 22.623298 
L 133.885581 22.552015 
L 134.26449 22.382412 
L 134.380318 22.328336 
L 135.19316 21.976839 
L 135.325553 21.935053 
L 135.751758 21.766679 
L 135.872273 21.724892 
L 136.388703 21.497526 
L 140.924204 19.912104 
L 141.378293 19.771997 
L 142.454088 19.479493 
L 143.251437 19.281623 
L 143.360008 19.238608 
L 145.74289 18.680638 
L 146.433711 18.509805 
L 146.546722 18.474164 
L 148.047605 18.155851 
L 148.34044 18.085797 
L 159.493829 16.311109 
L 168.382161 15.536833 
L 170.924285 15.390581 
L 171.928179 15.326673 
L 174.880308 15.142321 
L 175.446813 15.10668 
L 179.410824 14.950596 
L 195.936818 14.594183 
L 225.021978 14.42458 
L 245.861034 14.4 
L 245.861034 14.4 
" clip-path="url(#p784f683690)" style="fill: none; stroke: #dc143c; stroke-width: 2; stroke-linecap: square"/>
   </g>
   <g id="line2d_26">
    <path d="M 47.500357 335.538771 
L 47.62394 335.178671 
L 48.507406 332.451501 
L 48.55971 332.27944 
L 48.705427 331.841913 
L 48.836269 331.454775 
L 49.128851 330.569888 
L 49.243037 330.27001 
L 49.340648 329.971361 
L 49.471404 329.562101 
L 49.684807 328.934078 
L 50.125532 327.680489 
L 50.418678 326.791915 
L 50.918141 325.324479 
L 50.995883 325.127837 
L 51.134253 324.721036 
L 51.21003 324.489982 
L 51.680437 323.160194 
L 51.7411 322.977072 
L 51.859041 322.589934 
L 52.148504 321.708735 
L 52.890255 319.462107 
L 53.013619 319.072511 
L 53.083263 318.895534 
L 53.195478 318.555098 
L 54.09615 315.927478 
L 54.340786 315.197446 
L 54.393778 315.036446 
L 54.52297 314.655453 
L 54.744128 314.043407 
L 54.800941 313.859056 
L 54.917505 313.508788 
L 55.017291 313.190475 
L 55.230465 312.521894 
L 55.552533 311.57187 
L 55.678769 311.193336 
L 56.048522 310.100747 
L 56.161157 309.740647 
L 56.309192 309.308036 
L 56.429923 308.976204 
L 56.633846 308.346951 
L 56.749203 308.017577 
L 56.900113 307.55547 
L 57.002745 307.227324 
L 57.115184 306.891805 
L 57.203935 306.632484 
L 57.301471 306.335064 
L 57.412583 306.025354 
L 57.735745 305.088849 
L 57.857016 304.733665 
L 58.068964 304.114245 
L 58.526114 302.726694 
L 58.78422 302.004037 
L 58.85411 301.796334 
L 59.187184 300.814356 
L 59.253276 300.631234 
L 59.390454 300.224432 
L 59.514357 299.848355 
L 59.692417 299.297759 
L 59.743922 299.151507 
L 59.822948 298.917996 
L 59.969272 298.512423 
L 60.047784 298.282598 
L 62.104503 292.165821 
L 62.218933 291.800806 
L 62.44899 291.095355 
L 62.584444 290.693469 
L 62.867471 289.889697 
L 62.982765 289.545575 
L 63.46405 288.129756 
L 63.521109 287.974901 
L 64.065147 286.35261 
L 64.240091 285.810617 
L 64.644686 284.684845 
L 64.83746 284.065424 
L 64.99567 283.576279 
L 72.788162 261.178822 
L 73.070101 260.383654 
L 73.18155 260.087463 
L 73.604491 258.926049 
L 74.542516 256.191505 
L 74.693485 255.757665 
L 74.964263 255.012885 
L 75.081975 254.677366 
L 75.131646 254.528656 
L 75.321477 253.931358 
L 75.598475 253.137418 
L 75.808649 252.545036 
L 75.925374 252.211974 
L 76.0212 251.925615 
L 76.203764 251.359042 
L 76.292805 251.092347 
L 76.450756 250.646217 
L 76.686918 250.024339 
L 76.831733 249.643346 
L 76.918485 249.425811 
L 77.067215 249.009177 
L 77.141422 248.789185 
L 77.308047 248.304955 
L 77.370599 248.103398 
L 78.16777 245.854312 
L 78.230451 245.683479 
L 78.933369 243.607684 
L 78.991627 243.435622 
L 79.22961 242.757209 
L 79.284626 242.583919 
L 79.479818 242.048071 
L 79.667648 241.540491 
L 79.783894 241.207429 
L 79.864808 241.000956 
L 79.989056 240.655604 
L 80.252096 239.907138 
L 80.441878 239.381122 
L 80.559186 239.032084 
L 80.677366 238.724832 
L 80.857398 238.235686 
L 80.974646 237.911228 
L 81.037776 237.761289 
L 81.157636 237.411021 
L 81.280353 237.06567 
L 81.961368 235.163164 
L 82.131086 234.696141 
L 82.295302 234.193476 
L 82.362617 234.01527 
L 86.612712 222.578114 
L 86.758179 222.225388 
L 86.82574 222.038579 
L 86.967325 221.648983 
L 87.169455 221.097158 
L 87.300973 220.708792 
L 87.372285 220.521982 
L 87.532321 220.079539 
L 87.917023 219.029966 
L 87.988224 218.828408 
L 88.223469 218.199156 
L 88.307464 217.966873 
L 88.419105 217.695262 
L 88.83389 216.530162 
L 89.219427 215.505168 
L 89.559234 214.56129 
L 89.619428 214.392915 
L 89.735778 214.086892 
L 90.555281 211.959478 
L 90.678043 211.663287 
L 90.874089 211.161851 
L 91.134744 210.449026 
L 91.282887 210.052056 
L 91.351885 209.870163 
L 91.471689 209.540789 
L 91.852323 208.576017 
L 91.994032 208.215917 
L 92.836642 205.977892 
L 93.125166 205.303166 
L 93.361846 204.670227 
L 93.499415 204.30644 
L 93.684488 203.791485 
L 93.805037 203.457195 
L 93.869594 203.287592 
L 94.000728 202.96805 
L 94.219002 202.411309 
L 94.390424 201.941827 
L 94.603757 201.418269 
L 94.771382 200.991803 
L 95.077623 200.245795 
L 95.201745 199.915192 
L 95.632976 198.842267 
L 96.812681 195.80047 
L 96.941732 195.489531 
L 97.284851 194.629225 
L 97.44856 194.17695 
L 97.564064 193.877071 
L 97.726048 193.461666 
L 98.409082 191.747199 
L 98.720509 190.972924 
L 98.907489 190.450595 
L 99.031112 190.105243 
L 99.407648 189.146617 
L 99.536837 188.824616 
L 99.650211 188.532112 
L 100.648181 186.109736 
L 100.714951 185.945049 
L 100.998669 185.245743 
L 101.137121 184.911452 
L 101.329746 184.434597 
L 101.39617 184.289574 
L 101.56786 183.88523 
L 101.708871 183.570604 
L 102.497212 181.663182 
L 102.801858 180.865555 
L 102.922515 180.548471 
L 103.021141 180.280547 
L 103.51659 179.098241 
L 103.580131 178.93724 
L 104.110893 177.665216 
L 104.238402 177.345674 
L 106.250442 172.500921 
L 106.325402 172.34115 
L 107.878174 168.480834 
L 108.031525 168.15023 
L 108.194385 167.807337 
L 108.506657 167.137527 
L 108.56867 166.993733 
L 108.74438 166.573412 
L 108.811113 166.40258 
L 109.951898 163.746692 
L 110.069411 163.502119 
L 110.208555 163.167828 
L 110.391262 162.721698 
L 112.130873 158.733565 
L 112.264303 158.45458 
L 112.433798 158.105541 
L 112.669024 157.562319 
L 112.961807 156.907258 
L 113.077688 156.635647 
L 113.180893 156.43286 
L 113.323734 156.119463 
L 113.43565 155.863829 
L 113.541449 155.618027 
L 113.690795 155.271447 
L 114.176449 154.278408 
L 114.31537 153.976072 
L 115.674634 150.875282 
L 115.760186 150.693389 
L 115.879927 150.440213 
L 116.090429 149.975648 
L 116.891563 148.157944 
L 117.038018 147.842089 
L 117.111245 147.676173 
L 117.622384 146.577439 
L 117.745702 146.321805 
L 117.837022 146.133766 
L 117.95639 145.875675 
L 118.056391 145.674117 
L 118.176892 145.413567 
L 118.380769 144.985872 
L 118.452759 144.842078 
L 118.679476 144.387345 
L 118.831877 144.082551 
L 119.208923 143.299672 
L 119.291778 143.131298 
L 119.441504 142.800695 
L 119.590306 142.492213 
L 120.198391 141.161197 
L 120.312833 140.939975 
L 120.482575 140.588479 
L 121.366348 138.706866 
L 121.483682 138.462294 
L 121.655383 138.132919 
L 121.756062 137.928904 
L 122.585714 136.283261 
L 122.704635 136.031314 
L 122.817304 135.792886 
L 126.516745 128.229566 
L 126.880803 127.59294 
L 126.997757 127.348367 
L 127.116767 127.105023 
L 127.246373 126.826038 
L 127.38411 126.588839 
L 127.574187 126.22874 
L 127.655752 126.075114 
L 128.588297 124.361876 
L 128.760594 124.090265 
L 128.906073 123.818654 
L 129.044711 123.551959 
L 129.270861 123.123035 
L 129.562325 122.584729 
L 130.024857 121.643308 
L 130.173562 121.366781 
L 130.76488 120.25207 
L 130.905366 119.968169 
L 131.019317 119.765383 
L 131.434806 118.961611 
L 131.546581 118.772344 
L 131.669079 118.56587 
L 134.846844 112.909972 
L 135.022345 112.610093 
L 135.151214 112.359376 
L 135.291678 112.15536 
L 135.460421 111.862856 
L 135.570474 111.674818 
L 136.568817 109.912419 
L 136.644302 109.769854 
L 136.769624 109.55109 
L 138.285901 107.054974 
L 138.362072 106.919783 
L 138.794998 106.194667 
L 139.148467 105.618262 
L 139.265227 105.438827 
L 139.426541 105.181964 
L 139.62696 104.85259 
L 141.286839 102.16229 
L 141.37608 102.018496 
L 141.687492 101.535495 
L 141.911675 101.198747 
L 142.010387 101.036517 
L 143.596657 98.448225 
L 143.729789 98.278622 
L 144.136179 97.594064 
L 144.26294 97.410942 
L 144.605097 96.84191 
L 144.758296 96.635437 
L 144.970221 96.270421 
L 145.077756 96.100818 
L 145.396127 95.617818 
L 145.517321 95.427321 
L 145.765439 95.046329 
L 145.878018 94.877954 
L 146.059638 94.589137 
L 146.405357 94.070496 
L 146.746248 93.588724 
L 147.378826 92.653448 
L 147.57043 92.319158 
L 147.689046 92.139723 
L 147.837773 91.898837 
L 147.987023 91.696051 
L 148.558915 90.846806 
L 148.674147 90.672286 
L 148.984657 90.280232 
L 149.13229 90.073759 
L 149.317977 89.794774 
L 150.391753 88.230246 
L 150.612695 87.924223 
L 152.341747 85.437938 
L 152.522017 85.198281 
L 152.835143 84.7288 
L 152.990793 84.538303 
L 153.129021 84.358868 
L 153.315067 84.078654 
L 153.565822 83.756654 
L 153.680868 83.610402 
L 153.85561 83.371974 
L 153.987884 83.199913 
L 154.422449 82.666523 
L 154.547123 82.500607 
L 154.919169 82.013919 
L 155.628962 81.065124 
L 155.763292 80.907811 
L 156.61141 79.789413 
L 160.594848 74.792264 
L 160.694819 74.661989 
L 161.291548 73.968828 
L 161.472228 73.732858 
L 161.667588 73.50672 
L 161.989328 73.128186 
L 162.172333 72.921712 
L 162.54885 72.470666 
L 162.703412 72.307208 
L 162.859532 72.129001 
L 162.994071 71.975375 
L 163.22435 71.70868 
L 163.385484 71.525558 
L 163.635264 71.224451 
L 163.793068 71.008145 
L 163.923255 70.861893 
L 164.168288 70.575534 
L 164.417308 70.294091 
L 164.68939 69.972091 
L 165.119037 69.494007 
L 165.258316 69.334235 
L 165.887869 68.62141 
L 166.015859 68.475158 
L 166.706828 67.721776 
L 166.941943 67.4686 
L 167.581183 66.736111 
L 168.282078 65.987644 
L 168.594436 65.665644 
L 168.852651 65.407552 
L 168.995596 65.253926 
L 169.554954 64.627132 
L 169.67734 64.487025 
L 170.259061 63.863917 
L 170.388072 63.728726 
L 170.509675 63.59968 
L 171.413732 62.676695 
L 171.718147 62.376817 
L 171.96236 62.119954 
L 175.973198 58.166232 
L 176.129503 58.026125 
L 176.276539 57.881102 
L 176.578182 57.597201 
L 176.706679 57.468155 
L 176.861047 57.318216 
L 179.074129 55.273146 
L 179.264489 55.10723 
L 179.375801 54.994161 
L 179.547219 54.84668 
L 179.840308 54.582443 
L 179.98481 54.463229 
L 180.210744 54.259213 
L 180.543133 53.971625 
L 180.899843 53.684037 
L 181.772059 52.87535 
L 182.018605 52.683624 
L 182.151408 52.566868 
L 182.397551 52.383746 
L 182.540519 52.273135 
L 182.771982 52.094929 
L 182.899226 51.988005 
L 183.149691 51.78399 
L 183.259156 51.679524 
L 183.451483 51.516066 
L 183.576269 51.420203 
L 183.716911 51.31205 
L 183.879462 51.174401 
L 183.993233 51.096974 
L 184.176306 50.932287 
L 184.335011 50.79218 
L 184.530319 50.632408 
L 184.854302 50.373088 
L 184.970533 50.27108 
L 186.235391 49.297705 
L 186.567839 49.054361 
L 186.681075 48.963415 
L 187.217296 48.567674 
L 187.41937 48.401758 
L 187.557732 48.298521 
L 188.567699 47.49352 
L 188.785287 47.316543 
L 192.351068 44.733166 
L 192.586018 44.558647 
L 192.715528 44.456639 
L 193.17066 44.149387 
L 193.284909 44.086708 
L 193.508891 43.913417 
L 193.64077 43.828616 
L 193.923441 43.630745 
L 194.035991 43.534883 
L 194.317544 43.360363 
L 195.41021 42.63279 
L 195.669706 42.469332 
L 195.851854 42.320622 
L 196.165077 42.11169 
L 196.369506 41.967896 
L 198.931146 40.405826 
L 199.167617 40.278009 
L 199.600528 40.001482 
L 199.726759 39.900704 
L 199.993454 39.737245 
L 200.863792 39.202627 
L 200.999993 39.130115 
L 201.339565 38.934703 
L 201.501698 38.825321 
L 201.94522 38.564771 
L 203.649816 37.619663 
L 203.843574 37.483243 
L 206.363857 36.144853 
L 206.510506 36.071112 
L 207.306789 35.675371 
L 207.436061 35.609005 
L 207.956425 35.350913 
L 208.091329 35.287005 
L 208.449471 35.103882 
L 208.797269 34.942882 
L 209.195202 34.757302 
L 209.932693 34.376309 
L 210.390075 34.163691 
L 210.534637 34.083805 
L 210.899396 33.905599 
L 212.383333 33.170651 
L 213.060256 32.856025 
L 213.822009 32.524193 
L 214.460392 32.231689 
L 214.937417 32.015383 
L 215.506276 31.763436 
L 216.24092 31.489367 
L 216.782893 31.221443 
L 218.020151 30.675764 
L 218.382361 30.509847 
L 218.814333 30.330412 
L 227.129931 27.303363 
L 227.621383 27.116554 
L 227.840148 27.040356 
L 228.357487 26.892874 
L 230.646963 26.138263 
L 231.091022 25.989553 
L 231.420534 25.86911 
L 232.779611 25.445102 
L 232.897332 25.403316 
L 233.569471 25.201758 
L 233.713363 25.157514 
L 234.396024 24.970705 
L 234.707294 24.892048 
L 235.175079 24.756857 
L 240.416841 23.393886 
L 240.554964 23.355787 
L 241.845889 23.055909 
L 242.006591 23.014123 
L 242.60092 22.880161 
L 243.450975 22.705641 
L 247.996022 21.783885 
L 248.948373 21.631488 
L 249.71941 21.463114 
L 254.343906 20.602807 
L 254.555042 20.557334 
L 256.796603 20.178799 
L 258.451183 19.905959 
L 258.703869 19.854341 
L 275.695606 17.704805 
L 278.223922 17.460232 
L 278.814034 17.423362 
L 282.701338 17.107506 
L 282.816406 17.097674 
L 285.77899 16.86785 
L 288.358186 16.677353 
L 289.785744 16.597468 
L 294.60519 16.29759 
L 297.849327 16.13536 
L 300.582623 16.001398 
L 303.357738 15.853917 
L 337.103922 14.914955 
L 345.463277 14.773619 
L 346.625407 14.750268 
L 360.202528 14.627367 
L 360.202528 14.627367 
" clip-path="url(#p784f683690)" style="fill: none; stroke: #808080; stroke-width: 2; stroke-linecap: square"/>
   </g>
   <g id="line2d_27">
    <path d="M 47.500063 335.538771 
L 47.78796 334.769411 
L 47.874724 334.534671 
L 48.130192 333.81693 
L 48.183569 333.675594 
L 48.300347 333.352364 
L 48.789334 332.011516 
L 48.986935 331.443714 
L 49.421685 330.271239 
L 49.487626 330.090575 
L 49.601305 329.773491 
L 50.452374 327.585855 
L 50.51911 327.440832 
L 51.742659 324.148317 
L 51.813149 323.951676 
L 52.074015 323.272034 
L 52.170583 323.022545 
L 52.498222 322.057773 
L 52.687685 321.501032 
L 54.504544 316.613264 
L 54.574086 316.436287 
L 54.813378 315.835302 
L 54.904477 315.591958 
L 55.016053 315.251523 
L 55.076031 315.112645 
L 55.195823 314.802934 
L 55.322625 314.450209 
L 55.433497 314.11469 
L 55.551842 313.79146 
L 55.795768 313.17204 
L 55.952298 312.752948 
L 56.11566 312.295757 
L 56.236988 312.002023 
L 56.415241 311.57187 
L 56.551363 311.169984 
L 56.740093 310.608327 
L 56.861724 310.235938 
L 56.928632 310.052815 
L 57.06575 309.719754 
L 59.961292 301.835663 
L 60.03229 301.64025 
L 60.211194 301.14496 
L 60.443476 300.502188 
L 60.589235 300.089241 
L 60.748798 299.612386 
L 61.2507 298.261705 
L 61.313039 298.09456 
L 64.067311 290.761064 
L 64.360489 289.956064 
L 64.428126 289.804895 
L 64.570984 289.470605 
L 65.476898 287.069122 
L 65.653036 286.614389 
L 65.713788 286.452159 
L 65.830386 286.137533 
L 65.951773 285.813075 
L 66.129039 285.328845 
L 66.276852 284.91344 
L 66.672437 283.807332 
L 66.80229 283.466897 
L 66.859988 283.261653 
L 67.00129 282.88066 
L 67.133166 282.547598 
L 71.64128 270.434488 
L 71.771544 270.105113 
L 71.929583 269.689708 
L 72.104073 269.210395 
L 72.275328 268.729853 
L 72.510851 268.164508 
L 72.690844 267.704859 
L 72.754766 267.535256 
L 72.881069 267.214485 
L 72.963146 266.987118 
L 73.318614 266.033407 
L 73.451121 265.702804 
L 73.671694 265.071093 
L 73.731817 264.907635 
L 76.107233 258.620026 
L 76.1593 258.4664 
L 80.050462 248.13781 
L 80.331445 247.391802 
L 80.531257 246.825229 
L 80.698331 246.396305 
L 81.062914 245.490525 
L 81.141205 245.308632 
L 81.34465 244.774013 
L 82.034334 242.95508 
L 82.101242 242.773187 
L 82.213692 242.461018 
L 82.602467 241.470437 
L 82.713739 241.190223 
L 82.870536 240.776047 
L 82.982404 240.484772 
L 83.051746 240.31394 
L 83.173506 240.027581 
L 84.126676 237.649449 
L 84.187944 237.479846 
L 84.328978 237.112372 
L 84.405577 236.908357 
L 84.571808 236.458539 
L 84.826323 235.860012 
L 84.953925 235.534325 
L 85.032414 235.342599 
L 85.245434 234.806752 
L 85.332257 234.594133 
L 85.508328 234.145545 
L 93.520607 214.263869 
L 93.585153 214.123762 
L 93.799604 213.600205 
L 93.999935 213.099998 
L 95.312659 209.974629 
L 95.407895 209.748491 
L 95.56448 209.388392 
L 95.658531 209.180689 
L 96.390213 207.367901 
L 96.459178 207.214275 
L 96.874272 206.195427 
L 97.111797 205.609189 
L 97.200487 205.416235 
L 97.583588 204.477272 
L 97.770095 204.001646 
L 97.946166 203.561661 
L 98.041231 203.355187 
L 106.574198 183.533733 
L 106.742031 183.168718 
L 108.21073 179.895867 
L 108.301353 179.688165 
L 109.724977 176.634078 
L 109.783245 176.500116 
L 109.934584 176.167055 
L 110.242788 175.504619 
L 110.710782 174.469793 
L 111.452519 172.810632 
L 111.555121 172.583265 
L 111.785049 172.086745 
L 111.868344 171.913455 
L 112.984713 169.559903 
L 113.104961 169.325163 
L 113.221616 169.079361 
L 113.427699 168.643063 
L 113.692874 168.077719 
L 113.809649 167.833146 
L 113.964136 167.563993 
L 114.288477 166.861 
L 114.546215 166.344816 
L 114.685673 166.035106 
L 115.665505 163.939646 
L 115.782303 163.725798 
L 115.885016 163.499661 
L 116.004988 163.273523 
L 116.248195 162.779462 
L 116.363986 162.511538 
L 117.214145 160.713498 
L 117.323252 160.482444 
L 117.517197 160.106368 
L 118.043686 159.054336 
L 118.222622 158.657366 
L 118.328309 158.457038 
L 118.503497 158.101854 
L 118.610496 157.878175 
L 118.861445 157.359533 
L 118.978935 157.124792 
L 119.062856 156.955189 
L 119.23481 156.604921 
L 119.345899 156.361578 
L 119.469485 156.132982 
L 119.623854 155.796234 
L 119.70922 155.622943 
L 119.820048 155.3796 
L 120.042391 154.921179 
L 120.503544 153.956408 
L 120.636198 153.679881 
L 121.087522 152.788849 
L 121.203246 152.533215 
L 121.344522 152.270207 
L 121.437981 152.090772 
L 121.632275 151.706092 
L 121.751107 151.472581 
L 122.004977 150.984664 
L 122.128876 150.71674 
L 122.245673 150.452503 
L 122.496429 149.942465 
L 122.582682 149.767946 
L 122.994989 148.928532 
L 123.158367 148.602845 
L 123.641353 147.678631 
L 123.853308 147.263226 
L 124.217776 146.608164 
L 124.337129 146.348843 
L 124.464939 146.100583 
L 125.552657 144.053055 
L 125.696012 143.772841 
L 125.838443 143.519665 
L 125.955188 143.293527 
L 126.05013 143.103031 
L 126.483384 142.279595 
L 126.690756 141.86419 
L 126.803961 141.660174 
L 127.308744 140.669593 
L 127.507837 140.310723 
L 127.575923 140.181677 
L 127.919809 139.546279 
L 128.032515 139.352096 
L 128.820736 137.866224 
L 129.014226 137.503667 
L 129.187216 137.203789 
L 130.950516 133.851053 
L 131.152404 133.478663 
L 131.279782 133.279563 
L 135.636384 125.526976 
L 135.776982 125.28609 
L 135.961447 124.960403 
L 136.341221 124.312715 
L 137.100194 122.984157 
L 137.286649 122.675675 
L 137.512226 122.293454 
L 137.593203 122.144744 
L 137.732534 121.914919 
L 138.963882 119.79365 
L 139.168766 119.427405 
L 139.31332 119.166855 
L 139.532794 118.80184 
L 139.620597 118.649443 
L 139.733936 118.423305 
L 139.946703 118.109908 
L 146.635814 107.399096 
L 147.017175 106.81163 
L 147.179114 106.569515 
L 147.269853 106.423263 
L 147.860143 105.542064 
L 148.339702 104.796055 
L 148.505881 104.526902 
L 148.84245 104.041444 
L 149.002445 103.807932 
L 152.746192 98.187675 
L 152.846119 98.034049 
L 153.058588 97.687469 
L 153.488504 97.076651 
L 153.576307 96.951292 
L 153.746078 96.707948 
L 153.846764 96.576445 
L 154.1072 96.233551 
L 154.260272 96.007413 
L 155.509966 94.215519 
L 155.70742 93.938992 
L 155.829761 93.776762 
L 158.536433 90.163477 
L 158.694609 89.944713 
L 158.827174 89.77511 
L 158.947049 89.6264 
L 159.058458 89.475232 
L 159.24352 89.228201 
L 159.424402 89.016811 
L 159.586073 88.811567 
L 159.757312 88.585429 
L 160.191907 88.015169 
L 160.32597 87.875062 
L 160.604945 87.510047 
L 160.77257 87.308489 
L 162.649045 84.993037 
L 162.797027 84.849243 
L 163.000733 84.588693 
L 164.071454 83.181478 
L 164.240226 82.973775 
L 167.19819 79.370321 
L 167.340688 79.184741 
L 167.477784 79.016367 
L 168.55767 77.800877 
L 168.669877 77.668144 
L 168.899067 77.401449 
L 169.168914 77.120006 
L 169.337798 76.945487 
L 169.598166 76.65667 
L 169.775136 76.447738 
L 169.972247 76.238807 
L 170.407804 75.811112 
L 170.588037 75.609554 
L 170.976447 75.191691 
L 171.743818 74.298202 
L 171.914982 74.12737 
L 172.405517 73.590293 
L 172.535586 73.428064 
L 172.722891 73.232651 
L 172.938348 72.984392 
L 173.60539 72.244528 
L 173.830966 71.987665 
L 173.985439 71.8451 
L 174.110195 71.720971 
L 175.43641 70.263366 
L 175.617471 70.070412 
L 175.811363 69.870083 
L 182.660833 63.219917 
L 182.921089 62.985176 
L 183.256816 62.650886 
L 183.482646 62.47145 
L 183.816257 62.14945 
L 183.931847 62.047442 
L 184.734807 61.268251 
L 184.8746 61.134289 
L 187.504751 58.75247 
L 187.63052 58.636943 
L 187.822638 58.451362 
L 189.746834 56.816781 
L 189.929101 56.671758 
L 195.269135 52.412013 
L 195.644221 52.102303 
L 195.773955 51.99415 
L 195.939083 51.851585 
L 196.351518 51.561539 
L 196.56456 51.416516 
L 197.276491 50.856088 
L 197.578134 50.645928 
L 197.94015 50.37063 
L 198.335982 50.090416 
L 198.604644 49.91098 
L 198.851324 49.747522 
L 199.608576 49.193239 
L 199.726714 49.102293 
L 200.217972 48.736048 
L 200.394084 48.63404 
L 201.061112 48.15104 
L 201.176105 48.072383 
L 201.406988 47.911383 
L 201.679793 47.728261 
L 201.958738 47.541451 
L 202.457477 47.207161 
L 202.632084 47.065825 
L 203.051344 46.788069 
L 203.2099 46.681145 
L 203.798 46.292778 
L 203.924305 46.217809 
L 204.204115 46.012564 
L 204.377872 45.914244 
L 204.633553 45.747099 
L 205.276169 45.288678 
L 205.742971 44.975281 
L 206.099935 44.736853 
L 206.517466 44.491052 
L 206.801582 44.316532 
L 207.582784 43.842135 
L 207.78909 43.709402 
L 208.00878 43.593875 
L 208.505552 43.311203 
L 208.901652 43.060485 
L 209.310003 42.791332 
L 210.291311 42.229675 
L 210.600435 42.053927 
L 210.770124 41.940858 
L 211.517749 41.505789 
L 211.627824 41.43082 
L 212.215298 41.124796 
L 212.570846 40.933071 
L 212.800745 40.796651 
L 212.914785 40.730285 
L 213.179289 40.597552 
L 214.231492 40.017459 
L 214.41516 39.910536 
L 214.731766 39.739703 
L 214.885851 39.668421 
L 215.474144 39.369772 
L 215.708067 39.238268 
L 216.291442 38.915039 
L 217.087651 38.479969 
L 217.38603 38.33003 
L 217.675318 38.16903 
L 218.362048 37.811389 
L 218.518562 37.719213 
L 219.17939 37.378778 
L 219.326143 37.306266 
L 219.63096 37.158785 
L 219.753361 37.098564 
L 220.015733 36.964602 
L 220.5689 36.701594 
L 221.107833 36.411548 
L 221.506929 36.235799 
L 221.640209 36.187868 
L 222.108381 35.970333 
L 225.139878 34.646691 
L 225.415142 34.520103 
L 226.961241 33.855209 
L 227.180543 33.750744 
L 228.205205 33.337797 
L 228.39163 33.252995 
L 228.890534 33.052667 
L 229.008955 33.008422 
L 229.309346 32.875689 
L 229.64242 32.739269 
L 230.072425 32.574582 
L 230.209625 32.51559 
L 230.792389 32.240292 
L 231.145836 32.063315 
L 231.763191 31.813826 
L 231.876754 31.77081 
L 232.474749 31.521322 
L 233.01632 31.3001 
L 234.062637 30.896985 
L 234.648098 30.672077 
L 234.817355 30.615542 
L 235.257927 30.46929 
L 235.538914 30.380801 
L 235.982883 30.222259 
L 237.207637 29.794564 
L 238.306905 29.400052 
L 238.498964 29.315251 
L 241.204853 28.382433 
L 241.630402 28.241097 
L 241.74471 28.196853 
L 243.593361 27.59218 
L 244.181938 27.423806 
L 244.993333 27.187837 
L 245.777456 26.986279 
L 246.067847 26.901478 
L 247.308741 26.543836 
L 247.456477 26.48976 
L 247.94775 26.332446 
L 248.658146 26.140721 
L 249.184724 25.987095 
L 249.526383 25.899835 
L 250.253321 25.692133 
L 250.838827 25.529904 
L 251.664381 25.307453 
L 251.923907 25.232484 
L 252.563483 25.071483 
L 253.703139 24.793727 
L 254.18152 24.669598 
L 254.346142 24.624124 
L 256.707094 24.069841 
L 256.926262 24.019452 
L 257.689565 23.855994 
L 260.228596 23.273444 
L 260.829274 23.132108 
L 270.839632 21.307029 
L 272.192375 21.069831 
L 272.382184 21.040335 
L 273.179823 20.874418 
L 273.331643 20.843693 
L 275.069116 20.557334 
L 275.202575 20.52538 
L 277.852711 20.109975 
L 278.304788 20.04115 
L 282.41205 19.484409 
L 283.270107 19.345531 
L 297.213701 17.804354 
L 299.434175 17.618774 
L 299.581866 17.606484 
L 301.884964 17.419675 
L 301.971135 17.407385 
L 304.221445 17.23901 
L 305.102469 17.167728 
L 309.773463 16.853102 
L 310.525722 16.796567 
L 312.944976 16.646628 
L 315.620776 16.497918 
L 319.96959 16.250887 
L 321.301976 16.180834 
L 324.999814 15.98665 
L 328.807788 15.845314 
L 334.293725 15.648673 
L 348.558723 15.249245 
L 356.076756 15.077184 
L 360.140381 15.004672 
L 360.140381 15.004672 
" clip-path="url(#p784f683690)" style="fill: none; stroke: #808080; stroke-width: 2; stroke-linecap: square"/>
   </g>
   <g id="line2d_28">
    <path d="M 70.285107 335.54 
L 70.285107 14.4 
" clip-path="url(#p784f683690)" style="fill: none; stroke-dasharray: 7.4,3.2; stroke-dashoffset: 0; stroke: #dc143c; stroke-width: 2"/>
   </g>
   <g id="line2d_29">
    <path d="M 105.223764 335.54 
L 105.223764 14.4 
" clip-path="url(#p784f683690)" style="fill: none; stroke-dasharray: 7.4,3.2; stroke-dashoffset: 0; stroke: #808080; stroke-width: 2"/>
   </g>
   <g id="line2d_30">
    <path d="M 110.501226 335.54 
L 110.501226 14.4 
" clip-path="url(#p784f683690)" style="fill: none; stroke-dasharray: 7.4,3.2; stroke-dashoffset: 0; stroke: #808080; stroke-width: 2"/>
   </g>
   <g id="patch_3">
    <path d="M 47.5 335.54 
L 47.5 14.4 
" style="fill: none; stroke: #000000; stroke-width: 0.8; stroke-linejoin: miter; stroke-linecap: square"/>
   </g>
   <g id="patch_4">
    <path d="M 47.5 335.54 
L 360.045 335.54 
" style="fill: none; stroke: #000000; stroke-width: 0.8; stroke-linejoin: miter; stroke-linecap: square"/>
   </g>
   <g id="legend_1">
    <g id="patch_5">
     <path d="M 121.834063 330.54 
L 353.045 330.54 
Q 355.045 330.54 355.045 328.54 
L 355.045 270.8275 
Q 355.045 268.8275 353.045 268.8275 
L 121.834063 268.8275 
Q 119.834063 268.8275 119.834063 270.8275 
L 119.834063 328.54 
Q 119.834063 330.54 121.834063 330.54 
z
" style="fill: #ffffff; opacity: 0.8; stroke: #cccccc; stroke-linejoin: miter"/>
    </g>
    <g id="line2d_31">
     <path d="M 123.834063 276.925938 
L 133.834063 276.925938 
L 143.834063 276.925938 
" style="fill: none; stroke: #dc143c; stroke-width: 2; stroke-linecap: square"/>
    </g>
    <g id="text_15">
     <!-- Error relative to zeroed target -->
     <g transform="translate(151.834063 280.425938) scale(0.1 -0.1)">
      <defs>
       <path id="DejaVuSans-61" d="M 2194 1759 
Q 1497 1759 1228 1600 
Q 959 1441 959 1056 
Q 959 750 1161 570 
Q 1363 391 1709 391 
Q 2188 391 2477 730 
Q 2766 1069 2766 1631 
L 2766 1759 
L 2194 1759 
z
M 3341 1997 
L 3341 0 
L 2766 0 
L 2766 531 
Q 2569 213 2275 61 
Q 1981 -91 1556 -91 
Q 1019 -91 701 211 
Q 384 513 384 1019 
Q 384 1609 779 1909 
Q 1175 2209 1959 2209 
L 2766 2209 
L 2766 2266 
Q 2766 2663 2505 2880 
Q 2244 3097 1772 3097 
Q 1472 3097 1187 3025 
Q 903 2953 641 2809 
L 641 3341 
Q 956 3463 1253 3523 
Q 1550 3584 1831 3584 
Q 2591 3584 2966 3190 
Q 3341 2797 3341 1997 
z
" transform="scale(0.015625)"/>
       <path id="DejaVuSans-69" d="M 603 3500 
L 1178 3500 
L 1178 0 
L 603 0 
L 603 3500 
z
M 603 4863 
L 1178 4863 
L 1178 4134 
L 603 4134 
L 603 4863 
z
" transform="scale(0.015625)"/>
       <path id="DejaVuSans-76" d="M 191 3500 
L 800 3500 
L 1894 563 
L 2988 3500 
L 3597 3500 
L 2284 0 
L 1503 0 
L 191 3500 
z
" transform="scale(0.015625)"/>
       <path id="DejaVuSans-7a" d="M 353 3500 
L 3084 3500 
L 3084 2975 
L 922 459 
L 3084 459 
L 3084 0 
L 275 0 
L 275 525 
L 2438 3041 
L 353 3041 
L 353 3500 
z
" transform="scale(0.015625)"/>
       <path id="DejaVuSans-64" d="M 2906 2969 
L 2906 4863 
L 3481 4863 
L 3481 0 
L 2906 0 
L 2906 525 
Q 2725 213 2448 61 
Q 2172 -91 1784 -91 
Q 1150 -91 751 415 
Q 353 922 353 1747 
Q 353 2572 751 3078 
Q 1150 3584 1784 3584 
Q 2172 3584 2448 3432 
Q 2725 3281 2906 2969 
z
M 947 1747 
Q 947 1113 1208 752 
Q 1469 391 1925 391 
Q 2381 391 2643 752 
Q 2906 1113 2906 1747 
Q 2906 2381 2643 2742 
Q 2381 3103 1925 3103 
Q 1469 3103 1208 2742 
Q 947 2381 947 1747 
z
" transform="scale(0.015625)"/>
       <path id="DejaVuSans-67" d="M 2906 1791 
Q 2906 2416 2648 2759 
Q 2391 3103 1925 3103 
Q 1463 3103 1205 2759 
Q 947 2416 947 1791 
Q 947 1169 1205 825 
Q 1463 481 1925 481 
Q 2391 481 2648 825 
Q 2906 1169 2906 1791 
z
M 3481 434 
Q 3481 -459 3084 -895 
Q 2688 -1331 1869 -1331 
Q 1566 -1331 1297 -1286 
Q 1028 -1241 775 -1147 
L 775 -588 
Q 1028 -725 1275 -790 
Q 1522 -856 1778 -856 
Q 2344 -856 2625 -561 
Q 2906 -266 2906 331 
L 2906 616 
Q 2728 306 2450 153 
Q 2172 0 1784 0 
Q 1141 0 747 490 
Q 353 981 353 1791 
Q 353 2603 747 3093 
Q 1141 3584 1784 3584 
Q 2172 3584 2450 3431 
Q 2728 3278 2906 2969 
L 2906 3500 
L 3481 3500 
L 3481 434 
z
" transform="scale(0.015625)"/>
      </defs>
      <use xlink:href="#DejaVuSans-45"/>
      <use xlink:href="#DejaVuSans-72" transform="translate(63.183594 0)"/>
      <use xlink:href="#DejaVuSans-72" transform="translate(102.546875 0)"/>
      <use xlink:href="#DejaVuSans-6f" transform="translate(141.410156 0)"/>
      <use xlink:href="#DejaVuSans-72" transform="translate(202.591797 0)"/>
      <use xlink:href="#DejaVuSans-20" transform="translate(243.705078 0)"/>
      <use xlink:href="#DejaVuSans-72" transform="translate(275.492188 0)"/>
      <use xlink:href="#DejaVuSans-65" transform="translate(314.355469 0)"/>
      <use xlink:href="#DejaVuSans-6c" transform="translate(375.878906 0)"/>
      <use xlink:href="#DejaVuSans-61" transform="translate(403.662109 0)"/>
      <use xlink:href="#DejaVuSans-74" transform="translate(464.941406 0)"/>
      <use xlink:href="#DejaVuSans-69" transform="translate(504.150391 0)"/>
      <use xlink:href="#DejaVuSans-76" transform="translate(531.933594 0)"/>
      <use xlink:href="#DejaVuSans-65" transform="translate(591.113281 0)"/>
      <use xlink:href="#DejaVuSans-20" transform="translate(652.636719 0)"/>
      <use xlink:href="#DejaVuSans-74" transform="translate(684.423828 0)"/>
      <use xlink:href="#DejaVuSans-6f" transform="translate(723.632812 0)"/>
      <use xlink:href="#DejaVuSans-20" transform="translate(784.814453 0)"/>
      <use xlink:href="#DejaVuSans-7a" transform="translate(816.601562 0)"/>
      <use xlink:href="#DejaVuSans-65" transform="translate(869.091797 0)"/>
      <use xlink:href="#DejaVuSans-72" transform="translate(930.615234 0)"/>
      <use xlink:href="#DejaVuSans-6f" transform="translate(969.478516 0)"/>
      <use xlink:href="#DejaVuSans-65" transform="translate(1030.660156 0)"/>
      <use xlink:href="#DejaVuSans-64" transform="translate(1092.183594 0)"/>
      <use xlink:href="#DejaVuSans-20" transform="translate(1155.660156 0)"/>
      <use xlink:href="#DejaVuSans-74" transform="translate(1187.447266 0)"/>
      <use xlink:href="#DejaVuSans-61" transform="translate(1226.65625 0)"/>
      <use xlink:href="#DejaVuSans-72" transform="translate(1287.935547 0)"/>
      <use xlink:href="#DejaVuSans-67" transform="translate(1327.298828 0)"/>
      <use xlink:href="#DejaVuSans-65" transform="translate(1390.775391 0)"/>
      <use xlink:href="#DejaVuSans-74" transform="translate(1452.298828 0)"/>
     </g>
    </g>
    <g id="line2d_32">
     <path d="M 123.834063 291.604063 
L 133.834063 291.604063 
L 143.834063 291.604063 
" style="fill: none; stroke: #808080; stroke-width: 2; stroke-linecap: square"/>
    </g>
    <g id="text_16">
     <!-- Error relative to original latent -->
     <g transform="translate(151.834063 295.104063) scale(0.1 -0.1)">
      <defs>
       <path id="DejaVuSans-6e" d="M 3513 2113 
L 3513 0 
L 2938 0 
L 2938 2094 
Q 2938 2591 2744 2837 
Q 2550 3084 2163 3084 
Q 1697 3084 1428 2787 
Q 1159 2491 1159 1978 
L 1159 0 
L 581 0 
L 581 3500 
L 1159 3500 
L 1159 2956 
Q 1366 3272 1645 3428 
Q 1925 3584 2291 3584 
Q 2894 3584 3203 3211 
Q 3513 2838 3513 2113 
z
" transform="scale(0.015625)"/>
      </defs>
      <use xlink:href="#DejaVuSans-45"/>
      <use xlink:href="#DejaVuSans-72" transform="translate(63.183594 0)"/>
      <use xlink:href="#DejaVuSans-72" transform="translate(102.546875 0)"/>
      <use xlink:href="#DejaVuSans-6f" transform="translate(141.410156 0)"/>
      <use xlink:href="#DejaVuSans-72" transform="translate(202.591797 0)"/>
      <use xlink:href="#DejaVuSans-20" transform="translate(243.705078 0)"/>
      <use xlink:href="#DejaVuSans-72" transform="translate(275.492188 0)"/>
      <use xlink:href="#DejaVuSans-65" transform="translate(314.355469 0)"/>
      <use xlink:href="#DejaVuSans-6c" transform="translate(375.878906 0)"/>
      <use xlink:href="#DejaVuSans-61" transform="translate(403.662109 0)"/>
      <use xlink:href="#DejaVuSans-74" transform="translate(464.941406 0)"/>
      <use xlink:href="#DejaVuSans-69" transform="translate(504.150391 0)"/>
      <use xlink:href="#DejaVuSans-76" transform="translate(531.933594 0)"/>
      <use xlink:href="#DejaVuSans-65" transform="translate(591.113281 0)"/>
      <use xlink:href="#DejaVuSans-20" transform="translate(652.636719 0)"/>
      <use xlink:href="#DejaVuSans-74" transform="translate(684.423828 0)"/>
      <use xlink:href="#DejaVuSans-6f" transform="translate(723.632812 0)"/>
      <use xlink:href="#DejaVuSans-20" transform="translate(784.814453 0)"/>
      <use xlink:href="#DejaVuSans-6f" transform="translate(816.601562 0)"/>
      <use xlink:href="#DejaVuSans-72" transform="translate(877.783203 0)"/>
      <use xlink:href="#DejaVuSans-69" transform="translate(918.896484 0)"/>
      <use xlink:href="#DejaVuSans-67" transform="translate(946.679688 0)"/>
      <use xlink:href="#DejaVuSans-69" transform="translate(1010.15625 0)"/>
      <use xlink:href="#DejaVuSans-6e" transform="translate(1037.939453 0)"/>
      <use xlink:href="#DejaVuSans-61" transform="translate(1101.318359 0)"/>
      <use xlink:href="#DejaVuSans-6c" transform="translate(1162.597656 0)"/>
      <use xlink:href="#DejaVuSans-20" transform="translate(1190.380859 0)"/>
      <use xlink:href="#DejaVuSans-6c" transform="translate(1222.167969 0)"/>
      <use xlink:href="#DejaVuSans-61" transform="translate(1249.951172 0)"/>
      <use xlink:href="#DejaVuSans-74" transform="translate(1311.230469 0)"/>
      <use xlink:href="#DejaVuSans-65" transform="translate(1350.439453 0)"/>
      <use xlink:href="#DejaVuSans-6e" transform="translate(1411.962891 0)"/>
      <use xlink:href="#DejaVuSans-74" transform="translate(1475.341797 0)"/>
     </g>
    </g>
    <g id="line2d_33">
     <path d="M 123.834063 306.282188 
L 133.834063 306.282188 
L 143.834063 306.282188 
" style="fill: none; stroke: #808080; stroke-width: 2; stroke-linecap: square"/>
    </g>
    <g id="text_17">
     <!-- Error relative to same-participant latent -->
     <g transform="translate(151.834063 309.782188) scale(0.1 -0.1)">
      <defs>
       <path id="DejaVuSans-6d" d="M 3328 2828 
Q 3544 3216 3844 3400 
Q 4144 3584 4550 3584 
Q 5097 3584 5394 3201 
Q 5691 2819 5691 2113 
L 5691 0 
L 5113 0 
L 5113 2094 
Q 5113 2597 4934 2840 
Q 4756 3084 4391 3084 
Q 3944 3084 3684 2787 
Q 3425 2491 3425 1978 
L 3425 0 
L 2847 0 
L 2847 2094 
Q 2847 2600 2669 2842 
Q 2491 3084 2119 3084 
Q 1678 3084 1418 2786 
Q 1159 2488 1159 1978 
L 1159 0 
L 581 0 
L 581 3500 
L 1159 3500 
L 1159 2956 
Q 1356 3278 1631 3431 
Q 1906 3584 2284 3584 
Q 2666 3584 2933 3390 
Q 3200 3197 3328 2828 
z
" transform="scale(0.015625)"/>
       <path id="DejaVuSans-2d" d="M 313 2009 
L 1997 2009 
L 1997 1497 
L 313 1497 
L 313 2009 
z
" transform="scale(0.015625)"/>
       <path id="DejaVuSans-70" d="M 1159 525 
L 1159 -1331 
L 581 -1331 
L 581 3500 
L 1159 3500 
L 1159 2969 
Q 1341 3281 1617 3432 
Q 1894 3584 2278 3584 
Q 2916 3584 3314 3078 
Q 3713 2572 3713 1747 
Q 3713 922 3314 415 
Q 2916 -91 2278 -91 
Q 1894 -91 1617 61 
Q 1341 213 1159 525 
z
M 3116 1747 
Q 3116 2381 2855 2742 
Q 2594 3103 2138 3103 
Q 1681 3103 1420 2742 
Q 1159 2381 1159 1747 
Q 1159 1113 1420 752 
Q 1681 391 2138 391 
Q 2594 391 2855 752 
Q 3116 1113 3116 1747 
z
" transform="scale(0.015625)"/>
       <path id="DejaVuSans-63" d="M 3122 3366 
L 3122 2828 
Q 2878 2963 2633 3030 
Q 2388 3097 2138 3097 
Q 1578 3097 1268 2742 
Q 959 2388 959 1747 
Q 959 1106 1268 751 
Q 1578 397 2138 397 
Q 2388 397 2633 464 
Q 2878 531 3122 666 
L 3122 134 
Q 2881 22 2623 -34 
Q 2366 -91 2075 -91 
Q 1284 -91 818 406 
Q 353 903 353 1747 
Q 353 2603 823 3093 
Q 1294 3584 2113 3584 
Q 2378 3584 2631 3529 
Q 2884 3475 3122 3366 
z
" transform="scale(0.015625)"/>
      </defs>
      <use xlink:href="#DejaVuSans-45"/>
      <use xlink:href="#DejaVuSans-72" transform="translate(63.183594 0)"/>
      <use xlink:href="#DejaVuSans-72" transform="translate(102.546875 0)"/>
      <use xlink:href="#DejaVuSans-6f" transform="translate(141.410156 0)"/>
      <use xlink:href="#DejaVuSans-72" transform="translate(202.591797 0)"/>
      <use xlink:href="#DejaVuSans-20" transform="translate(243.705078 0)"/>
      <use xlink:href="#DejaVuSans-72" transform="translate(275.492188 0)"/>
      <use xlink:href="#DejaVuSans-65" transform="translate(314.355469 0)"/>
      <use xlink:href="#DejaVuSans-6c" transform="translate(375.878906 0)"/>
      <use xlink:href="#DejaVuSans-61" transform="translate(403.662109 0)"/>
      <use xlink:href="#DejaVuSans-74" transform="translate(464.941406 0)"/>
      <use xlink:href="#DejaVuSans-69" transform="translate(504.150391 0)"/>
      <use xlink:href="#DejaVuSans-76" transform="translate(531.933594 0)"/>
      <use xlink:href="#DejaVuSans-65" transform="translate(591.113281 0)"/>
      <use xlink:href="#DejaVuSans-20" transform="translate(652.636719 0)"/>
      <use xlink:href="#DejaVuSans-74" transform="translate(684.423828 0)"/>
      <use xlink:href="#DejaVuSans-6f" transform="translate(723.632812 0)"/>
      <use xlink:href="#DejaVuSans-20" transform="translate(784.814453 0)"/>
      <use xlink:href="#DejaVuSans-73" transform="translate(816.601562 0)"/>
      <use xlink:href="#DejaVuSans-61" transform="translate(868.701172 0)"/>
      <use xlink:href="#DejaVuSans-6d" transform="translate(929.980469 0)"/>
      <use xlink:href="#DejaVuSans-65" transform="translate(1027.392578 0)"/>
      <use xlink:href="#DejaVuSans-2d" transform="translate(1088.916016 0)"/>
      <use xlink:href="#DejaVuSans-70" transform="translate(1125 0)"/>
      <use xlink:href="#DejaVuSans-61" transform="translate(1188.476562 0)"/>
      <use xlink:href="#DejaVuSans-72" transform="translate(1249.755859 0)"/>
      <use xlink:href="#DejaVuSans-74" transform="translate(1290.869141 0)"/>
      <use xlink:href="#DejaVuSans-69" transform="translate(1330.078125 0)"/>
      <use xlink:href="#DejaVuSans-63" transform="translate(1357.861328 0)"/>
      <use xlink:href="#DejaVuSans-69" transform="translate(1412.841797 0)"/>
      <use xlink:href="#DejaVuSans-70" transform="translate(1440.625 0)"/>
      <use xlink:href="#DejaVuSans-61" transform="translate(1504.101562 0)"/>
      <use xlink:href="#DejaVuSans-6e" transform="translate(1565.380859 0)"/>
      <use xlink:href="#DejaVuSans-74" transform="translate(1628.759766 0)"/>
      <use xlink:href="#DejaVuSans-20" transform="translate(1667.96875 0)"/>
      <use xlink:href="#DejaVuSans-6c" transform="translate(1699.755859 0)"/>
      <use xlink:href="#DejaVuSans-61" transform="translate(1727.539062 0)"/>
      <use xlink:href="#DejaVuSans-74" transform="translate(1788.818359 0)"/>
      <use xlink:href="#DejaVuSans-65" transform="translate(1828.027344 0)"/>
      <use xlink:href="#DejaVuSans-6e" transform="translate(1889.550781 0)"/>
      <use xlink:href="#DejaVuSans-74" transform="translate(1952.929688 0)"/>
     </g>
    </g>
    <g id="line2d_34">
     <path d="M 123.834063 320.960313 
L 133.834063 320.960313 
L 143.834063 320.960313 
" style="fill: none; stroke-dasharray: 7.4,3.2; stroke-dashoffset: 0; stroke: #000000; stroke-width: 2"/>
    </g>
    <g id="text_18">
     <!-- Median error -->
     <g transform="translate(151.834063 324.460313) scale(0.1 -0.1)">
      <defs>
       <path id="DejaVuSans-4d" d="M 628 4666 
L 1569 4666 
L 2759 1491 
L 3956 4666 
L 4897 4666 
L 4897 0 
L 4281 0 
L 4281 4097 
L 3078 897 
L 2444 897 
L 1241 4097 
L 1241 0 
L 628 0 
L 628 4666 
z
" transform="scale(0.015625)"/>
      </defs>
      <use xlink:href="#DejaVuSans-4d"/>
      <use xlink:href="#DejaVuSans-65" transform="translate(86.279297 0)"/>
      <use xlink:href="#DejaVuSans-64" transform="translate(147.802734 0)"/>
      <use xlink:href="#DejaVuSans-69" transform="translate(211.279297 0)"/>
      <use xlink:href="#DejaVuSans-61" transform="translate(239.0625 0)"/>
      <use xlink:href="#DejaVuSans-6e" transform="translate(300.341797 0)"/>
      <use xlink:href="#DejaVuSans-20" transform="translate(363.720703 0)"/>
      <use xlink:href="#DejaVuSans-65" transform="translate(395.507812 0)"/>
      <use xlink:href="#DejaVuSans-72" transform="translate(457.03125 0)"/>
      <use xlink:href="#DejaVuSans-72" transform="translate(496.394531 0)"/>
      <use xlink:href="#DejaVuSans-6f" transform="translate(535.257812 0)"/>
      <use xlink:href="#DejaVuSans-72" transform="translate(596.439453 0)"/>
     </g>
    </g>
   </g>
  </g>
 </g>
 <defs>
  <clipPath id="p784f683690">
   <rect x="47.5" y="14.4" width="312.545" height="321.14"/>
  </clipPath>
 </defs>
</svg>
